<svg xmlns="http://www.w3.org/2000/svg" viewBox="0 0 1838 797.65"><defs><style>.cls-1,.cls-44,.cls-45,.cls-7{fill:#20a1db;}.cls-1{opacity:0.3;}.cls-2{fill:#ffbe9d;}.cls-3{fill:#eb996e;}.cls-4{fill:#263238;}.cls-16,.cls-5{fill:#212121;}.cls-6{fill:#455a64;}.cls-44,.cls-8{opacity:0.2;}.cls-9{fill:#ff725e;}.cls-10{fill:#e0e0e0;}.cls-11,.cls-31,.cls-39{fill:#f1eee9;}.cls-12{fill:#f39866;}.cls-13{fill:#ebebeb;}.cls-14{fill:#fafafa;}.cls-15{fill:#f5f5f5;}.cls-16,.cls-31,.cls-39,.cls-46,.cls-47{isolation:isolate;}.cls-16{font-size:61px;}.cls-16,.cls-31,.cls-39,.cls-47{font-family:Montserrat-Regular, Montserrat;}.cls-17{letter-spacing:-0.01em;}.cls-18{letter-spacing:-0.02em;}.cls-19{letter-spacing:0.02em;}.cls-20{letter-spacing:0em;}.cls-21{letter-spacing:-0.01em;}.cls-22{letter-spacing:0em;}.cls-23{letter-spacing:0em;}.cls-24{letter-spacing:0em;}.cls-25{letter-spacing:0em;}.cls-26{letter-spacing:-0.02em;}.cls-27{letter-spacing:-0.01em;}.cls-28{letter-spacing:-0.01em;}.cls-29{letter-spacing:-0.01em;}.cls-30{letter-spacing:-0.01em;}.cls-31{font-size:30px;}.cls-32{letter-spacing:-0.01em;}.cls-33{letter-spacing:0em;}.cls-34{letter-spacing:0em;}.cls-35{letter-spacing:-0.02em;}.cls-36{letter-spacing:-0.01em;}.cls-37{letter-spacing:0em;}.cls-38{letter-spacing:0em;}.cls-39{font-size:60px;}.cls-40{letter-spacing:0em;}.cls-41{letter-spacing:-0.02em;}.cls-42{letter-spacing:-0.02em;}.cls-43{letter-spacing:0em;}.cls-44,.cls-45{fill-rule:evenodd;}.cls-45{opacity:0.15;}.cls-47{font-size:45.29px;}.cls-48{letter-spacing:-0.01em;}.cls-49{letter-spacing:0em;}.cls-50{letter-spacing:0em;}.cls-51{letter-spacing:-0.02em;}.cls-52{letter-spacing:-0.02em;}</style></defs><title>accueil</title><g id="Calque_2" data-name="Calque 2"><g id="Calque_1-2" data-name="Calque 1"><path class="cls-1" d="M1432.45,159.67c14.68,54.3-10.13,116.93-54.86,138.52-55.29,26.69-127.34-5.37-177.33,32-37.09,27.73-51.58,87.41-93.23,105.53-29.86,13-64.24,0-94.06-15.89s-60-35.35-92.44-35.57c-48.3-.33-86.82,41.46-132.54,57.09-56.11,19.19-123.27-6-160.57-60.23S585.24,247.36,615.76,191c20-36.92,52.38-62.6,85.9-83.29,26.07-16.09,55.62-30.1,85.44-23.23,40.25,9.27,69,53.56,108.39,67.47,38.78,13.7,79.9-5,111.31-32s56.87-62.06,89-88,74.65-42,112.44-24.78c42.54,19.43,66.29,65.3,114.22,65.61C1370.11,73.08,1417.59,104.65,1432.45,159.67Z"/><path class="cls-2" d="M141.57,200.65l.83,71.52c.14,12.17-2,30.07-19.94,29.43h0c-15.56-1.82-19.68-17.58-19.8-28.93-.06-5.39-.12-9.88-.16-10.43,0,0-17-1.49-18.46-19.49-.7-8.7-.76-26.75-.65-43.08.13-17.53,12.83-32,29.16-33.29l1.62-.13C131.76,166,141.8,181.82,141.57,200.65Z"/><path class="cls-3" d="M102.5,262.24s10.66-.16,21.44-8.65c0,0-4.45,13.58-21.35,13.27Z"/><path class="cls-4" d="M112.14,207.05c.34.37,2.28-1.31,5.1-1.39s4.92,1.4,5.21,1c.15-.17-.2-.84-1.12-1.53a6.78,6.78,0,0,0-4.19-1.27,6.53,6.53,0,0,0-4,1.58C112.25,206.2,112,206.89,112.14,207.05Z"/><path class="cls-4" d="M115,213.25a2.36,2.36,0,0,0,2.36,2.29,2.27,2.27,0,0,0,2.2-2.38,2.36,2.36,0,0,0-2.36-2.29A2.28,2.28,0,0,0,115,213.25Z"/><path class="cls-4" d="M105.08,228c0-.16-1.62-.33-4.25-.49-.67,0-1.3-.11-1.45-.58a3.88,3.88,0,0,1,.3-2.13c.51-1.76,1-3.61,1.59-5.54,2.19-7.88,3.72-14.34,3.42-14.43s-2.31,6.22-4.5,14.1q-.78,2.91-1.5,5.56a4.43,4.43,0,0,0-.15,2.81,1.64,1.64,0,0,0,1.15.94,3.88,3.88,0,0,0,1.14.08C103.46,228.31,105.09,228.2,105.08,228Z"/><path class="cls-4" d="M113.34,195.71c.27.67,2.53.17,5.23.31s4.92.79,5.23.15c.14-.31-.28-.93-1.2-1.52a8,8,0,0,0-3.95-1.19,7.93,7.93,0,0,0-4,.84C113.68,194.81,113.22,195.39,113.34,195.71Z"/><path class="cls-4" d="M86.58,201.3c.3.55,2.5-.06,5.16-.15s4.88.28,5.16-.29c.12-.27-.32-.76-1.25-1.19a8.61,8.61,0,0,0-3.94-.7,9.08,9.08,0,0,0-3.91,1C86.88,200.51,86.45,201,86.58,201.3Z"/><path class="cls-2" d="M141.1,214.1c.28-.16,11.32-4.57,11.79,7.78s-11.2,10.31-11.24,10S141.1,214.1,141.1,214.1Z"/><path class="cls-3" d="M145,227c.05,0,.21.15.55.3a1.9,1.9,0,0,0,1.5,0c1.2-.54,2.15-2.65,2.12-4.88a7.4,7.4,0,0,0-.68-3.06c-.39-.88-1-1.49-1.57-1.58a1,1,0,0,0-1.17.64c-.14.35-.05.59-.12.62s-.25-.2-.18-.71a1.39,1.39,0,0,1,.43-.79,1.42,1.42,0,0,1,1.1-.37,2.88,2.88,0,0,1,2.17,1.82,7.88,7.88,0,0,1,.83,3.42c0,2.49-1.08,4.87-2.73,5.46a2,2,0,0,1-1.85-.25C145,227.3,145,227,145,227Z"/><path class="cls-4" d="M107.81,236.59c-.13-.31,2.13-1,3.72-3.31a14.21,14.21,0,0,0,1.59-3.22c.34-.9.6-1.46.72-1.42s.09.64-.1,1.62a9.4,9.4,0,0,1-1.48,3.61,7,7,0,0,1-3,2.42C108.43,236.67,107.84,236.69,107.81,236.59Z"/><path class="cls-5" d="M156.44,194.1c-2.4-4.35-3-9.55-4.28-14.41s-3.84-9.89-8.29-11.59l-.1.05c-4-1.72-8.92-1.75-12.2,1.22-.82-6.42-6.07-11.5-11.92-13.14s-15.24-.67-20.85,1.75c-4.34,1.87-8.53,5.7-13.63,11.33a59.08,59.08,0,0,0-5.88,7.63L74.2,193.77l4.36,8.82c.26.6.53,1.2.85,1.79v0l3.93,18.59c.25-5.07-.1-22.7.15-27.77a25.73,25.73,0,0,0,18.82-9.31c2.58-3.07,4.62-6.91,8.08-8.74,4.45-2.36,9.77-.64,14.47,1.1l-.2-.19a21,21,0,0,1,6.51,5A75.06,75.06,0,0,0,134,212.8c.44,1.44,1.64,4.4,3,4.95,2.59,1.07,3.29-1.75,4.85-3.25,1.14-1.11,2.85-1.25,4.71-1.25a116.53,116.53,0,0,0,3.16-12.81,9.83,9.83,0,0,0,4.84.34c-.49-1.27-1-2.54-1.49-3.81a5.49,5.49,0,0,0,2.08,1,1.82,1.82,0,0,0,2-.92C157.54,196.11,156.94,195,156.44,194.1Z"/><path class="cls-6" d="M126.27,171.44a13,13,0,0,1,1.69,1.65,13.3,13.3,0,0,1,2.58,6,23.93,23.93,0,0,1,.43,4.58c0,1.66-.12,3.43-.23,5.31a49.6,49.6,0,0,0-.13,5.9A22.51,22.51,0,0,0,131,198a6.66,6.66,0,0,0,1.19,3,2.41,2.41,0,0,0,2.37.85,3.66,3.66,0,0,0,2.14-1.29,9.78,9.78,0,0,0,1.62-4.58L138,196A15.34,15.34,0,0,0,140,199.8a4.94,4.94,0,0,0,3.27,1.91,3,3,0,0,0,1.74-.33,2.88,2.88,0,0,0,1.18-1.24,3.21,3.21,0,0,0,.35-1.59,2.33,2.33,0,0,0-.54-1.41l-.18.17a10.86,10.86,0,0,0,3.62,2.91,10.38,10.38,0,0,0,1.12.46,1.57,1.57,0,0,0,.4.11,2.24,2.24,0,0,0-.38-.17c-.25-.11-.62-.27-1.09-.53a11.29,11.29,0,0,1-3.48-2.94l-.18.17a2.45,2.45,0,0,1,.11,2.68,2.7,2.7,0,0,1-1.07,1.1,2.76,2.76,0,0,1-1.57.27,4.67,4.67,0,0,1-3-1.81,15.64,15.64,0,0,1-2-3.7l-.24-.57-.11.62a9.52,9.52,0,0,1-1.54,4.38,3.4,3.4,0,0,1-1.91,1.15,2.07,2.07,0,0,1-2-.72,6.51,6.51,0,0,1-1.1-2.83,22.89,22.89,0,0,1-.38-3,51.38,51.38,0,0,1,.11-5.86c.11-1.87.22-3.66.2-5.34a24.27,24.27,0,0,0-.49-4.63,13,13,0,0,0-2.74-6A6.8,6.8,0,0,0,126.27,171.44Z"/><path class="cls-6" d="M74.23,189l.14.13.42.32a5.36,5.36,0,0,0,.71.49,7.89,7.89,0,0,0,1,.58,14,14,0,0,0,7.2,1.39,18.35,18.35,0,0,0,10.15-4,34.69,34.69,0,0,0,8.72-10.76c1.22-2.18,2.22-4.42,3.32-6.48a23.84,23.84,0,0,1,3.76-5.49,11.45,11.45,0,0,1,4.85-3.15,7.79,7.79,0,0,1,2.55-.31,8.76,8.76,0,0,1,2.34.48,9.68,9.68,0,0,1,3.51,2.26,10.29,10.29,0,0,1,1.9,2.64,13.49,13.49,0,0,1,.87,2.7,1.29,1.29,0,0,0,0-.19c0-.15-.05-.33-.08-.55a9.15,9.15,0,0,0-.64-2,10.08,10.08,0,0,0-1.88-2.73,9.66,9.66,0,0,0-3.57-2.37,8.83,8.83,0,0,0-2.41-.53,7.91,7.91,0,0,0-2.66.31,11.53,11.53,0,0,0-5,3.21,23.46,23.46,0,0,0-3.84,5.55c-1.12,2.08-2.12,4.31-3.33,6.47a34.69,34.69,0,0,1-8.59,10.67,18.19,18.19,0,0,1-10,4,14.28,14.28,0,0,1-7.12-1.24A23.63,23.63,0,0,1,74.23,189Z"/><path class="cls-4" d="M86.46,208.19c.33.36,2.27-1.31,5.09-1.39s4.92,1.4,5.22,1c.14-.17-.2-.84-1.12-1.53A6.7,6.7,0,0,0,91.46,205a6.5,6.5,0,0,0-4,1.57C86.57,207.34,86.29,208,86.46,208.19Z"/><path class="cls-4" d="M90.33,213.25a2.34,2.34,0,0,0,2.36,2.29,2.27,2.27,0,0,0,2.19-2.38,2.35,2.35,0,0,0-2.36-2.29A2.27,2.27,0,0,0,90.33,213.25Z"/><path class="cls-4" d="M80.7,174.87c-1.41,2-3.59,3.92-6,3.68a16.46,16.46,0,0,1-2.52-.76c-.82.55-.59,3.57,0,4.39A14.88,14.88,0,0,0,74,184.12c-2.75,1.62-5.28.87-8.24-.24a15.39,15.39,0,0,0,8.73,12.3c1.5.65,3.31,1,4.65,0,1.18-.84,1.65-2.43,2-3.9A72.84,72.84,0,0,0,83,175.72Z"/><path class="cls-5" d="M94.58,276.11l7.84-4.43s8.24,13.08,20.47,11.79,20-12.88,20-12.88l7.82,4.22L124.05,321.7Z"/><path class="cls-7" d="M182.3,412.52l-9-66.12,6.62-62.08-30.8-11.53-25.19,44L95.06,274.17l-17.07,8c-14.89,7-28.34,22.09-31.41,39.18,0,.22-.09.45-.12.68-4,22.88.42,55.51.42,55.51l29.2-13.84-2.36-11,5.6,25.19S55.46,471,58.85,501.49c0,0,45,10.75,86.51,3.44s52.72-9.33,52.72-9.33Z"/><path class="cls-7" d="M179.89,284.32s17.92,16.62,19.9,39.83S205.43,368,205.43,368l-36.11,4.13s-.85-15.9,0-16.85,6.77-48.63,6.77-48.63Z"/><g class="cls-8"><path d="M71.75,410.51l-1.29,6.4,21.88,8.36c7.79,3,15.64,6,23.8,7.46,15,2.75,30.29.38,45.32-2,8.39-1.33,17.81-3.34,22.43-11A383.34,383.34,0,0,1,71.75,410.51Z"/></g><path class="cls-5" d="M49.55,376.26c.28.32,10,30.54,15.66,35.94s38.37,3.5,52.2-1.91,43.18-12,43.18-12l-4.49-24.39s-10.74,1.14-24.87,3.61c-5.11.89-51.91.32-51.91.32l-3.24-14.16Z"/><path class="cls-5" d="M203.5,368.24c-.08,0-.89,39.83-4.84,44.91s-17.76,11.13-28.21,12.4-73.92-1.82-83.23-10.13L123.9,388l37.38,9.89,10.47-4.83.95-21.34Z"/><path class="cls-4" d="M170,431.35a4.38,4.38,0,0,1-.5.67c-.38.47-.89,1.08-1.51,1.85s-1.48,1.77-2.48,2.84-2.1,2.35-3.42,3.63-2.72,2.74-4.34,4.18-3.34,3-5.2,4.52a125.14,125.14,0,0,1-12.77,9.1A124.94,124.94,0,0,1,126,465.39c-2.2.91-4.27,1.83-6.27,2.51-1,.36-2,.73-2.88,1l-2.69.84c-1.7.57-3.28.94-4.65,1.3s-2.57.64-3.55.83l-2.26.45a4.29,4.29,0,0,1-.79.11,4.09,4.09,0,0,1,.77-.24l2.23-.55c1-.23,2.16-.52,3.52-.93s2.93-.8,4.62-1.39l2.66-.88c.92-.32,1.87-.7,2.86-1.06,2-.71,4-1.64,6.22-2.56a129.65,129.65,0,0,0,13.69-7.26,129.48,129.48,0,0,0,12.74-9c1.86-1.54,3.63-3,5.21-4.45s3.06-2.83,4.37-4.11,2.45-2.5,3.47-3.55,1.86-2,2.54-2.77l1.59-1.76A4.21,4.21,0,0,1,170,431.35Z"/><path class="cls-4" d="M158,276.11a2.41,2.41,0,0,1-.14.33l-.46.93-1.81,3.56L148.81,294l-22.55,43.15-.22.42-.27-.39-.87-1.27-27.8-40.8L88.72,282.7l-2.25-3.39c-.24-.37-.43-.66-.57-.89a1.54,1.54,0,0,1-.18-.31,1.65,1.65,0,0,1,.22.27l.62.86,2.34,3.32,8.53,12.29,27.94,40.69.87,1.27-.49,0c8.89-16.85,16.89-32,22.71-43.06,2.9-5.46,5.26-9.88,6.91-13l1.9-3.51.51-.9A1.46,1.46,0,0,1,158,276.11Z"/><path class="cls-4" d="M136.44,375.08a3.52,3.52,0,0,1-.06-.74c0-.55,0-1.25,0-2.12,0-1.92-.06-4.56-.1-7.79s0-7.23-.06-11.56c0-2.18,0-4.47,0-6.83v-5.72a.86.86,0,0,1,.13-.38.72.72,0,0,1,.6-.28l.89-.05c9.4-.18,17.89,0,24,.12l7.27.18,2,.09a2.62,2.62,0,0,1,.69.07,2.88,2.88,0,0,1-.69.05l-2,0-7.28,0c-6.14,0-14.65-.12-24,.06l-.86,0c-.2,0-.14,0-.18,0a.08.08,0,0,0,0,.05v2.06c0,1.22,0,2.42,0,3.61,0,2.36,0,4.65,0,6.83,0,4.33,0,8.24-.06,11.56s-.07,5.87-.09,7.79l-.05,2.12A3.52,3.52,0,0,1,136.44,375.08Z"/><path class="cls-4" d="M172.7,371.76a1.53,1.53,0,0,1,0,.37c0,.29,0,.65,0,1.09,0,1-.07,2.41-.12,4.18-.14,3.67-.34,8.88-.58,15.26v.15l-.14.06c-4.23,1.78-9.13,3.78-14.53,5.83s-11.37,3.95-17.63,5.76c-14.28,4.09-27.48,6.52-37,8.27l-11.31,2-3.07.53-.8.12a.75.75,0,0,1-.28,0,.91.91,0,0,1,.27-.08l.79-.18,3.06-.65,11.26-2.21c9.52-1.86,22.69-4.36,36.94-8.43,6.25-1.82,12.2-3.68,17.6-5.72s10.31-4,14.55-5.72l-.14.21c.32-6.38.59-11.58.78-15.25.1-1.77.18-3.17.24-4.17,0-.45.06-.81.08-1.09A2.55,2.55,0,0,1,172.7,371.76Z"/><path class="cls-2" d="M156.52,375.9a87.72,87.72,0,0,1,10.64-.82,29,29,0,0,1,5.36.82l-.77,17.2-11.27,4.83Z"/><path class="cls-4" d="M64.7,312.86a15.57,15.57,0,0,1,.53,2c.32,1.42.74,3.31,1.25,5.6,1.06,4.82,2.48,11.31,4,18.49s3.08,13.74,4.18,18.46c.54,2.28,1,4.16,1.32,5.58a13.62,13.62,0,0,1,.42,2.07,15.55,15.55,0,0,1-.64-2c-.38-1.29-.88-3.19-1.49-5.53-1.21-4.69-2.76-11.2-4.35-18.43s-3-13.78-3.89-18.54c-.44-2.3-.8-4.21-1.07-5.64A14,14,0,0,1,64.7,312.86Z"/><path class="cls-4" d="M171.91,348.84a6.07,6.07,0,0,1-1.39.16c-.9.06-2.2.13-3.81.19-3.22.13-7.67.23-12.58.22s-9.37-.11-12.59-.25c-1.61-.07-2.91-.14-3.81-.2a5.66,5.66,0,0,1-1.39-.17,6,6,0,0,1,1.4-.07h3.81l12.58.07,12.57,0h3.81A6.23,6.23,0,0,1,171.91,348.84Z"/><path class="cls-4" d="M106.74,378a4.36,4.36,0,0,1-.69-1l-1.73-2.82c-1.46-2.39-3.52-5.65-5.93-9.14s-4.71-6.57-6.4-8.77c-.78-1-1.45-1.88-2-2.6a4.87,4.87,0,0,1-.69-1,5.12,5.12,0,0,1,.86.84c.52.57,1.26,1.42,2.15,2.48,1.78,2.14,4.14,5.18,6.56,8.69s4.43,6.82,5.8,9.27c.69,1.23,1.23,2.23,1.58,2.94A5.59,5.59,0,0,1,106.74,378Z"/><path class="cls-4" d="M113.13,378.35c-.12.1-1.61-2-2.75-4.91a15.52,15.52,0,0,1-1.34-5.55c.16,0,.74,2.43,1.87,5.31S113.27,378.25,113.13,378.35Z"/><path class="cls-4" d="M131,327.45a2.37,2.37,0,0,1-.41-.51l-1.1-1.52-3.92-5.65c-3.32-4.87-7.82-11.48-12.78-18.78L100.16,282.1l-3.78-5.77-1-1.58a2.47,2.47,0,0,1-.32-.58,3,3,0,0,1,.41.5l1.09,1.52,3.93,5.65,12.78,18.78,12.65,18.9,3.78,5.76,1,1.59A2.26,2.26,0,0,1,131,327.45Z"/><path class="cls-4" d="M146.32,272.79a3.93,3.93,0,0,1-.19.63,17,17,0,0,1-.66,1.74,23.12,23.12,0,0,1-3.62,5.74,25.52,25.52,0,0,1-7.72,6.08,27.52,27.52,0,0,1-11.4,3,24.34,24.34,0,0,1-11.5-2.48,26.81,26.81,0,0,1-7.92-5.79,26.39,26.39,0,0,1-4-5.45,15.66,15.66,0,0,1-.81-1.67,2.22,2.22,0,0,1-.24-.6,34,34,0,0,0,5.32,7.41,27,27,0,0,0,7.85,5.58,24.33,24.33,0,0,0,11.26,2.38,29.34,29.34,0,0,0,5.94-.89,29.85,29.85,0,0,0,5.26-2,25.66,25.66,0,0,0,7.65-5.86,24.63,24.63,0,0,0,3.72-5.55C146,273.61,146.26,272.77,146.32,272.79Z"/><g class="cls-8"><path d="M87.22,415.42c29.68,2.65,60.94,3.36,85.5-23-25.83,11.35-57.89,18.57-85.5,23"/></g><g class="cls-8"><path d="M172.63,375.85c-4-4-4.63-10.49-4.5-16.35.2-9.82,2.43-20.75,5-30.18-.53,16.75-1.69,31.49-.66,46.59"/></g><path class="cls-4" d="M79.32,377.87c0,.08-.54.49-1.43,1.19a13.24,13.24,0,0,0-3,3.24,32.49,32.49,0,0,0-2,4.08,6.07,6.07,0,0,1-.88,1.7,6.61,6.61,0,0,1,.5-1.87,20.49,20.49,0,0,1,1.9-4.25,10.84,10.84,0,0,1,3.2-3.27A4.48,4.48,0,0,1,79.32,377.87Z"/><polygon class="cls-9" points="193.48 490.93 196.23 509.74 61.19 509.74 62.78 495.6 193.48 490.93"/><path class="cls-4" d="M197.39,495.38l-.35.13-1,.31L192.09,497c-1.71.51-3.81,1.09-6.27,1.68s-5.24,1.35-8.35,2l-4.88,1.05c-1.69.36-3.47.66-5.31,1-3.67.72-7.61,1.29-11.76,1.92-8.32,1.14-17.5,2.08-27.17,2.56s-18.89.33-27.27,0c-4.18-.25-8.16-.44-11.88-.83-1.85-.18-3.65-.3-5.37-.51l-4.94-.59c-3.16-.35-6-.84-8.48-1.21s-4.64-.75-6.38-1.09l-4-.77-1-.22c-.23-.05-.35-.08-.35-.1l.36,0L60,502l4,.66c1.74.31,3.88.66,6.38,1s5.33.8,8.48,1.11l4.94.56c1.72.19,3.52.3,5.37.47,3.71.36,7.68.54,11.86.77,8.37.33,17.58.4,27.23,0s18.81-1.4,27.12-2.5c4.14-.62,8.09-1.17,11.75-1.87,1.84-.34,3.61-.62,5.31-1l4.88-1c3.11-.61,5.9-1.33,8.36-1.9s4.56-1.11,6.28-1.57l4-1,1-.25A1.32,1.32,0,0,1,197.39,495.38Z"/><path class="cls-4" d="M176.39,303a3.42,3.42,0,0,1-.06.74l-.27,2.1c-.26,1.81-.61,4.44-1,7.7-.81,6.51-1.75,15.53-2.32,25.53s-.63,19.09-.55,25.66c0,3.28.1,5.94.15,7.77,0,.87,0,1.57,0,2.12a3.48,3.48,0,0,1,0,.74,3.54,3.54,0,0,1-.09-.73c0-.55-.09-1.25-.15-2.11-.12-1.84-.23-4.5-.33-7.78-.18-6.58-.17-15.68.39-25.7s1.57-19.06,2.49-25.56c.46-3.25.87-5.88,1.2-7.68.15-.85.28-1.54.38-2.08A3.3,3.3,0,0,1,176.39,303Z"/><path class="cls-10" d="M352.78,147.38a7.68,7.68,0,0,0-8.06-4.38,10.15,10.15,0,0,0-13.18.06,9.14,9.14,0,0,0-9.37-.34,10.47,10.47,0,0,0-5.09,8.44,8,8,0,0,0-8.37,4.36,9.27,9.27,0,0,0,1.23,9.88c-3.57,1.18-6,5.5-5.23,9.43s4.51,6.92,8.23,6.52l38.29-24.43A8.8,8.8,0,0,0,352.78,147.38Z"/><path class="cls-2" d="M311.82,182.48c1.6-18,15.85-31.67,32.74-31.41l1.68,0c18.08,1.41,27.06,18.64,25.24,38L368,253.55l-.2,3.13L325.9,265l.28-16.45s-17.36-3.17-17.32-21.8C308.88,217.76,310.33,199.23,311.82,182.48Z"/><path class="cls-3" d="M326,248.52s11.1.89,22.89-6.79c0,0-5.54,13.32-22.88,11.38Z"/><path class="cls-4" d="M318.66,199.73a2.59,2.59,0,0,0,2.35,2.72,2.44,2.44,0,0,0,2.6-2.36,2.6,2.6,0,0,0-2.36-2.72A2.43,2.43,0,0,0,318.66,199.73Z"/><path class="cls-4" d="M315.43,191.65c.31.36,2.21-1.11,4.88-1.06s4.62,1.51,4.91,1.17c.14-.16-.16-.79-1-1.47a6.55,6.55,0,0,0-3.92-1.36,6.32,6.32,0,0,0-3.89,1.28C315.57,190.87,315.28,191.5,315.43,191.65Z"/><path class="cls-4" d="M343.52,200.42a2.59,2.59,0,0,0,2.35,2.72,2.44,2.44,0,0,0,2.6-2.36,2.6,2.6,0,0,0-2.36-2.72A2.43,2.43,0,0,0,343.52,200.42Z"/><path class="cls-4" d="M341.7,192.6c.31.35,2.21-1.11,4.88-1.06s4.61,1.51,4.91,1.16c.14-.15-.16-.78-1-1.46a6.42,6.42,0,0,0-3.92-1.36,6.26,6.26,0,0,0-3.89,1.27C341.84,191.82,341.55,192.44,341.7,192.6Z"/><path class="cls-4" d="M331.71,213.67c0-.16-1.64-.49-4.33-.9-.68-.09-1.32-.24-1.43-.74a4,4,0,0,1,.48-2.16l2.1-5.54c2.91-7.88,5-14.36,4.73-14.49s-2.9,6.17-5.81,14l-2,5.57a4.44,4.44,0,0,0-.39,2.86,1.74,1.74,0,0,0,1.11,1.09,4.36,4.36,0,0,0,1.15.19C330,213.8,331.7,213.84,331.71,213.67Z"/><path class="cls-4" d="M339.55,215.78c-.43,0-.48,3.07-3,5.24s-5.6,1.77-5.63,2.21c0,.19.68.61,2,.67a6.87,6.87,0,0,0,7-6.07C340.07,216.54,339.75,215.76,339.55,215.78Z"/><path class="cls-10" d="M341.17,181.37c.25.78,2.92.45,6.05.91s5.66,1.41,6.08.71c.19-.33-.24-1.07-1.25-1.83a9.8,9.8,0,0,0-4.49-1.77,9.54,9.54,0,0,0-4.76.53C341.64,180.4,341.06,181,341.17,181.37Z"/><path class="cls-10" d="M316.53,183.39c.46.65,2.31,0,4.53,0s4.08.5,4.52-.17c.19-.33-.09-1-.9-1.61a6.19,6.19,0,0,0-7.3.12C316.59,182.4,316.33,183.07,316.53,183.39Z"/><path class="cls-10" d="M313.61,174s4.74-11.6,10-14.24c6.41-3.19,9,4.32,15.13,2.6s12.2-4.78,18.32.33c6.71,5.6,3.48,9.4,3.79,17.67,1.24,33.53,6.82,43.1,8.66,27.34.21-1.73,4.71-3,5.47-10.33,1-9.46,1.49-21-.4-27.71-1.58-5.69-4.55-9.65-9.9-14-8.45-7-20.18-7.28-28.16-6.54S313.08,159.35,313.61,174Z"/><path class="cls-2" d="M368.44,207.15a4.85,4.85,0,0,1,5.17-4.8c3.24.38,6.82,2.41,6.51,9.59-.55,12.73-12.37,9.51-12.38,9.14S368.17,212.47,368.44,207.15Z"/><path class="cls-3" d="M370.54,216.42s.2.17.54.35a1.93,1.93,0,0,0,1.54.12c1.28-.44,2.43-2.52,2.59-4.81a7.85,7.85,0,0,0-.44-3.2,2.52,2.52,0,0,0-1.49-1.78,1,1,0,0,0-1.24.55c-.18.34-.12.6-.18.62s-.24-.23-.13-.75a1.43,1.43,0,0,1,.51-.77,1.47,1.47,0,0,1,1.16-.27,3,3,0,0,1,2.07,2.08,8,8,0,0,1,.57,3.59c-.19,2.56-1.52,4.9-3.26,5.34a2.1,2.1,0,0,1-1.88-.43C370.54,216.73,370.49,216.44,370.54,216.42Z"/><path class="cls-10" d="M368.55,182.47c-1.56,1.1-3.21,2.24-5.08,2.41a3.89,3.89,0,0,1-4.26-3c-.13-.89.09-1.91-.45-2.6s-1.84-.59-2.84-.5a7.66,7.66,0,0,1-7.8-5.95c-.9,1.4-2.95,1.31-4.28.37s-2.16-2.47-3.18-3.76-2.48-2.47-4.06-2.25c-.88.12-1.71.67-2.59.57-1.56-.18-2.3-2.15-2.51-3.81s-.37-3.6-1.68-4.52-2.81-.4-4.25-.2-3.29-.18-3.64-1.69a3.21,3.21,0,0,1,.56-2.31,7.44,7.44,0,0,1,9.14-3,10.89,10.89,0,0,1,9-7.8,10.56,10.56,0,0,1,10.19,5.94,10.24,10.24,0,0,1,9.51-2.51,11,11,0,0,1,7.37,6.91,7.59,7.59,0,0,1,8,3,8.9,8.9,0,0,1,.51,9,7.86,7.86,0,0,1,3.93,6.28c0,2.64-2.42,5.23-4.79,4.5a4.91,4.91,0,0,1-1.76,6,4.25,4.25,0,0,1-5.66-1.53"/><path class="cls-11" d="M376.22,177.65a3.2,3.2,0,0,1-.77,2.44,3.78,3.78,0,0,1-2.41,1.48,3.91,3.91,0,0,1-3.37-1.1l.5-.08a12.19,12.19,0,0,1-2.42,3.14,6.48,6.48,0,0,1-2.18,1.41,4.35,4.35,0,0,1-2.4.2,4.64,4.64,0,0,1-3.4-2.16,7.76,7.76,0,0,1-.93-2.66,2.79,2.79,0,0,1-.08-1c.05,0,.15.34.34,1a8.57,8.57,0,0,0,1.07,2.44,4.64,4.64,0,0,0,7.14.29,12.67,12.67,0,0,0,2.3-2.95l.22-.37.29.3a3.42,3.42,0,0,0,2.85,1,3.39,3.39,0,0,0,2.17-1.18A6.19,6.19,0,0,0,376.22,177.65Z"/><path class="cls-11" d="M354.15,148.22s-.32.08-.85.32a4.14,4.14,0,0,0-1.87,1.65l-.15.24-.16-.24a15.12,15.12,0,0,0-5.68-5.07,11,11,0,0,0-4.67-1.18,9.15,9.15,0,0,0-5,1.47,9.86,9.86,0,0,0-3,3,8.76,8.76,0,0,0-1.36,3.82l-.05.4-.36-.11a6.29,6.29,0,0,0-5,.57,6.82,6.82,0,0,0-2.74,3.06,10.17,10.17,0,0,0-.8,3.76,3,3,0,0,1-.13-1,7.42,7.42,0,0,1,.58-2.89,7,7,0,0,1,2.84-3.39,6.73,6.73,0,0,1,5.38-.72l-.4.29a9.58,9.58,0,0,1,1.43-4.15,10.55,10.55,0,0,1,3.25-3.23,9.68,9.68,0,0,1,5.41-1.54,11.26,11.26,0,0,1,4.92,1.31,14.81,14.81,0,0,1,5.73,5.43h-.31a4,4,0,0,1,2.11-1.63A1.68,1.68,0,0,1,354.15,148.22Z"/><path class="cls-3" d="M343.62,217.69c-.19,0-.25-1.34-1.25-2.47s-2.2-1.33-2.19-1.54.34-.19.88-.08a3.35,3.35,0,0,1,1.82,1.13,3.77,3.77,0,0,1,.89,2C343.83,217.35,343.7,217.7,343.62,217.69Z"/><path class="cls-3" d="M344.72,214.19c-.17.11-.59-.34-1.22-.65s-1.21-.41-1.24-.62.71-.47,1.54,0S344.89,214.11,344.72,214.19Z"/><path class="cls-3" d="M358.52,244.21c0-.06.17-.1.32-.33a1.18,1.18,0,0,0,0-1.13c-.18-.48-.72-.91-1.07-1.74a1.77,1.77,0,0,1,0-1.49,9.64,9.64,0,0,1,.78-1.07c.92-1.26-1.76-2.16-1.4-3.78a2,2,0,0,1,.65-1.35c.28-.22.47-.24.49-.2a2.63,2.63,0,0,0-.66,1.58,2,2,0,0,0,.87,1.51,3.23,3.23,0,0,1,.79,1.06,1.66,1.66,0,0,1-.18,1.6c-.29.42-.6.7-.75,1a1,1,0,0,0,0,.89c.22.62.75,1.15.94,1.8a1.41,1.41,0,0,1-.3,1.51C358.74,244.33,358.51,244.24,358.52,244.21Z"/><path class="cls-3" d="M362.21,243.65c-.06,0-.06-.19-.15-.46a4.52,4.52,0,0,0-.65-1.07,5.87,5.87,0,0,1-.51-.82,2,2,0,0,1-.16-1.25c.21-.92.91-1.48,1.25-2.14s.05-1.2-.45-1.76a3.6,3.6,0,0,1-.63-.94,2.34,2.34,0,0,1-.18-1c.11-1.32.95-1.7.95-1.61a3.51,3.51,0,0,0-.47,1.62,2.23,2.23,0,0,0,.79,1.51,3.39,3.39,0,0,1,.73,1.05,1.9,1.9,0,0,1-.14,1.53c-.47.84-1.1,1.35-1.24,1.94a2.26,2.26,0,0,0,.46,1.62,3.28,3.28,0,0,1,.51,1.3C362.34,243.48,362.24,243.66,362.21,243.65Z"/><path class="cls-2" d="M236,300s2.66,11.51,4.43,14.66a16.07,16.07,0,0,1,2,5.78l1.11,18.43-14.08,14.89L202.18,332s-9.79-10.24-7.15-14.12c0,0,1.3-1.9,3.58,0,0,0-10.2-8.47-7.84-11.79s5.88,1.5,9.57,4.85,4.9,4.3,4.9,4.3l-10.61-11s-3-2.82-.34-5.13,6.58,3.47,8.45,4.68S215,315.65,215,315.65s-7.24-9.88-7.75-10.42-7.07-5.8-4.63-8.83,8.71,4.34,10.78,6,9.83,11.63,11.57,12.64,4.87,3.92,6.8,3-2-8.64-1.4-11.41S232.1,298.6,236,300Z"/><path class="cls-3" d="M229.32,335.63a18.48,18.48,0,0,1-1-2.73,12.34,12.34,0,0,1,.76-6.84c.94-2.59,2.23-4.72,2.93-6.46a6,6,0,0,0,.49-2.19c0-.54-.13-.82-.17-.81a8.13,8.13,0,0,1-.79,2.77,54.36,54.36,0,0,0-3.14,6.41,11.7,11.7,0,0,0-.57,7.27A4.43,4.43,0,0,0,229.32,335.63Z"/><path class="cls-3" d="M210.31,329.63a3.9,3.9,0,0,0-1.68-2c-1.26-1-3.41-1.69-4.91-3.42A17.74,17.74,0,0,1,202,321.3a10.93,10.93,0,0,0-1.62-2.39c-1.15-1.24-2.25-1.33-2.24-1.24a8.63,8.63,0,0,1,1.87,1.61,12.89,12.89,0,0,1,1.4,2.37,15.64,15.64,0,0,0,1.79,3.06,9,9,0,0,0,2.79,2.1c.92.48,1.74.87,2.39,1.27A17.69,17.69,0,0,1,210.31,329.63Z"/><polygon class="cls-4" points="288.19 500.4 375.53 500.4 375.53 466.54 288.19 456.06 288.19 500.4"/><polygon class="cls-12" points="326.07 255.21 332.38 259.46 368.69 242.75 370.33 251.34 337.49 324.3 335.52 463.41 299.97 460.3 321.95 272.41 326.07 255.21"/><path class="cls-4" d="M360.05,258.9a6.94,6.94,0,0,1-1.27.83l-3.54,2.12c-3,1.78-7.12,4.27-11.64,7.07l-5.71,3.55-.24.15-.13-.25c-1.77-3.42-2.81-6.54-3.72-8.65-.44-1.07-.8-1.91-1.06-2.48a4.14,4.14,0,0,1-.37-.9,3.44,3.44,0,0,1,.52.81c.31.55.73,1.37,1.21,2.42,1,2.08,2.12,5.18,3.89,8.5l-.37-.1c1.74-1.13,3.67-2.34,5.69-3.59,4.53-2.8,8.69-5.23,11.73-6.92,1.52-.85,2.77-1.5,3.64-1.94A6.4,6.4,0,0,1,360.05,258.9Z"/><path class="cls-11" d="M318.64,265.71l-18.55,7.61a15.43,15.43,0,0,0-6.12,4.59c-4,5-11.22,15.72-15.52,33.35-5.82,23.88-12,41.82-12,41.82l-20.73-16.45L216.9,367.07s48.47,45.19,63.86,45l-10.44,88.46h29.76l24.59-234.81,1.4-10.5C325.56,255.42,320,263.68,318.64,265.71Z"/><path class="cls-4" d="M291.2,295.29a2,2,0,0,1,0,.33c0,.24-.05.56-.09.94-.09.88-.21,2.1-.37,3.64-.35,3.21-.83,7.77-1.43,13.39-1.19,11.29-2.74,26.92-4.26,44.19s-2.77,32.93-3.69,44.27c-.46,5.62-.83,10.2-1.1,13.41-.13,1.55-.24,2.77-.32,3.65,0,.38-.07.7-.1.94a1.23,1.23,0,0,1-.05.33,1.8,1.8,0,0,1,0-.33c0-.25,0-.56,0-.95.06-.88.13-2.11.22-3.66.22-3.22.53-7.79.91-13.43.81-11.34,2-27,3.52-44.29s3.13-32.9,4.43-44.19c.65-5.64,1.2-10.21,1.61-13.36.21-1.53.37-2.75.49-3.62.06-.39.1-.7.14-.94A1.09,1.09,0,0,1,291.2,295.29Z"/><path class="cls-4" d="M380.06,384.07c-.13.15-2.44-2.46-6.09-4.37s-7-2.32-6.94-2.52a5.77,5.77,0,0,1,2.18.18,18.47,18.47,0,0,1,5,1.79,19.16,19.16,0,0,1,4.37,3.17A6.57,6.57,0,0,1,380.06,384.07Z"/><path class="cls-11" d="M406.36,280.81s-7.39-6.17-14.82-12.58-19.82-16-19.82-16l-2.24-8s-6.55,7.39-12.29,20.75c-8.25,19.19-17.78,47.2-19.7,59.3L326.07,500.4h85.1L391.38,375.22Z"/><path class="cls-4" d="M337,335.58a6.1,6.1,0,0,1,.39-.86l1.22-2.42c1.1-2.14,2.66-5.14,4.56-8.82,3.93-7.47,9.32-17.7,15.26-29l.81-1.53,0,.24c-.64-2.32-1.26-4.6-1.87-6.8l-.06-.21.17-.13L362,282.6l-.1.15,7-21.93,2.07-6.31q.34-1,.57-1.68a2,2,0,0,1,.23-.56,5.18,5.18,0,0,1-.14.6c-.13.43-.29,1-.49,1.7l-1.91,6.36c-1.69,5.49-4.05,13.13-6.79,22l0,.09-.07.05-4.55,3.47.11-.33q.91,3.3,1.88,6.8l0,.12-.06.12-.8,1.52L343.49,323.7c-2,3.64-3.58,6.61-4.73,8.72-.54,1-1,1.77-1.31,2.36A4.6,4.6,0,0,1,337,335.58Z"/><path class="cls-4" d="M316.91,339.83a3.83,3.83,0,0,1-.17-.79c-.1-.59-.22-1.35-.38-2.3-.31-2.08-.74-5-1.27-8.48-1-7.24-2.44-17.11-4-28-.16-1.13-.31-2.25-.47-3.36v-.1l.05-.09,3.87-7.51.15.42-3.85-1.35-.26-.1.09-.27,5.67-16c.69-1.9,1.25-3.42,1.65-4.55.19-.48.34-.87.46-1.19a2.32,2.32,0,0,1,.19-.41,1.7,1.7,0,0,1-.11.44c-.1.33-.22.73-.38,1.23l-1.51,4.6-5.47,16.1-.17-.36,3.87,1.33.31.11-.16.32c-1.23,2.4-2.52,4.91-3.85,7.52l0-.2c.15,1.11.31,2.23.46,3.36,1.49,10.91,2.84,20.79,3.82,28,.46,3.54.83,6.43,1.1,8.51.11,1,.2,1.73.27,2.32A4.48,4.48,0,0,1,316.91,339.83Z"/><path class="cls-4" d="M324.6,266.45a25.86,25.86,0,0,1,2,4.16l-.47,0c.49-1,1.12-2.12,1.81-3.27,1.19-2,2.31-3.7,3.11-5a14,14,0,0,1,1.34-2,8.13,8.13,0,0,1-1,2.25c-.71,1.33-1.78,3.11-3,5.07-.69,1.14-1.33,2.23-1.84,3.19l-.26.5-.2-.51A25.16,25.16,0,0,1,324.6,266.45Z"/><path class="cls-4" d="M314.78,461.59a4.07,4.07,0,0,1,0-.52c0-.37.06-.87.1-1.52.11-1.37.26-3.34.46-5.85.42-5.11,1-12.45,1.79-21.51,1.57-18.19,3.74-43.25,6.14-70.94s4.69-52.76,6.3-70.94c.83-9.05,1.51-16.38,2-21.49.24-2.51.43-4.47.56-5.84.07-.64.13-1.15.17-1.52a4,4,0,0,1,.07-.51,2.92,2.92,0,0,1,0,.52c0,.37-.06.88-.11,1.52-.11,1.37-.26,3.34-.46,5.85-.42,5.11-1,12.45-1.79,21.51-1.57,18.18-3.74,43.26-6.14,71s-4.68,52.74-6.3,70.92c-.83,9-1.51,16.39-2,21.49l-.56,5.84c-.07.65-.13,1.15-.17,1.52A4,4,0,0,1,314.78,461.59Z"/><g class="cls-8"><polygon points="370.91 254.83 362.83 286.03 359.45 287.41 361.77 295.23 338.6 332.5 359.45 293.11 357.57 286.3 362.13 282.84 370.91 254.83"/></g><g class="cls-8"><polygon points="333.32 262.24 335.45 278.47 356.09 261.34 337.75 272.22 333.32 262.24"/></g><g class="cls-8"><path d="M279.78,420.38l-.87,7.39s4.16,5.73,8.22,4.53,21.05-9.14,21.05-9.14l-.26-2.78S298,416,297.45,416.17,279.78,420.38,279.78,420.38Z"/></g><g class="cls-8"><path d="M312.49,436.83l.51,6.79s30.75-3.77,44-9.17c0,0,25.86-10.26,33.2-19.95-10.51,4.73-22.81,8.76-36,12.44Z"/></g><path class="cls-6" d="M336.66,389.78l-38.55-54.55a3,3,0,0,0-3.54-1.16l-59,21.56a3.48,3.48,0,0,0-1.41,5.36l48,61.85a3,3,0,0,0,3.51,1l55.17-21.53a3.5,3.5,0,0,0,1.36-5.33Z"/><path class="cls-4" d="M258.41,353.81a1.68,1.68,0,0,0,1.7,1.69,1.76,1.76,0,1,0-1.7-1.69Z"/><path class="cls-4" d="M270.33,349.48a1.7,1.7,0,0,0,1.69,1.7,1.71,1.71,0,0,0,1.58-1.82,1.68,1.68,0,0,0-1.69-1.69A1.7,1.7,0,0,0,270.33,349.48Z"/><path class="cls-2" d="M304.52,399.37l-3.1-.75s-1.26-5.49-2.66-6.6-15.22-7.24-18.26-8.87-14.92-6.89-16.29-3.81c-1.54,3.5,3.3,6.13,5.93,7.35s10.08,4,8.65,5.94-18.57,1.83-18.57,1.83l-2-2.45s-3,3.25-2.52,6.43a14.53,14.53,0,0,0,1.8,5.18l1.22-.05a3.87,3.87,0,0,0,0,3.79,34.53,34.53,0,0,0,3.4,4.24,12.23,12.23,0,0,0,7.94,5.76c.69.17,27.95,1.68,27.95,1.68l9.89,2.37Z"/><path class="cls-13" d="M376.15,295.48c-.31.72-8.41,81.25-8.41,81.25l-63.47,20.61,6.05,39.92s85.75-16.44,94.6-33.66c7.53-14.65,9.34-76.92,9.71-95.25a51.83,51.83,0,0,0-1.42-13.26c-1.26-5.16-3.41-11.39-6.85-14.28C399.92,275.39,376.15,295.48,376.15,295.48Z"/><path class="cls-4" d="M374.37,312.29s0,.41-.09,1.19-.17,1.95-.31,3.44c-.3,3-.73,7.45-1.28,13.07-1.13,11.28-2.75,27.39-4.7,46.77l0,.17-.16.05-63.46,20.66.2-.35c0,.26.08.54.13.82,2.07,13.7,4.07,26.92,5.91,39.11l-.32-.25c25.82-5.25,47.88-11,63.22-16.13,1.93-.6,3.72-1.31,5.43-1.9l2.49-.89,2.29-.92c1.47-.61,2.85-1.13,4.09-1.67l3.36-1.57a23.44,23.44,0,0,0,2.62-1.33l1.88-1.06,1.15-.64.4-.2s-.12.09-.38.25l-1.13.68-1.85,1.11a24,24,0,0,1-2.62,1.37l-3.34,1.62c-1.24.55-2.62,1.09-4.09,1.71l-2.29.94-2.47.91c-1.71.61-3.5,1.33-5.43,1.94-15.34,5.26-37.39,11.07-63.23,16.37l-.28.05,0-.3c-1.85-12.19-3.86-25.41-5.95-39.1,0-.28-.08-.56-.12-.82l0-.27.24-.08,63.49-20.56-.17.22c2-19.37,3.72-35.47,4.91-46.75.6-5.61,1.08-10,1.41-13.05.17-1.48.3-2.63.39-3.43S374.37,312.29,374.37,312.29Z"/><path class="cls-4" d="M402.31,279.05c0,.13-1.79,0-4.63.37a27.5,27.5,0,0,0-4.89,1.19,30.36,30.36,0,0,0-5.59,2.67,31.17,31.17,0,0,0-4.95,3.88,29.7,29.7,0,0,0-3.39,3.95c-1.73,2.43-2.49,4.18-2.6,4.12a5.32,5.32,0,0,1,.5-1.24,11.3,11.3,0,0,1,.7-1.39c.31-.52.63-1.14,1.07-1.76a27.65,27.65,0,0,1,3.36-4.1,29.9,29.9,0,0,1,5-4,28.6,28.6,0,0,1,5.72-2.67,24.57,24.57,0,0,1,5-1.09,18,18,0,0,1,2-.12,11.28,11.28,0,0,1,1.47,0A4.83,4.83,0,0,1,402.31,279.05Z"/><path class="cls-13" d="M1235,39a14.45,14.45,0,0,0-.47-5.68c.93-1.29,4.93-3.42,4.93-3.42l-.75-1.53a25,25,0,0,1-5.76,1.33c.09.15.19.34.3.56a14.51,14.51,0,0,0-8.83-6.93c-.67-1.4-.5-6-.5-6l-1.7-.12a25.15,25.15,0,0,1-1.74,5.63,14.74,14.74,0,0,0-4.23.66,10.15,10.15,0,0,1-2.4-3.22l-1.53.75a14,14,0,0,1,1.14,3.67,14.24,14.24,0,0,0-3,2.26c-1.63-.19-5.46-2.56-5.46-2.56l-1,1.43a24,24,0,0,1,4,4.23,14.63,14.63,0,0,0-1.7,4.52,10.4,10.4,0,0,1-3.67.38l-.1,1.72a14,14,0,0,1,3.5.73,14.27,14.27,0,0,0,.54,3.86,27,27,0,0,1-4.71,3.14l.75,1.55a22.36,22.36,0,0,1,5.39-1.29,14.4,14.4,0,0,0,3.08,3.7,10.34,10.34,0,0,1-1.52,3.34l1.44,1a14.41,14.41,0,0,1,2.39-2.66,14.71,14.71,0,0,0,5.88,1.84c.94,1.47,1.81,5.56,1.81,5.56l1.7-.3a22,22,0,0,1,.24-5.41,14.86,14.86,0,0,0,5.44-2.13,10.47,10.47,0,0,1,2.45,2.62l1.43-1a14.27,14.27,0,0,1-1.64-3.45,14.4,14.4,0,0,0,3.37-5.06,26.53,26.53,0,0,1,5.64.71l.44-1.67A24.42,24.42,0,0,1,1235,39ZM1215,23.9l-.5.21Z"/><path class="cls-13" d="M1231.59,22.65l-1.42-.95a14.37,14.37,0,0,1-2.77,2.94,30.38,30.38,0,0,1,2.65,1.65A9.18,9.18,0,0,1,1231.59,22.65Z"/><path class="cls-14" d="M1231.48,38.18c-.76,0-1.25-1.43-2.26-3.15-.12-.21-.27-.43-.41-.66s-.3-.45-.46-.68a16.78,16.78,0,0,0-1.11-1.38,11.18,11.18,0,0,0-6.62-3.65,15.91,15.91,0,0,0-1.75-.2c-.28,0-.56,0-.83,0s-.53,0-.77,0c-2,.05-3.44.38-3.87-.23a.7.7,0,0,1-.07-.58,2.31,2.31,0,0,1,.42-.83,6.82,6.82,0,0,1,2.53-1.93,10.18,10.18,0,0,1,1-.41c.35-.12.72-.22,1.11-.32a12,12,0,0,1,8.4,1.18,11.91,11.91,0,0,1,2.54,1.89,11.83,11.83,0,0,1,2.94,4.58c.12.38.24.75.32,1.11s.15.71.18,1.05a6.94,6.94,0,0,1-.28,3.17,2.19,2.19,0,0,1-.48.8A.66.66,0,0,1,1231.48,38.18Z"/><path class="cls-13" d="M1205,23.39c.26.17,0,1-.48,1.77a4.06,4.06,0,0,1-.55.7c-.36.37-.7.56-.87.45s0-1,.48-1.77S1204.75,23.22,1205,23.39Z"/><path class="cls-10" d="M1204,25.8a5.71,5.71,0,0,0,.92-1.45l.9.53a5.58,5.58,0,0,1-1.52,1.15Z"/><path class="cls-13" d="M1202.19,34.06c.31,0,.53.8.49,1.76a5.48,5.48,0,0,1-.12.89c-.12.5-.32.84-.53.83s-.53-.81-.48-1.77S1201.88,34,1202.19,34.06Z"/><path class="cls-10" d="M1202.58,36.63a3.83,3.83,0,0,0,.05-1.72c.32,0,.67,0,1,0a5.62,5.62,0,0,1-.72,1.74Z"/><path class="cls-13" d="M1201.05,43.83c.28-.14.86.44,1.29,1.3a4.46,4.46,0,0,1,.33.83c.14.5.14.89-.05,1s-.85-.44-1.29-1.3S1200.77,44,1201.05,43.83Z"/><path class="cls-10" d="M1202.65,45.89a5.57,5.57,0,0,0-.79-1.53l.92-.51a5.65,5.65,0,0,1,.22,1.89Z"/><path class="cls-13" d="M1208.6,51.62c.17-.27,1-.06,1.77.46a4.87,4.87,0,0,1,.71.55c.38.36.56.7.45.87s-1,.06-1.77-.46S1208.43,51.88,1208.6,51.62Z"/><path class="cls-10" d="M1211,52.58a3.85,3.85,0,0,0-1.46-.92,8.91,8.91,0,0,0,.55-.88,5.51,5.51,0,0,1,1.13,1.49Z"/><path class="cls-13" d="M1220.35,58c0-.31.66-.7,1.61-.88a4.88,4.88,0,0,1,.89-.09c.52,0,.89.12.93.32s-.66.7-1.61.88S1220.41,58.29,1220.35,58Z"/><path class="cls-10" d="M1222.77,57a5.66,5.66,0,0,0-1.69.34c-.07-.31-.15-.67-.24-1a5.8,5.8,0,0,1,1.89.31Z"/><path class="cls-13" d="M1230.51,53c-.18-.26.31-.91,1.1-1.46a4.91,4.91,0,0,1,.77-.45c.48-.21.86-.26,1-.09s-.31.91-1.1,1.46S1230.69,53.26,1230.51,53Z"/><path class="cls-10" d="M1232.32,51.12a3.9,3.9,0,0,0-1.41,1,9.76,9.76,0,0,0-.61-.84,5.35,5.35,0,0,1,1.81-.48Z"/><path class="cls-13" d="M1240,44.28c-.3-.07-.35-.89-.12-1.82a5,5,0,0,1,.29-.85c.22-.47.48-.75.68-.7s.36.89.13,1.82S1240.28,44.36,1240,44.28Z"/><path class="cls-10" d="M1240.11,41.68a5.49,5.49,0,0,0-.4,1.68c-.31-.07-.67-.15-1-.21a5.64,5.64,0,0,1,1.07-1.58Z"/><path class="cls-10" d="M1215.81,41.85c.47,1,.3,2.1-.38,2.42s-1.63-.24-2.11-1.26-.3-2.1.38-2.43S1215.33,40.83,1215.81,41.85Z"/><path class="cls-15" d="M1214.85,41c.48,1,.31,2.11-.38,2.43s-1.62-.25-2.1-1.27-.31-2.1.38-2.42S1214.37,40,1214.85,41Z"/><path class="cls-10" d="M1210.34,31.48c.68-.89,1.71-1.25,2.32-.8s.55,1.55-.13,2.45-1.72,1.26-2.32.81S1209.66,32.38,1210.34,31.48Z"/><path class="cls-15" d="M1209.34,30.77c.68-.9,1.72-1.26,2.32-.8s.55,1.55-.13,2.45-1.72,1.26-2.32.8S1208.66,31.67,1209.34,30.77Z"/><path class="cls-10" d="M1222.05,45.68a1.33,1.33,0,0,1-.64,1.78,1.34,1.34,0,1,1,.64-1.78Z"/><path class="cls-15" d="M1221.75,45a1.34,1.34,0,1,1-1.79-.65A1.36,1.36,0,0,1,1221.75,45Z"/><path class="cls-10" d="M1225.06,31.11A1.65,1.65,0,1,1,1224,29,1.66,1.66,0,0,1,1225.06,31.11Z"/><path class="cls-15" d="M1225.32,30.27a1.65,1.65,0,1,1-1.07-2.07A1.65,1.65,0,0,1,1225.32,30.27Z"/><path class="cls-10" d="M1228.79,44a1,1,0,1,1-1.3-.47A1,1,0,0,1,1228.79,44Z"/><path class="cls-15" d="M1228.57,43.5a1,1,0,1,1-1.31-.47A1,1,0,0,1,1228.57,43.5Z"/><path class="cls-13" d="M1240.24,30.4c-.27.14-.84-.43-1.27-1.28a4.39,4.39,0,0,1-.33-.82c-.14-.5-.13-.88,0-1s.85.44,1.28,1.28S1240.52,30.26,1240.24,30.4Z"/><path class="cls-10" d="M1238.66,28.37a5.43,5.43,0,0,0,.79,1.51l-.91.51a5.55,5.55,0,0,1-.22-1.87Z"/><path class="cls-13" d="M1232.54,22.69c-.17.26-1,0-1.75-.46a5.33,5.33,0,0,1-.7-.54c-.37-.36-.56-.69-.45-.86s.95-.06,1.75.46S1232.71,22.43,1232.54,22.69Z"/><path class="cls-10" d="M1230.15,21.74a3.82,3.82,0,0,0,1.44.91q-.27.39-.54.87a5.44,5.44,0,0,1-1.12-1.48Z"/><path class="cls-13" d="M1224.76,16.86c0,.3-.8.51-1.75.45a4.53,4.53,0,0,1-.88-.13c-.49-.13-.82-.32-.81-.53s.81-.51,1.75-.45S1224.78,16.55,1224.76,16.86Z"/><path class="cls-10" d="M1222.21,17.2a5.32,5.32,0,0,0,1.7.08c0,.32,0,.68,0,1a5.69,5.69,0,0,1-1.73-.75Z"/><path class="cls-13" d="M1214.36,19.43c.14.28-.43.85-1.28,1.28a4.39,4.39,0,0,1-.82.33c-.49.14-.87.14-1-.05s.44-.84,1.28-1.27S1214.22,19.16,1214.36,19.43Z"/><path class="cls-10" d="M1212.33,21a3.78,3.78,0,0,0,1.51-.79,10.19,10.19,0,0,0,.49.9,5.5,5.5,0,0,1-1.84.23Z"/><path class="cls-10" d="M1230.57,39.31c0,1.13-.71,2-1.47,2s-1.32-1-1.27-2.1.72-2,1.47-2S1230.63,38.19,1230.57,39.31Z"/><path class="cls-15" d="M1230.87,38.57c-.06,1.12-.71,2-1.47,2s-1.32-1-1.27-2.1.71-2,1.47-2S1230.92,37.44,1230.87,38.57Z"/><path class="cls-10" d="M1222.22,36.06a2,2,0,1,1-2.71-1A2,2,0,0,1,1222.22,36.06Z"/><path class="cls-15" d="M1221.72,35a2,2,0,1,1-2.71-1A2.05,2.05,0,0,1,1221.72,35Z"/><path class="cls-10" d="M1231.72,43.91c.15.1.11.47-.15,1.05a8.27,8.27,0,0,1-1.5,2.18,12,12,0,0,1-1.36,1.26,13.31,13.31,0,0,1-1.77,1.19,13.48,13.48,0,0,1-9.58,1.4,14.35,14.35,0,0,1-2-.63,13.35,13.35,0,0,1-1.65-.82,8.5,8.5,0,0,1-2.07-1.66c-.41-.48-.56-.83-.45-1,.25-.3,1.4.33,3.29,1,.47.15,1,.29,1.55.43a17.62,17.62,0,0,0,1.8.32,15.31,15.31,0,0,0,4.11,0,15.57,15.57,0,0,0,3.95-1.15c.59-.25,1.13-.55,1.63-.82s1-.58,1.36-.87C1230.48,44.63,1231.41,43.69,1231.72,43.91Z"/><g class="cls-8"><path class="cls-10" d="M1208.8,42.35a1.24,1.24,0,1,1-.58,1.7A1.28,1.28,0,0,1,1208.8,42.35Z"/></g></g><g id="Calque_2-2" data-name="Calque 2"><g id="Bienvenue_sur_le_portail_de_la_compagne_de_vaccination_contre_le_coronavirus" data-name="Bienvenue sur le portail de la compagne de vaccination contre le coronavirus"><text class="cls-16" transform="translate(529.43 190.42)">Bie<tspan class="cls-17" x="99.25" y="0">n</tspan><tspan class="cls-18" x="139.93" y="0">v</tspan><tspan x="172.08" y="0">enue sur le po</tspan><tspan class="cls-19" x="604.26" y="0">r</tspan><tspan class="cls-20" x="629.63" y="0">tail de la </tspan></text><text class="cls-16" transform="translate(432.87 264.42)"><tspan class="cls-21">c</tspan><tspan x="33.79" y="0">om</tspan><tspan class="cls-22" x="136.76" y="0">p</tspan><tspan class="cls-23" x="177.94" y="0">a</tspan><tspan x="214.05" y="0">g</tspan><tspan class="cls-24" x="255.89" y="0">n</tspan><tspan class="cls-25" x="297.31" y="0">e de </tspan><tspan class="cls-26" x="444.32" y="0">v</tspan><tspan class="cls-23" x="476.41" y="0">a</tspan><tspan class="cls-21" x="512.52" y="0">c</tspan><tspan x="546.31" y="0">cination </tspan><tspan class="cls-27" x="811.05" y="0">c</tspan><tspan class="cls-20" x="844.84" y="0">ont</tspan><tspan class="cls-28" x="949.15" y="0">r</tspan><tspan x="972.82" y="0">e le </tspan></text><text class="cls-16" transform="translate(794.6 338.42)"><tspan class="cls-21">c</tspan><tspan x="33.79" y="0">o</tspan><tspan class="cls-29" x="72.04" y="0">r</tspan><tspan x="95.71" y="0">on</tspan><tspan class="cls-30" x="175.25" y="0">a</tspan><tspan x="210.63" y="0">virus</tspan></text></g><g id="Groupe_15" data-name="Groupe 15"><rect id="Rectangle_27" data-name="Rectangle 27" class="cls-5" y="424.8" width="644" height="258.69"/><g id="Nombre_de_personnes_vaccinnées" data-name="Nombre de personnes vaccinnées"><text class="cls-31" transform="translate(66.4 468.8)">Nomb<tspan class="cls-32" x="95.37" y="0">r</tspan><tspan x="107.01" y="0">e de pe</tspan><tspan class="cls-33" x="217.77" y="0">r</tspan><tspan x="229.68" y="0">son</tspan><tspan class="cls-34" x="283.47" y="0">n</tspan><tspan x="303.84" y="0">es </tspan><tspan class="cls-35" x="344.49" y="0">v</tspan><tspan class="cls-34" x="360.27" y="0">a</tspan><tspan class="cls-36" x="378.03" y="0">c</tspan><tspan x="394.65" y="0">cin</tspan><tspan class="cls-34" x="439.91" y="0">n</tspan><tspan x="460.28" y="0">ées</tspan></text></g><g id="Dose_01" data-name="Dose 01"><text class="cls-31" transform="translate(87.04 552.3)">Dose <tspan class="cls-37" x="84.24" y="0">0</tspan><tspan class="cls-38" x="104.04" y="0">1</tspan></text></g><g id="_" data-name=" "><text class="cls-39" transform="translate(10.74 632.8)">1 236 <tspan class="cls-40" x="157.56" y="0">4</tspan><tspan x="196.98" y="0">59</tspan></text></g><g id="_2" data-name=" "><text class="cls-39" transform="translate(388.6 632.8)"><tspan class="cls-41">7</tspan><tspan x="34.14" y="0">63 5</tspan><tspan class="cls-42" x="154.2" y="0">4</tspan><tspan class="cls-43" x="192.36" y="0">1</tspan></text></g><g id="Dose_02" data-name="Dose 02"><text class="cls-31" transform="translate(435.07 552.3)">Dose <tspan class="cls-37" x="84.24" y="0">0</tspan><tspan x="104.04" y="0">2</tspan></text></g></g><path d="M1531.8,442.54c-3.91-13.44-2.27-15.57,11.61-19.32,17.43-4.7,34.54-3.8,51.65,1.2,9.12,2.66,11.09,7.56,7.33,16.11-4.35,9.89-10.66,16.71-22.27,16.27-12.07-.46-24.36-.08-36.11-2.38-4.79-.93-8.4-8-12.54-12.21Z"/><path d="M1604.48,423.68c-25.35-8.71-49.53-8.57-73.51-.45-3.82-20.12,6.29-32,29-35.36,13-1.89,25.16,1.37,35.73,8.25C1604.73,402,1603.85,412.46,1604.48,423.68Z"/><path d="M1542.39,488.73c4.63,0,9.26,0,13.88,0,7,0,14,.08,20.94.11h14.9C1584.33,505.05,1554.55,505.81,1542.39,488.73Z"/><path d="M1531.47,442.21c3.6,9.25,7.33,18.45,10.77,27.76,2,5.54,4.27,11.33-2.55,16.26-4.67-12.69-9.49-25-13.62-37.52-1.25-3.79-1.21-8.8,5.73-6.17Z"/><path d="M1606.59,442.32c-2,8.58,1.52,17.94-6.72,25.75-3.74,3.54-3.16,11.64-4.62,18C1587.76,479.34,1594,454.56,1606.59,442.32Z"/><path d="M1490.35,607.8c-1,3.23-2.11,6.45-3.72,11.38-3.73-3.92-6.93-7-9.79-10.34-10.61-12.45-16.69-27.14-19.95-42.94a16,16,0,0,1,2.31-11.14c7.29-10.67,15.88-20,28.72-24.54,9.35-3.29,18.4-7.45,27.72-11.28,2.77,6.79,2.93,11.71-2.17,17.51-10.07,11.43-9.75,32.62-.32,44.61a20.4,20.4,0,0,0,8,6.18c2.26.9,5.34-.25,8.06-.49-1.8-1.75-3.49-3.62-5.41-5.23-2.28-1.91-5.61-3.08-7-5.45-6.44-11.09-6.6-22.53-.47-33.94,3.62-6.74,8.66-7.58,14.76-3.46,10.71,7.25,15.94,17.52,15.27,30.32-.15,2.81-3.34,5.37-4.73,8.24-.89,1.85-1,4-1.53,6.09,2.16-.29,5.39.19,6.25-1,2.46-3.46,5-7.45,5.63-11.51,2.31-15.78-7.26-32.35-21.84-39.17-7.84-3.66-9-10.12-2.77-16.59,3.86-4,8.1-7.63,14.52-13.61-5.31,14.1,2.88,22,8.61,30.94,4,6.3,8.8,12.4,11.48,19.27s3.08,14.43,4.54,22c.68-.78,1.78-1.45,1.76-2.09-.66-19.41,11.72-32.92,21-48,3.49-5.71,4.2-13.12,6-19.05,3.2,2.66,7.76,6.51,12.37,10.3,6.6,5.41,9.35,23.16,4.1,29.36-1.38,1.63-4.33,2-6.61,2.82-8.92,3.12-13,12-9.21,20.2,3.27,7.15,12.86,10.28,20,6.52,7.86-4.13,9.76-12.65,5.54-20.94a27.16,27.16,0,0,1-2.45-11.9c0-6.51.9-13,1.5-20.47,21.13,7.31,42.26,13.91,54.7,34.55,1.37,2.27,2.9,5.29,2.5,7.65-3.61,21.34-10.75,41.12-26.82,56.6-.59.56-1.61.68-3.13,1.29-1.42-4.56-2.76-8.89-4.36-14-.47.88-1,1.35-.88,1.71,3.33,16.09-5.8,24.49-18.55,31.26-17.41,9.23-34.44,19.17-51.84,28.4-2.49,1.32-6.88,1.57-9.22.25-18.52-10.44-36.8-21.33-55.07-32.2C1497.22,629.53,1487.5,622.6,1490.35,607.8ZM1618.9,600c-1.32-3.93-2.42-7.23-3.53-10.53l-2.35.44-2,10-10.33,2.29-.12,2.72,10.52,2.55c.71,3.57,1.34,6.7,2,9.84l2.42.37c1-3.4,2.09-6.79,3.16-10.24l9-2.6.15-2.43Z"/><path class="cls-44" d="M1567.33,699.76c-22.65-8.55-80.45-34-114.78-95.16-25-44.58-26.35-88.05-27.19-116.3a314.78,314.78,0,0,1,15.1-105.72,492.26,492.26,0,0,0,58.91-15.11,494.08,494.08,0,0,0,81.56-34.73c6.74,3.18,17.23,8,30.2,13.59,60.07,25.77,70.22,22.66,81.56,34.74,12.58,13.39,10.2,28.48,4.53,110.25-6.83,98.68-7.08,102.42-10.93,111.74C1679.42,619.68,1654.75,669.36,1567.33,699.76Z"/><path class="cls-45" d="M1573.38,695.37a142.53,142.53,0,0,1-31.72-7.55c-51-18.56-76.74-61.47-86.09-77.18-28.1-47.19-29.36-92.52-30.21-122.34a316.62,316.62,0,0,1,15.1-105.72,300,300,0,0,0,137.45-48.18q-.87,90.54-2,181.06Q1574.77,605.4,1573.38,695.37Z"/><path class="cls-12" d="M1549.7,694.05c23.54-13.25,46-25.5,68-38.45,12.37-7.27,24.82-14.78,35.92-23.79,25.32-20.57,35-49.68,36.86-80.53,2.6-44,2.24-88.17,3.06-132.27.16-9.07-.38-18.17,0-27.23.3-6.52-1.52-9.13-8.58-10.06-29.53-3.87-58.47-10.44-86-22.29-1.89-.81-3.7-1.8-5.72-2.79,11.49-12.73,12.84-13.1,27.23-8a317.11,317.11,0,0,0,79.64,16.67c3.37.28,6.73.65,11.36,1.1,0,14.84.15,29.13,0,43.41-.54,45.06,0,90.17-2.18,135.15-1.63,33.57-9.81,66.26-34.77,91-12.29,12.16-27.09,22.11-41.79,31.43-19.54,12.39-40,23.33-60.31,34.47-2.6,1.42-7,1.15-9.92.08C1558.56,700.43,1555.11,697.45,1549.7,694.05Z"/><path class="cls-12" d="M1539.42,669c-12.59,9.5-17.2,9.87-29.43,2.7-28.1-16.48-54.31-35.12-69.77-65-12.33-23.82-17-49.76-17.51-76.22-.94-52.89-1-105.79-1.33-158.68a31.74,31.74,0,0,1,.66-4.39c51.41-4.28,100.42-16.46,144-45,5,3,9.53,5.67,14.06,8.44.49.3.75,1,1.4,1.86-23.89,17.7-50.41,30.1-78.83,38-18,5-36.6,7.94-55,11.57-4.49.88-8.44,1-8.33,7.43.82,51,.5,102,2.31,153,1.62,45.44,22.52,80.6,61.93,104.23C1515.61,654,1527.42,661.54,1539.42,669Z"/><path d="M1622,560.4c-6.1,4.48-9.59,9-12.69,8.76s-8.25-5.09-8.36-8.08,4.73-8,7.92-8.47S1615.71,556.42,1622,560.4Zm-13.47-6.6c-1.94,3.4-4.12,5.51-3.85,7.22s2.92,3.25,4.52,4.85c1.62-1.91,4.13-3.65,4.53-5.78C1614,558.72,1611.12,556.77,1608.53,553.8Z"/><g id="Pour_un_meilleur_future._Protégeons_nous" data-name="Pour un meilleur future. Protégeons nous" class="cls-46"><text class="cls-47" transform="translate(1295 730.85)"><tspan class="cls-48">P</tspan><tspan class="cls-49" x="31.93" y="0">our un </tspan><tspan class="cls-50" x="193.85" y="0">m</tspan><tspan x="241.99" y="0">eilleur futu</tspan><tspan class="cls-48" x="488.47" y="0">r</tspan><tspan x="506.04" y="0">e.</tspan></text><text class="cls-47" transform="translate(1373.7 785.78)"><tspan class="cls-51">P</tspan><tspan class="cls-48" x="31.48" y="0">r</tspan><tspan x="49.05" y="0">o</tspan><tspan class="cls-52" x="77.45" y="0">t</tspan><tspan class="cls-49" x="94.98" y="0">égeons </tspan><tspan class="cls-50" x="273.83" y="0">n</tspan><tspan x="304.59" y="0">ous</tspan></text></g></g></g></svg>