<svg xmlns="http://www.w3.org/2000/svg" viewBox="0 0 585.13 380"><defs><style>.cls-1{fill:#ffbe9d;}.cls-2{fill:#20a1db;}.cls-3{fill:#f39866;}.cls-4{fill:#263238;}.cls-5{opacity:0.3;}.cls-6{fill:#eb996e;}.cls-7{fill:#455a64;}.cls-8{fill:#e0e0e0;}.cls-9{fill:#f1eee9;}.cls-10{fill:#212121;}.cls-11{fill:#ff725e;}</style></defs><title>citoyen</title><g id="Calque_2" data-name="Calque 2"><g id="Calque_1-2" data-name="Calque 1"><path class="cls-1" d="M152.2,217.25l21.42,55.13L238,258.87l3.41,27.28s-90.6,33.73-97.09,27.83-22.92-88.9-22.92-88.9Z"/><path class="cls-2" d="M217.28,260.92l18.12-3.09L251,245.24l19.93-13.13,21.8-4.21s.93,4.92-4.93,7.26-11.48,4.92-11.48,4.92l16.46-3.75s1.46,3.52,0,5.4-9.9,5.62-9.9,5.62l-8,5.16,10.32-3.87s2.34,1.29,2.1,2.93-6.09,6.8-6.09,6.8l-5.62,3.75L269.76,272S258,282.84,255.61,282.61l-29.32,11.33Z"/><path class="cls-1" d="M311,178.7a113.64,113.64,0,0,0-18.85,30.73c-7.26,18-42.62,86.78-42.62,86.78S211.92,348,209.81,380l40.13-.28s35.32-57,43.4-69,29.2-48.55,29.2-48.55l6.19-45.44Z"/><polygon class="cls-1" points="491.8 173.03 569.22 285.72 520.73 310.53 487.4 265.24 491.8 173.03"/><path class="cls-3" d="M326.78,167.32s-5.85-4,36.94-10.2l7.2-3.26,63.62-11.75,4.24,6.38,56.05,21.25L483.7,344.31l9.72,35.41H323.13l2.73-59.28-3.22-58.13Z"/><path class="cls-3" d="M495.73,287.3l55.63-44.53s-51-73.5-58.43-73.75l-5,2.37-8.27,97.42Z"/><path class="cls-4" d="M442.44,149.56a.67.67,0,0,1-.06.24c-.06.18-.14.4-.23.68-.24.58-.49,1.48-1,2.56a39.64,39.64,0,0,1-5.25,8.69,46.44,46.44,0,0,1-4.78,5.14c-.91.88-2,1.68-3,2.54s-2.18,1.65-3.4,2.38a45.41,45.41,0,0,1-17.15,6.63A36,36,0,0,1,389.3,177a26,26,0,0,1-12-8.89,22.14,22.14,0,0,1-4.11-9.23,15.21,15.21,0,0,1-.29-3.71.92.92,0,0,1,0,.24c0,.19,0,.43.06.71a9.93,9.93,0,0,0,.12,1.16,14.69,14.69,0,0,0,.27,1.56,22.48,22.48,0,0,0,4.21,9.05,25.87,25.87,0,0,0,11.88,8.66,35.94,35.94,0,0,0,18,1.41,45.52,45.52,0,0,0,17-6.52c1.21-.72,2.29-1.57,3.38-2.34s2.06-1.63,3-2.5a48.16,48.16,0,0,0,4.79-5.05,41.56,41.56,0,0,0,5.34-8.54c.56-1.06.84-2,1.11-2.52.11-.27.2-.48.28-.66S442.44,149.56,442.44,149.56Z"/><path class="cls-4" d="M490.6,197.34a2.28,2.28,0,0,1,0,.38c0,.28,0,.65.06,1.12,0,1,.09,2.42.13,4.29.07,3.72.08,9.12,0,15.78-.21,13.33-.88,31.73-1.91,52s-2.2,38.69-3.16,52c-.49,6.65-.92,12-1.27,15.74-.17,1.85-.32,3.29-.45,4.26-.07.49-.12.86-.17,1.11a2,2,0,0,1-.08.28s-.06.06-.06,0,0,0,0,0,0,.07,0,0a1.3,1.3,0,0,0,0-.28l.12-1.11c.09-1,.21-2.44.36-4.27.29-3.72.66-9.09,1.1-15.74.87-13.3,2-31.68,3-52s1.76-38.7,2.06-52c.15-6.66.2-12.05.19-15.77,0-1.84,0-3.28,0-4.29v-1.12A2.21,2.21,0,0,1,490.6,197.34Z"/><path class="cls-4" d="M546.27,235.51c.09.12-12.44,10.33-28,22.8s-28.21,22.51-28.3,22.4,12.43-10.32,28-22.8S546.18,235.4,546.27,235.51Z"/><path class="cls-4" d="M450.45,285.65a1.73,1.73,0,0,1-.17.19l-.52.53-2.05,2c-.88.87-2,1.92-3.29,3.1s-2.77,2.56-4.46,4-3.5,3.06-5.53,4.71-4.2,3.4-6.5,5.22c-4.65,3.58-9.87,7.39-15.51,11.16s-11.18,7.1-16.28,10c-2.57,1.42-5,2.79-7.33,4s-4.48,2.31-6.48,3.28-3.82,1.82-5.41,2.57-3,1.36-4.14,1.84l-2.63,1.12-.69.28-.24.08a.7.7,0,0,1,.22-.13l.67-.33,2.59-1.2c1.13-.51,2.51-1.15,4.09-1.92s3.41-1.62,5.38-2.64,4.15-2.09,6.44-3.33,4.73-2.59,7.29-4c5.08-2.93,10.59-6.28,16.23-10S423,308.59,427.64,305c2.31-1.81,4.51-3.51,6.52-5.18s3.88-3.21,5.56-4.65,3.18-2.78,4.5-3.95,2.45-2.19,3.36-3l2.11-1.93.56-.49C450.37,285.69,450.44,285.64,450.45,285.65Z"/><g class="cls-5"><path d="M378.33,347.66l56.46-35a49.15,49.15,0,0,1-57.15,34.69"/></g><path class="cls-3" d="M334.64,165s-8.23-9.9-12.2,3.14c0,0-5.91-1.77-6.76,6.71,0,0-7.56,3.35-8.17,8.08,0,0,3.5-4.6,5.07-.46,1.48,3.88,11.18,82.11,11.18,82.11l15.31-44.75,2.73-49.51Z"/><path class="cls-4" d="M317.34,178.32a4.26,4.26,0,0,1,.19.76c.11.55.26,1.28.45,2.2.38,1.92.88,4.7,1.45,8.14,1.14,6.89,2.45,16.46,3.36,27.08s1.23,20.27,1.28,27.25c0,3.49,0,6.32-.05,8.27,0,.94,0,1.69-.07,2.25a4,4,0,0,1-.06.78,4.3,4.3,0,0,1,0-.78q0-.84,0-2.25c0-2-.05-4.77-.12-8.26-.14-7-.53-16.61-1.43-27.22s-2.16-20.16-3.21-27.06c-.52-3.45-1-6.24-1.28-8.16-.15-.93-.27-1.67-.35-2.22A3.81,3.81,0,0,1,317.34,178.32Z"/><path class="cls-4" d="M328.43,221.27a2,2,0,0,1,0-.53c0-.4.06-.9.09-1.51.1-1.3.21-3.19.33-5.53a141.85,141.85,0,0,0-.25-18.26,118.38,118.38,0,0,0-3-18c-.56-2.27-1.05-4.1-1.42-5.35-.16-.59-.29-1.07-.4-1.46a1.93,1.93,0,0,1-.1-.52,3.78,3.78,0,0,1,.2.49c.13.38.3.85.49,1.43.43,1.24,1,3.06,1.59,5.32a106,106,0,0,1,3.12,18.06,123.5,123.5,0,0,1,.09,18.32c-.16,2.34-.33,4.23-.49,5.53q-.1.9-.18,1.5A2.08,2.08,0,0,1,328.43,221.27Z"/><path class="cls-4" d="M330.68,236a4.79,4.79,0,0,1,.1-.68l.39-1.95c.36-1.68.83-4.13,1.37-7.16a219.84,219.84,0,0,0,2.9-23.84,221.27,221.27,0,0,0,.21-24c-.15-3.07-.3-5.56-.44-7.28,0-.81-.1-1.47-.13-2a2.86,2.86,0,0,1,0-.7,4,4,0,0,1,.11.69c.06.5.14,1.15.23,2,.2,1.71.41,4.19.6,7.27a192.18,192.18,0,0,1-3.11,48c-.58,3-1.11,5.46-1.53,7.14l-.48,1.92A2.94,2.94,0,0,1,330.68,236Z"/><g class="cls-5"><path d="M328.45,219.52c-1.38,13.62-1.7,24.14-3.08,37.77,2.44-13.74,4.89-27.51,5.88-41.43s.5-28-2.85-41.58A7.16,7.16,0,0,0,327,171a2.56,2.56,0,0,0-3.24-.54s.91,2.77,1.36,4.23c4.43,14.44,4.42,29.74,3.38,44.81"/></g><path class="cls-4" d="M435.46,311.29a3.42,3.42,0,0,1-.54.45L433.29,313c-1.41,1.05-3.48,2.52-6.07,4.3-5.18,3.57-12.47,8.29-20.66,13.28s-15.68,9.39-21.09,12.58l-6.42,3.76-1.75,1a3,3,0,0,1-.63.32,3.82,3.82,0,0,1,.57-.41L379,346.7l6.33-3.91,21-12.7c8.18-5,15.5-9.66,20.72-13.14,2.61-1.74,4.72-3.17,6.17-4.16l1.68-1.13A3.56,3.56,0,0,1,435.46,311.29Z"/><g class="cls-5"><path d="M436.8,160.06a26.73,26.73,0,0,1-7.91,11.22,51.1,51.1,0,0,1-11.72,7.37c-4.51,2.16-9.32,4-14.32,4.06-7.61.1-14.68-3.89-20.73-8.51-3.14-2.4-6.33-5.34-7-9.25,0,0,3.63,6,7.88,8.46a36.31,36.31,0,0,0,29,3.78C426.58,173.15,436.8,160.06,436.8,160.06Z"/></g><path class="cls-1" d="M478.46,180.2s-10.41,2.31-9.95,13.65,2.08,14.35,2.08,14.35H447.45s-8.33,1.39-7.87,6.48,1.62,4.86,1.62,4.86-5.35-.18-5.73,5.86c-.22,3.47,3.42,6.4,3.42,6.4s-2.09,5.79-1.39,7.18,5.78,4.39,5.78,4.39-1.62,3.71.47,5.79,13.88,6.48,13.88,6.48,13.87,5.44,19.42,6.14,12.23,1.58,12.23,1.58l12.59-29.22s-7.9-11.36-9.06-15.07-9-14.11-9-14.11-4.39-7.41-4.86-12.73S479.82,179.76,478.46,180.2Z"/><path class="cls-1" d="M571.81,288.64c-6.38-9-73.48-59.77-73.48-59.77l-12.4,32.86s30.4,43.72,38.79,53.66,35.37,32.31,52.48,16.35S577.46,296.63,571.81,288.64Z"/><path class="cls-6" d="M454.61,221.18a43.24,43.24,0,0,1-6.79-.57,45.08,45.08,0,0,1-6.73-1.09,46.35,46.35,0,0,1,6.79.57A45.39,45.39,0,0,1,454.61,221.18Z"/><path class="cls-6" d="M455.08,235.27a10.52,10.52,0,0,1-2.42-.2c-1.49-.19-3.53-.52-5.77-1s-4.26-.93-5.71-1.31a10.9,10.9,0,0,1-2.31-.75,11.76,11.76,0,0,1,2.4.39L447,233.6l5.73,1.11A11.52,11.52,0,0,1,455.08,235.27Z"/><path class="cls-6" d="M452,246.48a19.71,19.71,0,0,1-4.35-1.17,19.36,19.36,0,0,1-4.18-1.67,19.43,19.43,0,0,1,4.35,1.18A20,20,0,0,1,452,246.48Z"/><path class="cls-6" d="M498.33,228.63s.2.13.57.4l1.65,1.23,6.28,4.77c5.44,4.17,13.29,10.22,22.93,17.79s21.09,16.61,33.4,27.15a104.79,104.79,0,0,1,9.07,8.55c2.57,3.41,5.2,6.83,7.51,10.62a36.65,36.65,0,0,1,5.06,12.47,21.2,21.2,0,0,1,.09,6.93,19.77,19.77,0,0,1-2.31,6.63,25.83,25.83,0,0,1-4.25,5.57,31.79,31.79,0,0,1-2.59,2.34l-1.43,1c-.47.34-1,.58-1.49.87a21.59,21.59,0,0,1-13.2,2.15,39.81,39.81,0,0,1-12.37-4,68.39,68.39,0,0,1-10.58-6.61,82.88,82.88,0,0,1-9-7.77,79.41,79.41,0,0,1-7.2-8.55c-4.35-5.75-8.27-11.2-11.84-16.17-7.13-10-12.81-18.1-16.72-23.72l-4.49-6.49-1.15-1.7c-.26-.38-.38-.59-.38-.59l.42.56,1.2,1.67,4.56,6.43c4,5.59,9.69,13.68,16.85,23.62,3.6,5,7.53,10.4,11.89,16.13a81.2,81.2,0,0,0,7.18,8.49A83,83,0,0,0,537,326.1a69.1,69.1,0,0,0,10.51,6.54,39.2,39.2,0,0,0,12.21,3.94,21,21,0,0,0,12.89-2.1,14.22,14.22,0,0,0,1.46-.85l1.39-1a28.88,28.88,0,0,0,2.53-2.29,25.29,25.29,0,0,0,4.18-5.46,19.73,19.73,0,0,0,2.16-13.22,36.29,36.29,0,0,0-5-12.29c-2.28-3.75-4.93-7.2-7.46-10.57a103.94,103.94,0,0,0-9-8.5c-12.27-10.56-23.73-19.6-33.31-27.23s-17.42-13.7-22.83-17.91l-6.22-4.86-1.61-1.27Z"/><path class="cls-4" d="M399.41,6.71a11.26,11.26,0,0,0-12.21-4.5A15.38,15.38,0,0,0,368.4,4.5,13.68,13.68,0,0,0,349,17.73,11.76,11.76,0,0,0,337.75,25a11.72,11.72,0,0,0,3.3,13,11.38,11.38,0,0,0-6,13.46,11.38,11.38,0,0,0,12.79,7.32l50.85-39A11.24,11.24,0,0,0,399.41,6.71Z"/><path class="cls-1" d="M350,118.58c-1.38-12-3.09-35.6-3.58-58.19A46.6,46.6,0,0,1,388.25,13l2.4-.25c26.05-1.14,41.57,20.34,42,46.41l3.31,88.2h0c-16.92,29.35-51.18,25.4-58.42,7.57h0l-.28-8.84S352.84,143.43,350,118.58Z"/><path class="cls-6" d="M377,146.09s16-.67,31.63-12.89c0,0-6.17,18.48-31.23,18.79Z"/><path class="cls-4" d="M358.33,77.72A3.57,3.57,0,0,0,362.12,81a3.43,3.43,0,0,0,3.34-3.58,3.57,3.57,0,0,0-3.79-3.24A3.42,3.42,0,0,0,358.33,77.72Z"/><path class="cls-4" d="M353,72c.49.41,3-1.85,6.8-2.24s6.82,1.25,7.19.74c.18-.23-.35-1-1.66-1.79a9.88,9.88,0,0,0-5.82-1.16,9.43,9.43,0,0,0-5.36,2.36C353.07,71,352.76,71.83,353,72Z"/><path class="cls-4" d="M393.92,75.66a3.57,3.57,0,0,0,3.79,3.23,3.43,3.43,0,0,0,3.34-3.58,3.59,3.59,0,0,0-3.79-3.24A3.42,3.42,0,0,0,393.92,75.66Z"/><path class="cls-4" d="M390.66,68.87c.49.42,3-1.85,6.81-2.23s6.82,1.24,7.19.73c.18-.23-.35-1-1.67-1.78a9.83,9.83,0,0,0-5.81-1.16,9.39,9.39,0,0,0-5.36,2.36C390.74,67.81,390.43,68.69,390.66,68.87Z"/><path class="cls-4" d="M379.69,98.66c0-.22-2.42-.39-6.32-.48-1,0-1.93-.1-2.17-.75a5,5,0,0,1,.36-3l2.12-7.73c2.93-11,4.94-20,4.49-20.11s-3.17,8.7-6.1,19.7c-.69,2.71-1.36,5.3-2,7.77-.26,1.15-.77,2.47-.12,3.88a2.48,2.48,0,0,0,1.75,1.27,7.09,7.09,0,0,0,1.69.06C377.29,99.11,379.7,98.88,379.69,98.66Z"/><path class="cls-4" d="M391.22,100.15c-.63,0-.21,4.18-3.46,7.49s-7.72,3.31-7.69,3.89c0,.27,1.07.71,2.94.57a10.42,10.42,0,0,0,6.45-3,9.06,9.06,0,0,0,2.63-6.25C392.07,101.08,391.5,100.1,391.22,100.15Z"/><path class="cls-4" d="M388.14,54c.48,1,4.25.11,8.79.19s8.3.94,8.8-.06c.22-.47-.51-1.38-2.08-2.24a15.26,15.26,0,0,0-13.4-.1C388.67,52.61,387.92,53.51,388.14,54Z"/><path class="cls-4" d="M353.27,60.8c.76.8,3.3-.37,6.47-.74s5.91,0,6.43-1c.23-.47-.29-1.3-1.54-2a9.46,9.46,0,0,0-10.4,1.39C353.2,59.48,352.93,60.41,353.27,60.8Z"/><path class="cls-4" d="M347.62,48.73s5-16.26,12.11-20.67c8.64-5.33,13.59,4.25,22,.94s16.67-8.43,26.22-2.64c10.45,6.35,6.43,12,8.16,22.94,7,44.52,16.5,56.34,16.66,35,0-2.33,6.24-4.83,6.19-14.69-.06-12.78-1.15-28.2-4.9-36.89-3.16-7.33-8-12.11-16.34-17.09-13.16-7.85-30-6.32-41.24-4S344.58,29.32,347.62,48.73Z"/><path class="cls-1" d="M431.13,83.8a6.79,6.79,0,0,1,6.62-7.26c4.69,0,10.13,2.07,10.8,11.69,1.21,17.07-16.18,14.76-16.24,14.27C432.26,102.17,431.57,91,431.13,83.8Z"/><path class="cls-6" d="M435.57,95.82c.07-.06.31.19.83.38a2.94,2.94,0,0,0,2.22-.11c1.76-.79,3.08-3.76,2.94-6.84a9.72,9.72,0,0,0-1.13-4.2,3.43,3.43,0,0,0-2.4-2.12,1.51,1.51,0,0,0-1.69.93c-.2.5-.07.83-.15.87s-.39-.26-.3-1a1.92,1.92,0,0,1,.59-1.12,2.29,2.29,0,0,1,1.62-.55,4.2,4.2,0,0,1,3.29,2.43,10.23,10.23,0,0,1,1.37,4.69c.13,3.44-1.41,6.79-3.82,7.67a3.17,3.17,0,0,1-2.75-.26C435.63,96.23,435.51,95.85,435.57,95.82Z"/><path class="cls-4" d="M427.41,50.87c-2.05,1.73-4.23,3.53-6.86,4.07s-5.84-.69-6.56-3.28c-.32-1.16-.17-2.56-1.05-3.4-1-1-2.72-.48-4.13-.18a10.93,10.93,0,0,1-12.07-6.63c-1.06,2-4,2.24-6.05,1.2s-3.47-2.92-5.14-4.48-3.93-2.87-6.14-2.32c-1.24.31-2.34,1.18-3.62,1.19-2.26,0-3.61-2.47-4.18-4.65s-1.09-4.75-3.11-5.76-4.07-.06-6.1.46-4.73.3-5.46-1.65a4.05,4.05,0,0,1,.44-3.17A11.07,11.07,0,0,1,370,16.77a15,15,0,0,1,27.14-5.71,15.23,15.23,0,0,1,24.8,3,11.31,11.31,0,0,1,11.88,2.71,11.33,11.33,0,0,1,2.15,12c3.23,1.43,6.16,4.2,6.59,7.72s-2.65,7.37-6.14,6.79a6.12,6.12,0,0,1-9.9,7.15"/><path class="cls-7" d="M437.62,43.16c.06,0,.46,1.4-.72,3.38a5.49,5.49,0,0,1-3.2,2.38,6,6,0,0,1-5-.91l.71-.18a17.21,17.21,0,0,1-3,4.59,9.66,9.66,0,0,1-2.9,2.24,6.59,6.59,0,0,1-3.39.67A6.72,6.72,0,0,1,415,53a9.81,9.81,0,0,1-1.74-3.4,3.45,3.45,0,0,1-.28-1.36c.08,0,.27.43.64,1.23a11.6,11.6,0,0,0,1.9,3.07c1.86,2.27,7.24,3,10.25-.81a17,17,0,0,0,2.83-4.31l.25-.53.46.35a5.21,5.21,0,0,0,4.23.89,5.08,5.08,0,0,0,2.92-1.94A8.28,8.28,0,0,0,437.62,43.16Z"/><path class="cls-8" d="M354.22,6.17c-.1-.16-1.7,1.19-2.68,4.19a14.46,14.46,0,0,0-.8,5.43A9.66,9.66,0,0,0,353.39,22a13.77,13.77,0,0,0,5.85,3.37,38.59,38.59,0,0,0,5.25,1.21c3,.48,4.87.72,4.91.56s-1.78-.71-4.73-1.4c-1.47-.36-3.22-.78-5.08-1.43a13.52,13.52,0,0,1-5.32-3.15,8.84,8.84,0,0,1-2.41-5.49,15.35,15.35,0,0,1,.5-5.11A20.12,20.12,0,0,1,354.22,6.17Z"/><path class="cls-8" d="M349.88,26.59a12.58,12.58,0,0,0,6.27,2.26c1.73.09,2.76-.25,2.74-.39s-1.05-.17-2.63-.47a14.83,14.83,0,0,1-9.91-6.91c-.82-1.37-1.16-2.35-1.35-2.3s-.09,1.11.59,2.7"/><path class="cls-4" d="M382.32,72.18a19.09,19.09,0,0,1,1-3.75A13.85,13.85,0,0,1,390.45,61a13.19,13.19,0,0,1,3.31-1,13.34,13.34,0,0,1,3.75-.14A13.63,13.63,0,0,1,405,63a13.42,13.42,0,0,1,4.55,7.73A13.49,13.49,0,0,1,408,80.23a13.65,13.65,0,0,1-16.37,6.11,14.3,14.3,0,0,1-3.74-2,14.61,14.61,0,0,1-2.81-2.86,13.41,13.41,0,0,1-2.54-6.69c0-.55-.07-1.09-.1-1.62a4,4,0,0,0,0-.82.64.64,0,0,0-.27-.45,1.69,1.69,0,0,0-.35-.22,9.26,9.26,0,0,0-2.75-1,7.76,7.76,0,0,0-4.58.52,7.21,7.21,0,0,0-2.3,1.79,6,6,0,0,0-.48.59.82.82,0,0,0-.14.21s.24-.25.71-.72a7.77,7.77,0,0,1,2.31-1.65,7.56,7.56,0,0,1,4.42-.4,9,9,0,0,1,2.63,1c.22.13.41.23.4.38a4.65,4.65,0,0,1-.06.76c0,.54.05,1.1.08,1.67a13.88,13.88,0,0,0,2.55,7,15.16,15.16,0,0,0,2.9,3,15,15,0,0,0,3.88,2.11,14.2,14.2,0,0,0,17.1-6.33,14.08,14.08,0,0,0,1.59-9.9,13.83,13.83,0,0,0-4.78-8,14,14,0,0,0-7.82-3.27,14.29,14.29,0,0,0-3.89.18,13.63,13.63,0,0,0-3.41,1.1,14,14,0,0,0-4.83,3.74,13.73,13.73,0,0,0-2.32,4,12.76,12.76,0,0,0-.72,2.83A5.88,5.88,0,0,0,382.32,72.18Z"/><path class="cls-4" d="M344.4,79.47a25.33,25.33,0,0,1,.08-3.42,13.91,13.91,0,0,1,4-8.17,13.7,13.7,0,0,1,12.58-3.67A13.73,13.73,0,0,1,368,68.07a13.62,13.62,0,0,1,2.2,16,12.88,12.88,0,0,1-2.46,3.27,13.06,13.06,0,0,1-3.16,2.32,13.72,13.72,0,0,1-13.11-.13,14,14,0,0,1-6.07-6.78,25.8,25.8,0,0,1-1-3.26,3.67,3.67,0,0,0,.1.88,6.23,6.23,0,0,0,.23,1.06,9.41,9.41,0,0,0,.45,1.41,14,14,0,0,0,12.34,8.92,14.22,14.22,0,0,0,7.32-1.6,13,13,0,0,0,3.31-2.4,13.34,13.34,0,0,0,2.58-3.4,14.17,14.17,0,0,0-2.3-16.69,13.53,13.53,0,0,0-3.4-2.58,13.3,13.3,0,0,0-3.84-1.41,14.21,14.21,0,0,0-7.48.44A14.05,14.05,0,0,0,344.24,76a9.61,9.61,0,0,0-.05,1.48,5.63,5.63,0,0,0,.07,1.08A4,4,0,0,0,344.4,79.47Z"/><path class="cls-4" d="M409.88,76.25c-.05.16,4.75,1.78,10.71,3.62s10.85,3.19,10.9,3-4.75-1.78-10.72-3.62S409.93,76.09,409.88,76.25Z"/><path class="cls-2" d="M348.59,107.27c0-1,0-3.55.27-3.46,3.77,1.08,6.2,0,9.71-3.43,4.7-4.54,6.77-7.72,14.79-7.5a29,29,0,0,1,12,3,47,47,0,0,0,32,3.42l10,12.76s-9.41,34.42-49.82,34.42C349.84,146.47,349,116.67,348.59,107.27Z"/><path class="cls-9" d="M349,108.41c4.84.85,6.67-.58,10.7-4.48s5.78-5.49,11.36-6.09c4.75-.52,14.2,2.76,18.6,4.62,9.24,3.9,20.59,2.53,30.32.1l-.47-.54-2.26-2.9a47,47,0,0,1-32-3.41,28.87,28.87,0,0,0-12-3c-8-.22-10.09,3-14.78,7.5-3.49,3.38-5.76,3.56-9.62,3.59,0,0-.32.14-.3,1.5A22.45,22.45,0,0,0,349,108.41Z"/><path class="cls-4" d="M352.16,120.24a2.46,2.46,0,0,1,.6.05l1.7.25c.74.12,1.64.25,2.7.36s2.25.28,3.58.36,2.79.22,4.36.25,3.24,0,5,0a98.45,98.45,0,0,0,11.42-1,98.4,98.4,0,0,0,11.2-2.45c1.69-.51,3.3-1,4.77-1.52s2.85-1,4.09-1.53,2.34-1,3.31-1.41,1.8-.81,2.47-1.15l1.56-.74a2.17,2.17,0,0,1,.56-.22,4.68,4.68,0,0,1-.51.32l-1.52.82c-.65.37-1.47.79-2.44,1.23s-2,1-3.29,1.49-2.59,1.08-4.08,1.59-3.09,1.05-4.79,1.58a92.11,92.11,0,0,1-11.25,2.5,91.11,91.11,0,0,1-11.49,1c-1.78,0-3.46,0-5-.08s-3-.18-4.37-.31-2.53-.3-3.59-.44-2-.3-2.69-.45l-1.69-.34A2.33,2.33,0,0,1,352.16,120.24Z"/><path class="cls-4" d="M363.63,128.84a8.43,8.43,0,0,1,1.4.25c.45.1,1,.22,1.63.33s1.36.26,2.17.35a46.31,46.31,0,0,0,5.7.48,51.89,51.89,0,0,0,7-.33,52.7,52.7,0,0,0,6.86-1.36,48,48,0,0,0,5.42-1.83c.76-.28,1.43-.61,2-.87s1.1-.5,1.51-.7a5.89,5.89,0,0,1,1.3-.58,8.6,8.6,0,0,1-1.21.76c-.39.23-.88.51-1.47.79s-1.25.63-2,.94a44.74,44.74,0,0,1-5.43,2,45.1,45.1,0,0,1-14,1.7,43,43,0,0,1-5.74-.59c-.82-.12-1.54-.3-2.18-.44s-1.18-.28-1.62-.41A8.2,8.2,0,0,1,363.63,128.84Z"/><path class="cls-7" d="M426.19,112.88s.17-.06.45-.19a5.81,5.81,0,0,0,1.08-.74,28.3,28.3,0,0,0,3.07-3.19c2.25-2.65,3.94-4.92,4.07-4.83a25.92,25.92,0,0,1-3.67,5.17,19.73,19.73,0,0,1-3.24,3.14,4.31,4.31,0,0,1-1.24.64C426.38,113,426.19,112.91,426.19,112.88Z"/><path class="cls-7" d="M430.32,85a13.28,13.28,0,0,1-1.27,2.69,51.43,51.43,0,0,1-3.89,6,50.47,50.47,0,0,1-4.67,5.45,14.14,14.14,0,0,1-2.21,2,22.3,22.3,0,0,1,2-2.24c1.21-1.35,2.85-3.27,4.52-5.5s3-4.34,4-5.9A23.87,23.87,0,0,1,430.32,85Z"/><g class="cls-5"><path d="M356.24,121.14s17.67,4,26.56,2.67,16.55-5.28,23.69-10.74C406.36,114,379.16,125.3,356.24,121.14Z"/></g><path class="cls-4" d="M362.07,110.83c0-.09,1.61.21,4.19.53a74.28,74.28,0,0,0,10.14.58,75.07,75.07,0,0,0,10.12-.84c2.57-.39,4.15-.73,4.17-.65a4.38,4.38,0,0,1-1.09.35c-.7.19-1.74.42-3,.66a59.87,59.87,0,0,1-10.18,1,60.49,60.49,0,0,1-10.19-.73c-1.3-.21-2.33-.41-3-.59A5.28,5.28,0,0,1,362.07,110.83Z"/><path class="cls-10" d="M14.07,90.09C15.34,83.89,20.56,53.6,21.6,49a25.92,25.92,0,0,1,10.09-15.6c5.21-3.59,12.61-4.38,17.83-.81h0a10.81,10.81,0,0,1,6.58,8.63C62.25,88.62,42.82,189,41.59,236.88c-17.1.28-23.91,4.8-40.67,1.45C-2.88,203.82,5.84,130.32,14.07,90.09Z"/><path class="cls-4" d="M106.18,5.15C93.84,2,82.45,6,71.33,12.18S51.41,28.4,45.88,39.87C40,52,37.38,69.9,40.06,83a39,39,0,0,0,22.38,28.35c16.73,7.47,36.68,8.35,52.12-1.5S139.79,82.49,142,64.3c1.48-12.53-.49-25.63-6.68-36.63S118.49,8,106.18,5.15"/><path class="cls-4" d="M67.19,44.87c2.21-4.64,1.93-10,3.06-15.06,2.49-11,12.21-19.29,23-22.82,10-3.27,21.77-1.44,33.14,3.26,7.79,3.23,15,8.34,19.78,15.26a35.2,35.2,0,0,1,3.93,32L93.56,44.65c-5.71,4-11.55,8.07-18.24,10a11.87,11.87,0,0,1-6,.48,5.35,5.35,0,0,1-4.16-4C64.77,48.91,66.23,46.89,67.19,44.87Z"/><path class="cls-1" d="M126.32,26.13,75.56,32.72a9.35,9.35,0,0,0-9.43,8.43l-8,108.08a33.74,33.74,0,0,0,5.41,20.93l4.27,6.53c9.74,14.86,31.84,15.21,41.38.22a11.85,11.85,0,0,0,1.38-2.74,23.36,23.36,0,0,0,.66-2.4,78.25,78.25,0,0,0,2.17-16.29c1.26-9.58,1.73-13.51,1.72-13.42s20.64-.95,28-26.86c3.65-12.88,5.56-34.48,6.55-52.21C150.48,47,142.3,26.34,126.32,26.13Z"/><path class="cls-4" d="M141.12,82.65a3.41,3.41,0,0,1-3.67,3,3.28,3.28,0,0,1-3.13-3.47,3.41,3.41,0,0,1,3.67-3A3.26,3.26,0,0,1,141.12,82.65Z"/><path class="cls-4" d="M143.59,73.63c-.47.39-2.81-1.81-6.46-2.24s-6.53,1.08-6.87.59c-.17-.22.35-1,1.62-1.68a9.41,9.41,0,0,1,5.57-1,9,9,0,0,1,5.07,2.33C143.54,72.61,143.82,73.46,143.59,73.63Z"/><path class="cls-4" d="M108.65,79.39a3.41,3.41,0,0,1-3.67,3A3.26,3.26,0,0,1,101.85,79a3.42,3.42,0,0,1,3.67-3A3.26,3.26,0,0,1,108.65,79.39Z"/><path class="cls-4" d="M109,70c-.48.4-2.82-1.81-6.46-2.23s-6.53,1.08-6.88.58c-.17-.22.35-1,1.62-1.67a9.35,9.35,0,0,1,5.57-1A9,9,0,0,1,107.88,68C108.9,69,109.18,69.79,109,70Z"/><path class="cls-4" d="M117.7,98.64c0-.21,2.32-.33,6-.36.94,0,1.84-.07,2.07-.68a4.8,4.8,0,0,0-.29-2.84c-.61-2.35-1.24-4.82-1.91-7.41-2.62-10.54-4.4-19.17-4-19.27s2.89,8.36,5.51,18.91c.63,2.59,1.22,5.07,1.79,7.44.23,1.1.69,2.37,0,3.71a2.38,2.38,0,0,1-1.69,1.17,6.35,6.35,0,0,1-1.61,0C120,99.1,117.69,98.85,117.7,98.64Z"/><path class="cls-6" d="M115.08,142.06a67.58,67.58,0,0,1-34.23-13.65s6.71,19.34,33.43,20Z"/><path class="cls-6" d="M115.11,107.24a6.58,6.58,0,0,0-5.59-3.14,6,6,0,0,0-4.41,1.73,3.81,3.81,0,0,0-.8,4.3c.82,1.5,2.83,2.07,4.63,1.78a14,14,0,0,0,5-2.22,4,4,0,0,0,1.17-1,1.21,1.21,0,0,0,.15-1.35"/><path class="cls-4" d="M106.68,99.88c.59,0,.13,4,3.18,7.21s7.31,3.27,7.28,3.83c0,.25-1,.66-2.82.49a9.91,9.91,0,0,1-6.1-3,8.59,8.59,0,0,1-2.41-6C105.85,100.76,106.41,99.83,106.68,99.88Z"/><path class="cls-4" d="M110.7,59.17c-.47.95-4.06,0-8.39,0s-7.93.76-8.4-.19c-.2-.46.51-1.32,2-2.11a14.6,14.6,0,0,1,12.79.11C110.22,57.85,110.91,58.72,110.7,59.17Z"/><path class="cls-4" d="M144.43,62.77c-.74.75-3.15-.41-6.16-.81s-5.64-.1-6.12-1c-.21-.45.29-1.23,1.5-1.88a9,9,0,0,1,9.9,1.49C144.51,61.51,144.76,62.4,144.43,62.77Z"/><path class="cls-4" d="M58.65,36.43C65,21.64,89.29,2.74,105.17,5.45l24,17.87A24.79,24.79,0,0,1,110.57,40.5c-4.65.92-10.12.76-13.2,4.37S95.26,54.5,92.3,58.33c-4.1,5.31-13.74,4.08-17,9.94-1.43,2.56-1.14,5.82-2.61,8.36-2,3.38-11.37,7-15,5.43s-3-7.86-3.85-11.29c-1.51-5.86-.36-8.7.63-11.79C56.87,51.67,55.6,43.49,58.65,36.43Z"/><path class="cls-1" d="M68.34,86.27c.23-2-1.49-6.87-3.4-7.4-5.09-1.43-14.48-2.12-16.14,11-2.26,18,16.27,16.55,16.36,16S67.55,93.07,68.34,86.27Z"/><path class="cls-6" d="M60.53,98.43c-.08-.06-.35.18-.91.36a3.14,3.14,0,0,1-2.34-.25c-1.82-.93-3-4.15-2.72-7.4A10.32,10.32,0,0,1,56,86.76a3.64,3.64,0,0,1,2.65-2.11,1.63,1.63,0,0,1,1.75,1.09c.17.54,0,.88.11.92s.42-.25.37-1a2,2,0,0,0-.57-1.22,2.4,2.4,0,0,0-1.67-.67A4.45,4.45,0,0,0,55,86.13,10.81,10.81,0,0,0,53.31,91c-.34,3.64,1.08,7.27,3.59,8.34a3.42,3.42,0,0,0,2.93-.11C60.44,98.87,60.58,98.47,60.53,98.43Z"/><path class="cls-11" d="M40.33,59.15c-.13,0-.44-2.08-.24-5.47a39.91,39.91,0,0,1,10.28-24c2.32-2.49,4.05-3.7,4.13-3.6.31.26-6.22,5.78-10.18,15.21S40.74,59.2,40.33,59.15Z"/><path class="cls-4" d="M124.37,17.44c1.07,7.48,11.49,17.8,15.94,23.92,8.48,11.66,10.12,13.41,7.37,46.3,5.09-8.08,9.76-22.53,10.18-32.07s-2.32-19.34-8.39-26.72-15.58-12-25.1-11.43"/><path class="cls-7" d="M49.47,35.46a18.94,18.94,0,0,0,3,1c1,.3,2.18.64,3.61.93s3,.71,4.84,1a85.63,85.63,0,0,0,12.79,1.16A97.31,97.31,0,0,0,89.4,38.39a97.41,97.41,0,0,0,15.26-3.84,86.6,86.6,0,0,0,11.79-5.1c1.65-.79,3-1.69,4.3-2.42a34.87,34.87,0,0,0,3.13-2,17.81,17.81,0,0,0,2.54-1.89,17.94,17.94,0,0,0-2.77,1.54c-.86.54-1.92,1.18-3.21,1.84s-2.68,1.52-4.34,2.26a96,96,0,0,1-11.76,4.84,103.75,103.75,0,0,1-15.11,3.71,102.7,102.7,0,0,1-15.51,1.19A95.22,95.22,0,0,1,61,37.6c-1.81-.19-3.41-.55-4.83-.79s-2.63-.51-3.62-.75A18.54,18.54,0,0,0,49.47,35.46Z"/><path class="cls-7" d="M46.55,48.25a7.87,7.87,0,0,0,2.05.68,51.9,51.9,0,0,0,5.76,1.21,72.85,72.85,0,0,0,19.41.4,73,73,0,0,0,18.82-4.76,51.12,51.12,0,0,0,5.35-2.48,8.35,8.35,0,0,0,1.84-1.12c-.08-.17-2.83,1.2-7.46,2.88a83.47,83.47,0,0,1-18.67,4.4,83.37,83.37,0,0,1-19.18-.08C49.58,48.79,46.59,48.07,46.55,48.25Z"/><path class="cls-7" d="M42,48.34A11.67,11.67,0,0,0,41.12,51a71.92,71.92,0,0,0-1.35,7.49,107.22,107.22,0,0,0-.91,11.25,74.08,74.08,0,0,0,.74,13.84A36.41,36.41,0,0,0,52,105.15a35.31,35.31,0,0,0,6.41,4.15,11.48,11.48,0,0,0,2.57,1.11,16.32,16.32,0,0,0-2.36-1.48,41.93,41.93,0,0,1-6.11-4.38,33.43,33.43,0,0,1-7-8.51A36.85,36.85,0,0,1,40.69,83.4a78.26,78.26,0,0,1-.81-13.63c.07-4.22.34-8,.67-11.19s.68-5.73,1-7.49A15.82,15.82,0,0,0,42,48.34Z"/><path class="cls-2" d="M146.39,108.11a1.52,1.52,0,0,0-1.34-1.89c-3.81-.28-6.53-2.75-9.67-6.34-4.2-4.8-5.95-8-13.77-8.49a28.23,28.23,0,0,0-11.92,1.94,45.88,45.88,0,0,1-31.34.74l-10.72,11.6s8,36.35,47.45,36.39C136.85,142.08,144.64,115.54,146.39,108.11Z"/><path class="cls-9" d="M135.48,99.73c-4.19-4.8-5.95-8.06-13.76-8.49a28.07,28.07,0,0,0-11.92,1.94,45.85,45.85,0,0,1-31.35.73L76,96.54l-.5.49c9.27,3.15,20.19,5.4,29.49,2.36,4.43-1.45,13.88-3.88,18.46-3,5.36,1,6.82,4.29,10.42,8.4s6.84,7.09,11.62,6.65l.38-1.59c.18-.67.33-1.25.46-1.74A1.56,1.56,0,0,0,145,106.2C141.23,105.87,138.6,103.29,135.48,99.73Z"/><path class="cls-4" d="M140,119.7a2.17,2.17,0,0,1-.58.11l-1.67.19c-.73.09-1.62.18-2.65.22s-2.22.15-3.53.14-2.74,0-4.27,0-3.18-.18-4.9-.32a90.06,90.06,0,0,1-11.1-1.85,89.67,89.67,0,0,1-10.74-3.35c-1.6-.65-3.13-1.25-4.52-1.92s-2.68-1.27-3.84-1.88-2.18-1.2-3.08-1.71-1.67-1-2.27-1.39L85.45,107a3.84,3.84,0,0,1-.47-.35,2,2,0,0,1,.53.26l1.45.85c.63.37,1.39.83,2.31,1.31s1.93,1.08,3.11,1.63,2.44,1.22,3.85,1.82,2.91,1.23,4.51,1.87a96.14,96.14,0,0,0,10.69,3.28,93.35,93.35,0,0,0,11,1.88c1.71.15,3.33.33,4.86.37s3,.11,4.26.11,2.48,0,3.51-.06,1.93-.07,2.65-.13l1.68-.1A2.24,2.24,0,0,1,140,119.7Z"/><path class="cls-4" d="M128.16,127.13a6.56,6.56,0,0,1-1.35.33c-.44.1-1,.2-1.61.28s-1.35.2-2.15.24a41.92,41.92,0,0,1-5.63.12,49.35,49.35,0,0,1-6.84-.86,47.24,47.24,0,0,1-6.62-1.93A43.64,43.64,0,0,1,98.84,123c-.72-.36-1.33-.76-1.88-1.08A16.24,16.24,0,0,1,95.6,121a6.55,6.55,0,0,1-1.11-.84,7,7,0,0,1,1.21.67c.38.23.85.51,1.41.81s1.17.66,1.9,1a47,47,0,0,0,5.11,2.22,46.66,46.66,0,0,0,13.33,2.76,49.23,49.23,0,0,0,5.58,0c.79,0,1.51-.12,2.14-.17s1.17-.12,1.61-.19A8.59,8.59,0,0,1,128.16,127.13Z"/><path class="cls-7" d="M68.64,106.57a12.69,12.69,0,0,1-3.6-.1,12.06,12.06,0,0,1-3.54-.61,12.6,12.6,0,0,1,3.59.1A12.26,12.26,0,0,1,68.64,106.57Z"/><path class="cls-7" d="M66.87,79.15a18.6,18.6,0,0,1,1.35,2.56c.8,1.58,2,3.75,3.4,6.05s2.87,4.3,3.95,5.71a19.23,19.23,0,0,1,1.7,2.34,13.27,13.27,0,0,1-2-2.11A49.14,49.14,0,0,1,71.18,88a49.85,49.85,0,0,1-3.29-6.18A12.81,12.81,0,0,1,66.87,79.15Z"/><g class="cls-5"><path d="M136,120.25s-17.5,2.47-26,.44-15.66-6.46-22.16-12.35C87.82,109.29,113.35,122.44,136,120.25Z"/></g><path class="cls-4" d="M131.13,109.75A4.93,4.93,0,0,1,130,110c-.7.11-1.73.23-3,.33a59.18,59.18,0,0,1-10-.11,58.4,58.4,0,0,1-9.81-1.8c-1.23-.34-2.22-.65-2.89-.89a4.19,4.19,0,0,1-1-.43c0-.08,1.54.38,4,1a70.78,70.78,0,0,0,19.67,1.9C129.56,109.82,131.12,109.66,131.13,109.75Z"/><path class="cls-7" d="M10.54,238.39s0-.17,0-.51-.05-.86-.08-1.5c-.07-1.34-.16-3.28-.28-5.76-.08-1.25-.09-2.65-.08-4.17v-5c0-1.78.07-3.68.16-5.7s.15-4.15.28-6.39c.58-8.94,1.71-19.56,3.41-31.28s3.93-24.55,6.11-38,4-26.38,5-38.17c.25-3,.51-5.82.62-8.62s.33-5.52.38-8.15c.14-5.26.25-10.18.82-14.64a44.74,44.74,0,0,1,2.89-11.74,30.69,30.69,0,0,1,4.64-7.86,22.46,22.46,0,0,1,4.18-4,13.53,13.53,0,0,1,1.69-1.09s-.13.11-.41.3-.7.46-1.21.87a23.2,23.2,0,0,0-4.1,4A30.88,30.88,0,0,0,30,58.87a45.18,45.18,0,0,0-2.8,11.68c-.54,4.43-.63,9.34-.75,14.6,0,2.64-.23,5.36-.35,8.16S25.74,99,25.49,102c-1,11.81-2.78,24.72-5,38.22s-4.44,26.31-6.14,38-2.9,22.31-3.52,31.24c-.14,2.23-.22,4.36-.32,6.37s-.21,3.91-.2,5.69,0,3.43,0,5,0,2.91,0,4.16c.08,2.49.14,4.42.18,5.76,0,.65,0,1.15,0,1.5S10.54,238.39,10.54,238.39Z"/><path class="cls-2" d="M113.79,152.18s12.28,10.27,17.41,14.28c9.23,7.23,23.76,49.89,23.76,49.89l-24.25,16.42-18.84-62.33Z"/><path class="cls-2" d="M59.94,135.1s-28.72,25.55-36.61,42.38c-8.57,18.28,5.2,132.06,5.2,132.06L13.66,379.72H149.55l-3.38-76.44c3.38-4.23,18.23-40.8,12.41-57.83-3.62-10.6-6.38-22-10.51-31.9A131.28,131.28,0,0,0,119.7,171.7Z"/><g class="cls-5"><path d="M144.83,282.61c-6.57,2.41-12.39,6.49-18.69,9.55s-13.56,5.13-20.27,3.15c-5.48-1.62-9.88-5.75-13.42-10.24-6.41-8.14-10.62-17.75-14.76-27.25l-10.92-25L46.7,238.58c7.48,27.25,22.21,54.87,37.69,78.5,2.78,4.25,5.83,8.62,10.35,10.92,5.17,2.64,11.51,2.07,16.88-.15s10-5.93,14.48-9.58L142,305.39c2.52-2,5.14-4.22,6.32-7.24C150.31,293,147.53,287.4,144.83,282.61Z"/></g><path class="cls-4" d="M52.53,155.48a16.9,16.9,0,0,1,1.72-2l4.19-4.88c1.64-1.92,3.16-3.62,4.33-4.79a12,12,0,0,1,2-1.8A15.7,15.7,0,0,1,63,144c-1.2,1.38-2.62,3-4.2,4.88s-3.16,3.61-4.32,4.79A11,11,0,0,1,52.53,155.48Z"/><path class="cls-4" d="M114.21,379.72a.63.63,0,0,1,0-.16c0-.14,0-.3-.06-.5-.05-.46-.11-1.1-.2-1.92-.15-1.72-.38-4.18-.67-7.29-.55-6.31-1.33-15.24-2.25-25.91l.35.18a63.79,63.79,0,0,1-30.08,9.7c-12.66.89-24.85-1.61-33.43-7l.34-.17c-1,9.9-1.85,18.15-2.45,24-.31,2.87-.55,5.13-.72,6.7l-.21,1.77-.06.45,0,.15s0-.05,0-.15l0-.46c0-.43.08-1,.14-1.77.14-1.58.35-3.85.6-6.71.55-5.82,1.33-14.08,2.27-24l0-.35.31.19c8.49,5.24,20.58,7.71,33.15,6.82a63.77,63.77,0,0,0,29.87-9.57l.32-.21,0,.39c.85,10.66,1.57,19.61,2.07,25.92.23,3.11.42,5.58.55,7.3.05.82.09,1.46.12,1.93,0,.2,0,.36,0,.49S114.22,379.72,114.21,379.72Z"/><path class="cls-4" d="M112.33,357.19a2.71,2.71,0,0,1-.51.49,17.78,17.78,0,0,1-1.56,1.3,33.21,33.21,0,0,1-6.38,3.82,49.12,49.12,0,0,1-10.5,3.46,68,68,0,0,1-13.44,1.49,70.43,70.43,0,0,1-24.2-3.68A38.62,38.62,0,0,1,49,361a17.93,17.93,0,0,1-1.71-1.09,3.23,3.23,0,0,1-.56-.43s.82.52,2.37,1.35a43.89,43.89,0,0,0,6.79,2.91,73,73,0,0,0,24.08,3.51c9.55-.11,18.11-2.15,23.78-4.76a35.72,35.72,0,0,0,6.42-3.66C111.57,357.8,112.3,357.15,112.33,357.19Z"/><path class="cls-4" d="M153,227.41a2.15,2.15,0,0,1-.21-.5l-.49-1.44c-.43-1.34-1-3.14-1.73-5.35-1.46-4.51-3.51-10.73-5.86-17.57s-4.54-13-6.13-17.49c-.77-2.18-1.41-4-1.88-5.29l-.49-1.45a1.78,1.78,0,0,1-.14-.52,2.76,2.76,0,0,1,.24.48c.15.38.35.85.58,1.41.5,1.23,1.2,3,2,5.24,1.68,4.44,3.93,10.6,6.27,17.45s4.35,13.09,5.72,17.63c.69,2.27,1.22,4.12,1.58,5.4q.24.89.39,1.47A1.86,1.86,0,0,1,153,227.41Z"/><polygon class="cls-8" points="150.01 218.3 136.49 222.03 135.13 212.82 148.64 209.09 150.01 218.3"/><path class="cls-4" d="M51.06,346.61a.9.9,0,0,1,0-.26c0-.2,0-.45,0-.76,0-.71,0-1.69-.08-2.93-.06-2.55-.11-6.23-.15-10.78-.08-9.11-.06-21.68,0-35.57s.14-26.43.18-35.57c0-4.52,0-8.19,0-10.78,0-1.24,0-2.22,0-2.93l0-.77a.76.76,0,0,1,0-.26.9.9,0,0,1,0,.26c0,.21,0,.46,0,.77,0,.71.05,1.69.08,2.93.06,2.54.12,6.22.15,10.78.08,9.1.06,21.68,0,35.57s-.13,26.43-.18,35.56c0,4.52,0,8.2,0,10.78,0,1.25,0,2.22,0,2.94,0,.31,0,.56,0,.76A.9.9,0,0,1,51.06,346.61Z"/><g class="cls-5"><path d="M51.22,362.17a31.4,31.4,0,0,0,12.86,7.54,52.78,52.78,0,0,0,16.78,2.22,43.26,43.26,0,0,0,14.66-2.25A22,22,0,0,0,107,360.63c-3.71,3.07-8.59,4.28-13.34,5.05-14.5,2.34-28.41.86-42.43-3.51"/></g><path class="cls-4" d="M257.94,196a4.21,4.21,0,0,0-3.16-2.35,5.37,5.37,0,0,0-3.88,1.72c-3.53,3.17-5.63,7.6-7.63,11.9L259.05,200A12.43,12.43,0,0,0,257.94,196Z"/><path class="cls-1" d="M42.68,218.51s38.68,95.65,61.15,102c18.24,5.17,99.9-65.1,99.9-65.1l-20-22.66-68.45,34.56L88.08,200.74Z"/><path class="cls-6" d="M42.68,218.51l.76-.31,2.28-.91,8.88-3.52L88,200.59l.14-.05.06.14c7.31,17.87,16.59,40.57,27.23,66.56l-.31-.12,68.43-34.58.18-.09.13.15,20,22.66.17.2-.2.17-5.24,4.43c-12.42,10.39-24.79,20.25-37,29.41-6.12,4.57-12.2,9-18.28,13.09s-12.14,8-18.29,11.41a93.77,93.77,0,0,1-9.35,4.57,40.6,40.6,0,0,1-4.82,1.7,18.57,18.57,0,0,1-5,.78,9.9,9.9,0,0,1-4.8-1.4,24.31,24.31,0,0,1-4-2.83,54.84,54.84,0,0,1-6.59-6.9,141.57,141.57,0,0,1-10.38-14.78c-3.07-4.92-5.83-9.75-8.37-14.41-5.09-9.31-9.33-17.93-13-25.54s-6.6-14.23-9-19.66-4.17-9.68-5.37-12.57c-.58-1.44-1-2.54-1.34-3.29s-.43-1.13-.43-1.13.17.37.48,1.11l1.39,3.27c1.22,2.87,3,7.1,5.45,12.52s5.42,12,9.06,19.63,7.91,16.19,13,25.48c2.56,4.65,5.32,9.47,8.39,14.37a141.38,141.38,0,0,0,10.37,14.73,55.36,55.36,0,0,0,6.54,6.83,23.74,23.74,0,0,0,3.95,2.77,9.44,9.44,0,0,0,4.58,1.34,17.87,17.87,0,0,0,4.88-.77,40.37,40.37,0,0,0,4.77-1.68,95.07,95.07,0,0,0,9.3-4.56c12.23-6.85,24.26-15.38,36.49-24.49s24.57-19,37-29.4l5.24-4.43,0,.37-20-22.66.31.06-68.47,34.53-.22.11-.09-.23c-10.59-26-19.83-48.72-27.1-66.61l.2.09-33.4,13-8.94,3.46-2.32.89Z"/><path class="cls-2" d="M46.25,157.8s-24.79,11.47-22.8,40.27a211.86,211.86,0,0,0,10.17,51.55l73.68-15.28s-10.53-35.69-16-50.64C86.15,169.34,66,148.48,46.25,157.8Z"/><path class="cls-4" d="M46.25,157.8s.66-.33,2-.87a23.92,23.92,0,0,1,6.06-1.42,25.23,25.23,0,0,1,9.86,1.06,37.39,37.39,0,0,1,11.69,6.27A52.36,52.36,0,0,1,86.9,174.76a42.8,42.8,0,0,1,4.34,8.07c1.11,3,2.15,6,3.21,9.22,4.2,12.72,8.55,27,13.09,42.22l.08.27-.27.05L75,241.3l-41.36,8.56-.21,0-.07-.21a192.9,192.9,0,0,1-5.64-20.59c-1.46-6.67-2.56-13.1-3.33-19.21-.22-1.52-.35-3-.52-4.52s-.3-2.95-.41-4.39a58.33,58.33,0,0,1-.28-8.4,40.22,40.22,0,0,1,3.43-14.45A40.76,40.76,0,0,1,33.2,168a45.85,45.85,0,0,1,6.6-6.16,42.35,42.35,0,0,1,4.71-3.13c.56-.31,1-.54,1.29-.68s.45-.2.45-.2l-.43.24c-.29.15-.72.39-1.27.72a43.91,43.91,0,0,0-4.64,3.18,45.7,45.7,0,0,0-6.53,6.19,41.25,41.25,0,0,0-6.46,10.14,40.13,40.13,0,0,0-3.34,14.34,60.73,60.73,0,0,0,.3,8.34c.12,1.44.25,2.91.43,4.39s.31,3,.53,4.51c.79,6.09,1.9,12.51,3.37,19.16a193.14,193.14,0,0,0,5.65,20.53l-.29-.16,41.36-8.59,32.32-6.69-.19.32c-4.53-15.26-8.86-29.52-13-42.23C93,189,92,185.92,90.85,183a42.44,42.44,0,0,0-4.28-8A52.52,52.52,0,0,0,75.63,163.1a36.84,36.84,0,0,0-11.57-6.28,24.21,24.21,0,0,0-15.81.19c-.66.25-1.15.47-1.49.6Z"/><path class="cls-4" d="M103.19,221a3.41,3.41,0,0,1-.74.2l-2.13.47-7.86,1.72c-6.63,1.46-15.75,3.65-25.81,6.14s-19.21,4.63-25.87,6c-3.32.69-6,1.22-7.89,1.55l-2.16.38a4.21,4.21,0,0,1-.75.1,3.41,3.41,0,0,1,.73-.2l2.14-.48,7.86-1.71c6.63-1.46,15.75-3.65,25.81-6.14s19.21-4.63,25.86-6c3.33-.69,6-1.22,7.9-1.55l2.15-.38A4.35,4.35,0,0,1,103.19,221Z"/><rect class="cls-7" x="283.2" y="222.32" width="5.22" height="2.13" transform="translate(-39.14 384.62) rotate(-64.4)"/><polygon class="cls-8" points="231.98 197.81 239.68 201.77 239.64 202.55 283.64 225.48 286.24 220.59 241.84 197.63 241.37 198.64 233.76 194.57 231.98 197.81"/><polygon class="cls-7" points="282.15 218.58 279.57 223.35 283.64 225.48 284.96 222.71 286.24 220.59 282.15 218.58"/><path class="cls-4" d="M266.1,210a2.43,2.43,0,0,1-.38,1,4.15,4.15,0,0,1-.57.91,2.43,2.43,0,0,1,.38-1A3.76,3.76,0,0,1,266.1,210Z"/><path class="cls-4" d="M261.85,207.94c.07,0-.1.48-.38,1a4.35,4.35,0,0,1-.56.91c-.07,0,.1-.49.38-1A3.83,3.83,0,0,1,261.85,207.94Z"/><path class="cls-4" d="M257.6,205.61a2.29,2.29,0,0,1-.38,1,3.32,3.32,0,0,1-.57.91,2.46,2.46,0,0,1,.38-1A3.53,3.53,0,0,1,257.6,205.61Z"/><path class="cls-4" d="M252.88,203.12a2.43,2.43,0,0,1-.38,1,3.76,3.76,0,0,1-.57.91,2.43,2.43,0,0,1,.38-1A3.76,3.76,0,0,1,252.88,203.12Z"/><path class="cls-4" d="M248.15,200.64c.07,0-.1.48-.38,1a3.67,3.67,0,0,1-.56.91c-.07,0,.1-.48.38-1A3.77,3.77,0,0,1,248.15,200.64Z"/><path class="cls-4" d="M269.81,212.09c.07,0-.08.43-.33.89a2.87,2.87,0,0,1-.52.78c-.06,0,.08-.43.34-.88A2.94,2.94,0,0,1,269.81,212.09Z"/><path class="cls-4" d="M273.41,213.83c.06,0-.09.44-.34.89a3,3,0,0,1-.51.78c-.07,0,.08-.43.33-.88A2.77,2.77,0,0,1,273.41,213.83Z"/><path class="cls-4" d="M277,215.58c.06,0-.08.43-.33.88a3.35,3.35,0,0,1-.52.79c-.06,0,.08-.44.33-.89A3.16,3.16,0,0,1,277,215.58Z"/><path class="cls-4" d="M280.59,217.32c.07,0-.08.43-.33.88a2.6,2.6,0,0,1-.52.79c-.06,0,.09-.43.34-.89A3,3,0,0,1,280.59,217.32Z"/><rect class="cls-8" x="238.1" y="199.15" width="7.88" height="3.18" rx="1.52" transform="translate(-49.63 318.25) rotate(-61.61)"/><path class="cls-4" d="M240.11,204.17s-.32,0-.64-.46a1.56,1.56,0,0,1-.31-.91,2.47,2.47,0,0,1,.39-1.19l1.43-2.75.41-.79a2.59,2.59,0,0,1,.59-.84,1.8,1.8,0,0,1,2.12-.15A1.78,1.78,0,0,1,245,199a3.2,3.2,0,0,1-.42.91l-.43.78-1.52,2.7a2,2,0,0,1-.85.94,1.67,1.67,0,0,1-.94.16,1.31,1.31,0,0,1-.56-.21c-.11-.07-.16-.12-.15-.14s.26.13.72.15a1.5,1.5,0,0,0,1.45-1.07c.43-.84.91-1.76,1.43-2.76l.42-.79a3.25,3.25,0,0,0,.35-.78,1.25,1.25,0,0,0-.63-1.38,1.28,1.28,0,0,0-1.54.08,2.05,2.05,0,0,0-.48.69c-.15.26-.29.52-.43.78l-1.52,2.7a2.06,2.06,0,0,0-.42,1,1.45,1.45,0,0,0,.18.79C239.87,204,240.14,204.13,240.11,204.17Z"/><path class="cls-4" d="M232,197.81s0-.07.09-.2l.32-.62q.47-.87,1.29-2.46l0-.07.08,0,7.64,4-.21.07.47-1,.07-.15.15.08,44.35,22.81.23.12-.12.23c-.09.19-.19.38-.29.58l-2.21,4.37-.12.23-.24-.12-43.95-23-.07,0v-.09c0-.3,0-.54.05-.78l.07.12-5.72-3-1.45-.78-.47-.27.53.24,1.51.75,5.72,2.85.07,0v.08c0,.24,0,.48,0,.79l-.07-.13,44.06,22.82-.35.11,2.22-4.37.29-.57.11.35-44.26-23,.22-.07-.48,1-.07.14-.14-.07-7.58-4.13.12,0c-.59,1-1,1.8-1.36,2.36l-.37.61Z"/><path class="cls-4" d="M294.26,227.35a36,36,0,0,1-3.73-1.78,37.75,37.75,0,0,1-3.63-2s1.69.75,3.73,1.79S294.28,227.3,294.26,227.35Z"/><polygon class="cls-7" points="285.98 225.5 290.18 226.06 290.77 224.68 287.7 221.93 285.98 225.5"/><path class="cls-4" d="M290.77,224.68a7.57,7.57,0,0,1-.48,1.43l0,.07h-.09c-1-.1-2.44-.26-4.22-.47l.22-.12c-.11.22-.22.46-.33.71l-.09.19-.2-.09-1.94-.9-.21-.1.1-.22,2.24-4.72.11-.23.24.11.35.17,1.57.75.23.12-.11.23c-.69,1.41-1.33,2.75-1.94,4l-.42-.21c.65-1.3,1.24-2.49,1.77-3.54l.11-.22.18.16c.95.89,1.71,1.62,2.21,2.12a4.44,4.44,0,0,1,.73.77,6.28,6.28,0,0,1-.91-.7c-.56-.45-1.34-1.1-2.28-1.92l.29-.05-1.68,3.59-.42-.21,1.89-4,.12.34-1.57-.75-.35-.17.35-.12-2.28,4.7-.11-.32,1.92.94-.3.1.35-.7.07-.14.14,0c1.78.26,3.22.48,4.2.65l-.12.06A9.69,9.69,0,0,1,290.77,224.68Z"/><path class="cls-6" d="M294.77,223a2.59,2.59,0,0,1,.06.44,9.59,9.59,0,0,1,0,1.21,12.52,12.52,0,0,1-.86,3.9,12,12,0,0,1-1.45,2.66l-.14-.1.59-.76.12.09-.79.91c-.19.22-.3.33-.32.32a2,2,0,0,1,.25-.37l.74-.95.12.09c-.19.26-.38.51-.57.78l-.14-.11a13.48,13.48,0,0,0,1.4-2.64,13.84,13.84,0,0,0,.9-3.83C294.77,223.65,294.73,223,294.77,223Z"/><path class="cls-2" d="M245.74,185.76s3.46-.65,3.92,2.79-5.91,5.55-5.91,5.55c-4.74,2-11.48,4-11.48,4l-4.7,5.09,16.26,3.13,8.09-3s4.22-9.55,9.68-10.21l4.64.63-6.36,16.67s1.61,6-1.49,11c0,0,.61,3.86-2.63,8.34s-17,12.5-21.29,13.08-16.14,2.32-17.82,5.15-13,13-13,13l-27.22-30.44L194.22,219l11.29-16.44c7.06-6.66,19.73-13.71,20.6-14.6Z"/><path class="cls-4" d="M204,248.92c-.14,0-1.67-5-3.42-11.22s-3.06-11.32-2.92-11.36,1.67,5,3.42,11.22S204.15,248.88,204,248.92Z"/><path class="cls-4" d="M207.09,243.89a25.75,25.75,0,0,1-1.92-4.8,25.79,25.79,0,0,1-1.44-5,25.28,25.28,0,0,1,1.93,4.81A25.32,25.32,0,0,1,207.09,243.89Z"/><path class="cls-4" d="M259.88,210.39a3.16,3.16,0,0,1-.52.8,20,20,0,0,1-1.69,2,17,17,0,0,1-7.38,4.48,39.87,39.87,0,0,1-8.56,1.2,25.32,25.32,0,0,1-3.57.11,3.16,3.16,0,0,1,.94-.18c.62-.09,1.5-.18,2.6-.29a49.11,49.11,0,0,0,8.44-1.34,17.86,17.86,0,0,0,7.27-4.24C259,211.42,259.8,210.32,259.88,210.39Z"/><path class="cls-4" d="M257.89,221.81a10.59,10.59,0,0,1-1.93,1.81,31.58,31.58,0,0,1-5.39,3.48,32.28,32.28,0,0,1-6,2.35,10.35,10.35,0,0,1-2.6.51,19,19,0,0,1,2.5-.87,42.4,42.4,0,0,0,5.84-2.45,43.26,43.26,0,0,0,5.4-3.31A19.3,19.3,0,0,1,257.89,221.81Z"/><path class="cls-6" d="M109.9,290.91a3.09,3.09,0,0,1-.09-1c0-.62,0-1.53,0-2.64a44.66,44.66,0,0,1,4.32-16.76c.48-1,.91-1.8,1.23-2.33a3.85,3.85,0,0,1,.54-.81c.08,0-.56,1.26-1.44,3.29a56.1,56.1,0,0,0-2.8,8.15,54.73,54.73,0,0,0-1.48,8.49C110,289.54,110,290.91,109.9,290.91Z"/><path class="cls-2" d="M250.34,252.9q16.77-2.53,33.26-6.64c1.33,3.94-1.07,8.39-4.54,10.69s-7.75,3-11.88,3.47A21.83,21.83,0,0,1,248.83,278"/><path class="cls-4" d="M248.83,278a23.73,23.73,0,0,0,7.12-2.48,22,22,0,0,0,6.49-5.43,20.87,20.87,0,0,0,4.5-9.73l0-.18.18,0a42.28,42.28,0,0,0,7.45-1.43,14,14,0,0,0,6.74-4.2c2-2.31,3-5.5,2-8.21l.31.17c-9.43,2.33-17.76,4-23.73,5-3,.51-5.38.88-7,1.11l-1.9.25a5.19,5.19,0,0,1-.66.06,3,3,0,0,1,.65-.15l1.88-.34,7-1.25c5.95-1.11,14.26-2.8,23.66-5.15l.23-.06.08.23a8,8,0,0,1,.1,4.55,11,11,0,0,1-2.2,4.15,14.38,14.38,0,0,1-7,4.35,41.66,41.66,0,0,1-7.55,1.43l.21-.2a21.18,21.18,0,0,1-4.66,9.91,22.15,22.15,0,0,1-6.67,5.43,20.39,20.39,0,0,1-5.27,1.94,13.84,13.84,0,0,1-1.48.23A2.43,2.43,0,0,1,248.83,278Z"/></g></g></svg>