<svg xmlns="http://www.w3.org/2000/svg" xmlns:xlink="http://www.w3.org/1999/xlink" viewBox="0 0 1781.28 1225.56"><defs><style>.cls-1{fill:#fff;}.cls-2{fill:#6ba8f9;}.cls-3{fill:#3f7dd0;}.cls-4{fill:#f39866;}.cls-44,.cls-5,.cls-59{isolation:isolate;}.cls-6{fill:#f1eee9;}.cls-7{mask:url(#mask);}.cls-31,.cls-8{opacity:0.5;}.cls-9{fill:#20a1db;}.cls-10{fill:#dde4ed;}.cls-11{fill:#27304c;}.cls-12{fill:#ffbe9d;}.cls-13{fill:#609be2;}.cls-14{fill:#ef8054;}.cls-15{fill:#8e6e61;}.cls-16{fill:#3c7ece;}.cls-17{fill:#3e4e72;}.cls-18{fill:#b56850;}.cls-19{fill:#867d7b;}.cls-20{fill:#ada19f;}.cls-21{fill:#e4e8f4;}.cls-22{fill:#74aa51;}.cls-23{fill:#90cc6a;}.cls-24{fill:#4b742a;}.cls-25{fill:#568336;}.cls-26{fill:#af8e54;}.cls-27{fill:#abb6d8;}.cls-28{clip-path:url(#clip-path);}.cls-29{fill:#212121;}.cls-30{fill:#699d46;}.cls-31{fill:#bed3e3;mix-blend-mode:multiply;}.cls-32{fill:#fe9c70;}.cls-33{fill:#191c26;}.cls-34{fill:#4f4f68;}.cls-35{fill:#6c3939;}.cls-36{fill:#cfd5ee;}.cls-37{fill:#b77a62;}.cls-38{fill:#915743;}.cls-39{fill:#596bc1;}.cls-40{fill:#95a1c4;}.cls-41{fill:#492424;}.cls-42{fill:#824631;}.cls-43{fill:#e3e4e5;}.cls-44{font-size:40px;font-family:Montserrat-Regular, Montserrat;}.cls-45{letter-spacing:-0.01em;}.cls-46{letter-spacing:-0.01em;}.cls-47{letter-spacing:0.08em;}.cls-48{letter-spacing:-0.02em;}.cls-49{letter-spacing:-0.02em;}.cls-50{letter-spacing:0em;}.cls-51{letter-spacing:-0.01em;}.cls-52{letter-spacing:0em;}.cls-53{letter-spacing:-0.01em;}.cls-54{letter-spacing:-0.02em;}.cls-55{letter-spacing:-0.02em;}.cls-56{letter-spacing:0.01em;}.cls-57{letter-spacing:-0.02em;}.cls-58{letter-spacing:-0.01em;}.cls-59{font-size:104px;font-family:Montserrat-Bold, Montserrat;font-weight:700;}.cls-60{letter-spacing:-0.01em;}.cls-61{letter-spacing:-0.01em;}.cls-62{letter-spacing:0em;}.cls-63{fill:none;stroke:#20a1db;stroke-miterlimit:10;stroke-width:9px;}</style><mask id="mask" x="-144.61" y="0" width="1867.88" height="1211.6" maskUnits="userSpaceOnUse"><polygon class="cls-1" points="1721.74 1208.62 -144.61 1211.6 -143.08 269.42 1723.27 266.44 1721.74 1208.62"/><path class="cls-2" d="M1446.8,394.2a34.87,34.87,0,0,1-46-16.94,34.18,34.18,0,0,1,17.32-45.42,34.84,34.84,0,0,1,46,16.94A34.17,34.17,0,0,1,1446.8,394.2Z"/><polygon class="cls-2" points="1448.55 339.59 1435.8 334.89 1447.43 317.09 1451.68 318.66 1448.55 339.59"/><path class="cls-2" d="M1453.44,320.28l-8.42-3.11a2.7,2.7,0,0,1-1.61-3.51h0a2.78,2.78,0,0,1,3.56-1.6l8.42,3.1a2.71,2.71,0,0,1,1.61,3.51h0A2.78,2.78,0,0,1,1453.44,320.28Z"/><polygon class="cls-2" points="1460.59 357.62 1454.97 345.39 1481.68 338.29 1483.56 342.37 1460.59 357.62"/><path class="cls-2" d="M1484.18,346.59l-5.3-11.54a.82.82,0,0,1,.41-1.1l5-2.26a.85.85,0,0,1,1.12.41l5.3,11.53a.83.83,0,0,1-.42,1.1l-5,2.27A.85.85,0,0,1,1484.18,346.59Z"/><polygon class="cls-2" points="1456.16 378.81 1460.96 366.22 1478.97 377.63 1477.37 381.84 1456.16 378.81"/><path class="cls-2" d="M1475.72,383.58l3.17-8.32a2.79,2.79,0,0,1,3.56-1.61h0a2.72,2.72,0,0,1,1.62,3.52l-3.17,8.31a2.8,2.8,0,0,1-3.57,1.61h0A2.71,2.71,0,0,1,1475.72,383.58Z"/><polygon class="cls-2" points="1441.82 395.05 1450.53 391.13 1453.68 405.6 1450.77 406.91 1441.82 395.05"/><path class="cls-2" d="M1449.08,407l5.76-2.59a1.94,1.94,0,0,1,2.56.94h0a1.92,1.92,0,0,1-1,2.54l-5.76,2.59a2,2,0,0,1-2.57-.95h0A1.91,1.91,0,0,1,1449.08,407Z"/><polygon class="cls-2" points="1416.25 389.11 1427.45 393.24 1417.08 409.28 1413.34 407.9 1416.25 389.11"/><path class="cls-2" d="M1411.83,406.47l7.35,2.71a2.41,2.41,0,0,1,1.43,3.12l0,.05a2.48,2.48,0,0,1-3.17,1.43l-7.35-2.71a2.4,2.4,0,0,1-1.43-3.12l0-.05A2.48,2.48,0,0,1,1411.83,406.47Z"/><polygon class="cls-2" points="1404.34 368.42 1409.95 380.64 1389 385.16 1387.12 381.08 1404.34 368.42"/><path class="cls-2" d="M1387.05,378.7l3.71,8.08a2.73,2.73,0,0,1-1.38,3.62h0a2.78,2.78,0,0,1-3.66-1.35L1382,381a2.71,2.71,0,0,1,1.37-3.61h0A2.78,2.78,0,0,1,1387.05,378.7Z"/><polygon class="cls-2" points="1407.52 344.65 1402.72 357.25 1384.71 345.83 1386.31 341.62 1407.52 344.65"/><path class="cls-2" d="M1388,339.89l-3.17,8.31a2.78,2.78,0,0,1-3.56,1.61h0a2.71,2.71,0,0,1-1.62-3.51l3.17-8.32a2.79,2.79,0,0,1,3.57-1.6h0A2.7,2.7,0,0,1,1388,339.89Z"/><polygon class="cls-2" points="1425.58 335.96 1416.18 340.19 1411.62 322.05 1414.75 320.64 1425.58 335.96"/><path class="cls-2" d="M1416.34,320.82l-5.63,2.53a2.42,2.42,0,0,1-3.2-1.18l0-.08a2.37,2.37,0,0,1,1.2-3.16l5.62-2.53a2.42,2.42,0,0,1,3.2,1.18l0,.08A2.38,2.38,0,0,1,1416.34,320.82Z"/><path class="cls-3" d="M1449.85,373.87a3.46,3.46,0,0,1-5.48-2.08,6.92,6.92,0,0,1,2.73-7.34,3.45,3.45,0,0,1,5.47,2.09A6.91,6.91,0,0,1,1449.85,373.87Z"/><path class="cls-3" d="M1432.38,336.92a4.7,4.7,0,0,1-4.42-.14c-1.16-.78-1.08-2,.19-2.68a4.68,4.68,0,0,1,4.41.14C1433.73,335,1433.65,336.22,1432.38,336.92Z"/><path class="cls-3" d="M1459.3,370.7c-1.1.87-2.2.43-2.46-1a4.66,4.66,0,0,1,1.5-4.1,1.42,1.42,0,0,1,2.46,1A4.65,4.65,0,0,1,1459.3,370.7Z"/><path class="cls-3" d="M1407.2,364.31c-.61,1.25-1.81,1.34-2.68.2a4.54,4.54,0,0,1-.47-4.33c.6-1.25,1.8-1.34,2.67-.2A4.57,4.57,0,0,1,1407.2,364.31Z"/><path class="cls-3" d="M1414.35,346.63c-2.23.74-3.94-.59-3.81-3a6.77,6.77,0,0,1,4.28-5.64c2.24-.74,3.94.59,3.81,3A6.75,6.75,0,0,1,1414.35,346.63Z"/><path class="cls-3" d="M1421.08,388.94a6.83,6.83,0,0,1-6-3.84c-.88-2.15.36-3.92,2.77-3.94a6.78,6.78,0,0,1,5.95,3.84C1424.72,387.15,1423.49,388.91,1421.08,388.94Z"/><path class="cls-3" d="M1445.94,388.49a4.76,4.76,0,0,1-4.17,1.45c-1.37-.29-1.72-1.41-.79-2.5a4.77,4.77,0,0,1,4.17-1.45C1446.52,386.28,1446.87,387.4,1445.94,388.49Z"/><path class="cls-3" d="M1455.19,351.79a4,4,0,0,1-2.35-3.68,1.8,1.8,0,0,1,2.69-1.59,4,4,0,0,1,2.35,3.68A1.8,1.8,0,0,1,1455.19,351.79Z"/><path class="cls-3" d="M1413.83,359a4,4,0,0,1,.57-4.32,1.81,1.81,0,0,1,3.1.45,4,4,0,0,1-.57,4.33A1.81,1.81,0,0,1,1413.83,359Z"/><path class="cls-2" d="M682.72,428.45a34.84,34.84,0,0,1-46-16.94,34.17,34.17,0,0,1,17.32-45.42A34.84,34.84,0,0,1,700,383,34.18,34.18,0,0,1,682.72,428.45Z"/><polygon class="cls-2" points="684.47 373.84 671.73 369.14 683.36 351.34 687.61 352.91 684.47 373.84"/><path class="cls-2" d="M689.37,354.53l-8.42-3.1a2.72,2.72,0,0,1-1.62-3.52h0a2.79,2.79,0,0,1,3.57-1.6l8.42,3.1a2.71,2.71,0,0,1,1.61,3.51h0A2.78,2.78,0,0,1,689.37,354.53Z"/><polygon class="cls-2" points="696.52 391.87 690.9 379.64 717.61 372.54 719.49 376.62 696.52 391.87"/><path class="cls-2" d="M720.1,380.84l-5.3-11.54a.82.82,0,0,1,.42-1.09l5-2.27a.85.85,0,0,1,1.11.41l5.3,11.54a.81.81,0,0,1-.41,1.09l-5,2.27A.86.86,0,0,1,720.1,380.84Z"/><polygon class="cls-2" points="692.09 413.06 696.89 400.47 714.9 411.89 713.29 416.09 692.09 413.06"/><path class="cls-2" d="M711.65,417.83l3.17-8.32a2.78,2.78,0,0,1,3.56-1.6h0a2.7,2.7,0,0,1,1.61,3.51l-3.17,8.31a2.77,2.77,0,0,1-3.56,1.61h0A2.71,2.71,0,0,1,711.65,417.83Z"/><polygon class="cls-2" points="677.75 429.3 686.45 425.38 689.61 439.85 686.7 441.16 677.75 429.3"/><path class="cls-2" d="M685,441.22l5.75-2.59a2,2,0,0,1,2.57.94h0a1.91,1.91,0,0,1-1,2.54l-5.76,2.59a1.94,1.94,0,0,1-2.56-.95h0A1.9,1.9,0,0,1,685,441.22Z"/><polygon class="cls-2" points="652.17 423.36 663.38 427.49 653 443.53 649.26 442.16 652.17 423.36"/><path class="cls-2" d="M647.75,440.72l7.35,2.71a2.41,2.41,0,0,1,1.44,3.12l0,.05a2.48,2.48,0,0,1-3.17,1.43L646,445.32a2.4,2.4,0,0,1-1.43-3.12l0-.05A2.47,2.47,0,0,1,647.75,440.72Z"/><polygon class="cls-2" points="640.26 402.67 645.88 414.9 624.92 419.41 623.05 415.33 640.26 402.67"/><path class="cls-2" d="M623,413l3.71,8.07a2.72,2.72,0,0,1-1.37,3.62h0a2.79,2.79,0,0,1-3.67-1.35l-3.71-8.08a2.71,2.71,0,0,1,1.38-3.61h0A2.76,2.76,0,0,1,623,413Z"/><polygon class="cls-2" points="643.44 378.9 638.64 391.5 620.64 380.08 622.24 375.88 643.44 378.9"/><path class="cls-2" d="M623.89,374.14l-3.17,8.32a2.79,2.79,0,0,1-3.57,1.6h0a2.71,2.71,0,0,1-1.61-3.51l3.17-8.32a2.78,2.78,0,0,1,3.56-1.6h0A2.71,2.71,0,0,1,623.89,374.14Z"/><polygon class="cls-2" points="661.5 370.21 652.1 374.44 647.54 356.3 650.68 354.89 661.5 370.21"/><path class="cls-2" d="M653.89,354.34l-8.88,4a.64.64,0,0,1-.84-.31l-1.5-3.28a.61.61,0,0,1,.31-.83l8.88-4a.62.62,0,0,1,.83.31l1.51,3.28A.64.64,0,0,1,653.89,354.34Z"/><path class="cls-3" d="M685.77,408.13A3.46,3.46,0,0,1,680.3,406,6.92,6.92,0,0,1,683,398.7a3.46,3.46,0,0,1,5.47,2.09A6.92,6.92,0,0,1,685.77,408.13Z"/><path class="cls-3" d="M668.3,371.17a4.68,4.68,0,0,1-4.41-.14c-1.17-.78-1.08-2,.19-2.68a4.68,4.68,0,0,1,4.41.15C669.66,369.27,669.57,370.47,668.3,371.17Z"/><path class="cls-3" d="M695.22,405c-1.09.87-2.19.44-2.45-1a4.62,4.62,0,0,1,1.5-4.11c1.09-.86,2.19-.43,2.45,1A4.59,4.59,0,0,1,695.22,405Z"/><path class="cls-3" d="M643.12,398.56c-.61,1.25-1.8,1.34-2.67.2a4.57,4.57,0,0,1-.48-4.33c.61-1.25,1.81-1.34,2.68-.2A4.54,4.54,0,0,1,643.12,398.56Z"/><path class="cls-3" d="M650.28,380.88c-2.23.74-3.94-.58-3.81-3a6.77,6.77,0,0,1,4.28-5.64c2.23-.74,3.94.59,3.81,3A6.77,6.77,0,0,1,650.28,380.88Z"/><path class="cls-3" d="M657,423.19a6.78,6.78,0,0,1-6-3.84c-.88-2.15.35-3.92,2.76-3.94a6.79,6.79,0,0,1,6,3.84C660.65,421.4,659.41,423.16,657,423.19Z"/><path class="cls-3" d="M681.87,422.74a4.77,4.77,0,0,1-4.17,1.45c-1.37-.29-1.72-1.41-.79-2.5a4.76,4.76,0,0,1,4.17-1.45C682.45,420.53,682.8,421.65,681.87,422.74Z"/><path class="cls-3" d="M691.12,386a4,4,0,0,1-2.36-3.68,1.81,1.81,0,0,1,2.7-1.59,4,4,0,0,1,2.35,3.68A1.8,1.8,0,0,1,691.12,386Z"/><path class="cls-3" d="M649.76,393.27a4,4,0,0,1,.57-4.32,1.81,1.81,0,0,1,3.1.46,4,4,0,0,1-.57,4.32A1.81,1.81,0,0,1,649.76,393.27Z"/><path class="cls-2" d="M1360.34,671.44,1355.72,658a2.26,2.26,0,0,1,1.44-2.87l13.69-4.6a2.25,2.25,0,0,0,1.43-2.86l-2.59-7.57a2.28,2.28,0,0,0-2.9-1.4l-13.68,4.59a2.28,2.28,0,0,1-2.9-1.4l-4.62-13.49a2.28,2.28,0,0,0-2.89-1.41l-7.68,2.58a2.25,2.25,0,0,0-1.44,2.86l4.62,13.49a2.27,2.27,0,0,1-1.44,2.87l-13.69,4.59a2.27,2.27,0,0,0-1.43,2.87l2.59,7.57a2.29,2.29,0,0,0,2.9,1.4l13.68-4.6a2.29,2.29,0,0,1,2.9,1.41l4.62,13.49a2.28,2.28,0,0,0,2.89,1.41l7.68-2.58A2.26,2.26,0,0,0,1360.34,671.44Z"/><path class="cls-2" d="M927,440.74l-12.63-6.88a2.22,2.22,0,0,1-.89-3.06l7-12.48a2.23,2.23,0,0,0-.89-3.07l-7.09-3.86a2.3,2.3,0,0,0-3.1.89l-7,12.49a2.3,2.3,0,0,1-3.11.88l-12.63-6.87a2.31,2.31,0,0,0-3.11.89l-3.93,7a2.24,2.24,0,0,0,.89,3.06l12.63,6.87a2.24,2.24,0,0,1,.89,3.07l-7,12.48a2.23,2.23,0,0,0,.9,3.06l7.08,3.86a2.31,2.31,0,0,0,3.11-.89l7-12.48a2.31,2.31,0,0,1,3.11-.89l12.63,6.87a2.31,2.31,0,0,0,3.11-.88l3.93-7A2.24,2.24,0,0,0,927,440.74Z"/><path class="cls-2" d="M72.59,324.35A25,25,0,0,1,51.33,295.8a25.47,25.47,0,0,1,29-21.07,25.05,25.05,0,0,1,21.27,28.55A25.49,25.49,0,0,1,72.59,324.35Z"/><polygon class="cls-2" points="95.8 291.49 89.91 283.57 104.24 277.23 106.2 279.87 95.8 291.49"/><path class="cls-2" d="M106.62,281.56l-3.89-5.23a2,2,0,0,1,.43-2.79h0A2,2,0,0,1,106,274l3.9,5.23a2,2,0,0,1-.44,2.79h0A2,2,0,0,1,106.62,281.56Z"/><polygon class="cls-2" points="95.86 307.32 97.38 297.59 116.6 303.77 116.09 307.01 95.86 307.32"/><path class="cls-2" d="M114.78,309.73l1.39-8.94a.74.74,0,0,1,.84-.61l3.75.56a.73.73,0,0,1,.62.83L120,310.5a.76.76,0,0,1-.85.62l-3.75-.56A.72.72,0,0,1,114.78,309.73Z"/><polygon class="cls-2" points="84.56 318.59 92.6 312.75 98.98 326.87 96.3 328.82 84.56 318.59"/><path class="cls-2" d="M94.59,329.23l5.31-3.85a2,2,0,0,1,2.83.42h0a2,2,0,0,1-.44,2.79L97,332.45a2,2,0,0,1-2.83-.42h0A2,2,0,0,1,94.59,329.23Z"/><polygon class="cls-2" points="69.2 322.91 76.11 323.94 72.18 334.07 69.87 333.72 69.2 322.91"/><path class="cls-2" d="M68.81,333.09l4.57.68a1.41,1.41,0,0,1,1.19,1.59h0A1.43,1.43,0,0,1,73,336.54l-4.57-.68a1.4,1.4,0,0,1-1.19-1.59h0A1.42,1.42,0,0,1,68.81,333.09Z"/><polygon class="cls-2" points="55.96 309.17 61.14 316.12 48.29 321.88 46.56 319.56 55.96 309.17"/><path class="cls-2" d="M46.22,318.09l3.4,4.56a1.76,1.76,0,0,1-.39,2.48l0,0a1.82,1.82,0,0,1-2.52-.38l-3.4-4.56a1.77,1.77,0,0,1,.39-2.48l0,0A1.82,1.82,0,0,1,46.22,318.09Z"/><polygon class="cls-2" points="57.06 291.75 55.55 301.48 40.9 295.99 41.4 292.74 57.06 291.75"/><path class="cls-2" d="M42.32,291.25l-1,6.43A2,2,0,0,1,39,299.35h0a2,2,0,0,1-1.7-2.27l1-6.43A2,2,0,0,1,40.63,289h0A2,2,0,0,1,42.32,291.25Z"/><polygon class="cls-2" points="68.65 278.41 60.6 284.25 54.22 270.13 56.9 268.18 68.65 278.41"/><path class="cls-2" d="M58.62,267.77l-5.32,3.85a2,2,0,0,1-2.83-.42h0a2,2,0,0,1,.44-2.79l5.31-3.86a2,2,0,0,1,2.83.42h0A2,2,0,0,1,58.62,267.77Z"/><polygon class="cls-2" points="83.22 280.2 75.75 279.08 80.32 266.14 82.81 266.51 83.22 280.2"/><path class="cls-2" d="M83.7,267.25l-4.46-.67a1.73,1.73,0,0,1-1.48-2v-.07a1.77,1.77,0,0,1,2-1.46l4.46.66a1.74,1.74,0,0,1,1.48,2v.06A1.77,1.77,0,0,1,83.7,267.25Z"/><path class="cls-3" d="M82.69,313.07a2.5,2.5,0,0,1-2.5-3.45,5.18,5.18,0,0,1,4.64-3.43,2.5,2.5,0,0,1,2.51,3.44A5.18,5.18,0,0,1,82.69,313.07Z"/><path class="cls-3" d="M87,283.47a3.36,3.36,0,0,1-2.64-1.83c-.4-.94.13-1.64,1.19-1.57a3.37,3.37,0,0,1,2.65,1.83C88.59,282.84,88.05,283.54,87,283.47Z"/><path class="cls-3" d="M89.76,314.84c-1,.1-1.52-.6-1.11-1.56a3.46,3.46,0,0,1,2.58-1.93c1-.1,1.52.6,1.11,1.57A3.45,3.45,0,0,1,89.76,314.84Z"/><path class="cls-3" d="M60.48,290.36c-.88.53-1.65.11-1.72-.93a3.38,3.38,0,0,1,1.47-2.85c.88-.53,1.65-.11,1.72.93A3.38,3.38,0,0,1,60.48,290.36Z"/><path class="cls-3" d="M72,282.32A2,2,0,0,1,70.9,279a5,5,0,0,1,4.9-1.77,2,2,0,0,1,1.13,3.32A5,5,0,0,1,72,282.32Z"/><path class="cls-3" d="M59,311a4.9,4.9,0,0,1-2.09-4.72,2,2,0,0,1,3.29-1.32,4.89,4.89,0,0,1,2.09,4.71A2,2,0,0,1,59,311Z"/><path class="cls-3" d="M74.38,320.5a3.51,3.51,0,0,1-3.14-.75c-.72-.72-.48-1.55.53-1.85a3.47,3.47,0,0,1,3.14.75C75.63,319.37,75.39,320.2,74.38,320.5Z"/><path class="cls-3" d="M94.91,301.61a2.93,2.93,0,0,1,.06-3.19,1.32,1.32,0,0,1,2.29.08,2.91,2.91,0,0,1-.05,3.19A1.33,1.33,0,0,1,94.91,301.61Z"/><path class="cls-3" d="M66.69,289.73a3,3,0,0,1,2.1-2.43,1.31,1.31,0,0,1,1.71,1.5,3,3,0,0,1-2.1,2.43A1.3,1.3,0,0,1,66.69,289.73Z"/><path class="cls-2" d="M177,644.24a25,25,0,0,1-21.26-28.55,25.48,25.48,0,0,1,29-21.07A25,25,0,0,1,206,623.17,25.48,25.48,0,0,1,177,644.24Z"/><polygon class="cls-2" points="200.24 611.38 194.35 603.47 208.68 597.12 210.65 599.76 200.24 611.38"/><path class="cls-2" d="M211.06,601.45l-3.89-5.23a2,2,0,0,1,.44-2.79h0a2,2,0,0,1,2.83.42l3.89,5.23a2,2,0,0,1-.43,2.79h0A2,2,0,0,1,211.06,601.45Z"/><polygon class="cls-2" points="200.3 627.21 201.82 617.49 221.04 623.66 220.53 626.91 200.3 627.21"/><path class="cls-2" d="M219.22,629.62l1.4-8.93a.74.74,0,0,1,.84-.62l3.75.56a.73.73,0,0,1,.62.83l-1.4,8.94a.74.74,0,0,1-.84.61l-3.75-.56A.73.73,0,0,1,219.22,629.62Z"/><polygon class="cls-2" points="189 638.48 197.04 632.64 203.43 646.76 200.74 648.71 189 638.48"/><path class="cls-2" d="M199,649.13l5.31-3.86a2,2,0,0,1,2.83.42h0a2,2,0,0,1-.43,2.79l-5.31,3.86a2,2,0,0,1-2.83-.42h0A2,2,0,0,1,199,649.13Z"/><polygon class="cls-2" points="173.64 642.8 180.56 643.83 176.62 653.96 174.31 653.62 173.64 642.8"/><path class="cls-2" d="M173.25,653l4.57.68a1.39,1.39,0,0,1,1.19,1.59h0a1.42,1.42,0,0,1-1.62,1.17l-4.57-.68a1.41,1.41,0,0,1-1.19-1.59h0A1.42,1.42,0,0,1,173.25,653Z"/><polygon class="cls-2" points="160.41 629.06 165.59 636.02 152.74 641.78 151.01 639.46 160.41 629.06"/><path class="cls-2" d="M150.67,638l3.39,4.56a1.77,1.77,0,0,1-.38,2.49l0,0a1.81,1.81,0,0,1-2.51-.37l-3.4-4.57a1.75,1.75,0,0,1,.39-2.48l0,0A1.81,1.81,0,0,1,150.67,638Z"/><polygon class="cls-2" points="161.51 611.65 159.99 621.38 145.34 615.88 145.85 612.63 161.51 611.65"/><path class="cls-2" d="M146.76,611.14l-1,6.43a2,2,0,0,1-2.31,1.68h0a2,2,0,0,1-1.69-2.28l1-6.42a2,2,0,0,1,2.31-1.68h0A2,2,0,0,1,146.76,611.14Z"/><polygon class="cls-2" points="173.09 598.3 165.05 604.14 158.66 590.02 161.35 588.08 173.09 598.3"/><path class="cls-2" d="M163.06,587.66l-5.31,3.86a2.05,2.05,0,0,1-2.83-.42h0a2,2,0,0,1,.43-2.8l5.32-3.86a2.05,2.05,0,0,1,2.83.42h0A2,2,0,0,1,163.06,587.66Z"/><polygon class="cls-2" points="187.66 600.09 180.2 598.98 184.76 586.04 187.25 586.41 187.66 600.09"/><path class="cls-2" d="M188.15,587.14l-4.47-.66a1.76,1.76,0,0,1-1.48-2v-.06a1.77,1.77,0,0,1,2-1.47l4.47.67a1.73,1.73,0,0,1,1.47,2v.07A1.76,1.76,0,0,1,188.15,587.14Z"/><path class="cls-3" d="M187.14,633a2.49,2.49,0,0,1-2.5-3.44,5.14,5.14,0,0,1,4.64-3.43,2.49,2.49,0,0,1,2.5,3.44A5.17,5.17,0,0,1,187.14,633Z"/><path class="cls-3" d="M191.43,603.36a3.36,3.36,0,0,1-2.64-1.83c-.4-.93.14-1.64,1.2-1.57a3.4,3.4,0,0,1,2.64,1.83C193,602.73,192.49,603.43,191.43,603.36Z"/><path class="cls-3" d="M194.2,634.74c-1,.1-1.51-.6-1.11-1.57a3.48,3.48,0,0,1,2.59-1.92c1-.1,1.51.6,1.11,1.56A3.5,3.5,0,0,1,194.2,634.74Z"/><path class="cls-3" d="M164.93,610.25c-.88.53-1.65.11-1.72-.93a3.37,3.37,0,0,1,1.46-2.85c.88-.53,1.65-.11,1.72.93A3.38,3.38,0,0,1,164.93,610.25Z"/><path class="cls-3" d="M176.47,602.22a2,2,0,0,1-1.13-3.33,5,5,0,0,1,4.9-1.77,2,2,0,0,1,1.13,3.32A5,5,0,0,1,176.47,602.22Z"/><path class="cls-3" d="M163.43,630.86a4.88,4.88,0,0,1-2.08-4.71,2,2,0,0,1,3.28-1.33,4.88,4.88,0,0,1,2.09,4.71A2,2,0,0,1,163.43,630.86Z"/><path class="cls-3" d="M178.82,640.39a3.43,3.43,0,0,1-3.13-.75c-.72-.72-.49-1.55.53-1.85a3.46,3.46,0,0,1,3.13.76C180.08,639.27,179.84,640.09,178.82,640.39Z"/><path class="cls-3" d="M199.36,621.5a2.91,2.91,0,0,1,0-3.19,1.34,1.34,0,0,1,2.3.08,2.93,2.93,0,0,1-.06,3.19A1.32,1.32,0,0,1,199.36,621.5Z"/><path class="cls-3" d="M171.13,609.62a3,3,0,0,1,2.1-2.43,1.31,1.31,0,0,1,1.71,1.51,3,3,0,0,1-2.1,2.43A1.31,1.31,0,0,1,171.13,609.62Z"/><path class="cls-2" d="M643.09,1041.14A29,29,0,0,1,604.78,1027a28.47,28.47,0,0,1,14.43-37.84,29,29,0,0,1,38.3,14.11A28.47,28.47,0,0,1,643.09,1041.14Z"/><polygon class="cls-2" points="644.54 995.64 633.92 991.73 643.61 976.9 647.16 978.21 644.54 995.64"/><path class="cls-2" d="M648.62,979.56l-7-2.59a2.25,2.25,0,0,1-1.34-2.92h0a2.32,2.32,0,0,1,3-1.34l7,2.58a2.27,2.27,0,0,1,1.35,2.93h0A2.33,2.33,0,0,1,648.62,979.56Z"/><polygon class="cls-2" points="654.58 1010.66 649.9 1000.48 672.15 994.56 673.71 997.96 654.58 1010.66"/><path class="cls-2" d="M674.17,1001.35l-4.3-9.36a.82.82,0,0,1,.41-1.1l3.94-1.77a.85.85,0,0,1,1.11.41l4.3,9.36a.83.83,0,0,1-.42,1.1l-3.93,1.77A.85.85,0,0,1,674.17,1001.35Z"/><polygon class="cls-2" points="650.89 1028.32 654.89 1017.83 669.89 1027.34 668.55 1030.84 650.89 1028.32"/><path class="cls-2" d="M667.18,1032.29l2.64-6.93a2.32,2.32,0,0,1,3-1.34h0a2.26,2.26,0,0,1,1.34,2.93l-2.64,6.93a2.32,2.32,0,0,1-3,1.33h0A2.25,2.25,0,0,1,667.18,1032.29Z"/><polygon class="cls-2" points="638.94 1041.85 646.19 1038.58 648.82 1050.63 646.4 1051.72 638.94 1041.85"/><path class="cls-2" d="M645,1051.77l4.79-2.15a1.61,1.61,0,0,1,2.14.78h0a1.58,1.58,0,0,1-.8,2.11l-4.8,2.16a1.62,1.62,0,0,1-2.14-.79h0A1.58,1.58,0,0,1,645,1051.77Z"/><polygon class="cls-2" points="617.64 1036.9 626.97 1040.34 618.33 1053.7 615.21 1052.55 617.64 1036.9"/><path class="cls-2" d="M614,1051.36l6.13,2.25a2,2,0,0,1,1.19,2.61v0a2.07,2.07,0,0,1-2.64,1.19l-6.13-2.26a2,2,0,0,1-1.19-2.6l0,0A2.05,2.05,0,0,1,614,1051.36Z"/><polygon class="cls-2" points="607.71 1019.66 612.39 1029.85 594.94 1033.61 593.37 1030.21 607.71 1019.66"/><path class="cls-2" d="M593.31,1028.23l3.09,6.73a2.26,2.26,0,0,1-1.15,3h0a2.31,2.31,0,0,1-3-1.13l-3.09-6.72a2.27,2.27,0,0,1,1.15-3h0A2.3,2.3,0,0,1,593.31,1028.23Z"/><polygon class="cls-2" points="610.36 999.86 606.37 1010.35 591.36 1000.84 592.7 997.34 610.36 999.86"/><path class="cls-2" d="M594.07,995.89l-2.64,6.93a2.32,2.32,0,0,1-3,1.34h0a2.26,2.26,0,0,1-1.34-2.93l2.64-6.93a2.32,2.32,0,0,1,3-1.33h0A2.25,2.25,0,0,1,594.07,995.89Z"/><polygon class="cls-2" points="625.41 992.62 617.58 996.14 613.78 981.03 616.39 979.86 625.41 992.62"/><path class="cls-2" d="M617.71,980,613,982.12a2,2,0,0,1-2.66-1l0-.07a2,2,0,0,1,1-2.63l4.69-2.1a2,2,0,0,1,2.66,1l0,.07A2,2,0,0,1,617.71,980Z"/><path class="cls-3" d="M645.63,1024.21a2.89,2.89,0,0,1-4.56-1.74,5.73,5.73,0,0,1,2.27-6.11,2.88,2.88,0,0,1,4.56,1.73A5.79,5.79,0,0,1,645.63,1024.21Z"/><path class="cls-3" d="M631.07,993.42a3.88,3.88,0,0,1-3.67-.12c-1-.65-.91-1.64.15-2.23a3.93,3.93,0,0,1,3.68.12C632.2,991.84,632.13,992.84,631.07,993.42Z"/><path class="cls-3" d="M653.5,1021.56a1.18,1.18,0,0,1-2-.8,3.86,3.86,0,0,1,1.25-3.42,1.18,1.18,0,0,1,2,.8A3.86,3.86,0,0,1,653.5,1021.56Z"/><path class="cls-3" d="M610.1,1016.24a1.21,1.21,0,0,1-2.23.17,3.83,3.83,0,0,1-.4-3.61,1.21,1.21,0,0,1,2.23-.17A3.82,3.82,0,0,1,610.1,1016.24Z"/><path class="cls-3" d="M616.06,1001.51a2.27,2.27,0,0,1-3.18-2.47,5.64,5.64,0,0,1,3.57-4.69,2.26,2.26,0,0,1,3.17,2.47A5.63,5.63,0,0,1,616.06,1001.51Z"/><path class="cls-3" d="M621.66,1036.75a5.64,5.64,0,0,1-5-3.2c-.74-1.79.3-3.26,2.3-3.28a5.66,5.66,0,0,1,5,3.2C624.7,1035.26,623.67,1036.73,621.66,1036.75Z"/><path class="cls-3" d="M642.37,1036.38a4,4,0,0,1-3.47,1.21c-1.14-.25-1.44-1.18-.66-2.09a3.93,3.93,0,0,1,3.47-1.2C642.86,1034.54,643.15,1035.47,642.37,1036.38Z"/><path class="cls-3" d="M650.08,1005.81a3.33,3.33,0,0,1-2-3.07,1.51,1.51,0,0,1,2.24-1.33,3.34,3.34,0,0,1,2,3.07A1.5,1.5,0,0,1,650.08,1005.81Z"/><path class="cls-3" d="M615.63,1011.83a3.31,3.31,0,0,1,.47-3.6,1.51,1.51,0,0,1,2.58.38,3.33,3.33,0,0,1-.47,3.6A1.51,1.51,0,0,1,615.63,1011.83Z"/><path class="cls-2" d="M-3.8,689.44a29,29,0,0,1-38.3-14.11,28.47,28.47,0,0,1,14.42-37.84A29,29,0,0,1,10.63,651.6,28.49,28.49,0,0,1-3.8,689.44Z"/><polygon class="cls-2" points="-2.34 643.94 -12.96 640.03 -3.27 625.2 0.27 626.51 -2.34 643.94"/><path class="cls-2" d="M1.74,627.86l-7-2.59a2.25,2.25,0,0,1-1.34-2.92h0a2.31,2.31,0,0,1,3-1.34l7,2.59a2.25,2.25,0,0,1,1.34,2.92h0A2.31,2.31,0,0,1,1.74,627.86Z"/><polygon class="cls-2" points="7.7 658.96 3.01 648.78 25.26 642.86 26.83 646.26 7.7 658.96"/><path class="cls-2" d="M27.28,649.65,23,640.29a.83.83,0,0,1,.42-1.1l3.94-1.77a.85.85,0,0,1,1.11.41l4.3,9.36a.83.83,0,0,1-.42,1.1l-3.94,1.77A.85.85,0,0,1,27.28,649.65Z"/><polygon class="cls-2" points="4 676.62 8 666.13 23 675.64 21.67 679.14 4 676.62"/><path class="cls-2" d="M20.29,680.59l2.65-6.93a2.31,2.31,0,0,1,3-1.34h0a2.26,2.26,0,0,1,1.34,2.93l-2.64,6.93a2.32,2.32,0,0,1-3,1.33h0A2.26,2.26,0,0,1,20.29,680.59Z"/><polygon class="cls-2" points="-7.94 690.15 -0.69 686.88 1.93 698.94 -0.49 700.02 -7.94 690.15"/><path class="cls-2" d="M-1.9,700.08l4.8-2.16A1.62,1.62,0,0,1,5,698.7H5a1.6,1.6,0,0,1-.81,2.11L-.57,703a1.61,1.61,0,0,1-2.13-.78h0A1.58,1.58,0,0,1-1.9,700.08Z"/><polygon class="cls-2" points="-29.25 685.2 -19.91 688.64 -28.55 702 -31.67 700.86 -29.25 685.2"/><path class="cls-2" d="M-32.93,699.66l6.12,2.26a2,2,0,0,1,1.2,2.6l0,0a2.06,2.06,0,0,1-2.64,1.19l-6.12-2.26a2,2,0,0,1-1.2-2.6l0,0A2.06,2.06,0,0,1-32.93,699.66Z"/><polygon class="cls-2" points="-39.17 667.96 -34.49 678.15 -51.95 681.91 -53.51 678.51 -39.17 667.96"/><path class="cls-2" d="M-53.57,676.53l3.09,6.73a2.27,2.27,0,0,1-1.15,3h0a2.31,2.31,0,0,1-3-1.12l-3.09-6.73a2.26,2.26,0,0,1,1.15-3h0A2.31,2.31,0,0,1-53.57,676.53Z"/><polygon class="cls-2" points="-36.52 648.16 -40.52 658.65 -55.52 649.14 -54.18 645.64 -36.52 648.16"/><path class="cls-2" d="M-52.81,644.19l-2.64,6.93a2.32,2.32,0,0,1-3,1.34h0a2.27,2.27,0,0,1-1.35-2.93l2.65-6.93a2.31,2.31,0,0,1,3-1.33h0A2.25,2.25,0,0,1-52.81,644.19Z"/><polygon class="cls-2" points="-21.48 640.92 -29.31 644.45 -33.11 629.34 -30.49 628.16 -21.48 640.92"/><path class="cls-2" d="M-27.92,627.74l-7.2,3.24a.63.63,0,0,1-.84-.31l-1.16-2.54a.61.61,0,0,1,.31-.83l7.2-3.24a.65.65,0,0,1,.84.31l1.17,2.55A.62.62,0,0,1-27.92,627.74Z"/><path class="cls-3" d="M-1.26,672.51a2.88,2.88,0,0,1-4.56-1.74,5.77,5.77,0,0,1,2.27-6.11A2.88,2.88,0,0,1,1,666.4,5.75,5.75,0,0,1-1.26,672.51Z"/><path class="cls-3" d="M-15.81,641.72a3.9,3.9,0,0,1-3.68-.12c-1-.65-.9-1.64.16-2.22a3.88,3.88,0,0,1,3.67.11C-14.68,640.14-14.75,641.14-15.81,641.72Z"/><path class="cls-3" d="M6.61,669.86c-.91.72-1.82.36-2-.8a3.86,3.86,0,0,1,1.25-3.42c.91-.72,1.83-.36,2,.81A3.85,3.85,0,0,1,6.61,669.86Z"/><path class="cls-3" d="M-36.79,664.54a1.2,1.2,0,0,1-2.22.17,3.77,3.77,0,0,1-.4-3.61,1.21,1.21,0,0,1,2.23-.17A3.79,3.79,0,0,1-36.79,664.54Z"/><path class="cls-3" d="M-30.83,649.81A2.26,2.26,0,0,1-34,647.34a5.63,5.63,0,0,1,3.56-4.69,2.27,2.27,0,0,1,3.18,2.47A5.61,5.61,0,0,1-30.83,649.81Z"/><path class="cls-3" d="M-25.22,685.06a5.69,5.69,0,0,1-5-3.21c-.73-1.79.3-3.25,2.31-3.28a5.67,5.67,0,0,1,5,3.2C-22.19,683.56-23.22,685-25.22,685.06Z"/><path class="cls-3" d="M-4.51,684.68A4,4,0,0,1-8,685.89c-1.14-.24-1.43-1.18-.65-2.09a4,4,0,0,1,3.47-1.2C-4,682.84-3.73,683.77-4.51,684.68Z"/><path class="cls-3" d="M3.19,654.11a3.35,3.35,0,0,1-2-3.06,1.51,1.51,0,0,1,2.25-1.33,3.35,3.35,0,0,1,2,3.06A1.51,1.51,0,0,1,3.19,654.11Z"/><path class="cls-3" d="M-31.26,660.13a3.31,3.31,0,0,1,.48-3.6,1.51,1.51,0,0,1,2.58.38,3.31,3.31,0,0,1-.48,3.6A1.51,1.51,0,0,1-31.26,660.13Z"/><path class="cls-2" d="M397.6,830.65l-3.85-11.23A1.89,1.89,0,0,1,395,817l11.4-3.83a1.88,1.88,0,0,0,1.2-2.38l-2.16-6.31a1.91,1.91,0,0,0-2.42-1.17l-11.4,3.83a1.91,1.91,0,0,1-2.41-1.17l-3.85-11.24a1.89,1.89,0,0,0-2.41-1.17l-6.4,2.15a1.87,1.87,0,0,0-1.19,2.38l3.84,11.24a1.87,1.87,0,0,1-1.19,2.38l-11.41,3.83a1.89,1.89,0,0,0-1.19,2.39l2.16,6.3a1.9,1.9,0,0,0,2.41,1.18l11.4-3.83a1.89,1.89,0,0,1,2.41,1.17L387.59,834a1.91,1.91,0,0,0,2.41,1.18l6.4-2.15A1.89,1.89,0,0,0,397.6,830.65Z"/><path class="cls-2" d="M36.58,638.47l-10.53-5.73a1.86,1.86,0,0,1-.74-2.55l5.84-10.4a1.86,1.86,0,0,0-.74-2.55L24.5,614a1.92,1.92,0,0,0-2.59.74l-5.83,10.4a1.92,1.92,0,0,1-2.59.74L3,620.18a1.91,1.91,0,0,0-2.58.74l-3.28,5.83a1.87,1.87,0,0,0,.74,2.56L8.36,635a1.86,1.86,0,0,1,.75,2.55L3.27,648A1.86,1.86,0,0,0,4,650.53l5.9,3.22A1.92,1.92,0,0,0,12.5,653l5.84-10.4a1.92,1.92,0,0,1,2.59-.74l10.52,5.72a1.92,1.92,0,0,0,2.59-.74L37.32,641A1.86,1.86,0,0,0,36.58,638.47Z"/><path class="cls-2" d="M1164.51,825.16A30.07,30.07,0,0,1,1139,790.88a30.58,30.58,0,0,1,34.82-25.29,30.07,30.07,0,0,1,25.52,34.27A30.59,30.59,0,0,1,1164.51,825.16Z"/><polygon class="cls-2" points="1192.37 785.71 1185.3 776.21 1202.5 768.59 1204.86 771.76 1192.37 785.71"/><path class="cls-2" d="M1205.36,773.79l-4.67-6.27a2.39,2.39,0,0,1,.52-3.36h0a2.44,2.44,0,0,1,3.4.51l4.67,6.27a2.38,2.38,0,0,1-.52,3.36h0A2.46,2.46,0,0,1,1205.36,773.79Z"/><polygon class="cls-2" points="1192.44 804.72 1194.27 793.04 1217.34 800.45 1216.73 804.35 1192.44 804.72"/><path class="cls-2" d="M1215.13,807.75l1.72-11a.74.74,0,0,1,.84-.61l4.8.71a.72.72,0,0,1,.61.83l-1.71,11a.75.75,0,0,1-.85.62l-4.79-.72A.73.73,0,0,1,1215.13,807.75Z"/><polygon class="cls-2" points="1178.88 818.25 1188.53 811.23 1196.2 828.18 1192.97 830.52 1178.88 818.25"/><path class="cls-2" d="M1190.92,831l6.37-4.63a2.45,2.45,0,0,1,3.4.51h0a2.37,2.37,0,0,1-.52,3.35l-6.38,4.63a2.45,2.45,0,0,1-3.4-.5h0A2.39,2.39,0,0,1,1190.92,831Z"/><polygon class="cls-2" points="1160.44 823.43 1168.74 824.66 1164.01 836.82 1161.24 836.41 1160.44 823.43"/><path class="cls-2" d="M1160,835.65l5.49.82a1.67,1.67,0,0,1,1.42,1.91h0a1.7,1.7,0,0,1-1.94,1.41l-5.49-.81a1.68,1.68,0,0,1-1.42-1.92h0A1.71,1.71,0,0,1,1160,835.65Z"/><polygon class="cls-2" points="1144.55 806.93 1150.77 815.28 1135.35 822.2 1133.27 819.41 1144.55 806.93"/><path class="cls-2" d="M1132.86,817.64l4.08,5.48a2.12,2.12,0,0,1-.47,3l0,0a2.18,2.18,0,0,1-3-.45l-4.08-5.48a2.11,2.11,0,0,1,.47-3l0,0A2.18,2.18,0,0,1,1132.86,817.64Z"/><polygon class="cls-2" points="1145.87 786.03 1144.05 797.71 1126.46 791.11 1127.07 787.21 1145.87 786.03"/><path class="cls-2" d="M1128.17,785.43l-1.2,7.71a2.43,2.43,0,0,1-2.77,2h0a2.4,2.4,0,0,1-2-2.73l1.21-7.71a2.42,2.42,0,0,1,2.77-2h0A2.38,2.38,0,0,1,1128.17,785.43Z"/><polygon class="cls-2" points="1159.78 770.01 1150.13 777.02 1142.46 760.08 1145.68 757.73 1159.78 770.01"/><path class="cls-2" d="M1147.74,757.23l-6.38,4.64a2.46,2.46,0,0,1-3.4-.51h0a2.37,2.37,0,0,1,.53-3.35l6.37-4.64a2.45,2.45,0,0,1,3.4.51h0A2.38,2.38,0,0,1,1147.74,757.23Z"/><polygon class="cls-2" points="1177.27 772.16 1168.31 770.82 1173.79 755.29 1176.78 755.73 1177.27 772.16"/><path class="cls-2" d="M1177.85,756.61l-5.36-.8a2.08,2.08,0,0,1-1.77-2.38v-.08a2.13,2.13,0,0,1,2.42-1.76l5.36.8a2.1,2.1,0,0,1,1.78,2.38l0,.08A2.11,2.11,0,0,1,1177.85,756.61Z"/><path class="cls-3" d="M1176.64,811.61a3,3,0,0,1-3-4.13,6.2,6.2,0,0,1,5.57-4.12,3,3,0,0,1,3,4.14A6.19,6.19,0,0,1,1176.64,811.61Z"/><path class="cls-3" d="M1181.8,776.08a4,4,0,0,1-3.17-2.19c-.48-1.13.16-2,1.43-1.88a4,4,0,0,1,3.17,2.19C1183.71,775.33,1183.07,776.17,1181.8,776.08Z"/><path class="cls-3" d="M1185.12,813.75c-1.22.12-1.82-.72-1.33-1.88a4.17,4.17,0,0,1,3.1-2.31c1.22-.12,1.82.72,1.33,1.88A4.15,4.15,0,0,1,1185.12,813.75Z"/><path class="cls-3" d="M1150,784.35c-1.06.64-2,.14-2.07-1.11a4.08,4.08,0,0,1,1.76-3.42c1.06-.64,2-.14,2.06,1.12A4,4,0,0,1,1150,784.35Z"/><path class="cls-3" d="M1163.83,774.71c-2-.51-2.6-2.3-1.35-4a6,6,0,0,1,5.88-2.13c2,.51,2.61,2.3,1.36,4A6.06,6.06,0,0,1,1163.83,774.71Z"/><path class="cls-3" d="M1148.18,809.09a5.86,5.86,0,0,1-2.5-5.65c.4-2,2.17-2.72,4-1.6a5.88,5.88,0,0,1,2.5,5.66C1151.73,809.5,1150,810.21,1148.18,809.09Z"/><path class="cls-3" d="M1166.66,820.54a4.16,4.16,0,0,1-3.77-.91c-.86-.86-.58-1.85.64-2.21a4.16,4.16,0,0,1,3.77.9C1168.16,819.18,1167.88,820.18,1166.66,820.54Z"/><path class="cls-3" d="M1191.31,797.86a3.52,3.52,0,0,1,.06-3.83,1.6,1.6,0,0,1,2.76.1,3.5,3.5,0,0,1-.07,3.83A1.59,1.59,0,0,1,1191.31,797.86Z"/><path class="cls-3" d="M1157.43,783.6a3.54,3.54,0,0,1,2.52-2.92,1.57,1.57,0,0,1,2,1.81,3.58,3.58,0,0,1-2.52,2.92A1.57,1.57,0,0,1,1157.43,783.6Z"/><path class="cls-2" d="M1304,280.4a34.84,34.84,0,0,1-46-16.93A34.18,34.18,0,0,1,1275.37,218a34.87,34.87,0,0,1,46,16.94A34.18,34.18,0,0,1,1304,280.4Z"/><polygon class="cls-2" points="1305.79 225.79 1293.04 221.1 1304.67 203.29 1308.93 204.86 1305.79 225.79"/><path class="cls-2" d="M1310.68,206.48l-8.42-3.1a2.71,2.71,0,0,1-1.61-3.51h0a2.78,2.78,0,0,1,3.56-1.6l8.42,3.1a2.71,2.71,0,0,1,1.62,3.51h0A2.79,2.79,0,0,1,1310.68,206.48Z"/><polygon class="cls-2" points="1317.84 243.82 1312.22 231.6 1338.93 224.49 1340.81 228.57 1317.84 243.82"/><path class="cls-2" d="M1341.42,232.79l-5.3-11.53a.83.83,0,0,1,.42-1.1l5-2.26a.84.84,0,0,1,1.11.41l5.3,11.53a.82.82,0,0,1-.42,1.1l-5,2.26A.84.84,0,0,1,1341.42,232.79Z"/><polygon class="cls-2" points="1313.41 265.02 1318.21 252.43 1336.21 263.84 1334.61 268.05 1313.41 265.02"/><path class="cls-2" d="M1333,269.78l3.17-8.32a2.79,2.79,0,0,1,3.57-1.6h0a2.71,2.71,0,0,1,1.61,3.51l-3.17,8.32a2.78,2.78,0,0,1-3.56,1.6h0A2.71,2.71,0,0,1,1333,269.78Z"/><polygon class="cls-2" points="1299.06 281.26 1307.77 277.34 1310.92 291.81 1308.02 293.12 1299.06 281.26"/><path class="cls-2" d="M1306.32,293.18l5.76-2.6a2,2,0,0,1,2.56.95h0a1.9,1.9,0,0,1-1,2.53l-5.76,2.59a1.94,1.94,0,0,1-2.56-.94h0A1.9,1.9,0,0,1,1306.32,293.18Z"/><polygon class="cls-2" points="1273.49 275.32 1284.69 279.44 1274.32 295.49 1270.58 294.11 1273.49 275.32"/><path class="cls-2" d="M1269.07,292.68l7.35,2.71a2.4,2.4,0,0,1,1.43,3.12l0,.05a2.47,2.47,0,0,1-3.16,1.43l-7.35-2.71a2.41,2.41,0,0,1-1.44-3.12l0-.05A2.48,2.48,0,0,1,1269.07,292.68Z"/><polygon class="cls-2" points="1261.58 254.63 1267.2 266.85 1246.24 271.37 1244.37 267.29 1261.58 254.63"/><path class="cls-2" d="M1244.29,264.91,1248,273a2.71,2.71,0,0,1-1.38,3.61h0a2.76,2.76,0,0,1-3.66-1.35l-3.71-8.07a2.73,2.73,0,0,1,1.38-3.62h0A2.78,2.78,0,0,1,1244.29,264.91Z"/><polygon class="cls-2" points="1264.76 230.86 1259.96 243.45 1241.95 232.03 1243.56 227.83 1264.76 230.86"/><path class="cls-2" d="M1245.2,226.09l-3.17,8.32a2.79,2.79,0,0,1-3.56,1.61h0a2.73,2.73,0,0,1-1.62-3.52l3.18-8.31a2.78,2.78,0,0,1,3.56-1.61h0A2.71,2.71,0,0,1,1245.2,226.09Z"/><polygon class="cls-2" points="1282.82 222.17 1273.42 226.4 1268.86 208.26 1272 206.84 1282.82 222.17"/><path class="cls-2" d="M1273.58,207l-5.63,2.53a2.42,2.42,0,0,1-3.19-1.17l0-.09a2.37,2.37,0,0,1,1.2-3.15l5.63-2.54a2.43,2.43,0,0,1,3.19,1.18l0,.09A2.37,2.37,0,0,1,1273.58,207Z"/><path class="cls-3" d="M1307.09,260.08a3.45,3.45,0,0,1-5.47-2.09,6.91,6.91,0,0,1,2.72-7.33,3.46,3.46,0,0,1,5.48,2.08A6.91,6.91,0,0,1,1307.09,260.08Z"/><path class="cls-3" d="M1289.62,223.12a4.65,4.65,0,0,1-4.41-.14c-1.17-.77-1.09-2,.18-2.67a4.67,4.67,0,0,1,4.42.14C1291,221.23,1290.89,222.42,1289.62,223.12Z"/><path class="cls-3" d="M1316.54,256.91c-1.09.86-2.19.43-2.46-1a4.65,4.65,0,0,1,1.5-4.1c1.1-.87,2.2-.43,2.46,1A4.64,4.64,0,0,1,1316.54,256.91Z"/><path class="cls-3" d="M1264.44,250.52c-.61,1.25-1.8,1.34-2.67.2a4.54,4.54,0,0,1-.48-4.33c.61-1.25,1.8-1.34,2.67-.21A4.59,4.59,0,0,1,1264.44,250.52Z"/><path class="cls-3" d="M1271.6,232.84c-2.24.74-3.94-.59-3.81-3a6.76,6.76,0,0,1,4.27-5.64c2.24-.74,3.94.59,3.82,3A6.77,6.77,0,0,1,1271.6,232.84Z"/><path class="cls-3" d="M1278.32,275.15a6.82,6.82,0,0,1-6-3.85c-.88-2.15.36-3.91,2.77-3.94a6.82,6.82,0,0,1,6,3.85C1282,273.36,1280.73,275.12,1278.32,275.15Z"/><path class="cls-3" d="M1303.18,274.69a4.73,4.73,0,0,1-4.17,1.45c-1.36-.29-1.72-1.41-.78-2.5a4.76,4.76,0,0,1,4.17-1.45C1303.76,272.48,1304.12,273.6,1303.18,274.69Z"/><path class="cls-3" d="M1312.43,238a4,4,0,0,1-2.35-3.68,1.81,1.81,0,0,1,2.69-1.6,4,4,0,0,1,2.36,3.68A1.81,1.81,0,0,1,1312.43,238Z"/><path class="cls-3" d="M1271.08,245.23a4,4,0,0,1,.57-4.33,1.81,1.81,0,0,1,3.1.46,4,4,0,0,1-.57,4.32A1.81,1.81,0,0,1,1271.08,245.23Z"/><path class="cls-2" d="M294.35,491.08a34.84,34.84,0,0,1-46-16.94,34.17,34.17,0,0,1,17.31-45.42,34.87,34.87,0,0,1,46,16.94A34.18,34.18,0,0,1,294.35,491.08Z"/><polygon class="cls-2" points="296.1 436.47 283.35 431.77 294.98 413.97 299.24 415.54 296.1 436.47"/><path class="cls-2" d="M301,417.16l-8.42-3.1a2.71,2.71,0,0,1-1.61-3.51h0a2.78,2.78,0,0,1,3.56-1.61l8.42,3.1a2.73,2.73,0,0,1,1.62,3.52h0A2.79,2.79,0,0,1,301,417.16Z"/><polygon class="cls-2" points="308.15 454.5 302.53 442.27 329.24 435.17 331.11 439.25 308.15 454.5"/><path class="cls-2" d="M331.73,443.47l-5.3-11.53a.82.82,0,0,1,.42-1.1l5-2.27A.85.85,0,0,1,333,429l5.3,11.54a.83.83,0,0,1-.42,1.1l-5,2.26A.84.84,0,0,1,331.73,443.47Z"/><polygon class="cls-2" points="303.71 475.69 308.51 463.1 326.52 474.52 324.92 478.72 303.71 475.69"/><path class="cls-2" d="M323.27,480.46l3.17-8.32a2.79,2.79,0,0,1,3.57-1.6h0a2.7,2.7,0,0,1,1.61,3.51l-3.17,8.32a2.78,2.78,0,0,1-3.56,1.6h0A2.71,2.71,0,0,1,323.27,480.46Z"/><polygon class="cls-2" points="289.37 491.93 298.08 488.02 301.23 502.48 298.32 503.79 289.37 491.93"/><path class="cls-2" d="M296.63,503.85l5.76-2.59a1.94,1.94,0,0,1,2.56.95h0a1.91,1.91,0,0,1-1,2.53l-5.76,2.59a1.94,1.94,0,0,1-2.56-.94h0A1.91,1.91,0,0,1,296.63,503.85Z"/><polygon class="cls-2" points="263.8 485.99 275 490.12 264.63 506.17 260.89 504.79 263.8 485.99"/><path class="cls-2" d="M259.38,503.36l7.35,2.7a2.41,2.41,0,0,1,1.43,3.12l0,.06a2.48,2.48,0,0,1-3.17,1.42l-7.34-2.7a2.41,2.41,0,0,1-1.44-3.13l0-.05A2.48,2.48,0,0,1,259.38,503.36Z"/><polygon class="cls-2" points="251.89 465.3 257.51 477.53 236.55 482.04 234.67 477.96 251.89 465.3"/><path class="cls-2" d="M234.6,475.59l3.71,8.07a2.73,2.73,0,0,1-1.38,3.62h0a2.77,2.77,0,0,1-3.66-1.35l-3.71-8.07a2.72,2.72,0,0,1,1.38-3.62h0A2.77,2.77,0,0,1,234.6,475.59Z"/><polygon class="cls-2" points="255.07 441.54 250.27 454.13 232.26 442.71 233.86 438.51 255.07 441.54"/><path class="cls-2" d="M235.51,436.77l-3.17,8.32a2.78,2.78,0,0,1-3.56,1.6h0a2.71,2.71,0,0,1-1.62-3.51l3.17-8.32a2.79,2.79,0,0,1,3.57-1.6h0A2.71,2.71,0,0,1,235.51,436.77Z"/><polygon class="cls-2" points="273.13 432.84 263.73 437.07 259.17 418.93 262.31 417.52 273.13 432.84"/><path class="cls-2" d="M265.51,417l-8.88,4a.62.62,0,0,1-.83-.3l-1.51-3.29a.63.63,0,0,1,.32-.83l8.87-4a.64.64,0,0,1,.84.31l1.51,3.28A.63.63,0,0,1,265.51,417Z"/><path class="cls-3" d="M297.4,470.76a3.46,3.46,0,0,1-5.48-2.09,7,7,0,0,1,2.73-7.34,3.46,3.46,0,0,1,5.48,2.09A7,7,0,0,1,297.4,470.76Z"/><path class="cls-3" d="M279.93,433.8a4.67,4.67,0,0,1-4.42-.14c-1.16-.78-1.08-2,.19-2.67a4.65,4.65,0,0,1,4.41.14C281.28,431.91,281.2,433.1,279.93,433.8Z"/><path class="cls-3" d="M306.85,467.58a1.41,1.41,0,0,1-2.46-1,4.64,4.64,0,0,1,1.5-4.1,1.41,1.41,0,0,1,2.46,1A4.64,4.64,0,0,1,306.85,467.58Z"/><path class="cls-3" d="M254.75,461.19c-.61,1.25-1.81,1.34-2.68.21a4.58,4.58,0,0,1-.47-4.34c.61-1.25,1.8-1.34,2.67-.2A4.57,4.57,0,0,1,254.75,461.19Z"/><path class="cls-3" d="M261.9,443.52c-2.23.73-3.93-.59-3.81-3a6.76,6.76,0,0,1,4.28-5.63c2.24-.74,3.94.58,3.81,3A6.77,6.77,0,0,1,261.9,443.52Z"/><path class="cls-3" d="M268.63,485.82a6.79,6.79,0,0,1-6-3.84c-.88-2.15.36-3.91,2.77-3.94a6.78,6.78,0,0,1,5.95,3.84C272.28,484,271,485.8,268.63,485.82Z"/><path class="cls-3" d="M293.49,485.37a4.76,4.76,0,0,1-4.17,1.45c-1.37-.29-1.72-1.41-.79-2.5a4.77,4.77,0,0,1,4.17-1.45C294.07,483.16,294.43,484.28,293.49,485.37Z"/><path class="cls-3" d="M302.74,448.68a4,4,0,0,1-2.35-3.68,1.8,1.8,0,0,1,2.69-1.6,4,4,0,0,1,2.35,3.68A1.8,1.8,0,0,1,302.74,448.68Z"/><path class="cls-3" d="M261.39,455.9a4,4,0,0,1,.57-4.32,1.81,1.81,0,0,1,3.1.46,4,4,0,0,1-.57,4.32A1.81,1.81,0,0,1,261.39,455.9Z"/><path class="cls-2" d="M1062.92,281.85l-4.61-13.49a2.26,2.26,0,0,1,1.43-2.87l13.69-4.59a2.27,2.27,0,0,0,1.44-2.87l-2.6-7.57a2.29,2.29,0,0,0-2.89-1.4l-13.69,4.6a2.29,2.29,0,0,1-2.9-1.41l-4.61-13.49a2.29,2.29,0,0,0-2.9-1.41l-7.68,2.58a2.26,2.26,0,0,0-1.44,2.87l4.62,13.48a2.26,2.26,0,0,1-1.44,2.87l-13.68,4.6a2.25,2.25,0,0,0-1.44,2.86l2.59,7.57a2.28,2.28,0,0,0,2.9,1.4L1043.4,271a2.27,2.27,0,0,1,2.89,1.4l4.62,13.49a2.29,2.29,0,0,0,2.9,1.41l7.68-2.58A2.25,2.25,0,0,0,1062.92,281.85Z"/><path class="cls-2" d="M504.13,492.42l-12.63-6.87a2.25,2.25,0,0,1-.89-3.07l7-12.48a2.24,2.24,0,0,0-.89-3.06l-7.09-3.86a2.31,2.31,0,0,0-3.11.89l-7,12.48a2.3,2.3,0,0,1-3.1.89l-12.63-6.87a2.3,2.3,0,0,0-3.11.89l-3.93,7a2.22,2.22,0,0,0,.89,3.06l12.63,6.88a2.24,2.24,0,0,1,.89,3.06l-7,12.49a2.24,2.24,0,0,0,.89,3.06l7.09,3.86a2.31,2.31,0,0,0,3.11-.89l7-12.49a2.3,2.3,0,0,1,3.11-.88L498,503.38a2.31,2.31,0,0,0,3.11-.89l3.93-7A2.22,2.22,0,0,0,504.13,492.42Z"/><path class="cls-2" d="M808.65,841.28A30.06,30.06,0,0,1,783.13,807,30.59,30.59,0,0,1,818,781.72,30.06,30.06,0,0,1,843.47,816,30.58,30.58,0,0,1,808.65,841.28Z"/><polygon class="cls-2" points="836.51 801.84 829.44 792.34 846.64 784.72 849 787.89 836.51 801.84"/><path class="cls-2" d="M849.5,789.92l-4.67-6.28a2.38,2.38,0,0,1,.52-3.35h0a2.45,2.45,0,0,1,3.4.5l4.68,6.28a2.39,2.39,0,0,1-.53,3.36h0A2.46,2.46,0,0,1,849.5,789.92Z"/><polygon class="cls-2" points="836.59 820.84 838.41 809.17 861.48 816.58 860.87 820.48 836.59 820.84"/><path class="cls-2" d="M859.27,823.88l1.72-11a.74.74,0,0,1,.84-.61l4.8.72a.73.73,0,0,1,.62.83l-1.72,11a.75.75,0,0,1-.85.61l-4.79-.71A.73.73,0,0,1,859.27,823.88Z"/><polygon class="cls-2" points="823.02 834.37 832.67 827.36 840.34 844.31 837.12 846.65 823.02 834.37"/><path class="cls-2" d="M835.06,847.15l6.38-4.63a2.43,2.43,0,0,1,3.39.51h0a2.37,2.37,0,0,1-.52,3.35L837.93,851a2.44,2.44,0,0,1-3.39-.5h0A2.38,2.38,0,0,1,835.06,847.15Z"/><polygon class="cls-2" points="804.58 839.55 812.88 840.79 808.16 852.95 805.38 852.54 804.58 839.55"/><path class="cls-2" d="M804.11,851.78l5.49.82a1.68,1.68,0,0,1,1.43,1.91h0a1.71,1.71,0,0,1-1.95,1.41l-5.49-.82a1.68,1.68,0,0,1-1.42-1.91h0A1.71,1.71,0,0,1,804.11,851.78Z"/><polygon class="cls-2" points="788.69 823.06 794.91 831.41 779.49 838.33 777.41 835.54 788.69 823.06"/><path class="cls-2" d="M777,833.77l4.08,5.48a2.11,2.11,0,0,1-.47,3l0,0a2.18,2.18,0,0,1-3-.45l-4.08-5.48a2.12,2.12,0,0,1,.47-3l0,0A2.18,2.18,0,0,1,777,833.77Z"/><polygon class="cls-2" points="790.02 802.16 788.19 813.84 770.61 807.24 771.22 803.34 790.02 802.16"/><path class="cls-2" d="M772.31,801.55l-1.2,7.72a2.42,2.42,0,0,1-2.77,2h0a2.39,2.39,0,0,1-2-2.73l1.2-7.71a2.44,2.44,0,0,1,2.77-2h0A2.39,2.39,0,0,1,772.31,801.55Z"/><polygon class="cls-2" points="803.92 786.14 794.27 793.15 786.6 776.2 789.82 773.86 803.92 786.14"/><path class="cls-2" d="M791.88,773.36,785.5,778a2.45,2.45,0,0,1-3.4-.5h0a2.39,2.39,0,0,1,.53-3.36L789,769.5a2.45,2.45,0,0,1,3.4.51h0A2.37,2.37,0,0,1,791.88,773.36Z"/><polygon class="cls-2" points="821.41 788.28 812.45 786.95 817.93 771.41 820.92 771.86 821.41 788.28"/><path class="cls-2" d="M822,772.74l-5.36-.8a2.08,2.08,0,0,1-1.77-2.38v-.08a2.13,2.13,0,0,1,2.42-1.76l5.36.8a2.09,2.09,0,0,1,1.78,2.38V771A2.13,2.13,0,0,1,822,772.74Z"/><path class="cls-3" d="M820.78,827.74a3,3,0,0,1-3-4.13,6.2,6.2,0,0,1,5.57-4.12,3,3,0,0,1,3,4.13A6.2,6.2,0,0,1,820.78,827.74Z"/><path class="cls-3" d="M825.94,792.21a4,4,0,0,1-3.17-2.19c-.48-1.13.16-2,1.43-1.88a4,4,0,0,1,3.18,2.19C827.86,791.46,827.21,792.3,825.94,792.21Z"/><path class="cls-3" d="M829.27,829.88c-1.23.12-1.83-.72-1.34-1.88a4.16,4.16,0,0,1,3.1-2.31c1.22-.12,1.82.72,1.34,1.87A4.17,4.17,0,0,1,829.27,829.88Z"/><path class="cls-3" d="M794.12,800.48c-1.06.64-2,.14-2.06-1.11a4,4,0,0,1,1.75-3.42c1.06-.64,2-.14,2.07,1.11A4.06,4.06,0,0,1,794.12,800.48Z"/><path class="cls-3" d="M808,790.84c-2-.51-2.61-2.3-1.36-4a6.05,6.05,0,0,1,5.88-2.13c2,.51,2.61,2.3,1.36,4A6,6,0,0,1,808,790.84Z"/><path class="cls-3" d="M792.32,825.22a5.86,5.86,0,0,1-2.5-5.65c.4-2,2.17-2.72,3.95-1.6a5.87,5.87,0,0,1,2.5,5.66C795.87,825.63,794.11,826.34,792.32,825.22Z"/><path class="cls-3" d="M810.8,836.67a4.2,4.2,0,0,1-3.77-.91c-.86-.86-.57-1.85.64-2.22a4.18,4.18,0,0,1,3.77.91C812.3,835.31,812,836.31,810.8,836.67Z"/><path class="cls-3" d="M835.45,814a3.5,3.5,0,0,1,.07-3.83,1.59,1.59,0,0,1,2.75.1,3.52,3.52,0,0,1-.06,3.83A1.6,1.6,0,0,1,835.45,814Z"/><path class="cls-3" d="M801.57,799.73a3.57,3.57,0,0,1,2.52-2.92,1.57,1.57,0,0,1,2,1.81,3.56,3.56,0,0,1-2.52,2.91A1.57,1.57,0,0,1,801.57,799.73Z"/><path class="cls-2" d="M1194.12,546.63a34.84,34.84,0,0,1-46-16.94,34.18,34.18,0,0,1,17.32-45.42,34.84,34.84,0,0,1,46,16.94A34.17,34.17,0,0,1,1194.12,546.63Z"/><polygon class="cls-2" points="1195.87 492.02 1183.13 487.32 1194.75 469.52 1199.01 471.09 1195.87 492.02"/><path class="cls-2" d="M1200.77,472.71l-8.43-3.1a2.72,2.72,0,0,1-1.61-3.51h0a2.78,2.78,0,0,1,3.57-1.61l8.42,3.1a2.71,2.71,0,0,1,1.61,3.51h0A2.78,2.78,0,0,1,1200.77,472.71Z"/><polygon class="cls-2" points="1207.92 510.05 1202.3 497.82 1229.01 490.72 1230.89 494.8 1207.92 510.05"/><path class="cls-2" d="M1231.5,499l-5.3-11.54a.82.82,0,0,1,.42-1.09l5-2.27a.85.85,0,0,1,1.11.41l5.3,11.54a.81.81,0,0,1-.42,1.09l-5,2.27A.85.85,0,0,1,1231.5,499Z"/><polygon class="cls-2" points="1203.49 531.24 1208.29 518.65 1226.3 530.07 1224.69 534.27 1203.49 531.24"/><path class="cls-2" d="M1223,536l3.18-8.32a2.78,2.78,0,0,1,3.56-1.6h0a2.7,2.7,0,0,1,1.61,3.51l-3.17,8.32a2.78,2.78,0,0,1-3.56,1.6h0A2.72,2.72,0,0,1,1223,536Z"/><polygon class="cls-2" points="1189.15 547.48 1197.85 543.57 1201 558.03 1198.1 559.34 1189.15 547.48"/><path class="cls-2" d="M1196.4,559.4l5.76-2.59a2,2,0,0,1,2.57.94h0a1.91,1.91,0,0,1-1,2.54l-5.76,2.59a1.94,1.94,0,0,1-2.56-1h0A1.91,1.91,0,0,1,1196.4,559.4Z"/><polygon class="cls-2" points="1163.57 541.54 1174.78 545.67 1164.4 561.72 1160.66 560.34 1163.57 541.54"/><path class="cls-2" d="M1159.15,558.9l7.35,2.71a2.41,2.41,0,0,1,1.44,3.12l0,.06a2.48,2.48,0,0,1-3.17,1.42l-7.35-2.7a2.43,2.43,0,0,1-1.44-3.13l0,0A2.48,2.48,0,0,1,1159.15,558.9Z"/><polygon class="cls-2" points="1151.66 520.85 1157.28 533.08 1136.32 537.59 1134.45 533.51 1151.66 520.85"/><path class="cls-2" d="M1134.37,531.14l3.71,8.07a2.72,2.72,0,0,1-1.38,3.62h0a2.77,2.77,0,0,1-3.66-1.35l-3.71-8.07a2.72,2.72,0,0,1,1.38-3.62h0A2.77,2.77,0,0,1,1134.37,531.14Z"/><polygon class="cls-2" points="1154.84 497.08 1150.04 509.68 1132.04 498.26 1133.64 494.06 1154.84 497.08"/><path class="cls-2" d="M1135.29,492.32l-3.17,8.32a2.79,2.79,0,0,1-3.57,1.6h0a2.71,2.71,0,0,1-1.61-3.51l3.17-8.32a2.78,2.78,0,0,1,3.56-1.6h0A2.72,2.72,0,0,1,1135.29,492.32Z"/><polygon class="cls-2" points="1172.9 488.39 1163.5 492.62 1158.94 474.48 1162.08 473.07 1172.9 488.39"/><path class="cls-2" d="M1163.66,473.25l-5.62,2.53a2.42,2.42,0,0,1-3.2-1.18l0-.08a2.38,2.38,0,0,1,1.2-3.16l5.63-2.53a2.42,2.42,0,0,1,3.2,1.18l0,.08A2.37,2.37,0,0,1,1163.66,473.25Z"/><path class="cls-3" d="M1197.17,526.31a3.46,3.46,0,0,1-5.47-2.09,6.93,6.93,0,0,1,2.72-7.34,3.46,3.46,0,0,1,5.48,2.09A6.92,6.92,0,0,1,1197.17,526.31Z"/><path class="cls-3" d="M1179.7,489.35a4.68,4.68,0,0,1-4.41-.14c-1.17-.78-1.09-2,.18-2.67a4.67,4.67,0,0,1,4.42.14C1181.06,487.45,1181,488.65,1179.7,489.35Z"/><path class="cls-3" d="M1206.62,523.13c-1.09.87-2.19.44-2.46-1a4.65,4.65,0,0,1,1.51-4.11c1.09-.86,2.19-.43,2.45,1A4.62,4.62,0,0,1,1206.62,523.13Z"/><path class="cls-3" d="M1154.52,516.74c-.61,1.25-1.8,1.34-2.67.2a4.57,4.57,0,0,1-.48-4.33c.61-1.25,1.81-1.34,2.68-.2A4.57,4.57,0,0,1,1154.52,516.74Z"/><path class="cls-3" d="M1161.68,499.06c-2.24.74-3.94-.58-3.81-3a6.77,6.77,0,0,1,4.28-5.64c2.23-.73,3.94.59,3.81,3A6.76,6.76,0,0,1,1161.68,499.06Z"/><path class="cls-3" d="M1168.4,541.37a6.78,6.78,0,0,1-6-3.84c-.89-2.15.35-3.91,2.76-3.94a6.79,6.79,0,0,1,6,3.84C1172.05,539.58,1170.81,541.34,1168.4,541.37Z"/><path class="cls-3" d="M1193.27,540.92a4.77,4.77,0,0,1-4.17,1.45c-1.37-.29-1.73-1.41-.79-2.5a4.76,4.76,0,0,1,4.17-1.45C1193.85,538.71,1194.2,539.83,1193.27,540.92Z"/><path class="cls-3" d="M1202.52,504.23a4,4,0,0,1-2.36-3.69,1.8,1.8,0,0,1,2.69-1.59,4,4,0,0,1,2.36,3.68A1.81,1.81,0,0,1,1202.52,504.23Z"/><path class="cls-3" d="M1161.16,511.45a4,4,0,0,1,.57-4.32,1.81,1.81,0,0,1,3.1.46,4,4,0,0,1-.57,4.32A1.81,1.81,0,0,1,1161.16,511.45Z"/><path class="cls-2" d="M590.73,267.57a34.85,34.85,0,0,1-46-16.94,34.17,34.17,0,0,1,17.31-45.42,34.85,34.85,0,0,1,46,16.93A34.2,34.2,0,0,1,590.73,267.57Z"/><polygon class="cls-2" points="592.48 212.96 579.73 208.26 591.36 190.46 595.62 192.02 592.48 212.96"/><path class="cls-2" d="M597.37,193.64l-8.42-3.1a2.7,2.7,0,0,1-1.61-3.51h0a2.78,2.78,0,0,1,3.56-1.6l8.42,3.1a2.71,2.71,0,0,1,1.62,3.51h0A2.79,2.79,0,0,1,597.37,193.64Z"/><polygon class="cls-2" points="604.53 230.99 598.91 218.76 625.62 211.65 627.5 215.74 604.53 230.99"/><path class="cls-2" d="M628.11,220l-5.3-11.53a.83.83,0,0,1,.42-1.1l5-2.26a.84.84,0,0,1,1.11.41l5.3,11.53a.82.82,0,0,1-.42,1.1l-5,2.26A.84.84,0,0,1,628.11,220Z"/><polygon class="cls-2" points="600.1 252.18 604.9 239.59 622.9 251 621.3 255.21 600.1 252.18"/><path class="cls-2" d="M619.65,256.94l3.17-8.31a2.8,2.8,0,0,1,3.57-1.61h0a2.71,2.71,0,0,1,1.61,3.51l-3.17,8.32a2.79,2.79,0,0,1-3.56,1.61h0A2.72,2.72,0,0,1,619.65,256.94Z"/><polygon class="cls-2" points="585.75 268.42 594.46 264.5 597.61 278.97 594.71 280.28 585.75 268.42"/><path class="cls-2" d="M593,280.34l5.76-2.59a2,2,0,0,1,2.57.94h0a1.91,1.91,0,0,1-1,2.53l-5.76,2.59a1.94,1.94,0,0,1-2.56-.94h0A1.91,1.91,0,0,1,593,280.34Z"/><polygon class="cls-2" points="560.18 262.48 571.38 266.61 561.01 282.65 557.27 281.27 560.18 262.48"/><path class="cls-2" d="M555.76,279.84l7.35,2.71a2.42,2.42,0,0,1,1.44,3.12l0,.05a2.48,2.48,0,0,1-3.17,1.43L554,284.44a2.41,2.41,0,0,1-1.44-3.12l0-.05A2.48,2.48,0,0,1,555.76,279.84Z"/><polygon class="cls-2" points="548.27 241.79 553.89 254.01 532.93 258.53 531.05 254.45 548.27 241.79"/><path class="cls-2" d="M531,252.07l3.71,8.08a2.71,2.71,0,0,1-1.38,3.61h0a2.77,2.77,0,0,1-3.66-1.34l-3.71-8.08a2.73,2.73,0,0,1,1.38-3.62h0A2.78,2.78,0,0,1,531,252.07Z"/><polygon class="cls-2" points="551.45 218.02 546.65 230.61 528.64 219.2 530.25 214.99 551.45 218.02"/><path class="cls-2" d="M531.89,213.25l-3.17,8.32a2.78,2.78,0,0,1-3.56,1.61h0a2.71,2.71,0,0,1-1.61-3.51l3.17-8.32a2.78,2.78,0,0,1,3.56-1.61h0A2.71,2.71,0,0,1,531.89,213.25Z"/><polygon class="cls-2" points="569.51 209.33 560.11 213.56 555.55 195.42 558.69 194.01 569.51 209.33"/><path class="cls-2" d="M561.89,193.45l-8.87,4a.64.64,0,0,1-.84-.31l-1.51-3.29A.62.62,0,0,1,551,193l8.87-4a.64.64,0,0,1,.84.31l1.51,3.29A.62.62,0,0,1,561.89,193.45Z"/><path class="cls-3" d="M593.78,247.24a3.45,3.45,0,0,1-5.47-2.08,6.92,6.92,0,0,1,2.72-7.34,3.46,3.46,0,0,1,5.48,2.09A6.9,6.9,0,0,1,593.78,247.24Z"/><path class="cls-3" d="M576.31,210.28a4.65,4.65,0,0,1-4.41-.14c-1.17-.77-1.09-2,.18-2.67a4.7,4.7,0,0,1,4.42.14C577.66,208.39,577.58,209.59,576.31,210.28Z"/><path class="cls-3" d="M603.23,244.07c-1.09.86-2.19.43-2.46-1a4.63,4.63,0,0,1,1.51-4.1c1.09-.87,2.19-.43,2.45,1A4.63,4.63,0,0,1,603.23,244.07Z"/><path class="cls-3" d="M551.13,237.68c-.61,1.25-1.8,1.34-2.67.2a4.57,4.57,0,0,1-.48-4.33c.61-1.25,1.8-1.34,2.67-.2A4.54,4.54,0,0,1,551.13,237.68Z"/><path class="cls-3" d="M558.29,220c-2.24.74-3.94-.59-3.81-3a6.75,6.75,0,0,1,4.28-5.64c2.23-.74,3.93.59,3.81,3A6.77,6.77,0,0,1,558.29,220Z"/><path class="cls-3" d="M565,262.31a6.82,6.82,0,0,1-6-3.85c-.88-2.15.36-3.91,2.77-3.93a6.79,6.79,0,0,1,6,3.84C568.66,260.52,567.42,262.28,565,262.31Z"/><path class="cls-3" d="M589.87,261.86a4.76,4.76,0,0,1-4.17,1.45c-1.36-.29-1.72-1.41-.78-2.5a4.73,4.73,0,0,1,4.17-1.45C590.46,259.65,590.81,260.76,589.87,261.86Z"/><path class="cls-3" d="M599.12,225.16a4,4,0,0,1-2.35-3.68,1.81,1.81,0,0,1,2.69-1.6,4,4,0,0,1,2.36,3.68A1.81,1.81,0,0,1,599.12,225.16Z"/><path class="cls-3" d="M557.77,232.39a4,4,0,0,1,.57-4.33,1.81,1.81,0,0,1,3.1.46,4,4,0,0,1-.57,4.33A1.81,1.81,0,0,1,557.77,232.39Z"/></mask><clipPath id="clip-path"><path class="cls-4" d="M1170,961.93h-31.67l7-65.47c.14-1.37,1.59-2.42,3.33-2.42h12.39c1.76,0,3.22,1.08,3.34,2.47Z"/></clipPath></defs><title>faq</title><g class="cls-5"><g id="Calque_2" data-name="Calque 2"><g id="Calque_1-2" data-name="Calque 1"><path class="cls-6" d="M1338.66,797.25c-26.74-.41-54.37-1-79.57,1.56-48,4.94-74.15,20.62-74.29,35.25s20.11,28.56,39.45,42.1,38.4,27.69,35.71,42.3c-4.6,25-70.25,45.09-105.38,68-40.33,26.3-39,57.59,3.66,83.59,17.48,10.66,42.6,20.72,78.14,26.63s82.84,6.93,117,.36c48.46-9.32,56.56-30,103.73-39.8,33.38-7,78-6.87,117.81-10,61.55-4.88,113.84-18.51,136.63-35.62,30.75-23.08,8.19-49-19.61-72.36s-61.17-47.44-51-72c8.28-20,44.69-38,67-57.08s27.67-42.25-18.64-57.39c-32.47-10.61-87.75-14.93-134.52-10.52-55,5.19-75.2,18.39-90,32.94C1446.66,793,1400.27,798.21,1338.66,797.25Z"/><g class="cls-7"><g class="cls-8"><path class="cls-9" d="M642.45,64C728.94,53.82,827.8,44.07,929.17,37.13c247.72-17,563.49-20.5,661.12,59.13,15.92,13,25.73,28,29.17,44.72,8.46,41.12,3.29,91-15.39,148.21-16.83,51.56-44.12,107.9-81.12,167.45-60.12,96.75-141.9,195-224.37,269.6C1215,801.83,1143,841.58,1101,835.29a222.34,222.34,0,0,0-59.06-1.1c-87.85,10.33-154.84,73.45-220,134.86-53.73,50.62-104.48,98.43-164.58,115.78C583,1106.27,526.41,1049.54,480.91,1004c-12.83-12.86-25-25-36.56-34.61-25-20.71-54-15.65-84.77-10.3C324.74,965.12,288.7,971.4,253,942.81c-47.06-37.7-53.38-71.18-60.7-109.94-6.8-36-14.5-76.84-54.28-133.93C96.47,639.25,55.56,555.71,28.62,475.48-.16,389.76-7.66,322.77,8.05,291.67c48.33-95.74,135.8-120.79,246.54-152.5,32.09-9.2,65.27-18.7,100.6-30.69C377.52,100.9,491,81.8,642.45,64ZM1119,830.48c42.34-5,105.45-43.31,177.4-108.38,82.22-74.36,163.75-172.33,223.68-268.77,36.8-59.23,63.93-115.21,80.63-166.39,18.34-56.2,23.47-105,15.24-145-3.16-15.33-12.37-29.31-27.38-41.55C1491.79,21.48,1176.81,25.1,929.62,42,655.7,60.81,390.31,101.72,356.31,113.25c-35.38,12-68.6,21.53-100.72,30.73-110,31.5-196.89,56.39-244.48,150.65-15,29.72-7.42,95,20.82,179.1,26.76,79.72,67.4,162.71,108.7,222C181.11,753.83,189,795.35,195.86,832c7.4,39.16,13.23,70.09,58.86,106.64,34.53,27.67,69.91,21.51,104.14,15.55,31.4-5.47,61.06-10.64,87.23,11,11.76,9.74,24,21.95,36.86,34.88C530.16,1047.38,583.66,1101,656.31,1080l.51,2.4-.51-2.4c59.43-17.16,109.92-64.72,163.36-115.07,79.55-75,161.81-152.45,281.44-134.55A67.51,67.51,0,0,0,1119,830.48Z"/><path class="cls-9" d="M670.36,1052.73c149-43,245.54-279.3,444.23-249.57,137.3,20.54,565.6-453.64,516.66-691.37C1586.6-105.09,443.73,55.92,369.3,81.18,209.75,135.34,84.74,141.42,23.13,263.46c-33.41,66.15,45.33,283,129.76,404.18S179.09,840.26,267.42,911c67,53.66,137.58-18,191.35,26.55S576.49,1079.83,670.36,1052.73Z"/></g></g><rect class="cls-1" x="1022.17" y="944.5" width="759.11" height="245.21"/><rect class="cls-6" x="1022.17" y="1160.49" width="759.11" height="29.23"/><path class="cls-10" d="M1175.26,1168V1040.32q0-25.24,0-50.48,0-8.54,0-17.08c0-2.78.35-5.84,0-8.6a4.14,4.14,0,0,1,0-.61.1.1,0,0,0-.2,0c0,7.12,0,14.23,0,21.35q0,24.15,0,48.31v125.58c0,2.73-.46,5.91,0,8.6a4.14,4.14,0,0,1,0,.61.16.16,0,1,0,.31,0Z"/><path class="cls-10" d="M1331.29,1168V1040.32q0-25.24,0-50.48,0-8.54,0-17.08c0-2.78.35-5.84,0-8.6a4.14,4.14,0,0,1,0-.61.1.1,0,0,0-.2,0c0,7.12,0,14.23,0,21.35q0,24.15,0,48.31v125.58c0,2.73-.46,5.91,0,8.6a4.14,4.14,0,0,1,0,.61.16.16,0,1,0,.31,0Z"/><path class="cls-10" d="M1487.32,1168V1040.32q0-25.24,0-50.48,0-8.54,0-17.08c0-2.78.35-5.84,0-8.6,0-.2,0-.41,0-.61a.1.1,0,0,0-.2,0c0,7.12,0,14.23,0,21.35q0,24.15,0,48.31v125.58c0,2.73-.45,5.91,0,8.6a3.11,3.11,0,0,1,0,.61.16.16,0,0,0,.32,0Z"/><path class="cls-10" d="M1643.35,1168V1040.32q0-25.24,0-50.48,0-8.54,0-17.08c0-2.78.36-5.84,0-8.6a4.14,4.14,0,0,1,0-.61.1.1,0,0,0-.2,0c0,7.12,0,14.23,0,21.35q0,24.15,0,48.31v125.58c0,2.73-.46,5.91,0,8.6a4.14,4.14,0,0,1,0,.61.16.16,0,0,0,.32,0Z"/><path class="cls-11" d="M1406.62,865.21a8,8,0,0,0-.76-9.12c-.59-.73-1.33-1.48-1.27-2.35s1.16-1.71,2-2.49a5.33,5.33,0,0,0,.53-7.25c-.62-.75-1.44-1.4-2-2.19-1.55-2.22-.67-4.95.25-7.37a17.29,17.29,0,0,1,2.77-5.33,9.83,9.83,0,0,0,2.22-3c.37-1.19-.1-2.51.51-3.65s2.62-1.92,3.58-3.11c1.27-1.59.52-3.71-.75-5.29a10.06,10.06,0,0,1-2.18-3.14,9,9,0,0,1,0-3.06c.27-4.09-2.89-8.19-7.61-9.87-2.69-1-5.85-1.23-8.07-2.77-1.58-1.1-2.48-2.72-4.11-3.78a10.61,10.61,0,0,0-7.64-1,29,29,0,0,0-7.14,2.87,11.64,11.64,0,0,0-5.86.13c-5.63,1.49-10.42,4.89-12.9,9.16a47.89,47.89,0,0,1-2.35,4.18c-1.32,1.8-3.3,3.24-4.85,4.93s-2.71,3.82-2,5.83c.59,1.66,2.35,3,2.76,4.66.92,3.82-5.17,6.5-6,10.33-.7,3.19,2.46,6.41,1.45,9.55-.77,2.37-3.62,3.87-6.07,5.37s-4.87,3.71-4.21,6.11c.47,1.74,2.5,3.06,2.73,4.83.48,3.71-6.94,6.06-5.93,9.7.65,2.32,4.24,3.12,7.21,3.41,19.84,1.91,40.07.21,59.43-3.73C1402.84,867.34,1405.54,867.07,1406.62,865.21Z"/><path class="cls-12" d="M1416.69,920c1.19,2.46,3,4.79,3.57,7.39.53,2.37,1,4.16,2.49,5.64.47.49,1.31.08,2,.28a5,5,0,0,0,3.1-.41c8.41-3.32,13.16-11.58,10.78-18.78a9.2,9.2,0,0,0-2.16-3.7c-2.35-2.38-6.53-3.38-10.3-2.86a17,17,0,0,0-9.48,4.74C1414.4,914.57,1415.35,917.18,1416.69,920Z"/><path class="cls-12" d="M1398.79,858.55a3.64,3.64,0,0,0-1.65-.61,26.09,26.09,0,0,1-6.79-2.41,4.89,4.89,0,0,1-1.49-1.08,3.64,3.64,0,0,1-.59-2.29,9,9,0,0,1,1.29-5.27,12.51,12.51,0,0,0,9.79-1.45,16.26,16.26,0,0,0,5.86-6.71,14.8,14.8,0,0,0,1.75-5.65c.15-2.12-.37-4.24-.45-6.36-.2-5,2-10.14,0-14.85a15.69,15.69,0,0,1-.73-1.41,5.19,5.19,0,0,0-3.61-3.08,14.41,14.41,0,0,1-2.87-.79c-1.12-.6-1.62-1.76-2.76-2.32a9.15,9.15,0,0,0-3.83-.43c-1.31,0-2.85-.41-3.2-1.41a10.81,10.81,0,0,1-5.5,6c-2.08,1-4.79,1.85-5.4,3.74-.43,1.32.37,2.8-.35,4s-2.83,1.73-4.18,2.7a3.45,3.45,0,0,0-1.16,4.57,7.93,7.93,0,0,0-4.89-1.25,3.94,3.94,0,0,0-3.58,4c.13,1.79,1.49,3.38,3.06,4.67a6.46,6.46,0,0,0,4.85,1.75h-.39c.59,5.51.5,11.79-1.7,17a21.7,21.7,0,0,1-13.31,12.14c-4.2,5.09-5,12-4.77,18.06.13,2.92.49,5.91,2.14,8.52,2.13,3.37,6.16,5.72,10.19,7.72a126.41,126.41,0,0,0,24.19,9c3,.77,6.13,1.45,9.19,1a12.14,12.14,0,0,0,9.26-7.49c1.36-3.5,1.08-7.26.7-10.91q-1-9.61-2.78-19.15A18.31,18.31,0,0,0,1398.79,858.55Z"/><path class="cls-9" d="M1419.14,945.69c-9.1,2.93-19.28,2.65-29.06,2-11.52-.74-22.72-1.65-34.12-3.21a59.07,59.07,0,0,0-.32-12,60.59,60.59,0,0,0-1.74-7.06c-1-3.37-1.86-6.72-2.83-10.09a50,50,0,0,1-21.64-3.18,78.77,78.77,0,0,1,0-28.76c1-5.68,3-11.7,8.53-15.43a34.54,34.54,0,0,1,7.14-3.4c5.6-2.15,11.44-3.76,17.13-5.75a101.29,101.29,0,0,0,29,21.59,33.33,33.33,0,0,0,6.85-22.1c7.77,1.05,14.43,4.09,21.26,7.19a31.31,31.31,0,0,1,6.52,3.61c4,3.18,5.39,7.81,6.57,12.2a259.54,259.54,0,0,1,6.79,31.54,27.82,27.82,0,0,0-14.29,2.23c-1.46.66-2.89,1.57-3.31,2.85-2.33,7.22-.88,14.7,0,22.11a7.23,7.23,0,0,1-.2,3.81C1420.87,945.05,1420.64,945.21,1419.14,945.69Z"/><path class="cls-13" d="M1418.59,887.55c-3.07,4.76,1.23,9.55,3.26,13.72,1.56,3.19,1.29,6.15.12,9.41-.89,2.5-2.27,5.08-2.29,7.79a.17.17,0,0,0,.34,0,66.32,66.32,0,0,1,2.57-8,12.22,12.22,0,0,0,.79-6.54c-1.11-5.36-8.18-10.61-4.59-16.35.09-.13-.12-.25-.2-.12Z"/><path class="cls-13" d="M1339.16,870.13c4.37,1.29,8.88,2.64,12.77,5.07,4,2.54,6.23,6.21,8.6,10.2.07.12.29,0,.24-.1a21.74,21.74,0,0,0-7.93-10c-4.09-2.77-8.93-4.08-13.61-5.45-.15,0-.22.2-.07.24Z"/><path class="cls-13" d="M1360,887.75c1.19,7.84,2.08,15.71,2.82,23.6,0,.16.28.17.27,0-.62-7.93-1.62-15.81-2.85-23.66,0-.16-.26-.1-.24.06Z"/><path class="cls-13" d="M1330.7,906.69a110.77,110.77,0,0,0,14.53,1.61c4.14.17,8.89.59,12.78-1.12.19-.08.06-.39-.14-.33-4.17,1.42-8.63,1.21-13,1a119.57,119.57,0,0,1-14.12-1.45c-.17,0-.25.23-.07.26Z"/><path class="cls-13" d="M1423.83,908.68c3.82-1.84,7.6-1.89,11.72-1.46.15,0,.17-.21,0-.25a17,17,0,0,0-11.9,1.47c-.16.09,0,.32.14.24Z"/><path class="cls-12" d="M1440.31,953c-2.73-4-7.18-7.79-12.91-8.47-6.36-.74-13.13,4-19.21,2.4-8.47-2.29-16.53-5.43-24.88-8a82.93,82.93,0,0,0-26-4.06c-1.62-6.48-.75-13.87-1.07-20.52-7.19.47-18.93.33-24-1.35a142.37,142.37,0,0,0,4.63,24.12,28.5,28.5,0,0,0,2.67,6.53,7,7,0,0,0,3.38,3.38,10.72,10.72,0,0,0,3,.59q24.65,2.45,49.5,3.18c4.92.15,8.15,4.84,12.84,6a23.41,23.41,0,0,0,6.44.45A104.53,104.53,0,0,0,1440.31,953Z"/><path class="cls-14" d="M1356,936.28a8.47,8.47,0,0,0-4,5.13.09.09,0,0,0,.17.05,10.16,10.16,0,0,1,3.89-5c.11-.07,0-.24-.09-.17Z"/><path class="cls-15" d="M1369.28,858.15a.4.4,0,0,0-.48.22s0,0,0,0l.44-.16c.06,0,.08-.09,0-.09Z"/><path class="cls-14" d="M1370,858.56l6.06.17a7.48,7.48,0,0,1,1.34,0,12.51,12.51,0,0,1,1.73.81c.58.22.13.22.76.22a.09.09,0,0,0,0-.17c-.58-.2-.94-.75-1.48-1a5.63,5.63,0,0,0-2-.2l-6.39-.18a.15.15,0,0,0,0,.3Z"/><path class="cls-14" d="M1384.78,859.09c2.59-1.56,5.66-.24,8.45-.82.13,0,.1-.24,0-.22-2.82.33-6-.77-8.57.78a.15.15,0,0,0,.15.26Z"/><path class="cls-14" d="M1374,841.19a28,28,0,0,0,5.16,14.92c.06.08.19,0,.14-.08a30.63,30.63,0,0,1-5-14.84c0-.16-.26-.16-.25,0Z"/><path class="cls-14" d="M1372.39,827.1c-.48-1.25-1.14-2.58-2.55-2.92-.87-.2-2.34-.08-2.58,1,0,.08.1.13.14.06a2.26,2.26,0,0,1,2.8-.66,4.19,4.19,0,0,1,2,2.59c0,.12.23.07.19,0Z"/><path class="cls-14" d="M1370.89,824.79a4.37,4.37,0,0,0-3,.88c-.1.09,0,.24.14.18a5.38,5.38,0,0,1,2.83-.72c.21,0,.21-.33,0-.34Z"/><path class="cls-14" d="M1380.65,840.83a19.66,19.66,0,0,0,8.66,6.32.1.1,0,0,0,.08-.17c-3.18-1.87-6.14-3.45-8.57-6.33-.1-.12-.27.06-.17.18Z"/><path class="cls-1" d="M1385.62,893.9c-.67-3-2.42-10.07-2.38-10.16-5.56.14-12.55.86-18,1.58.85,3,1.25,7.53,1.74,10.58C1372.55,895.24,1380,894.39,1385.62,893.9Z"/><path class="cls-16" d="M1376.44,886c-1.16.13-2.23.18-3.52.4a1.29,1.29,0,0,1-1.46-.74l-.47-1.53c-.17-.57.31-1.15,1-1.22l3.58-.35a1.27,1.27,0,0,1,1.36.71c.2.57.32,1,.49,1.51S1377.16,885.89,1376.44,886Z"/><path class="cls-17" d="M1353,830.31a4.77,4.77,0,0,0-1.72,4.61,40.3,40.3,0,0,1,.72,4.53,9.44,9.44,0,0,1-1.19,4.43c-1.41,2.56-3.69,3.94-6,5.51-1.45,1-3,2.09-3.31,3.91,0,.16.2.23.24.07.58-2.51,3.18-3.66,5.15-5a12.67,12.67,0,0,0,4.24-4.37,9.52,9.52,0,0,0,1.2-5.33c-.24-2.9-1.9-6,.91-8.21.13-.11-.06-.3-.2-.19Z"/><path class="cls-17" d="M1364.89,843.92c-.53,4-.79,7.7-3.88,10.58-2.37,2.21-5.58,3.14-8,5.2-.07,0,0,.17.09.12,3-2,6.69-3.31,9.1-6.13s2.58-6.29,3-9.77c0-.16-.22-.16-.24,0Z"/><path class="cls-17" d="M1395.83,849.52a5.65,5.65,0,0,0,.83,5.24c.07.09.2,0,.15-.12a6.3,6.3,0,0,1-.71-5,.14.14,0,0,0-.27-.08Z"/><path class="cls-17" d="M1359.86,815.76a5.83,5.83,0,0,0-1,4.21,5.91,5.91,0,0,0,1,2.28c.93,1.42,1.61,2,1.34,3.92-.21,1.41-.38,2.28.61,3.48A8.55,8.55,0,0,0,1366,832c.2.06.26-.23.09-.3-1.7-.71-4.06-1.5-4.66-3.48-.38-1.3.56-2.45.24-3.73a10.57,10.57,0,0,0-1.66-2.64,5.59,5.59,0,0,1,0-6c.08-.12-.11-.23-.18-.11Z"/><path class="cls-17" d="M1380.51,805.85c-3.15.83-5.88,2.89-6.57,6.21-.48,2.36-.34,5.06-2.82,6.38-1.42.75-3.3.67-4.38,2-.09.11,0,.25.15.16,1.34-1.17,3.17-1.11,4.65-2a5.07,5.07,0,0,0,2.2-3.05c.55-1.91.29-4,1.38-5.73a9.1,9.1,0,0,1,5.46-3.75.12.12,0,1,0-.07-.23Z"/><path class="cls-17" d="M1373.78,806.27c-1.62,1.18-3,3.12-2.63,5.23,0,.08.13.06.13,0a6.36,6.36,0,0,1,2.61-5c.12-.09,0-.28-.11-.19Z"/><path class="cls-17" d="M1369.29,797.9c-2.18.64-5.06,1.4-6.35,3.47-.75,1.21-.61,2.7-1.18,4a6.64,6.64,0,0,1-4.82,3.44c-.17,0-.1.29.07.26a6.63,6.63,0,0,0,5.21-4c.6-1.82.47-3.48,2.15-4.76a16,16,0,0,1,5-2.19.11.11,0,0,0-.06-.21Z"/><path class="cls-17" d="M1379.21,795.28a11.92,11.92,0,0,1,8.66,5.11.09.09,0,0,0,.16-.1c-1.54-3.26-5.45-4.88-8.82-5.24-.15,0-.15.21,0,.23Z"/><path class="cls-17" d="M1392.05,800.25c2.83.72,7.3-.24,9.23,2.48a12.59,12.59,0,0,0,1.45,2.35,7.13,7.13,0,0,0,2.44,1.16,7,7,0,0,1,4.51,6.77c.07,2.9-.85,5.7-.18,8.58,0,.11.17.06.15,0-.68-4.88,2.47-11.81-3-15-1.25-.73-2.79-.85-3.82-1.9-.82-.83-1.07-2-2-2.81-2.33-1.92-6-1.13-8.75-1.82a.12.12,0,0,0-.06.23Z"/><path class="cls-17" d="M1388.77,797.47a11.25,11.25,0,0,1,7.07.2.09.09,0,0,0,.07-.16,9.67,9.67,0,0,0-7.21-.29c-.16,0-.09.31.07.25Z"/><path class="cls-17" d="M1402.05,846.38a3.91,3.91,0,0,1,.58,5.48,6,6,0,0,0-1.3,2.31c-.35,2,1.57,3.61,3,4.61.11.08.24-.09.14-.18-1.12-1-2.89-2.25-2.89-4s1.57-2.58,2.05-4a4.12,4.12,0,0,0-1.41-4.45c-.12-.1-.28.06-.17.17Z"/><path class="cls-17" d="M1365.69,842.08a4.6,4.6,0,0,0-.27-2.64c-.54-1.89,0-2.92,1-4.5,0-.08-.07-.18-.13-.11a5.29,5.29,0,0,0-1.41,2.68c-.19,1.57,1,2.92.64,4.51,0,.13.17.19.21.06Z"/><path class="cls-17" d="M1341.48,854.83c-.36,2,1,3.36,1.49,5.18.85,3-1.91,5.22-4.55,5.87a.13.13,0,0,0,.07.26,6.11,6.11,0,0,0,4.7-3.64c1-2.8-1.89-4.85-1.38-7.58,0-.22-.29-.31-.33-.09Z"/><path class="cls-13" d="M1331.4,913a52.91,52.91,0,0,0,18.56,2.09,55.63,55.63,0,0,0,6.81-.76,11.83,11.83,0,0,0,4-1.22.13.13,0,0,0-.12-.22c-3.39,1.48-7.62,1.66-11.24,1.82a54.45,54.45,0,0,1-18-2,.15.15,0,1,0-.09.29Z"/><path class="cls-12" d="M1434,918.15q11.4-15.6,23.07-31.07c2-2.67,4.1-5.51,4.09-8.62,0-2.32-1.2-4.61-.77-6.9.73-3.89,6-7,4.91-10.89,2.25,0,3.16,2.35,2.82,4.11s-1.17,3.74.13,5.19c5.12-4.88,10.35-10,15.47-14.88,1-.92,2.28-1.93,3.73-1.61.52,1-.31,2.08-1.11,2.95l-9.76,10.68a7.47,7.47,0,0,0,2.57-1.69q5.16-5.46,10.3-10.93a4.3,4.3,0,0,1,1.45-1.14,1.93,1.93,0,0,1,1.9.15c.62.56.21,1.42-.26,2.07-3.73,5.15-9.21,9.4-12.89,14.58,3.89-3.1,8.48-5.86,12.75-8.63a1.67,1.67,0,0,1,.75-.31,1.1,1.1,0,0,1,1.13.87,2.87,2.87,0,0,1-1.25,2.49,7.71,7.71,0,0,0-2.06,2.23c.34-.59,1.53-.42,2.09.07a1.4,1.4,0,0,1,.18,1.84,5.48,5.48,0,0,1-1.61,1.48L1469.28,886c-1,.73-2.11,1.54-2.32,2.61-2.63,13.79-10.59,26.18-16.5,39.31-1.66,3.69-3.63,7.44-7.19,10.17s-9.11,4.16-13.6,2.51c-4.33-1.6-6.14-5.06-7.78-8.61a4.42,4.42,0,0,1,.39-1.07,156.77,156.77,0,0,1,11.13-12.64C1433.74,917.9,1433.68,918.52,1434,918.15Z"/><path class="cls-14" d="M1437.57,914.17c-4.18,3.55-7.38,8.89-7,14.53a.09.09,0,0,0,.17,0,21,21,0,0,1,7-14.41.08.08,0,1,0-.11-.12Z"/><path class="cls-14" d="M1491,866.66c-3.82,1.83-8,3.89-11.15,6.7-.08.07,0,.2.12.15,3.73-2.24,7.21-4.72,11.14-6.66.12-.06,0-.25-.11-.19Z"/><path class="cls-14" d="M1477.66,874.62c-2.53,2.18-6,2.35-9,3.61-1.83.78-4,2.2-3.79,4.43a.09.09,0,1,0,.18,0c.3-3.53,4.49-4.46,7.27-5.3a13.58,13.58,0,0,0,5.43-2.62c.08-.07,0-.2-.13-.12Z"/><path class="cls-14" d="M1473,869.09a16.16,16.16,0,0,1,5.23,4.46c.07.08.2,0,.15-.12-1-2.06-3.26-3.55-5.28-4.51-.11,0-.21.11-.1.17Z"/><path class="cls-14" d="M1467.47,869.6a5.53,5.53,0,0,1,1,4.65.09.09,0,0,0,.17,0,4.92,4.92,0,0,0-1.08-4.8c-.06-.07-.19,0-.13.1Z"/><path class="cls-11" d="M1379.82,821.94c2.49-2.22,5.69-2.21,8.76-1.53.23.05.4-.29.17-.41a8.49,8.49,0,0,0-9.24,1.63.22.22,0,0,0,.31.31Z"/><path class="cls-11" d="M1388.16,820.35c-2.88-.64-6.54-.52-9,1.33-.15.11-.07.42.14.34,3-1.11,5.55-1.84,8.76-1.35.21,0,.31-.28.09-.32Z"/><path class="cls-11" d="M1385.21,822.89c-.71.76-1.09,2.27-.27,3.11a.94.94,0,0,0,1.19.25c.43-.3.39-1,.39-1.49,0-.69-.13-2.66-1.33-2.07s-.35,2.5.12,3.19a.28.28,0,0,0,.49,0,1.85,1.85,0,0,0-.08-2.15.25.25,0,0,0-.42,0,.9.9,0,0,0,.25,1.38c.2.13.43-.17.26-.34a.53.53,0,0,1-.13-.74l-.38,0a1.35,1.35,0,0,1,0,1.61h.49a2.93,2.93,0,0,1-.58-1.76c0-.41.31-1,.64-.42a2.67,2.67,0,0,1,.15,1.13c0,.19,0,.9-.09,1a.49.49,0,0,1-.69-.08,1.11,1.11,0,0,1-.14-.41,2.5,2.5,0,0,1,.47-1.92c.13-.2-.18-.44-.35-.26Z"/><path class="cls-11" d="M1406.28,821.54c-1.93-2.14-5.58-3.12-8.19-1.62-.21.11-.07.43.16.38,2.78-.72,5.59-.64,7.75,1.53.18.19.46-.09.28-.29Z"/><path class="cls-11" d="M1398.69,820.56c2.87-.5,5.13.22,7.72,1.33.16.07.38-.13.21-.27-2.12-1.81-5.41-2-8-1.36-.2,0-.11.33.08.3Z"/><path class="cls-11" d="M1400.91,823.05a2.82,2.82,0,0,1,.42,1.9c0,.23-.33,1-.69.65-.15-.16-.1-.84-.1-1.05a6,6,0,0,1,.08-1c0-.24,0-.31.28-.35s.25.08.29.34a3.12,3.12,0,0,1-.5,2h.47a1.5,1.5,0,0,1,0-1.63h-.4a.59.59,0,0,1-.07.81c-.14.16.06.46.24.32a.93.93,0,0,0,.23-1.36.23.23,0,0,0-.4,0,2,2,0,0,0-.07,2.13.27.27,0,0,0,.47,0c.42-.71,1-2.42.2-3.09-1.16-.92-1.31,1.52-1.3,2.09,0,.41,0,1.09.34,1.37a.82.82,0,0,0,1-.22c.79-.82.43-2.34-.22-3.12-.15-.19-.43.05-.32.25Z"/><path class="cls-18" d="M1395.29,823.7a5.69,5.69,0,0,0,1.39,4.15c.8,1.06,2,1.8.88,3.37-.38.51-.71.68-.91,1.31-.07.21.23.32.34.14.56-.88,2.08-1.79,1.7-3-.19-.63-.92-1.13-1.33-1.61a6,6,0,0,1-1.8-4.34c0-.18-.25-.17-.27,0Z"/><polygon class="cls-19" points="1177.15 852.97 1173.29 856.22 1332.78 936.1 1336.39 932.09 1330.12 852.97 1177.15 852.97"/><polygon class="cls-20" points="1173.29 856.22 1326.74 856.03 1332.78 936.1 1178.11 936.29 1173.29 856.22"/><polygon class="cls-19" points="1236.5 907.82 1268.35 907.82 1259.42 960.38 1220.34 959.23 1236.5 907.82"/><path class="cls-19" d="M1222.57,897.1l51.15-1.32,7.18-.18-.39-.39,1.89,26.35.28,3.84.39-.39h-60.32l.39.39-.18-28.69a.39.39,0,0,0-.78,0l.18,28.69a.4.4,0,0,0,.39.39h60.32a.39.39,0,0,0,.39-.39L1281.57,899l-.28-3.83a.41.41,0,0,0-.39-.4l-51.15,1.33-7.18.18C1222.07,896.33,1222.07,897.12,1222.57,897.1Z"/><path class="cls-19" d="M1180,862l22.68-.19-.39-.39,1,15.86.39-.39-22.44,1,.39.39-1.21-16.63c0-.5-.82-.5-.78,0l1.21,16.63a.39.39,0,0,0,.39.39l22.44-1a.39.39,0,0,0,.39-.39l-1-15.86a.41.41,0,0,0-.4-.39l-22.68.19A.39.39,0,0,0,1180,862Z"/><path class="cls-19" d="M1085.47,947.91h19.1c8.54-2.87,14.52-9.47,14.52-17.16a23.53,23.53,0,0,0-1.56-9.14h-45a23.94,23.94,0,0,0-1.54,9.14C1070.94,938.44,1076.92,945,1085.47,947.91Z"/><path class="cls-20" d="M1078.94,927.6c9,.4,18.11.77,27-.82.11,0,.06-.17,0-.15-9,1.39-18,1.14-27,.8-.11,0-.11.16,0,.17Z"/><path class="cls-20" d="M1073.5,934.16a53.42,53.42,0,0,0,16.26,1.69.07.07,0,1,0,0-.13,66.93,66.93,0,0,1-16.2-1.76.1.1,0,0,0-.06.2Z"/><path class="cls-20" d="M1094.32,936a65.58,65.58,0,0,0,24.58-3.55.07.07,0,1,0-.05-.14,77.21,77.21,0,0,1-24.53,3.48.11.11,0,0,0,0,.21Z"/><path class="cls-20" d="M1079.22,941.52a95,95,0,0,0,32.21-1c.14,0,.08-.25-.06-.22a101.9,101.9,0,0,1-32.13,1.06c-.11,0-.13.18,0,.19Z"/><path class="cls-21" d="M1084.36,945.49a181.73,181.73,0,0,0,20.48-.13c.1,0,.1-.17,0-.17-6.84.25-13.65.33-20.48,0-.19,0-.19.27,0,.28Z"/><path class="cls-22" d="M1101.12,914.17a10,10,0,0,1,8.58-.83c3.07,1.17,5,2.8,8.41,2.89,1,0,2.37.87,3.41.89,3,.07,5.13,2.15,6.76,4.1s3.44,4.14,6.33,4.65c-2.51-.58-5.53.41-8.14.28-2.16-.1-4.12-1-6.23-1.38s-4.09-.26-6.09-.62c-3.52-.63-6.38-2.58-9-4.51C1103,918.13,1100.9,916.41,1101.12,914.17Z"/><path class="cls-23" d="M1103.92,914.62c5.3.43,9.29,3.41,13.94,5.58a48.36,48.36,0,0,0,5.52,1.73,68.58,68.58,0,0,0,6.67,2.22c.08,0,.12-.12,0-.14-2.44-.56-4.68-1.64-7.08-2.36a36.11,36.11,0,0,1-7.35-2.79c-3.73-2.05-7.4-4-11.73-4.31-.05,0-.05.07,0,.07Z"/><path class="cls-24" d="M1090,916.16c-2-4.29-8.54-6.87-14-5.54-2.37.57-4.54,1.75-7,1.86-2.19.09-4.28-.68-6.45-1a14.81,14.81,0,0,0-12,3.41c-2.79,2.66-3.79,6.4-7.13,8.62,3.06-3,7.59-3.39,12.46-3s9.6,1.57,14.48,1.72A34,34,0,0,0,1090,916.16Z"/><path class="cls-22" d="M1043.92,902.56c3.33,2.29,8.52,1.17,12.72,2.25,4.94,1.27,7.9,5.44,12.72,7,4.19,1.33,9,.44,13.41,1.07a18.44,18.44,0,0,1,9,3.92,10,10,0,0,0-1.64-10.08,13.1,13.1,0,0,0-11.4-4.1c-2,.29-4.18,1.06-6.08.41a8.9,8.9,0,0,1-2.29-1.42,19.27,19.27,0,0,0-7.5-3.22,14,14,0,0,0-6.65.08c-3.83,1.14-6.69,4.53-10.77,4.3"/><path class="cls-25" d="M1091.06,915.22c-2.65-2.81-5.45-6-4.81-9.49.49-2.65,3-5.22,1.88-7.75-.77-1.78-3.08-2.86-4.24-4.5-1.65-2.34-.66-5.24.36-7.8.27,2.21,2.69,3.53,5.18,4.56s5.26,1.71,7.36,3.18a8.53,8.53,0,0,1,3,10.22,5.28,5.28,0,0,0-.66,3.06,8.93,8.93,0,0,0,1.16,2.08,4.83,4.83,0,0,1-2.2,6.47C1095.62,916.67,1092.89,917.15,1091.06,915.22Z"/><path class="cls-23" d="M1087.34,912a18.35,18.35,0,0,0-6.67-4c-3.36-1.17-7.09-.9-10.23-2.66a16.78,16.78,0,0,0-7.66-2.5c-3.91-.27-7.79.25-11.7-.34-.11,0-.16.15,0,.17a48.15,48.15,0,0,0,9.22.36,18.41,18.41,0,0,1,10.06,2.53c2.45,1.45,5.21,1.43,7.93,2a20,20,0,0,1,9,4.55c.08.07.2-.05.12-.12Z"/><path class="cls-23" d="M1084.72,913.93a25.63,25.63,0,0,0-7.37-.08c-3,.44-5.66,1.78-8.58,2.56-3.16.85-6.41.17-9.62.42a36,36,0,0,0-8.62,2,.07.07,0,1,0,0,.14A43.89,43.89,0,0,1,1060,917c2.5-.11,5,.28,7.51-.12,2.68-.43,5.12-1.79,7.77-2.39a27.84,27.84,0,0,1,9.37-.4c.1,0,.13-.16,0-.17Z"/><path class="cls-23" d="M1091.8,912.81c-2.17-3.29-.86-5.87,1.15-8.69a6.57,6.57,0,0,0,1.44-4.56c-.46-4.74-5.56-5.11-7.51-8.73a.08.08,0,0,0-.14.08c.72,1.56,2,2.36,3.42,3.3,3,2.06,5.26,5.24,3.17,8.89-1,1.73-2.54,3-2.9,5.08a6.34,6.34,0,0,0,1.19,4.74c.07.12.26,0,.18-.11Z"/><path class="cls-22" d="M1092,915.66a6.9,6.9,0,0,1,1.35-8.65c2.76-2.64,7.7-4,8.88-7.29.36-1,.31-2.09.66-3.09,1-2.87,4.93-4.36,8.48-5.35s7.52-2.09,9.21-4.75c-1.69,2.27-1.08,5.53-2.08,8-.83,2.08-2.83,3.73-4.08,5.67s-1.68,3.92-2.85,5.77c-2.06,3.24-6,5.43-9.81,7.45C1098.72,915,1095.39,916.57,1092,915.66Z"/><path class="cls-25" d="M1136.16,903.51c-1.8.8-4.08.31-5.92-.43s-3.59-1.73-5.63-2c-3.78-.42-7.2,1.87-11,2.26-1.82.19-3.7-.08-5.5.25a12.63,12.63,0,0,0-5.51,2.81,39.38,39.38,0,0,0-7.33,7.51c-.56.76-1.42,1.61-.94,2.39a4.65,4.65,0,0,0,2.45,1.68,12.28,12.28,0,0,0,7.83-.2,16.39,16.39,0,0,0,6.15-4c1.89-1.9,3.61-4.23,6.55-4.85,2.28-.48,4.79.2,7-.43a21.43,21.43,0,0,0,2.93-1.31C1130.47,905.79,1134.65,906.18,1136.16,903.51Z"/><path class="cls-24" d="M1138.06,914.56a14,14,0,0,1-10.37,4.17c-3.16-.21-6-1.78-9.2-1.85-3.61-.08-6.79,1.75-10.27,2.51-5.48,1.19-11.78-.62-15-4.31,3.47-3.62,9.7-5,15.42-5.38,4.2-.24,8.74-.32,12.26,1.51,1.2.62,2.21,1.43,3.36,2.11C1127.82,915.43,1133.81,915.67,1138.06,914.56Z"/><path class="cls-23" d="M1093.51,913.07c2.35-5.32,7.82-8.08,12.29-11.37,2.14-1.59,3.45-3.64,5.26-5.55s3.87-3.51,5.37-5.69c.06-.09-.09-.17-.15-.08-1.78,2.46-4.23,4.24-6.19,6.54a37.36,37.36,0,0,1-2.73,3.28,35.65,35.65,0,0,1-4.33,3.21c-3.74,2.57-7.76,5.29-9.6,9.62,0,.05.06.1.08,0Z"/><path class="cls-23" d="M1098.87,912.51c5.17-4,11-5.28,17.33-5.85,2.81-.25,5.45-1.3,8.25-1.63s5.91-.27,8.85-.45c.1,0,.1-.17,0-.16a71,71,0,0,0-9.68.47c-1.52.24-3,.75-4.48,1.08a41.62,41.62,0,0,1-5.47.62,27.32,27.32,0,0,0-14.9,5.82c-.07.06,0,.16.1.1Z"/><path class="cls-23" d="M1100.61,913.74a26.6,26.6,0,0,1,8.51-1c2.91.17,5.64,1.07,8.49,1.59,2.54.47,5.05.81,7.54,1.48a11.77,11.77,0,0,0,6.19.45.06.06,0,0,0,0-.12c-3.16.64-6-.67-9.06-1.28-2.67-.54-5.35-.86-8-1.49a25.29,25.29,0,0,0-13.67.26c-.08,0,0,.15,0,.13Z"/><path class="cls-26" d="M1157.78,908.36c-.37-14.06,4.85-27.27,13.37-38.3.06-.08-.08-.19-.15-.11a57.42,57.42,0,0,0-13.45,38.41c0,.15.24.15.23,0Z"/><path class="cls-26" d="M1157.28,907.39a110,110,0,0,1,4.3-70.93c0-.1-.12-.14-.16-.05a107.18,107.18,0,0,0-4.27,71c0,.08.15,0,.13,0Z"/><path class="cls-26" d="M1136,852.87c11.23,14.63,14.75,32.55,17.24,50.39,0,.07.13,0,.12,0-2.1-17.86-5.85-36-17.18-50.51-.08-.1-.26,0-.18.13Z"/><path class="cls-22" d="M1165.08,875.55c0-.42-.15-.84-.13-1.27a3.86,3.86,0,0,1,.79-1.77l3.6-5.43a6.92,6.92,0,0,1,1.1-1.4,13.22,13.22,0,0,0,1.19-1,9.73,9.73,0,0,0,1-1.94,8.87,8.87,0,0,1,3.31-2.85,8.12,8.12,0,0,1,2.46-1.13,3,3,0,0,1,2.63.52,2,2,0,0,1,.17,2.32,7.42,7.42,0,0,0-.93,2.3c-.06.82.36,1.63.31,2.45-.13,1.87-2.57,3.09-3.44,4.83a7.69,7.69,0,0,1-.78,1.54,7.79,7.79,0,0,1-2.28,1.38c-1.66.89-2.73,2.32-4,3.52-.79.72-4.2,3.61-5.59,3C1162.73,879.93,1165.11,876.67,1165.08,875.55Z"/><path class="cls-22" d="M1154.55,849.63c-.11-.6-.43-1.17-.58-1.77a3.41,3.41,0,0,1,.39-2.58,4.89,4.89,0,0,0,.59-1.07c.26-.87-.39-1.74-.44-2.63a4.16,4.16,0,0,1,.8-2.25c1.5-2.52,1.44-4.4,4.78-7.45.81-.74,1.25-1.77,2.36-2.21a4.73,4.73,0,0,1,5.55,2.15c.86,1.71.48,3.63.08,5.44l-.66,3a11.69,11.69,0,0,1-.77,2.53,13.21,13.21,0,0,1-1.78,2.58q-2.41,3-4.84,6c-.94,1.17-2.43,4-4.71,2.88C1153.49,853.31,1154.82,851,1154.55,849.63Z"/><path class="cls-22" d="M1137.42,860.62c-.47-.2-1-.29-1.46-.53-1.13-.65-1-2-1.71-3-1-1.36-3.39-1.92-3.85-3.43a16.93,16.93,0,0,1-.14-1.76c-.29-1.52-2.29-2.53-2.74-4-.37-1.28.46-2.56,1.27-3.71a5.19,5.19,0,0,1,1.56-1.61A4.66,4.66,0,0,1,1136,844a5.16,5.16,0,0,0,.91,1.23c.78.65,2.1.68,3,1.24,2.06,1.3.5,4.25,2.23,5.82.41.37,1,.62,1.38,1,1.41,1.26.51,2.91.68,4.37.2,1.7,1.56,3,.48,4.68C1142.08,866.37,1139.71,861.58,1137.42,860.62Z"/><path class="cls-27" d="M1170,961.93h-31.67l7-65.47c.14-1.37,1.59-2.42,3.33-2.42h12.39c1.76,0,3.22,1.08,3.34,2.47Z"/><path class="cls-4" d="M1170,961.93h-31.67l7-65.47c.14-1.37,1.59-2.42,3.33-2.42h12.39c1.76,0,3.22,1.08,3.34,2.47Z"/><g class="cls-28"><path class="cls-21" d="M1148.43,891.21c-.56,2.17,1.09,3.81,2.76,5,2.66,1.84,7.3,2.84,7.25,6.8,0,1.49-.36,2.8.26,4.22a6.89,6.89,0,0,0,2.09,2.55,12.69,12.69,0,0,0,8.53,2.2.41.41,0,0,0,0-.82c-3.09,0-6.57-.28-8.85-2.64a5.35,5.35,0,0,1-1.41-4.6,6.11,6.11,0,0,0-.27-2.94c-1.68-3.79-11.06-4.7-9.86-9.59.08-.33-.42-.47-.5-.14Z"/><path class="cls-21" d="M1140.36,905.38a9.45,9.45,0,0,0,2.67,8.91,13.28,13.28,0,0,0,4.5,3c2.26.92,4.7,1,7,1.58,2.9.72,4.39,2.47,5.92,4.89a15.71,15.71,0,0,0,3.89,4.39A13,13,0,0,0,1177,930c.27-.11.17-.55-.13-.45a13.36,13.36,0,0,1-13.33-2.93c-2.59-2.47-3.57-6.35-7.09-7.81-3.73-1.55-7.76-1-11.22-3.47-3.13-2.2-5.24-6-4.25-9.81a.29.29,0,0,0-.57-.15Z"/><path class="cls-21" d="M1134,935.62c3.19,1.54,6.76.65,9.91-.55,4.3-1.63,8.62-3.29,13.06-1,4,2.05,4.17,6.22,6,9.84,1.44,2.78,3.81,5.13,7,5.63a.28.28,0,0,0,.15-.53c-4.06-1.32-6.34-4.29-7.65-8.24-1.13-3.4-2.44-6.13-5.91-7.58a13.31,13.31,0,0,0-9.85.16c-4,1.43-8.27,3.7-12.57,1.93-.22-.1-.38.28-.16.38Z"/></g><rect class="cls-29" x="1011.28" y="944.5" width="770" height="27.87"/><path class="cls-25" d="M1090,915.51c-1.77-1.14-4.33-1.19-6.55-.75-4.66.93-8.59,3.87-10,7.49-.93,2.33-.87,4.82-1.41,7.22-.88,3.86-3.28,7.4-4.59,11.18s-1.28,8.26,2.09,11.13c-1.19-1.3-.48-2.9.23-4.4,3.62-7.67,8.54-15.24,16.44-20.52,2.64-1.77,5.82-3.58,6.17-6.3A4.74,4.74,0,0,0,1090,915.51Z"/><path class="cls-24" d="M1110.17,940.78c.19-1.8-1.71-3.3-3.62-4.28s-4.12-1.81-5.25-3.39-.91-3.64-2-5.27-3-2.47-4.63-3.68a9.29,9.29,0,0,1-3.9-7.39,4.32,4.32,0,0,1,2.86-4.19,11.83,11.83,0,0,1,6.66-.28c4.13.81,8.19,3,9.25,6.24.7,2.11,0,4.35.19,6.53.17,2.83,1.64,5.5,2.4,8.27S1112.64,938.73,1110.17,940.78Z"/><path class="cls-23" d="M1087.54,917.48c-5.06,2-9.46,5.51-11.66,10.59-1.45,3.33-2.94,6.47-4.68,9.66a19.68,19.68,0,0,0-2.76,8c0,.08.11.07.12,0,.64-5.74,4.64-10.28,6.72-15.52a21.69,21.69,0,0,1,12.3-12.65s0-.11,0-.09Z"/><path class="cls-30" d="M1135.17,932.89a12.69,12.69,0,0,1-12.93.39c-2.11-1.28-3.58-3.21-6-4.16-4.52-1.81-10.52.6-14.86-1.47-2.19-1-3.38-3-5.11-4.47s-3.85-2.45-5.17-4.07-1.25-4.25,1-5c4.71-1.7,9.72-3.45,13.61-.74,2.1,1.46,3.35,3.56,5.49,5,3.14,2.06,7.92,2.47,10.23,5.13,1,1.18,1.4,2.63,2.12,3.94C1125.44,930.76,1130.52,932.81,1135.17,932.89Z"/><path class="cls-23" d="M1092.77,915.7a16.56,16.56,0,0,1,11.72,3.89c2.41,2.18,4,3.77,7.19,4.58a23.45,23.45,0,0,1,5.34,1.65c1.93,1,3.4,2.65,5.06,4a10.69,10.69,0,0,0,7,2.92.07.07,0,0,0,0-.14c-4.38-.19-6.73-3.11-9.92-5.62-2.74-2.16-5.75-2.4-9-3.46-3.54-1.17-5.43-4.6-8.72-6.26a17.64,17.64,0,0,0-8.72-1.79.1.1,0,0,0,0,.19Z"/><path class="cls-31" d="M1719.31,1215.42c-.06,6.14-53.23,10.35-93.22,10.13s-56.19-5.33-51.6-10.92c6.94-8.47,32.48-7.44,72.47-7.22S1719.36,1209.27,1719.31,1215.42Z"/><polygon class="cls-32" points="1613.8 1193.97 1613.29 1175.15 1631.73 1176.22 1628.04 1196.43 1619.57 1199.85 1613.8 1193.97"/><path class="cls-1" d="M1612.23,1204.47a5,5,0,0,0,.94-4.13,2.24,2.24,0,0,1-.1-1.35,6.94,6.94,0,0,0,.38-.71c.15-.56-.38-1.07-.65-1.61a2.07,2.07,0,0,1,1-2.7,39.87,39.87,0,0,0,13.74,0c.71-.1,1.77,0,1.72.57,0,.29-.37.51-.38.8s.49.58.68.91c.48.8-1,1.49-1.2,2.36a2,2,0,0,0,.15,1,7.26,7.26,0,0,1,.15,2.23l-.23,7.64a1.48,1.48,0,0,1-.32,1.07,2.59,2.59,0,0,1-1.49.53,33.72,33.72,0,0,1-8.79.45c-2.92-.37-5.82-1.66-7-3.8a2.27,2.27,0,0,1-.3-1.83A2,2,0,0,1,1612.23,1204.47Z"/><path class="cls-33" d="M1629.88,1215.61a24.09,24.09,0,0,1-10.42.56,17.25,17.25,0,0,0-4.89-.51,26.56,26.56,0,0,0-3.91,1.15,22.92,22.92,0,0,1-6.54.54l-10.68-.13c-3,0-6.69-.52-7.43-2.78-.54-1.64,1-3.33,2.91-4.09a23.9,23.9,0,0,1,6.22-1.08c6.21-.69,12.4-3,15.94-7.06a5.45,5.45,0,0,1,4.72,1.57,2.87,2.87,0,0,1-.42,3.82,19.24,19.24,0,0,0,13.69-3.35,55.17,55.17,0,0,1,2.4,5.27,7.05,7.05,0,0,1,.53,1.92C1632.21,1213.91,1632.82,1214.77,1629.88,1215.61Z"/><path class="cls-29" d="M1640.27,1158.62l2.31.5a66.38,66.38,0,0,1-.64,17.8,3.11,3.11,0,0,1-.74,1.76,4.29,4.29,0,0,1-2.09.91,40.64,40.64,0,0,1-11.46.44q-12.33-.77-24.53-2.48a2.71,2.71,0,0,1-1.48-.52,1.54,1.54,0,0,1-.38-1,57,57,0,0,1-.24-15.55,3.25,3.25,0,0,1,.74-2,2,2,0,0,1,2.34-.4c.74-9.43,1.7-19.49,1.28-28.93-.31-6.94-1.23-14,1.24-20.72a73.9,73.9,0,0,1,35.39,2.79A350.09,350.09,0,0,0,1640.27,1158.62Z"/><path class="cls-34" d="M1605.23,1158.92a144.75,144.75,0,0,0,17.65,1.26c2.92,0,5.85,0,8.76-.17,2.09-.12,4.31-.27,6.09-1.46.11-.07,0-.26-.08-.21-4.89,1.86-10.64,1.46-15.79,1.38a162.18,162.18,0,0,1-16.63-1.13c-.21,0-.21.3,0,.33Z"/><polygon class="cls-32" points="1684.12 1188.88 1681.33 1170.88 1699.13 1170.49 1698.08 1190.15 1690.38 1194.08 1684.12 1188.88"/><path class="cls-1" d="M1683.9,1199.07a4.69,4.69,0,0,0,.4-4,2.17,2.17,0,0,1-.25-1.28c.06-.24.23-.47.27-.71.08-.55-.5-1-.82-1.49a1.94,1.94,0,0,1,.62-2.67,38.4,38.4,0,0,0,13.17-1c.67-.16,1.71-.14,1.73.41,0,.28-.3.52-.27.79s.54.52.77.82c.55.73-.81,1.51-.87,2.36a2.11,2.11,0,0,0,.27.92,7.31,7.31,0,0,1,.41,2.12l.72,7.35a1.4,1.4,0,0,1-.18,1,2.34,2.34,0,0,1-1.36.63,32,32,0,0,1-8.38,1.1c-2.84-.13-5.77-1.14-7.18-3.1a2.23,2.23,0,0,1-.51-1.73A1.86,1.86,0,0,1,1683.9,1199.07Z"/><path class="cls-33" d="M1702.18,1208.39a23,23,0,0,1-9.91,1.33,16.85,16.85,0,0,0-4.75-.11,24.33,24.33,0,0,0-3.61,1.41,21.8,21.8,0,0,1-6.19,1l-10.26.7c-2.84.19-6.47,0-7.47-2.1-.72-1.53.55-3.26,2.29-4.14a22.58,22.58,0,0,1,5.84-1.51c5.86-1.14,11.52-3.79,14.4-8a5.42,5.42,0,0,1,4.72,1.14,2.75,2.75,0,0,1,.07,3.69,17.86,17.86,0,0,0,12.71-4.26,54.4,54.4,0,0,1,3,4.87,6.84,6.84,0,0,1,.74,1.8C1704.22,1206.58,1704.91,1207.36,1702.18,1208.39Z"/><path class="cls-29" d="M1704,1152.78l2.36.31a66.09,66.09,0,0,1,1.63,17.76,2.92,2.92,0,0,1-.51,1.81,4.12,4.12,0,0,1-2,1.08,40.72,40.72,0,0,1-11.35,1.34c-8.24.15-16.5,0-24.72-.51a2.77,2.77,0,0,1-1.54-.4,1.68,1.68,0,0,1-.5-.91,57.75,57.75,0,0,1-2.21-15.46,3.11,3.11,0,0,1,.48-2,2,2,0,0,1,2.28-.57c-.46-9.44-.79-19.53-2.41-28.89-1.19-6.88-3-13.88-1.39-20.71a74.13,74.13,0,0,1,35.56,0A353.8,353.8,0,0,0,1704,1152.78Z"/><path class="cls-34" d="M1669.18,1155.87a143.2,143.2,0,0,0,18.06-.18c2.79-.2,5.6-.47,8.38-.85,2.06-.28,4.23-.61,5.89-1.95.1-.08,0-.23-.14-.18-4.75,2.32-10.65,2.33-15.83,2.65-5.45.34-10.9.38-16.36.18-.21,0-.21.32,0,.33Z"/><path class="cls-4" d="M1602.16,932.19c-17.19,53.8-11,111.9-36.82,163.49,9.36,11,23,17.31,39.62,18.84,21.81,2,43.53-5.79,65.41-4.34,11.47.75,22.45,4,33.84,5.31s24.23.17,32.26-6.36c-4.87-52.71-14.73-111.61-31.3-162.81-10.91-5.86-23.48-5.78-34.39-11.64-5-2.66-10-5.35-15.64-6.86-6.12-1.64-12.7-1.83-19.15-1.74C1625.59,926.23,1612.38,930.67,1602.16,932.19Z"/><path class="cls-35" d="M1610.59,789.82c-4.7-.2-9.76,3-11.22,7.55a9.18,9.18,0,0,0,1,7.49c1.76,2.92,5.71,5.77,3.48,9.53,0,.09.07.15.13.08,1.21-1.58.86-3.52-.06-5.17-1.42-2.54-3.74-4.35-4.42-7.31-1.53-6.6,5-12,11.13-12,.11,0,.11-.18,0-.19Z"/><path class="cls-35" d="M1598.19,815.65c2.33,2.56,6.56,4,9.52,1.58.06-.05,0-.16-.08-.11-3.12,2-6.88.92-9.34-1.57a.07.07,0,1,0-.1.1Z"/><path class="cls-36" d="M1502.37,878l4.65-1.87.18-4,11.65.33-.15,3.21,4.93,3-1.34,29a50.83,50.83,0,0,1-9.65.68,75.14,75.14,0,0,1-11.1-1.28Z"/><path class="cls-12" d="M1531.44,900.3a12.92,12.92,0,0,0-.58-6.57,6.24,6.24,0,0,0-1.68-2.7c-1.65-1.46-4.43-1.89-6-3.41a6.51,6.51,0,0,0-.58,2.52c.08.93-.4,1.56-1.43,2a9.16,9.16,0,0,1-3.45.47h-2.21a28.16,28.16,0,0,1-8.07-.72c-2.55-.74-4.86-2.4-5.25-4.54a1.45,1.45,0,0,0-1.64.18,2.08,2.08,0,0,0-.27,1.34l.12,3.3a5.55,5.55,0,0,0,.33,2,8,8,0,0,1,.63,1.32,9.23,9.23,0,0,1-.07,1.89c0,1.62,1.74,2.89,3.42,3.82a36.33,36.33,0,0,0,10.7,3.87c4.87,1,10.44,1.18,13.87,4.07,2-1.08,3.83-2.45,4.47-4.28A3.29,3.29,0,0,0,1531.44,900.3Z"/><path class="cls-14" d="M1501.44,896.61q3.39,1.77,6.9,3.32c1.84.81,3.72,1.73,5.77,1.64.1,0,.14-.17,0-.18-4.41-.63-8.62-3-12.54-5.06-.19-.1-.35.19-.16.28Z"/><path class="cls-14" d="M1500.48,892.78c3.8,2.18,8.49,4.1,12.92,4.14a.12.12,0,0,0,0-.24c-2.13-.53-4.29-.81-6.4-1.48a32.46,32.46,0,0,1-6.34-2.76c-.23-.13-.43.22-.21.34Z"/><path class="cls-33" d="M1547.49,908.61c-6.43-2.42-12.62-6-15.32-11.23-2.51,3.18-6,5.35-7.15,9a4.08,4.08,0,0,0-.23,2c7.13,3.39,9.88,10,16.15,14.35a1.6,1.6,0,0,0,.71.33,1.78,1.78,0,0,0,1.19-.41c4-2.75,6.29-6.9,6.22-11.06C1549,910,1549.26,909.27,1547.49,908.61Z"/><path class="cls-35" d="M1610.84,789.82c-3.74.59-8.11,3-9.59,5.8a10.36,10.36,0,0,0-.23,8.87c.64,1.55,1.57,3,2.08,4.59a5,5,0,0,1-.57,4.72,4.7,4.7,0,0,1-5.31,1.23c1.61,2,4.33,2.78,7.32,2.65a9,9,0,0,0,7.14-3.75c1.21-1.94,1.17-4.22,2.06-6.27,1-2.36,3.3-4.37,3.75-6.84a6.85,6.85,0,0,0-1.88-5.58C1614.21,793.61,1612.81,791,1610.84,789.82Z"/><path class="cls-12" d="M1635,852.4q-3.51-6.35-7-12.69a5,5,0,0,0-2.93-2.8c-2.48-.64-4.81,1.54-7.42,1.53a5.4,5.4,0,0,1-4.29-2.43,28.19,28.19,0,0,1-1.89-4.11,15.3,15.3,0,0,0-8.78-7.43c2.17-2.3,4-5,4-7.83,0-2.5-1.35-4.86-2-7.3a12.79,12.79,0,0,1,.65-8.31,4.51,4.51,0,0,1,2.73-2.17,31.84,31.84,0,0,1,19.55.1c6.13,2.12,11,6.44,12.81,11.55,2.94,8.51-2.77,17.51-1.46,26.27.43,2.88,1.62,5.7,1.57,8.6A7.61,7.61,0,0,1,1635,852.4Z"/><path class="cls-4" d="M1713,994.06c-4.66,1-11.22,1.18-15.87,2.18a96.84,96.84,0,0,1-10.89,1.91c-3.85.37-18.5,1.1-22.38,1-5.91-.14-44.73-2.69-64.61-6.09-.07-3.39,3.28-54.91,4-59.32-1.71,4.92-7.14,13.1-12.23,15.25-6.06,2.55-13.55,1.33-19.92-.69-14-4.44-25.77-11.86-37.31-19.57.14-6.25,3.3-12.18,6.4-17.93,1.24-2.28,3.25-4.1,4.48-6.37a93.79,93.79,0,0,0,20.36,10.16c.3-1,1.69-1.68,2.9-2l15.3-27.48c3.66-6.58,7.44-13.3,13.62-18.57,9.81-8.37,24.73-12.28,33.82-21.14,13.07-.64,26-2.14,39.09-2.78,6.67,3.05,12.48,6,19.07,9.14,5.62,2.68,11.36,5.49,15.27,9.66,4.5,4.79,6.12,10.85,7.56,16.71q7,28.35,12.21,56.93c1,5.2,1.26,11.55-4.18,14.55-4,2.19-9.37,1.52-14.14.75C1708,956.71,1710.53,979,1713,994.06Z"/><path class="cls-37" d="M1541.52,934.62l2.6-5.75a8.16,8.16,0,0,0,.91-2.94,3,3,0,0,0-1.35-2.73,4.08,4.08,0,0,0-3-.48,3.91,3.91,0,0,0-2.38,1.53,5.7,5.7,0,0,0-.7,1.79l-1.5,5.62C1538.23,932.66,1539.52,933.5,1541.52,934.62Z"/><path class="cls-38" d="M1540.58,925.16a.83.83,0,0,0,.33,1.41c.63.24,1.51-.2,1.47-.75s-1-.91-1.55-.53"/><path class="cls-39" d="M1603.75,932.29c3.21-6.11,6.12-12.37,9.16-18.56a85.11,85.11,0,0,0,4.25-9,30.77,30.77,0,0,0,1.45-14.71c0-.09-.18-.07-.17,0,.37,5.39,0,10.7-2,15.75-1.21,2.95-2.82,5.78-4.22,8.65-2.88,5.89-5.67,11.82-8.64,17.66-.07.14.14.27.21.13Z"/><path class="cls-39" d="M1706.82,871.77c.75,12.86-4.75,24.81-6.31,37.38a82.74,82.74,0,0,0,.1,19.58,123.2,123.2,0,0,0,3.71,19.51.15.15,0,0,0,.29-.08c-1.25-6.72-2.79-13.29-3.5-20.11a81,81,0,0,1,.21-20.16c1.79-12,6.87-23.75,5.83-36.12,0-.21-.34-.21-.33,0Z"/><path class="cls-39" d="M1600.46,868.36a35.63,35.63,0,0,1,15.13,15.53c.05.1.24,0,.19-.08-2.88-6.95-8.58-12.27-15.08-15.86a.24.24,0,0,0-.24.41Z"/><path class="cls-35" d="M1676.88,862.49a9.16,9.16,0,0,0-1.09-11c-1.54-1.74-3.76-3.16-4.72-5.15-2-4.19,2.25-8.62,2.4-13.11.14-4.2-3.35-7.89-4.73-12-2-5.93.53-12.26-.45-18.35-1.21-7.48-7.92-14-16.43-17.43s-18.57-3.85-27.89-2.28c-5.83,1-11.82,3.12-14.21,7.44-3,1.13-3.57,4.49-4.52,7-.54,1.4.47,2.92,1.89,3.85a27.31,27.31,0,0,0,4.83,2.1c1.65.66,3.27,1.56,4,2.92.41.79.45,1.66.81,2.46a6.16,6.16,0,0,0,4.28,3c1.37.32,3,.41,3.89,1.28,1-1.67,3.93-2.48,6-1.65a4.87,4.87,0,0,1,2.9,3.34,11.09,11.09,0,0,1,0,4.18,5.64,5.64,0,0,1-.87,2.77,3.16,3.16,0,0,1-3,1.21,18,18,0,0,1,.28,9.82c-.72,2.78-2.89,5.28-3.13,8.1-.27,3.22,2,6.24,2.37,9.45.29,2.55-.65,5.08-1.07,7.61s-.22,5.37,1.92,7.29a9.06,9.06,0,0,0,2.64-.24c-.71-1.66-.12-3.61.41-5.31a24.28,24.28,0,0,0,1-3.12c.38-2.36-1.1-4.91.21-7.05-.16,2.23,2.16,4.07,2.71,6.26.72,2.89-1.88,6-.41,8.71a140.23,140.23,0,0,1,14.5-.29c2.27.07,4.54.24,6.81.16C1664.88,864.24,1670.32,861.59,1676.88,862.49Z"/><path class="cls-40" d="M1508.36,875.5a37.34,37.34,0,0,0,8.32-.13.09.09,0,0,0,0-.17c-2.78,0-5.53.15-8.3,0-.18,0-.17.25,0,.26Z"/><path class="cls-40" d="M1503,878.6a36.55,36.55,0,0,0,9.58,1.34,28,28,0,0,0,9.59-1.31.1.1,0,1,0-.06-.2,64.81,64.81,0,0,1-9.53,1.19,39.4,39.4,0,0,1-9.55-1.12c-.06,0-.09.08,0,.1Z"/><path class="cls-40" d="M1509.1,872.71c0,.72-.06,1.44,0,2.16a.11.11,0,0,0,.22,0c.07-.72.11-1.44.15-2.16a.16.16,0,0,0-.32,0Z"/><path class="cls-40" d="M1512.24,872.72c0,.75.07,1.5.14,2.24,0,.14.22.15.22,0,0-.74-.09-1.49-.15-2.24,0-.13-.22-.13-.21,0Z"/><path class="cls-40" d="M1515.14,872.65a11.48,11.48,0,0,0,.2,2.35c0,.08.17.1.19,0a10.89,10.89,0,0,0-.06-2.35c0-.2-.34-.2-.33,0Z"/><path class="cls-40" d="M1517.68,872.8a12.15,12.15,0,0,0,.12,2.26c0,.09.14.06.15,0a12,12,0,0,0-.11-2.24c0-.1-.16-.1-.16,0Z"/><path class="cls-14" d="M1628.35,818.49a3.1,3.1,0,0,0-.28-2.5,1.69,1.69,0,0,1,1-2.34,2.23,2.23,0,0,1,2.51.59c.1.13.3,0,.22-.17-.73-1.24-2.6-1.11-3.65-.37-1.72,1.23.57,3.11-.07,4.67-.06.16.21.27.28.12Z"/><path class="cls-14" d="M1628.31,816.87c0-.93.2-1.73,1.22-1.94a.14.14,0,0,0,0-.28c-1.22.05-1.49,1.21-1.43,2.22,0,.16.26.17.25,0Z"/><path class="cls-41" d="M1605.93,799.16a5.88,5.88,0,0,1,2.17-4.94c.16-.14-.07-.36-.23-.23a6,6,0,0,0-2.31,5.17c0,.24.39.24.37,0Z"/><path class="cls-41" d="M1611.37,800.29a25.75,25.75,0,0,1,4.46,2.22c1.72,1.15,2.35,2.46,3.24,4.22,1.15,2.27,3.67,3.82,5.93,4.78a.12.12,0,0,0,.12-.2,35.26,35.26,0,0,1-4.21-2.84c-1.39-1.25-1.67-2.92-2.75-4.35-1.6-2.13-4.33-3.14-6.72-4.1-.17-.07-.24.2-.07.27Z"/><path class="cls-41" d="M1624.2,808.32a8.69,8.69,0,0,0,3.56,2.5c.1,0,.21-.12.11-.2-.51-.42-1.14-.68-1.69-1a12.36,12.36,0,0,1-1.76-1.47.16.16,0,0,0-.22.22Z"/><path class="cls-41" d="M1631.71,824.63c2.18,2.52,3.34,5.09,2.08,8.33-.82,2.13-2.12,4-3,6.15a7.33,7.33,0,0,0-.23,5.7c.61,1.53,1.49,2.76,1.58,4.48a18.7,18.7,0,0,1-1,5.78c0,.09.11.13.14,0,.9-3.09,1.41-6,.18-9.09-.65-1.63-1.24-3.09-.88-4.87a14.81,14.81,0,0,1,1.62-4c1.06-2,2.31-4,2.54-6.29.26-2.58-1.19-4.67-2.82-6.52-.15-.17-.41.09-.26.27Z"/><path class="cls-41" d="M1637,839.12c-1.57,4.23,2,7.83,4.14,11.11a10,10,0,0,1,1.46,7.76c-.27,1.77-.49,3.55.63,5.06a.09.09,0,0,0,.16-.09c-1-2.34-.35-4.44-.13-6.84a8.33,8.33,0,0,0-.86-4.63c-1.89-3.85-6.75-7.52-5.13-12.29,0-.17-.21-.24-.27-.08Z"/><path class="cls-41" d="M1664,816.66c-.63,3.71,1,6.17,3,9.12a8.52,8.52,0,0,1,1.39,7.07,37,37,0,0,1-2.57,6.26c-1.2,2.73-2.17,5.94-.71,8.77.89,1.74,2.49,3,3.43,4.69a10.33,10.33,0,0,1,1,6.46c0,.16.22.18.27,0a9.53,9.53,0,0,0-2.1-8.4c-1.54-1.92-3-3.53-3-6.15a17,17,0,0,1,2-6.61c1.37-3,3.06-6.44,1.9-9.77a20.06,20.06,0,0,0-2.73-4.4,9.49,9.49,0,0,1-1.79-7c0-.08-.11-.12-.13,0Z"/><path class="cls-41" d="M1659.07,851.42c1.68,3.79,4.11,7.16,2.08,11.31,0,.08.07.18.13.1,2.81-3.55-.38-8.25-2-11.53-.07-.14-.27,0-.2.12Z"/><path class="cls-35" d="M1629.94,823.66a11.1,11.1,0,0,1,.06,6.7c-.66,2.11-2,3.74-3.2,5.56a9.76,9.76,0,0,0-1.16,9.21c.78,1.9,2.29,3.45,2.83,5.45.65,2.37-.37,4.78-.89,7.07-.63,2.82-.3,5.71,2.36,7.32.11.07.21-.1.1-.18-4.25-2.89-1.69-7.44-1.18-11.44s-2.44-6-3.35-9.47a9.25,9.25,0,0,1,.92-6.83c.85-1.54,2-2.88,2.89-4.43a11.25,11.25,0,0,0,.79-9,.09.09,0,0,0-.17,0Z"/><path class="cls-35" d="M1634.87,848.57c-1.37,3,1.39,5.46,1.32,8.44,0,2.43-2.46,5.23-.28,7.36.07.08.22,0,.15-.12-1.91-2.53.57-4.84.42-7.51-.16-2.85-2.73-5.12-1.46-8.09,0-.09-.1-.18-.15-.08Z"/><path class="cls-35" d="M1667.36,817.1c.22,3.36,2.38,6,4.29,8.58a18.35,18.35,0,0,1,2.84,5c1,2.91.28,5.63-1.1,8.27-1.62,3.11-2.36,5.81.47,8.41,1.55,1.44,3.33,2.55,4.3,4.53a12.1,12.1,0,0,1,.74,6.63c0,.1.15.13.17,0,.56-3.22.12-6.61-2.26-9-1.38-1.4-3.34-2.41-4.28-4.2-1.48-2.82,1-5.65,2-8.17,1.36-3.47.5-6.9-1.48-9.92s-5.27-6.11-5.58-10.09a.07.07,0,0,0-.13,0Z"/><path class="cls-35" d="M1634.4,850.22c-.53,3.06,1.07,6.06-.06,9-.73,1.88-1.71,3.72-.4,5.57.09.13.31,0,.22-.12-1.64-2.45.59-4.62.9-7a6.07,6.07,0,0,0-.21-2.28,13,13,0,0,1-.37-5.08c0-.06-.07-.08-.08,0Z"/><path class="cls-39" d="M1565.12,914.83a13.72,13.72,0,0,1,3.25,10c0,.06.07,0,.08,0a13.42,13.42,0,0,0-3.07-10.27c-.15-.19-.41.08-.26.27Z"/><path class="cls-39" d="M1567.79,913.31a7,7,0,0,1,3.42,2.68.07.07,0,1,0,.11-.07,6.06,6.06,0,0,0-3.45-2.87c-.17-.06-.24.2-.08.26Z"/><path class="cls-39" d="M1550,909c-2.23,3.42-4.43,7.44-5.09,11.51a.09.09,0,1,0,.18,0c1.51-4,2.88-7.77,5.23-11.37.13-.2-.19-.38-.32-.19Z"/><path class="cls-35" d="M1618.79,813.85c-2.37-2.88-7.11-4.24-10.52-2.4-.28.14-.08.56.21.49,3.6-.83,7.29-.62,9.94,2.28.23.26.59-.11.37-.37Z"/><path class="cls-35" d="M1609,812.3c3.7-.55,6.62.49,9.91,2,.22.1.48-.17.28-.36-2.62-2.45-7-2.79-10.3-2.05-.26.05-.14.42.11.39Z"/><path class="cls-35" d="M1611.76,815.61a3.59,3.59,0,0,1,.41,2.48c-.07.3-.49,1.32-.92.81-.18-.22-.08-1.11-.07-1.37a7.46,7.46,0,0,1,.18-1.33c.07-.33,0-.42.39-.38s.33.12.34.46a4.1,4.1,0,0,1-.78,2.5h.61a2,2,0,0,1,.12-2.11h-.52a.78.78,0,0,1-.16,1.05c-.2.2.07.58.32.41a1.24,1.24,0,0,0,.36-1.76.31.31,0,0,0-.52,0,2.64,2.64,0,0,0-.21,2.77.36.36,0,0,0,.61,0,5,5,0,0,0,.83-2.33,2,2,0,0,0-.41-1.66c-1.43-1.16-1.75,1.76-1.79,2.52,0,.54-.13,1.45.31,1.87a1,1,0,0,0,1.32-.09c1.16-1,.84-3,0-4.11a.27.27,0,0,0-.46.27Z"/><path class="cls-42" d="M1612.47,829.56a5.69,5.69,0,0,0,4.4-2.19c.09-.11,0-.31-.16-.22-1.38,1-2.42,2-4.24,2a.22.22,0,0,0,0,.44Z"/><path class="cls-1" d="M1699.05,957.56c9.08-7.66,10.8-19.58,6.65-29.55a24.83,24.83,0,0,0-4.82-7.62c-4.63-4.87-11.73-7.78-18.48-10.7-8.88-3.85-17.66-8.05-24.83-13.7-3.94-3.11-7.34-6.62-11.06-9.9-3.18-2.81-6.6-5.45-9.59-8.39-2.37-2.33-4.46-4.83-6.55-7.32l-11.3-13.53a3.82,3.82,0,0,0-1.46-1.23,4.87,4.87,0,0,0-1.92-.49c-2.2,0-3.45,1.13-5.83,3.12.9,4.26,3,5.83,6.11,9.41a154.53,154.53,0,0,0,33.42,28.9c1.94,1.26,4,2.56,4.95,4.39a6.77,6.77,0,0,1,.55,4.22c-1.34,9-12.7,16.18-11.31,25.14.68,4.36,4.34,8,8.22,11.18a90.3,90.3,0,0,0,17.67,11.11C1678.57,957,1691.75,963.71,1699.05,957.56Z"/><path class="cls-10" d="M1662.22,905.94a14.43,14.43,0,0,1,.9,9c-.49,2.14-1.48,4.34-1.14,6.58.29,1.95,1.64,3.28,3.1,4.47a63.61,63.61,0,0,0,5.37,3.88,73,73,0,0,0,12.91,6.59,60.62,60.62,0,0,0,14.07,4c4.72.61,7.56-2,8.86-6.34a.22.22,0,0,0-.42-.12c-1,2.61-2.29,5.25-5.29,5.87s-6.44-.6-9.3-1.39a76.58,76.58,0,0,1-15.79-6.28,70,70,0,0,1-6.68-4.07c-2.51-1.72-6.2-3.8-6.44-7.17-.2-2.74,1.27-5.34,1.47-8.06a15,15,0,0,0-1.33-7.19c-.09-.19-.37,0-.29.17Z"/><path class="cls-10" d="M1680,933a7.54,7.54,0,0,0-2.71,3.26c-.34.88-.28,2,.84,2.22s2-1,2.55-1.72,1.56-2.61.94-3.48c-1.06-1.49-4.2,3.3-4.11,4.35.08.89,1,.66,1.53.24a4.38,4.38,0,0,0,1.28-3.75.22.22,0,0,0-.38-.15,4.82,4.82,0,0,0-2,3.6.23.23,0,0,0,.38.16,8.18,8.18,0,0,0,2-3.16.16.16,0,0,0-.3-.12,14.76,14.76,0,0,1-2,3l.38.16a4.47,4.47,0,0,1,1.85-3.29l-.38-.16a3.92,3.92,0,0,1-.35,2.31,3.1,3.1,0,0,1-.71,1c-1.34.75-.64-.57-.52-.85a7.94,7.94,0,0,1,1.19-1.84,5.37,5.37,0,0,1,.71-.72.55.55,0,0,1,.69-.23q.72-.21.36.54a5.32,5.32,0,0,1-.78,1.91c-.26.41-1,1.55-1.6,1.67l-1.29-1.21a5.11,5.11,0,0,1,.35-.8,5.64,5.64,0,0,1,.4-.67,7.89,7.89,0,0,1,1.89-1.89c.23-.16,0-.54-.22-.37Z"/><path class="cls-1" d="M1616.69,838.41a13.16,13.16,0,0,1-4.76-2.33c-1.54-1.27-2.29-3-3.25-4.57a22.47,22.47,0,0,0-5.41-6,3,3,0,0,1-.88-.87c-.37-.72.12-1.52.61-2.19,1-1.31,2-2.59,3.07-3.83,2.25.5,3.61,2.21,5.79,2.86a9.65,9.65,0,0,0,8.44-2,18.56,18.56,0,0,0,4.5-6.4,14.92,14.92,0,0,1-3,6.34c-.77,1-1.66,1.87-2.38,2.86a1.7,1.7,0,0,0-.39.91c0,.51.49.92.91,1.3a12,12,0,0,1,3,4l5.43-3.9a10.85,10.85,0,0,0,1.89-1.58,1.64,1.64,0,0,0-.11,1.17,25.55,25.55,0,0,0-4.82,4.09,16,16,0,0,0-1.79,2,15.75,15.75,0,0,0-1.23,2.33,14.33,14.33,0,0,1-2.24,3.57A6.16,6.16,0,0,1,1616.69,838.41Z"/><path class="cls-1" d="M1406.87,830.15a7.39,7.39,0,0,1-4.72-.53,22.17,22.17,0,0,0-2.93-1.56c-1.77-.57-3.75,0-5.62.27a26.91,26.91,0,0,1-11.26-.73,39.71,39.71,0,0,1-10-4.38c1,1.74,3,2.75,4.93,3.87.73.43,1.49.95,1.67,1.65.24,1-.69,1.88-1.68,2.48a13.28,13.28,0,0,1-5.87,1.68c.86.4,1.85.73,2.76,1.06,2.52.92,3.51,3.27,4.64,5.28a16.77,16.77,0,0,0,6.19,6.43,14.07,14.07,0,0,0,17.36-2.12,17.08,17.08,0,0,0,5.32-9.4C1407.94,832.78,1408.14,831.12,1406.87,830.15Z"/><path class="cls-43" d="M1397.54,829.22c2,6.95-.78,13.08-5.63,18-.18.17.08.42.26.26a17.63,17.63,0,0,0,5.69-18.36c-.06-.21-.38-.12-.32.08Z"/><g id="Foire__questions" data-name="Foire  questions" class="cls-5"><text class="cls-5"/></g><g id="Les_rponses_aux_questions_frquentes_poses_autour_de_la_vaccination_contre_la_COVID-19_en_Algerie" data-name="Les rponses aux questions frquentes poses autour de la vaccination contre la COVID-19 en Algerie" class="cls-5"><text class="cls-44" transform="translate(177.38 681.96)"><tspan class="cls-45">L</tspan><tspan x="23.24" y="0">es </tspan><tspan class="cls-46" x="77.44" y="0">r</tspan><tspan x="92.96" y="0">ponses aux questions </tspan><tspan class="cls-47" x="559.47" y="0">f</tspan><tspan class="cls-46" x="576.23" y="0">r</tspan><tspan x="591.75" y="0">quen</tspan><tspan class="cls-48" x="721.19" y="0">t</tspan><tspan x="736.67" y="0">es poses </tspan><tspan x="0" y="48" xml:space="preserve">    au</tspan><tspan class="cls-48" x="92.44" y="48">t</tspan><tspan x="107.92" y="48">our de la </tspan><tspan class="cls-49" x="293.04" y="48">v</tspan><tspan class="cls-50" x="314.08" y="48">a</tspan><tspan class="cls-51" x="337.75" y="48">c</tspan><tspan x="359.92" y="48">cination </tspan><tspan class="cls-51" x="533.51" y="48">c</tspan><tspan class="cls-52" x="555.67" y="48">ont</tspan><tspan class="cls-46" x="624.07" y="48">r</tspan><tspan class="cls-52" x="639.59" y="48">e la </tspan><tspan class="cls-53" x="719.07" y="48">C</tspan><tspan class="cls-54" x="747.23" y="48">O</tspan><tspan class="cls-55" x="779.95" y="48">V</tspan><tspan x="807.27" y="48">I</tspan><tspan class="cls-56" x="819.35" y="48">D</tspan><tspan class="cls-57" x="852.71" y="48">-</tspan><tspan x="867.31" y="48">19 en Alge</tspan><tspan class="cls-58" x="1069.34" y="48">r</tspan><tspan x="1085.06" y="48" xml:space="preserve">ie  </tspan></text></g></g><g id="Calque_2-2" data-name="Calque 2"><g id="Informations_sur_le_vaccin" data-name="Informations sur le vaccin" class="cls-5"><text class="cls-59" transform="translate(169.29 578.46) scale(0.73 1)"><tspan class="cls-60">F</tspan><tspan x="65" y="0">oi</tspan><tspan class="cls-61" x="164.42" y="0">r</tspan><tspan class="cls-62" x="208.31" y="0">e aux questions</tspan></text></g><line class="cls-63" x1="177.28" y1="600.06" x2="951.78" y2="600.06"/></g></g></g></svg>