<svg xmlns="http://www.w3.org/2000/svg" xmlns:xlink="http://www.w3.org/1999/xlink" viewBox="0 0 1868.52 1202.74"><defs><style>.cls-1{fill:#d8d8d8;}.cls-2{mask:url(#mask);}.cls-3{fill:#fff;}.cls-4{mask:url(#mask-2);}.cls-5{opacity:0.5;}.cls-44,.cls-45,.cls-6{fill:#20a1db;}.cls-7{fill:#cfe2ff;}.cls-8{fill:#212121;}.cls-9{fill:#385575;}.cls-10{fill:#f1eee9;}.cls-11{fill:#486d96;}.cls-12{fill:#f39866;}.cls-13{fill:#daddf7;}.cls-14{mask:url(#mask-3);}.cls-15{fill:#9f6b5b;}.cls-16{fill:#263238;}.cls-17{fill:#774f44;}.cls-18{fill:#e0e0e0;}.cls-19,.cls-44{opacity:0.2;}.cls-20{fill:#455a64;}.cls-21,.cls-22,.cls-29,.cls-46{isolation:isolate;}.cls-22{font-size:104px;font-family:Montserrat-Bold, Montserrat;font-weight:700;}.cls-23{letter-spacing:-0.01em;}.cls-24{letter-spacing:0em;}.cls-25{letter-spacing:0em;}.cls-26{letter-spacing:-0.02em;}.cls-27{letter-spacing:0.01em;}.cls-28{letter-spacing:0em;}.cls-29{font-size:40px;}.cls-29,.cls-46{font-family:Montserrat-Regular, Montserrat;}.cls-30{letter-spacing:-0.05em;}.cls-31{letter-spacing:-0.01em;}.cls-32{letter-spacing:-0.02em;}.cls-33{letter-spacing:-0.01em;}.cls-34{letter-spacing:0em;}.cls-35{letter-spacing:-0.01em;}.cls-36{letter-spacing:0em;}.cls-37{letter-spacing:-0.02em;}.cls-38{letter-spacing:0em;}.cls-39{letter-spacing:-0.01em;}.cls-40{letter-spacing:-0.01em;}.cls-41{letter-spacing:-0.02em;}.cls-42{letter-spacing:-0.01em;}.cls-43{fill:none;stroke:#20a1db;stroke-miterlimit:10;stroke-width:9px;}.cls-44,.cls-45{fill-rule:evenodd;}.cls-45{opacity:0.15;}.cls-46{font-size:49.16px;}.cls-47{letter-spacing:-0.02em;}.cls-48{letter-spacing:-0.01em;}.cls-49{letter-spacing:-0.02em;}.cls-50{letter-spacing:0em;}.cls-51{letter-spacing:0em;}.cls-52{letter-spacing:0em;}.cls-53{letter-spacing:-0.01em;}.cls-54{letter-spacing:-0.01em;}</style><mask id="mask" x="-26.41" y="1" width="1643.05" height="1065.36" maskUnits="userSpaceOnUse"><polygon class="cls-1" points="1608.43 1052.23 -26.41 1066.36 -18.2 184.89 1616.64 170.76 1608.43 1052.23"/></mask><mask id="mask-2" x="-23.41" y="0" width="1643.05" height="1065.36" maskUnits="userSpaceOnUse"><polygon class="cls-1" points="1611.43 1051.23 -23.41 1065.36 -15.2 183.89 1619.64 169.76 1611.43 1051.23"/></mask><mask id="mask-3" x="-3" y="1" width="1606.03" height="984.65" maskUnits="userSpaceOnUse"><g class="cls-2"><path class="cls-3" d="M630,64.18c85-10,182-19.72,281.56-27,243.2-17.69,553-24,648,46.61,15.49,11.5,25,24.92,28.18,39.88,7.9,36.86,2.32,81.7-16.56,133.3-17,46.49-44.35,97.37-81.24,151.23-59.94,87.52-141.14,176.61-222.79,244.42-82.74,68.73-153.79,105.15-194.94,99.92a237.52,237.52,0,0,0-57.94-.41C928,762.31,861.66,819.69,797.12,875.49c-53.21,46-103.48,89.46-162.61,105.64-73.09,20-128.09-30.41-172.28-70.91C449.77,898.8,438,888,426.7,879.49c-24.33-18.36-52.85-13.53-83.06-8.42-34.24,5.8-69.66,11.79-104.38-13.53-45.8-33.41-51.66-63.43-58.46-98.17-6.31-32.29-13.47-68.89-51.93-119.79C88.66,586.37,49.35,511.72,23.71,439.91-3.68,363.19-10.37,303.07,5.34,275,53.7,188.5,139.76,165.13,248.72,135.54,280.3,127,313,118.1,347.72,107,369.71,100,481.22,81.68,630,64.18Zm460,683.9c41.59-4.9,103.89-40,175.11-99.12,81.41-67.61,162.36-156.43,222.11-243.66,36.69-53.58,63.86-104.14,80.75-150.28,18.54-50.67,24.06-94.54,16.37-130.38-2.94-13.74-11.84-26.21-26.44-37.06-94.18-70-403.24-63.61-645.92-45.95C643,61.19,382.24,100.56,348.78,111.26c-34.84,11.14-67.52,20-99.13,28.6C141.42,169.25,55.94,192.46,8.31,277.61-6.7,304.46.1,363,27,438.3c25.48,71.36,64.52,145.51,104.45,198.36,39.15,51.8,46.43,89,52.85,121.88,6.87,35.1,12.29,62.83,56.69,95.22,33.61,24.52,68.38,18.63,102,12.94,30.86-5.22,60-10.16,85.47,9,11.45,8.63,23.29,19.48,35.82,31,45.85,42,97.81,89.64,169.3,70.1L634,979l-.47-2.15C692,960.82,742,917.6,795,871.83c78.78-68.11,160.25-138.55,277.44-123.64A73.27,73.27,0,0,0,1090,748.08Z"/><path class="cls-3" d="M647.62,952.17C794.2,912.08,891.27,698.83,1085.9,723.58c134.51,17.1,559.39-413.12,513.71-626.21C1558-97,435.11,58.89,361.83,82.32,204.77,132.55,82.07,139.24,20.41,249.49-13,309.25,62.1,503.28,143.73,611.31s24,154.82,110,217.54c65.18,47.55,135.15-17.5,187.46,22S555.26,977.44,647.62,952.17Z"/></g></mask></defs><title>infos</title><g id="Calque_2" data-name="Calque 2"><g id="Calque_1-2" data-name="Calque 1"><g class="cls-4"><g class="cls-5"><path class="cls-6" d="M633,63.18c85-10,182-19.72,281.56-27,243.2-17.69,553-24,648,46.61,15.49,11.5,25,24.92,28.18,39.88,7.9,36.86,2.32,81.7-16.56,133.3-17,46.49-44.35,97.37-81.24,151.23-59.94,87.52-141.14,176.61-222.79,244.42-82.74,68.73-153.79,105.15-194.94,99.92a237.52,237.52,0,0,0-57.94-.41C931,761.31,864.66,818.69,800.12,874.49c-53.21,46-103.48,89.46-162.61,105.64-73.09,20-128.09-30.41-172.28-70.91C452.77,897.8,441,887,429.7,878.49c-24.33-18.36-52.85-13.53-83.06-8.42-34.24,5.8-69.66,11.79-104.38-13.53-45.8-33.41-51.66-63.43-58.46-98.17-6.31-32.29-13.47-68.89-51.93-119.79C91.66,585.37,52.35,510.72,26.71,438.91-.68,362.19-7.37,302.07,8.34,274,56.7,187.5,142.76,164.13,251.72,134.54,283.3,126,316,117.1,350.72,106,372.71,99,484.22,80.68,633,63.18Zm460,683.9c41.59-4.9,103.89-40,175.11-99.12,81.41-67.61,162.36-156.43,222.11-243.66,36.69-53.58,63.86-104.14,80.75-150.28,18.54-50.67,24.06-94.54,16.37-130.38-2.94-13.74-11.84-26.21-26.44-37.06-94.18-70-403.24-63.61-645.92-45.95C646,60.19,385.24,99.56,351.78,110.26c-34.84,11.14-67.52,20-99.13,28.6C144.42,168.25,58.94,191.46,11.31,276.61-3.7,303.46,3.1,362,30,437.3c25.48,71.36,64.52,145.51,104.45,198.36,39.15,51.8,46.43,89,52.85,121.88,6.87,35.1,12.29,62.83,56.69,95.22,33.61,24.52,68.38,18.63,102,12.94,30.86-5.22,60-10.16,85.47,9,11.45,8.63,23.29,19.48,35.82,31,45.85,42,97.81,89.64,169.3,70.1L637,978l-.47-2.15C695,959.82,745,916.6,798,870.83c78.78-68.11,160.25-138.55,277.44-123.64A73.27,73.27,0,0,0,1093,747.08Z"/><path class="cls-6" d="M650.62,951.17C797.2,911.08,894.27,697.83,1088.9,722.58c134.51,17.1,559.39-413.12,513.71-626.21C1561-98,438.11,57.89,364.83,81.32,207.77,131.55,85.07,138.24,23.41,248.49-10,308.25,65.1,502.28,146.73,610.31s24,154.82,110,217.54c65.18,47.55,135.15-17.5,187.46,22S558.26,976.44,650.62,951.17Z"/></g></g><path class="cls-7" d="M169.66,929.58a2.55,2.55,0,0,1-3.26-1.53l-30.35-84.52a2.55,2.55,0,1,1,4.8-1.72l30.35,84.51A2.55,2.55,0,0,1,169.66,929.58Z"/><path class="cls-8" d="M125.31,834.38l9.63,26.83a9.57,9.57,0,0,0,18-6.47l-9.63-26.83Z"/><rect class="cls-9" x="132.58" y="851.96" width="19.15" height="2.08" transform="translate(-279.9 98.22) rotate(-19.75)"/><path class="cls-8" d="M45.13,637.52,79.89,625a3.42,3.42,0,0,1,4.36,2.06h0a3.41,3.41,0,0,1-2,4.36L47.44,643.94a3.41,3.41,0,0,1-4.36-2.05h0A3.43,3.43,0,0,1,45.13,637.52Z"/><rect class="cls-8" x="62.63" y="636.38" width="19.57" height="44.98" transform="translate(-218.42 63.25) rotate(-19.75)"/><rect class="cls-9" x="55.79" y="637.57" width="19.57" height="4.48" transform="translate(-212.38 59.81) rotate(-19.75)"/><path class="cls-10" d="M44.22,692.89l71.61-25.71a3.41,3.41,0,0,1,4.36,2.05h0a3.43,3.43,0,0,1-2,4.37L46.52,699.31a3.41,3.41,0,0,1-4.36-2h0A3.43,3.43,0,0,1,44.22,692.89Z"/><path class="cls-7" d="M105,678.31l49.56,138a7.11,7.11,0,0,1-4.27,9.08l-32,11.51a7.11,7.11,0,0,1-9.07-4.29l-49.56-138Z"/><rect class="cls-8" x="59.44" y="686.24" width="48.21" height="7.21" transform="translate(-228.23 68.83) rotate(-19.75)"/><path class="cls-6" d="M113.16,716.06l36.62,102a2,2,0,0,1-1.2,2.56l-32,11.51a2,2,0,0,1-2.55-1.22l-36.62-102Z"/><path class="cls-11" d="M83.89,700.39a1.28,1.28,0,0,1-.77,1.63l-18.45,6.62-.86-2.4,18.44-6.62A1.28,1.28,0,0,1,83.89,700.39Z"/><path class="cls-11" d="M90.34,718.37a1.27,1.27,0,0,1-.77,1.63l-18.44,6.62-.86-2.4,18.44-6.62A1.27,1.27,0,0,1,90.34,718.37Z"/><path class="cls-11" d="M96.8,736.34A1.26,1.26,0,0,1,96,738L77.59,744.6l-.87-2.4,18.45-6.62A1.27,1.27,0,0,1,96.8,736.34Z"/><path class="cls-11" d="M103.26,754.34a1.28,1.28,0,0,1-.77,1.63l-18.44,6.62-.86-2.4,18.44-6.62A1.27,1.27,0,0,1,103.26,754.34Z"/><path class="cls-11" d="M109.71,772.32A1.27,1.27,0,0,1,109,774L90.5,780.57l-.86-2.4,18.44-6.62A1.25,1.25,0,0,1,109.71,772.32Z"/><path class="cls-11" d="M116.17,790.29a1.27,1.27,0,0,1-.77,1.63L97,798.55l-.86-2.4,18.44-6.62A1.26,1.26,0,0,1,116.17,790.29Z"/><path class="cls-11" d="M122.63,808.27a1.27,1.27,0,0,1-.77,1.63l-18.44,6.63-.87-2.4L121,807.5A1.28,1.28,0,0,1,122.63,808.27Z"/><path class="cls-11" d="M129.08,826.25a1.26,1.26,0,0,1-.77,1.63l-18.15,6.52a6.79,6.79,0,0,1-1-1.78l-.18-.52,18.44-6.62A1.27,1.27,0,0,1,129.08,826.25Z"/><path class="cls-7" d="M233,788.92V771.48H191.11v17.44a16.47,16.47,0,0,1-6.36,12.87A44,44,0,0,0,168,836.33v58.18a16.81,16.81,0,0,0,16.76,16.76h54.64a16.81,16.81,0,0,0,16.76-16.76V836.33a44.07,44.07,0,0,0-16.77-34.54A16.44,16.44,0,0,1,233,788.92Z"/><path class="cls-6" d="M251.81,836.34v58.18A12.46,12.46,0,0,1,239.36,907H184.74a12.46,12.46,0,0,1-12.45-12.44V836.34a39.59,39.59,0,0,1,15.14-31.16,20.72,20.72,0,0,0,8-16.25v-4.31h33.25v4.31a20.74,20.74,0,0,0,8,16.25A39.59,39.59,0,0,1,251.81,836.34Z"/><rect class="cls-11" x="185.14" y="752.01" width="53.81" height="19.48" rx="4.5"/><rect class="cls-12" x="191.11" y="771.48" width="41.88" height="6.09"/><path class="cls-12" d="M256.13,836.34v56.94H168V836.34a43.24,43.24,0,0,1,3-15.8h82.25A43.45,43.45,0,0,1,256.13,836.34Z"/><rect class="cls-13" x="167.98" y="877.8" width="88.15" height="4.32"/><polygon class="cls-10" points="218.21 843.38 218.21 831.84 205.89 831.84 205.89 843.38 194.34 843.38 194.34 855.7 205.89 855.7 205.89 867.25 218.21 867.25 218.21 855.7 229.76 855.7 229.76 843.38 218.21 843.38"/><path class="cls-8" d="M239,757.44v8.62a5,5,0,0,1-.26,1.64,5.45,5.45,0,0,1-5.18,3.78H190.58a5.45,5.45,0,0,1-5.18-3.78,5.26,5.26,0,0,1-.26-1.64v-8.62a5.46,5.46,0,0,1,5.44-5.44h42.94A5.45,5.45,0,0,1,239,757.44Z"/><path class="cls-8" d="M238.7,767.7a5.45,5.45,0,0,1-5.18,3.78H190.58a5.45,5.45,0,0,1-5.18-3.78Z"/><g class="cls-14"><path class="cls-12" d="M1278.92,358.73s-8.1,32.43-8.8,55.38l-.23,7.64s17.87,15.9,32.86,16.88l12.57-33.09Z"/><path class="cls-12" d="M1358.32,378.62c-3.42-15.82-4.73-34.23-17-44.54-9.11-7.65-19.5-9.79-31.08-9.27-5.7.25-12.13,3.07-17.09,6.08-6.81,4.12-9.69,12.49-13,20.09-6.58,15.23-5.74,35.85-1.29,41.58l59.43,33.6c11.86-6.61,19.3-9.25,21.19-26.18A66.36,66.36,0,0,0,1358.32,378.62Z"/><path class="cls-15" d="M1340,346.65l-37.4-11.82c-12-1.88-20.68,13.73-21.92,26.7-1.38,14.41-2.54,32.06-1.34,42.9,2.42,21.8,17.83,25.21,17.83,25.21s0,.33-.08,6.77l-.4,10.44a19,19,0,0,0,3.29,11.81c5.52,7.65,15.57,8.68,27.42,4,6.88-2.72,11.65-8.2,12.18-15.65l6.5-92.34A7.52,7.52,0,0,0,1340,346.65Z"/><path class="cls-16" d="M1287.61,381.31a2.73,2.73,0,0,0,2.4,2.91,2.53,2.53,0,0,0,2.77-2.39,2.72,2.72,0,0,0-2.4-2.91A2.55,2.55,0,0,0,1287.61,381.31Z"/><path class="cls-16" d="M1283.83,374.6c.31.37,2.33-1.1,5.12-1s4.79,1.71,5.1,1.36c.16-.16-.15-.83-1-1.56a6.84,6.84,0,0,0-4.07-1.53,6.54,6.54,0,0,0-4.1,1.23C1284,373.79,1283.67,374.43,1283.83,374.6Z"/><path class="cls-16" d="M1313.64,381A2.72,2.72,0,0,0,1316,384a2.55,2.55,0,0,0,2.77-2.39,2.73,2.73,0,0,0-2.4-2.91A2.53,2.53,0,0,0,1313.64,381Z"/><path class="cls-16" d="M1311.3,375c.31.38,2.33-1.1,5.12-1s4.79,1.7,5.11,1.35c.15-.15-.15-.82-1-1.56a6.87,6.87,0,0,0-4.07-1.53,6.49,6.49,0,0,0-4.09,1.23C1311.46,374.14,1311.15,374.78,1311.3,375Z"/><path class="cls-16" d="M1300.42,394.34c0-.17-1.7-.56-4.5-1.07-.71-.11-1.38-.29-1.48-.81a4.1,4.1,0,0,1,.56-2.25c.73-1.82,1.51-3.72,2.32-5.72,3.23-8.16,5.6-14.88,5.29-15s-3.17,6.36-6.41,14.52l-2.23,5.76a4.59,4.59,0,0,0-.48,3,1.85,1.85,0,0,0,1.13,1.17,4.57,4.57,0,0,0,1.2.23C1298.65,394.42,1300.4,394.51,1300.42,394.34Z"/><path class="cls-17" d="M1297.19,429.64a48.59,48.59,0,0,0,27.39-6.59s-7.26,14.88-27.44,12Z"/><path class="cls-17" d="M1309.44,400.31a4.43,4.43,0,0,0-3.65-2.33,5.68,5.68,0,0,0-5.42,2.59,4.12,4.12,0,0,0-.34,2.8c.18.48,0,.24.37.58a10.2,10.2,0,0,0,4.07,2.95,4.21,4.21,0,0,0,4.69-1.63A5.06,5.06,0,0,0,1309.44,400.31Z"/><path class="cls-16" d="M1309.06,396.88c-.45-.05-.59,3.2-3.28,5.38s-5.9,1.66-6,2.11c0,.21.7.67,2.06.77a7.13,7.13,0,0,0,7.51-6.09C1309.58,397.7,1309.27,396.87,1309.06,396.88Z"/><path class="cls-16" d="M1310.24,364c.2.84,3,.75,6.24,1.51s5.78,2,6.28,1.31c.22-.33-.17-1.14-1.16-2a10.27,10.27,0,0,0-4.54-2.24,9.89,9.89,0,0,0-5,.1C1310.82,363,1310.16,363.61,1310.24,364Z"/><path class="cls-16" d="M1284.06,366.55c.63.59,2.67-.44,5.22-.87s4.79-.28,5.19-1.06c.18-.38-.26-1-1.29-1.49a7.5,7.5,0,0,0-4.4-.44,7.62,7.62,0,0,0-4,2C1284,365.52,1283.77,366.26,1284.06,366.55Z"/><path class="cls-16" d="M1303.14,332.5l-.09.47.07,0C1303.12,332.83,1303.13,332.67,1303.14,332.5Z"/><path class="cls-12" d="M1329.29,438.39c.57-5.68-1.56-11.39-1-17.06.66-6,4.3-11.18,5.8-17,2.39-9.36-.9-19.31-2.1-29-5.06-.67-9.79-3.93-13.16-8.14-4.06-5.07-6.51-11.35-8.9-17.51a30.65,30.65,0,0,0,5.5,16.84,7.07,7.07,0,0,1-6.3-2.19,17.9,17.9,0,0,1-3.71-6.16,51,51,0,0,1-3.58-17.34,66.4,66.4,0,0,0,2.64,25.32c-1.41-.47-2.93,0-4.4.18s-3.15.18-4.19-.95a5.86,5.86,0,0,1-1.14-2.89,69.2,69.2,0,0,1-.67-22.06,69.9,69.9,0,0,0-4.65,12.22,25.29,25.29,0,0,0-.08,13,1.71,1.71,0,0,1-2.52,0,4.8,4.8,0,0,1-1.1-2.73c-.53-3.64.07-7.35.67-11-2,3.84-2.7,8.29-3.82,12.54s-2.9,8.59-6.34,11a61.72,61.72,0,0,1,.5-16.63c.69-4.54,2.7-9,4.56-13.2a39.21,39.21,0,0,1,8.2-12.23c6-5.59,8.46-3.18,12.27-1.05l.45.2,0-.3.17-.87a53.56,53.56,0,0,1,30.09,1.51c7.18,2.5,16,10.41,19.66,17.48l.21.41c8.47,16.35,14,35.31,14.46,76.31h0Z"/><path class="cls-16" d="M1345.23,489.86a6.66,6.66,0,0,1,0-1.64,28.5,28.5,0,0,1,.74-4.38,31.83,31.83,0,0,1,6.52-12.86,29.11,29.11,0,0,1,11.32-8.19,23.82,23.82,0,0,1,4-1.21,5.84,5.84,0,0,1,1.51-.2c0,.13-2.13.48-5.35,1.88a30.57,30.57,0,0,0-11,8.19,33.54,33.54,0,0,0-6.55,12.52C1345.47,487.54,1345.35,489.87,1345.23,489.86Z"/><path class="cls-18" d="M1256.51,608.54s-2.34,42.1,8,58.57l7.65-27.74V608.84Z"/><path class="cls-6" d="M1336.29,439.79s-21.78,17.63-32.38,15.64c-8.5-1.6-7-15.43-7-15.43l-4.13,9.55-8.91,38.17,3.77,18,20.23-13.37Z"/><path class="cls-10" d="M1262,516c2.28-25.18,30.57-68.8,30.57-68.8l4.47-7.74-4.46,21.39s-4.43,31.23-5.06,31.87l24.93-25.86,28-31.79,5.55,8.51,24.61,14.61-2.52,82.72-8.81,24.24s26,76.18,29.35,103.18l5.63,51.21-132.68-.23s4.66-80.09,5.18-97.19,1.67-54.94,1.67-54.94S1259.66,541.2,1262,516Z"/><path class="cls-16" d="M1394.25,719.56a3.06,3.06,0,0,1-.09-.46c0-.35-.1-.8-.18-1.37l-.64-5.27c-.53-4.63-1.3-11.24-2.24-19.4-.46-4.1-1-8.59-1.51-13.4l-.84-7.47c-.28-2.57-.56-5.2-1-7.87-1.9-10.69-5-22.23-8.42-34.27-1.87-6.54-3.72-12.91-5.65-19s-3.79-11.87-5.55-17.37c-3.49-11-6.58-20.67-9.06-28.46l0-.09,0-.07c2.47-6.63,4.45-11.92,5.83-15.6l1.59-4.16c.17-.44.31-.8.42-1.07a1.33,1.33,0,0,1,.17-.35,2.31,2.31,0,0,1-.11.38c-.09.27-.22.63-.37,1.09-.35,1-.85,2.4-1.48,4.2l-5.65,15.68v-.16l9.21,28.41,5.6,17.35c2,6.07,3.8,12.44,5.67,19,3.39,12.06,6.51,23.61,8.38,34.37.46,2.7.73,5.35,1,7.91s.54,5.06.8,7.47c.52,4.82,1,9.31,1.44,13.41.85,8.17,1.54,14.79,2,19.42.23,2.27.4,4,.52,5.29l.12,1.38A3.32,3.32,0,0,1,1394.25,719.56Z"/><g class="cls-19"><path d="M1373.85,610.48s-17.94,24.81-22.18,24-8.46-9.45-8.46-9.45l-4.67-2.34-4.57-8.92,9.87-9.45Z"/></g><path class="cls-18" d="M1288.43,453.59s-10.49,4.78-13.91,10.51-5.71,30.67-5.71,30.67l16.66-30Z"/><path class="cls-15" d="M1303.8,611.88l16.49-6.54,12.55-9.05,10.69,18.33-4.84,3.11s-.14,4.44-.15,5-1.65,4.93-14.93,4.65-16.4-7.52-16.4-7.52-6.9,8.48-9.77,9.81-5.57-2.69-5.57-2.69Z"/><path class="cls-15" d="M1268.18,575.05s-6.28,7.05-7.81,12.57-.63,21-.63,21l1.8.07s0,10.17,2.63,10.51,5.19.42,5.33-4.18a86.91,86.91,0,0,0-1.2-12.64Z"/><path class="cls-16" d="M1280.88,719.56a3.35,3.35,0,0,1,0-.59c0-.42,0-1-.06-1.73,0-1.55-.09-3.79-.16-6.64-.11-5.81-.27-14.15-.46-24.45-.33-20.67-.78-49.16-1.28-80.64-1-31.49-1.12-60.06.49-80.67a101.76,101.76,0,0,1,4.69-23.9c.45-1.37.9-2.56,1.32-3.57s.76-1.89,1.09-2.56l.73-1.55a4.5,4.5,0,0,1,.27-.52,3.17,3.17,0,0,1-.21.55c-.16.39-.38.91-.67,1.58s-.65,1.54-1,2.58-.83,2.21-1.25,3.58a103.51,103.51,0,0,0-4.47,23.86c-1.49,20.56-1.26,49.12-.3,80.6.42,31.48.8,60,1.08,80.66.11,10.29.19,18.63.25,24.44,0,2.86,0,5.09,0,6.65,0,.73,0,1.31,0,1.73A3.79,3.79,0,0,1,1280.88,719.56Z"/><path class="cls-16" d="M1327.22,689.39a2.68,2.68,0,0,1-.65-.24,16,16,0,0,1-1.8-.85,27.63,27.63,0,0,1-6-4.35,37.59,37.59,0,0,1-6.85-8.86,49.32,49.32,0,0,1-5-13c-2.23-9.77-1.89-19-1.49-25.43.21-3.26.47-5.89.67-7.7.1-.84.18-1.53.25-2.09a3.12,3.12,0,0,1,.13-.72,3.5,3.5,0,0,1,0,.74c0,.56-.07,1.25-.13,2.09-.12,1.82-.3,4.45-.46,7.71-.28,6.47-.54,15.58,1.66,25.23a50.77,50.77,0,0,0,4.91,12.85,38.54,38.54,0,0,0,6.64,8.82C1323.6,688,1327.33,689.21,1327.22,689.39Z"/><path class="cls-16" d="M1288.43,453.59a5.2,5.2,0,0,1,0,.91q-.06,1-.18,2.64c-.18,2.37-.44,5.72-.77,9.92v.11l-.09.05-2.82,1.74.11-.22c.47,6.95,1.08,15.79,1.77,25.81l-.41-.29,22.4-8.67,7.16-2.76-.21.38q-.54-3.94-1-7.73l-.07-.56.5.19,8.52,3.24-.35.12,16.54-25.16,4.78-7.18,1.29-1.89a4.08,4.08,0,0,1,.48-.64,5,5,0,0,1-.39.69l-1.21,1.95-4.64,7.28-16.35,25.33-.13.2-.22-.08-8.54-3.21.42-.38q.52,3.78,1.06,7.73l0,.28-.25.1-7.16,2.76-22.41,8.63-.39.14,0-.43c-.62-10-1.17-18.87-1.6-25.82v-.14l.11-.08,2.85-1.69-.1.16c.41-4.19.73-7.54,1-9.9.11-1.1.21-2,.28-2.63A4.72,4.72,0,0,1,1288.43,453.59Z"/><path class="cls-16" d="M1268.3,602.43a3,3,0,0,1,0-.63c0-.47,0-1.08,0-1.85,0-1.67-.06-4-.11-7,0-6.11-.13-14.76-.22-25.17v.09c-1.48-5.55-2.81-11.7-4.08-18.29-.64-3.29-1.24-6.7-1.82-10.19a74.48,74.48,0,0,1-1.16-10.83,77.29,77.29,0,0,1,4.57-28.48v0a136.32,136.32,0,0,1,7-16.92c2.38-4.94,4.62-9.19,6.52-12.68s3.47-6.22,4.57-8.06l1.27-2.11a4.17,4.17,0,0,1,.47-.7,6.2,6.2,0,0,1-.39.76c-.29.53-.68,1.25-1.19,2.16-1,1.88-2.55,4.63-4.41,8.15s-4,7.78-6.38,12.73a137.81,137.81,0,0,0-6.89,16.88h0v0a77.35,77.35,0,0,0-4.47,28.21,73.86,73.86,0,0,0,1.14,10.73c.58,3.48,1.17,6.89,1.8,10.17,1.25,6.58,2.55,12.74,4,18.26v25.25c0,3,0,5.36-.05,7,0,.77,0,1.38,0,1.85A6,6,0,0,1,1268.3,602.43Z"/><g class="cls-19"><path d="M1367.08,547.42c-13.73-10.5-21.95-28.82-22.18-46.89Z"/></g><path class="cls-10" d="M1360.91,453.49s11.72,2.45,16.34,13.2,35.25,92.08,35.84,97.81-1.92,13-8.22,20.08-53.82,42.95-53.82,42.95l-20.61-35.35,42-32.36-27.35-60.43S1347.07,457.9,1360.91,453.49Z"/><path class="cls-16" d="M1389.9,567.89c-.14.17-3.24-2.75-7.8-5s-8.62-3.07-8.58-3.29a8,8,0,0,1,2.69.37,27.91,27.91,0,0,1,6.17,2.29,28.9,28.9,0,0,1,5.55,3.68A9.3,9.3,0,0,1,1389.9,567.89Z"/><path class="cls-16" d="M1388.33,555.07c0,.22-3.49.08-7.58,1.26s-7.07,3.12-7.17,2.92,2.78-2.42,7-3.6S1388.37,554.9,1388.33,555.07Z"/><path class="cls-16" d="M1404.87,584.58a2.29,2.29,0,0,1,.27-.36l.84-1a20.05,20.05,0,0,0,1.34-1.68,26.34,26.34,0,0,0,1.65-2.42,25.73,25.73,0,0,0,3.23-7.41,20.86,20.86,0,0,0,.7-5,13.48,13.48,0,0,0-.93-5.56c-5.49-15.16-13.06-36-21.41-59.1-3.26-8.44-6.41-16.58-9.36-24.23q-2.22-5.73-4.28-11.08a22.82,22.82,0,0,0-6.48-8.24h0l-23.63-14.16,0,0,0,0-4.75-6.78-1.21-1.76a3.06,3.06,0,0,1-.38-.62,4.68,4.68,0,0,1,.45.57l1.27,1.7,4.87,6.69,0-.05L1370.73,458h0a23.17,23.17,0,0,1,6.7,8.46c1.38,3.56,2.83,7.26,4.31,11.08,3,7.65,6.13,15.79,9.4,24.23,8.39,23.07,15.83,44,21.24,59.19a14,14,0,0,1,.9,5.74,21,21,0,0,1-.75,5.14,25.45,25.45,0,0,1-3.38,7.45,24.15,24.15,0,0,1-1.71,2.4,18.46,18.46,0,0,1-1.39,1.65l-.89,1A2.52,2.52,0,0,1,1404.87,584.58Z"/><path class="cls-16" d="M1375,609.23a3.36,3.36,0,0,1-.41.35l-1.22,1-4.73,3.71-17.4,13.47-.2.16-.14-.24-20.68-35.3-.16-.27.24-.19,18.9-14.58,23.06-17.77-.09.42C1364,542.34,1357,527.18,1352,516.39l-5.75-12.61c-.64-1.44-1.15-2.57-1.5-3.38l-.38-.87a1.32,1.32,0,0,1-.11-.31s.06.09.16.28l.42.85,1.6,3.33c1.39,3,3.4,7.2,5.91,12.53l20.28,43.46.12.26-.21.16-23,17.8-18.91,14.56.09-.45,20.55,35.39-.35-.07L1368.44,614l4.8-3.6,1.26-.92A2.93,2.93,0,0,1,1375,609.23Z"/><path class="cls-16" d="M1345.23,489.86a6.66,6.66,0,0,1,0-1.64,28.5,28.5,0,0,1,.74-4.38,31.83,31.83,0,0,1,6.52-12.86,29.11,29.11,0,0,1,11.32-8.19,23.82,23.82,0,0,1,4-1.21,5.84,5.84,0,0,1,1.51-.2c0,.13-2.13.48-5.35,1.88a30.57,30.57,0,0,0-11,8.19,33.54,33.54,0,0,0-6.55,12.52C1345.47,487.54,1345.35,489.87,1345.23,489.86Z"/><path class="cls-16" d="M1375,609.23a3.36,3.36,0,0,1-.41.35l-1.22,1-4.73,3.71-17.4,13.47-.2.16-.14-.24-20.68-35.3-.16-.27.24-.19,18.9-14.58,23.06-17.77-.09.42C1364,542.34,1357,527.18,1352,516.39l-5.75-12.61c-.64-1.44-1.15-2.57-1.5-3.38l-.38-.87a1.32,1.32,0,0,1-.11-.31s.06.09.16.28l.42.85,1.6,3.33c1.39,3,3.4,7.2,5.91,12.53l20.28,43.46.12.26-.21.16-23,17.8-18.91,14.56.09-.45,20.55,35.39-.35-.07L1368.44,614l4.8-3.6,1.26-.92A2.93,2.93,0,0,1,1375,609.23Z"/><g class="cls-19"><polygon points="1323.15 478.66 1316.16 478.42 1317.62 486 1286.1 494.57 1315.67 483.16 1314.62 475.43 1323.15 478.66"/></g><path class="cls-16" d="M1261.57,719.33a4.86,4.86,0,0,1,0-1c0-.74.07-1.74.11-3,.13-2.67.31-6.42.53-11.06.5-9.44,1.2-22.48,2-37.15l.06.23a25.53,25.53,0,0,1-2.91-5.79,79.64,79.64,0,0,1-3.68-16.69c-.67-5.37-1-10.45-1.23-15.07-.4-9.24-.25-16.66,0-21.24v-.15h.14l3.74.22,1,.08c.21,0,.32,0,.32,0a1.14,1.14,0,0,1-.32,0h-1l-3.74-.08.14-.14c-.09,4.57-.14,12,.33,21.2.24,4.61.62,9.67,1.3,15a79,79,0,0,0,3.68,16.52,24.89,24.89,0,0,0,2.81,5.63l.08.1v.13c-.87,14.67-1.64,27.7-2.2,37.13-.31,4.64-.55,8.39-.73,11.06-.09,1.25-.17,2.24-.22,3A7,7,0,0,1,1261.57,719.33Z"/><path class="cls-20" d="M1339.93,474.05l-1.71-.76c0-.1,3.85-9.9,7.61-20.29,1.49-4.12,2-7.55,1.6-10.21a4.51,4.51,0,0,0-4.49-3.86l-1.17-1.78c3.28-.76,7,2.05,7.48,5.3.49,3-.08,6.81-1.69,11.27C1343.79,464.13,1340,474,1339.93,474.05Z"/><path class="cls-20" d="M1342.68,497l-2.35-1c1.93-5.32,4.57-14.75,3.43-17.41-.68-1.6-2.67-3-5.06-3.58a8,8,0,0,0-7.39,1.62c-2.7,2.45-6.77,11.07-8.11,14.19l-2.3-1.13c.21-.48,5.1-11.79,8.78-15.12a10.41,10.41,0,0,1,9.57-2.2c3.18.76,5.79,2.72,6.81,5.1C1348,481.91,1343.58,494.49,1342.68,497Z"/><path class="cls-16" d="M1317.25,538.11c-2.92,0-5.77-1.67-8.52-5l.94-.89c3,3.65,6.13,5.09,9.23,4.32,12.6-3.17,22.18-40.65,22.28-41l1.22.35c-.4,1.58-9.89,38.64-23.21,42A8.11,8.11,0,0,1,1317.25,538.11Z"/><path class="cls-16" d="M1311.15,534.68h0a1.44,1.44,0,0,1-2,.14l-2.74-2.18a2,2,0,0,1-.51-2.69h0a1.74,1.74,0,0,1,2.79-.29l2.45,2.74A1.7,1.7,0,0,1,1311.15,534.68Z"/><path class="cls-16" d="M1322.6,539.33c-3.89,0-6.78-1.37-8.6-4.1-7.74-11.63,6.86-43.93,7.48-45.29l1.14.59c-.15.33-14.9,32.93-7.59,43.91,1.91,2.86,5.26,4,10,3.37l.15,1.34A19.08,19.08,0,0,1,1322.6,539.33Z"/><path class="cls-16" d="M1322.37,538.6h0a1.56,1.56,0,0,0,1.38,1.5l3.4.3a1.83,1.83,0,0,0,2-1.66h0a1.88,1.88,0,0,0-1.91-2.19l-3.53.32A1.59,1.59,0,0,0,1322.37,538.6Z"/><ellipse class="cls-16" cx="1261.63" cy="506.91" rx="9.89" ry="10.59"/><ellipse class="cls-16" cx="1261.63" cy="506.91" rx="9.89" ry="10.59"/><path class="cls-18" d="M1268.93,506.91a7.32,7.32,0,1,1-7.3-7.82A7.57,7.57,0,0,1,1268.93,506.91Z"/><path class="cls-20" d="M1265.69,497.36l-1.65-.9c.83-1.73,20.38-42.44,21.56-44.28.2-.33.45-.78.74-1.28a27.32,27.32,0,0,1,2-3.15c2-2.61,4.31-5,7.14-5.56l-1.64,2.83c-1.51.64-2.31,1.65-4.06,4a27.69,27.69,0,0,0-1.81,2.93c-.3.54-.57,1-.79,1.37C1286.21,454.74,1271.34,485.6,1265.69,497.36Z"/></g></g><g id="Calque_2-2" data-name="Calque 2"><g id="Informations_sur_le_vaccin" data-name="Informations sur le vaccin" class="cls-21"><text class="cls-22" transform="translate(149.54 532.14) scale(0.73 1)">In<tspan class="cls-23" x="105.98" y="0">f</tspan><tspan x="145.5" y="0">o</tspan><tspan class="cls-24" x="213.62" y="0">r</tspan><tspan class="cls-25" x="258.03" y="0">mations sur le </tspan><tspan class="cls-26" x="1059.76" y="0">v</tspan><tspan class="cls-27" x="1120.08" y="0">a</tspan><tspan class="cls-23" x="1184.87" y="0">c</tspan><tspan class="cls-28" x="1245.61" y="0">cin</tspan></text></g><g id="Tout_ce_que_vous_devez_savoir_sur_la_vaccination_contre_le_covid-19_en_Algérie" data-name="Tout ce que vous devez savoir sur la vaccination contre le covid-19 en Algérie" class="cls-21"><text class="cls-29" transform="translate(186.63 664.14)"><tspan class="cls-30">T</tspan><tspan x="20.76" y="0">out </tspan><tspan class="cls-31" x="99.48" y="0">c</tspan><tspan x="121.64" y="0">e que </tspan><tspan class="cls-32" x="244.96" y="0">v</tspan><tspan x="266.04" y="0">ous d</tspan><tspan class="cls-33" x="375.2" y="0">e</tspan><tspan class="cls-32" x="398.96" y="0">v</tspan><tspan class="cls-34" x="420.03" y="0">e</tspan><tspan x="443.99" y="0">z s</tspan><tspan class="cls-33" x="494.47" y="0">a</tspan><tspan class="cls-35" x="517.67" y="0">v</tspan><tspan class="cls-36" x="538.75" y="0">oir sur la </tspan><tspan x="0" y="48" xml:space="preserve">     </tspan><tspan class="cls-37" x="52.4" y="48">v</tspan><tspan class="cls-38" x="73.44" y="48">a</tspan><tspan class="cls-39" x="97.12" y="48">c</tspan><tspan x="119.28" y="48">cination </tspan><tspan class="cls-31" x="292.88" y="48">c</tspan><tspan x="315.04" y="48">ont</tspan><tspan class="cls-40" x="383.44" y="48">r</tspan><tspan x="398.96" y="48">e la </tspan><tspan class="cls-31" x="478.43" y="48">c</tspan><tspan class="cls-32" x="500.59" y="48">o</tspan><tspan x="525.07" y="48">vid</tspan><tspan class="cls-41" x="584.63" y="48">-</tspan><tspan x="599.23" y="48">19 en Algé</tspan><tspan class="cls-42" x="801.27" y="48">r</tspan><tspan x="816.99" y="48">ie </tspan></text></g><line class="cls-43" x1="160.52" y1="553.74" x2="669.52" y2="553.74"/><path d="M1553.28,820.55c-4.24-14.59-2.47-16.91,12.6-21,18.93-5.1,37.49-4.12,56.06,1.29,9.9,2.89,12,8.22,8,17.5-4.72,10.73-11.57,18.14-24.17,17.65-13.11-.5-26.45-.08-39.2-2.57-5.2-1-9.11-8.64-13.61-13.26Z"/><path d="M1632.17,800.08c-27.51-9.46-53.77-9.31-79.79-.49-4.15-21.85,6.82-34.78,31.48-38.38,14.06-2.06,27.3,1.48,38.78,8.95C1632.45,776.54,1631.49,787.89,1632.17,800.08Z"/><path d="M1564.78,870.69c5,0,10,0,15.06,0,7.58,0,15.16.1,22.73.12,5.11,0,10.22,0,16.18,0C1610.3,888.4,1578,889.23,1564.78,870.69Z"/><path d="M1552.92,820.19c3.91,10,8,20,11.69,30.13,2.22,6,4.63,12.3-2.77,17.65-5.06-13.77-10.29-27.12-14.78-40.72-1.36-4.12-1.32-9.55,6.21-6.7Z"/><path d="M1634.46,820.31c-2.21,9.31,1.66,19.47-7.29,28-4.06,3.84-3.43,12.63-5,19.55C1614,860.5,1620.79,833.59,1634.46,820.31Z"/><path d="M1508.29,999.94c-1.15,3.5-2.29,7-4,12.35-4-4.25-7.52-7.58-10.63-11.22-11.52-13.52-18.12-29.47-21.66-46.61a17.44,17.44,0,0,1,2.51-12.1c7.92-11.58,17.24-21.73,31.18-26.64,10.15-3.57,20-8.08,30.08-12.24,3,7.38,3.19,12.71-2.35,19-10.93,12.42-10.58,35.42-.35,48.43a22.05,22.05,0,0,0,8.66,6.71c2.46,1,5.8-.27,8.75-.53-2-1.9-3.79-3.94-5.87-5.68-2.47-2.07-6.09-3.34-7.58-5.91-7-12-7.17-24.47-.52-36.85,3.93-7.32,9.4-8.23,16-3.75,11.64,7.87,17.31,19,16.58,32.91-.16,3.05-3.62,5.83-5.13,8.94-1,2-1.13,4.4-1.66,6.61,2.34-.31,5.85.21,6.78-1.1,2.67-3.75,5.47-8.07,6.12-12.48,2.5-17.13-7.89-35.12-23.72-42.52-8.5-4-9.78-11-3-18,4.2-4.34,8.8-8.28,15.77-14.78-5.76,15.31,3.12,23.91,9.34,33.59,4.4,6.84,9.56,13.46,12.47,20.92s3.34,15.66,4.93,23.86c.73-.84,1.93-1.57,1.9-2.26-.71-21.07,12.73-35.74,22.77-52.14,3.79-6.19,4.55-14.24,6.47-20.68,3.47,2.89,8.42,7.07,13.42,11.18,7.17,5.88,10.15,25.14,4.46,31.87-1.5,1.78-4.7,2.19-7.18,3.06-9.68,3.39-14.08,13-10,21.93,3.55,7.77,14,11.16,21.74,7.08,8.53-4.48,10.6-13.74,6-22.73a29.53,29.53,0,0,1-2.66-12.92c0-7.07,1-14.14,1.63-22.22,22.93,7.93,45.87,15.11,59.38,37.51,1.49,2.46,3.14,5.74,2.71,8.3-3.92,23.16-11.67,44.64-29.12,61.43-.63.62-1.74.75-3.39,1.41-1.54-4.95-3-9.66-4.73-15.24-.52,1-1,1.47-1,1.86,3.62,17.46-6.3,26.58-20.13,33.92-18.9,10-37.39,20.82-56.28,30.84-2.7,1.43-7.46,1.7-10,.27-20.1-11.34-39.94-23.16-59.78-35C1515.75,1023.53,1505.19,1016,1508.29,999.94Zm139.53-8.52L1644,980l-2.55.48c-.73,3.7-1.47,7.4-2.16,10.88l-11.22,2.48-.13,3,11.42,2.77c.77,3.88,1.45,7.28,2.13,10.68l2.63.4c1.14-3.69,2.28-7.37,3.43-11.12l9.79-2.82.17-2.64Z"/><path class="cls-44" d="M1591.85,1099.75c-24.6-9.27-87.33-37-124.6-103.28-27.19-48.39-28.6-95.59-29.51-126.24a341.31,341.31,0,0,1,16.39-114.77,535.11,535.11,0,0,0,152.47-54.1c7.33,3.45,18.71,8.71,32.79,14.75,65.21,28,76.22,24.6,88.54,37.71,13.65,14.54,11.07,30.92,4.92,119.68-7.43,107.12-7.69,111.18-11.87,121.29C1713.52,1012.83,1686.74,1066.76,1591.85,1099.75Z"/><path class="cls-45" d="M1598.41,1095a155.07,155.07,0,0,1-34.43-8.2c-55.39-20.14-83.3-66.72-93.45-83.78-30.5-51.22-31.87-100.43-32.79-132.79a343.93,343.93,0,0,1,16.39-114.77,326,326,0,0,0,149.2-52.3q-.94,98.3-2.17,196.54Q1599.93,997.33,1598.41,1095Z"/><path class="cls-12" d="M1572.71,1093.56c25.55-14.39,49.92-27.68,73.83-41.73,13.43-7.9,26.94-16,39-25.83,27.49-22.33,38-53.93,40-87.42,2.83-47.75,2.43-95.7,3.32-143.57.19-9.85-.41-19.73.06-29.56.33-7.08-1.65-9.92-9.31-10.92-32.06-4.2-63.47-11.34-93.34-24.2-2-.88-4-2-6.2-3,12.47-13.83,13.94-14.23,29.56-8.72a343.93,343.93,0,0,0,86.45,18.09c3.65.31,7.3.71,12.33,1.2,0,16.11.15,31.62,0,47.12-.58,48.91,0,97.88-2.37,146.7-1.76,36.45-10.64,71.92-37.73,98.74-13.34,13.2-29.41,24-45.37,34.12-21.21,13.44-43.42,25.33-65.46,37.41-2.83,1.55-7.54,1.25-10.77.09C1582.33,1100.49,1578.58,1097.26,1572.71,1093.56Z"/><path class="cls-12" d="M1561.55,1066.33c-13.66,10.31-18.67,10.71-32,2.92-30.5-17.88-58.95-38.11-75.74-70.56-13.38-25.86-18.48-54-19-82.74-1-57.41-1-114.83-1.45-172.24a34.31,34.31,0,0,1,.72-4.77c55.79-4.65,109-17.86,156.33-48.89,5.39,3.22,10.35,6.16,15.26,9.16.53.33.82,1.06,1.52,2-25.93,19.21-54.72,32.68-85.58,41.26-19.54,5.44-39.72,8.62-59.67,12.55-4.88,1-9.16,1.09-9,8.08.89,55.35.55,110.75,2.52,166.06,1.75,49.32,24.44,87.5,67.22,113.14C1535.71,1050.13,1548.52,1058.27,1561.55,1066.33Z"/><path d="M1651.19,948.49c-6.62,4.85-10.41,9.78-13.78,9.51s-9-5.54-9.07-8.78,5.13-8.69,8.6-9.19S1644.36,944.17,1651.19,948.49Zm-14.62-7.17c-2.1,3.69-4.47,6-4.18,7.84s3.17,3.53,4.91,5.27c1.75-2.08,4.48-4,4.91-6.29C1642.49,946.66,1639.38,944.55,1636.57,941.32Z"/><g id="Pour_un_meilleur_future._Protégeons_nous" data-name="Pour un meilleur future. Protégeons nous" class="cls-21"><text class="cls-46" transform="translate(1381.65 1130.23)"><tspan class="cls-47">P</tspan><tspan class="cls-48" x="34.17" y="0">r</tspan><tspan x="53.25" y="0">o</tspan><tspan class="cls-49" x="84.07" y="0">t</tspan><tspan class="cls-50" x="103.1" y="0">égeons </tspan><tspan class="cls-51" x="297.25" y="0">n</tspan><tspan x="330.63" y="0">ous</tspan></text><text class="cls-46" transform="translate(1313.36 1189.86)"><tspan class="cls-47">P</tspan><tspan class="cls-48" x="34.17" y="0">r</tspan><tspan x="53.25" y="0">o</tspan><tspan class="cls-49" x="84.07" y="0">t</tspan><tspan class="cls-50" x="103.1" y="0">égeons </tspan><tspan class="cls-51" x="297.25" y="0">n</tspan><tspan x="330.63" y="0">ot</tspan><tspan class="cls-48" x="381.41" y="0">r</tspan><tspan x="400.49" y="0">e </tspan><tspan class="cls-52" x="443.07" y="0">p</tspan><tspan class="cls-53" x="476.25" y="0">a</tspan><tspan class="cls-54" x="504.77" y="0">y</tspan><tspan x="531.12" y="0">s</tspan></text></g></g></g></svg>