<svg xmlns="http://www.w3.org/2000/svg" viewBox="0 0 316.01 350.39"><defs><style>.cls-1,.cls-2,.cls-5{fill:#20a1db;}.cls-1,.cls-2{fill-rule:evenodd;}.cls-1{opacity:0.2;}.cls-2{opacity:0.15;}.cls-3{fill:#f39866;}.cls-4{fill:#212121;}</style></defs><title>logo + txt</title><g id="Calque_2" data-name="Calque 2"><g id="Calque_2-2" data-name="Calque 2"><path d="M135,79.6c-2.59-8.9-1.5-10.31,7.69-12.79,11.54-3.11,22.87-2.52,34.19.79,6,1.76,7.35,5,4.86,10.67C178.89,84.81,174.71,89.33,167,89c-8-.31-16.14-.05-23.91-1.57-3.18-.63-5.56-5.27-8.31-8.09Z"/><path d="M183.15,67.11c-16.78-5.77-32.79-5.67-48.66-.3C132,53.49,138.65,45.6,153.68,43.4a33.84,33.84,0,0,1,23.66,5.46C183.32,52.76,182.74,59.68,183.15,67.11Z"/><path d="M142.05,110.18c3.06,0,6.12,0,9.19,0l13.86.08H175C169.81,121,150.09,121.49,142.05,110.18Z"/><path d="M134.81,79.38c2.39,6.12,4.86,12.22,7.13,18.38,1.36,3.66,2.83,7.5-1.69,10.76-3.08-8.4-6.27-16.54-9-24.84-.83-2.51-.8-5.82,3.79-4.08Z"/><path d="M184.55,79.45c-1.35,5.68,1,11.88-4.45,17-2.47,2.35-2.09,7.71-3.06,11.92C172.08,104,176.21,87.55,184.55,79.45Z"/><path d="M107.59,189c-.7,2.13-1.4,4.27-2.46,7.53-2.47-2.59-4.59-4.62-6.48-6.85-7-8.24-11.06-18-13.22-28.43A10.64,10.64,0,0,1,87,153.9c4.83-7.07,10.52-13.26,19-16.25,6.19-2.18,12.18-4.93,18.35-7.47,1.84,4.5,2,7.76-1.43,11.59-6.67,7.58-6.46,21.6-.22,29.54A13.45,13.45,0,0,0,128,175.4c1.5.6,3.53-.16,5.33-.32-1.19-1.16-2.31-2.4-3.58-3.46-1.51-1.27-3.72-2.05-4.62-3.61-4.27-7.35-4.38-14.92-.32-22.47,2.4-4.47,5.73-5,9.77-2.29,7.1,4.8,10.56,11.59,10.12,20.07-.1,1.86-2.22,3.56-3.13,5.46a19.51,19.51,0,0,0-1,4c1.43-.2,3.57.13,4.14-.67,1.63-2.29,3.34-4.93,3.73-7.62,1.53-10.45-4.81-21.42-14.46-25.93-5.19-2.43-6-6.71-1.84-11,2.56-2.65,5.37-5,9.62-9-3.52,9.33,1.9,14.58,5.7,20.48,2.68,4.18,5.82,8.21,7.6,12.76s2,9.56,3,14.56c.45-.51,1.18-1,1.17-1.38-.44-12.85,7.76-21.8,13.88-31.81,2.32-3.77,2.78-8.68,3.95-12.61,2.12,1.77,5.13,4.32,8.19,6.82,4.37,3.59,6.19,15.34,2.72,19.44-.92,1.09-2.87,1.34-4.39,1.87-5.9,2.07-8.58,7.92-6.09,13.37,2.16,4.74,8.52,6.81,13.26,4.32,5.2-2.73,6.46-8.38,3.67-13.86a18,18,0,0,1-1.62-7.88c0-4.31.59-8.63,1-13.55,14,4.83,28,9.21,36.22,22.87.91,1.5,1.92,3.5,1.65,5.07-2.39,14.12-7.12,27.22-17.76,37.47a7.77,7.77,0,0,1-2.07.85c-.94-3-1.83-5.88-2.88-9.29-.32.58-.64.89-.59,1.13,2.21,10.65-3.84,16.22-12.28,20.69-11.52,6.12-22.8,12.7-34.32,18.81a7.46,7.46,0,0,1-6.11.17c-12.26-6.92-24.36-14.13-36.46-21.32C112.14,203.4,105.7,198.82,107.59,189Zm85.11-5.2c-.87-2.6-1.6-4.79-2.34-7l-1.55.29-1.32,6.64-6.85,1.51-.08,1.8,7,1.69c.47,2.37.89,4.44,1.3,6.52l1.61.24,2.09-6.78,6-1.72.1-1.61Z"/><path class="cls-1" d="M158.56,249.9c-15-5.66-53.27-22.54-76-63-16.59-29.52-17.44-58.3-18-77a208,208,0,0,1,10-70,329.28,329.28,0,0,0,39-10,327.9,327.9,0,0,0,54-23c4.47,2.1,11.41,5.31,20,9,39.77,17.06,46.49,15,54,23,8.33,8.86,6.75,18.85,3,73-4.53,65.33-4.69,67.81-7.24,74C232.77,196.88,216.44,229.77,158.56,249.9Z"/><path class="cls-2" d="M162.56,247a95.11,95.11,0,0,1-21-5c-33.79-12.29-50.81-40.7-57-51.1-18.6-31.25-19.44-61.26-20-81a209.48,209.48,0,0,1,10-70,198.51,198.51,0,0,0,37-7,200,200,0,0,0,54-24.9q-.57,59.94-1.32,119.88Q163.49,187.43,162.56,247Z"/><path class="cls-3" d="M146.88,246.12c15.59-8.78,30.45-16.88,45-25.46,8.19-4.81,16.43-9.78,23.78-15.75,16.76-13.62,23.2-32.89,24.4-53.32,1.73-29.13,1.49-58.37,2-87.57.11-6-.25-12,0-18,.21-4.32-1-6.05-5.67-6.66-19.56-2.56-38.72-6.92-56.93-14.76-1.25-.54-2.45-1.19-3.79-1.84,7.61-8.44,8.5-8.68,18-5.32a210,210,0,0,0,52.73,11c2.23.18,4.45.43,7.52.73,0,9.82.1,19.28,0,28.74-.35,29.83,0,59.7-1.44,89.48-1.07,22.22-6.49,43.86-23,60.22-8.14,8-17.94,14.64-27.68,20.81-12.93,8.2-26.48,15.45-39.93,22.82-1.72.94-4.6.76-6.56.05C152.75,250.35,150.46,248.37,146.88,246.12Z"/><path class="cls-3" d="M140.08,229.51c-8.34,6.29-11.39,6.54-19.49,1.78-18.6-10.91-36-23.24-46.19-43-8.17-15.78-11.28-32.95-11.59-50.47-.63-35-.64-70-.89-105.06a23.35,23.35,0,0,1,.44-2.91C96.4,27,128.85,18.93,157.72,0,161,2,164,3.76,167,5.59c.33.2.5.65.93,1.23A158.17,158.17,0,0,1,115.76,32c-11.93,3.31-24.24,5.25-36.4,7.65-3,.59-5.59.67-5.52,4.93.54,33.76.34,67.55,1.53,101.29,1.07,30.08,14.91,53.37,41,69C124.31,219.63,132.13,224.59,140.08,229.51Z"/><path d="M194.75,157.63c-4,3-6.34,6-8.4,5.81s-5.46-3.38-5.53-5.36,3.13-5.3,5.24-5.6S190.59,155,194.75,157.63Zm-8.91-4.37c-1.29,2.25-2.73,3.65-2.55,4.78s1.93,2.16,3,3.22c1.07-1.27,2.73-2.42,3-3.84C189.44,156.52,187.55,155.23,185.84,153.26Z"/><path class="cls-4" d="M163.78,282.45c-3.48,2.21-5.7,4.69-7.33,4.35-1.8-.37-4-3.24-4.21-5.21-.14-1.29,3-4.12,4.6-4.08C158.71,277.55,160.52,280,163.78,282.45Z"/><path class="cls-4" d="M0,348.8C4.61,337.27,8.67,327.13,12.73,317l1.94.59c-.25,3.39-.74,6.79-.69,10.18.17,11.59,12.47,21.07,23.76,18.46,9.2-2.14,13.1-11.44,7.74-20.16-3.25-5.27-7.78-9.76-11.83-14.52-2.46-2.89-5.2-5.54-7.65-8.44-5.53-6.54-6.93-13.94-3.32-21.75S32.89,270,41.24,269.15c8.88-.88,15.92,2.38,21.31,10l4.84-5.57,1.58.77L62.6,299.83l-2.17-.23a23.94,23.94,0,0,0,0-4.94c-1.14-5.28-1.56-11-4-15.65-3.91-7.35-13.91-9.08-20.25-4.58C30,278.78,29.32,286.87,35,294c4,5,8.61,9.61,12.94,14.4.51.56,1,1.15,1.49,1.73C59.66,322,61,331.66,53.76,340.75c-7.65,9.56-22.67,11.71-34.7,5-8.18-4.59-8.17-4.58-15.39,1.11A32.23,32.23,0,0,1,0,348.8Z"/><path class="cls-4" d="M84.64,301.76,72.77,313c0-7,11.7-17,17.62-15.16,4.29,1.31,5.12,4.85,3.78,8.75-3,8.61-6.29,17.09-9.09,25.75-1.2,3.73-1.47,7.77-2.16,11.68l2.3,1.22c2.77-2.56,6.33-4.67,8.18-7.79,6.85-11.54,13.34-23.32,19.52-35.24,1.91-3.68,3.87-5.24,8.75-3.75-5,14.79-10,29.47-15.25,45,8.74.13,9.53-8.37,15.2-10.4-.57,6.78-10.56,16.09-16.69,16.31-3.7.14-4.78-1.93-4.85-4.82-.07-3.2.37-6.41.67-11-2.25,2.64-3.64,4.54-5.29,6.16-2.84,2.77-5.51,6-8.91,7.83-2.46,1.32-6.83,1.88-8.8.52s-3.29-5.85-2.62-8.37c2.79-10.61,6.44-21,9.75-31.46.55-1.72,1-3.48,1.45-5.22Z"/><path class="cls-4" d="M261.11,301l7.78-4.06,1.24,1.42c-2.44,7.46-5,14.89-7.3,22.38s-4.44,15-6.64,22.54l2.06,1.5c4-3,8-6.07,12-9.15-.5,6.29-12.61,15.32-18.17,13.37-1.33-.47-2.45-2.55-2.92-4.12s-.11-3.58-.11-5.13c-4.61,2.93-8.7,6.42-13.44,8.33-8.15,3.3-13.92-1.16-13.83-10a20.5,20.5,0,0,1,.85-5.61,57.93,57.93,0,0,1,23.45-32.59C253.06,295.1,257,295.91,261.11,301Zm-4,7.16c-.8-1.47-1.66-5.35-3.87-6.42-1.86-.89-5.92.8-7.92,2.56-8.68,7.65-12.33,18.1-14,29.11-.46,3,1.79,6.47,2.8,9.73,3.2-1.18,7.33-1.48,9.44-3.7C251.28,331.2,255.42,321.06,257.08,308.11Z"/><path class="cls-4" d="M310.15,331.81c-3.43,14.92-20.54,22.33-28.76,16a13.87,13.87,0,0,1-4.85-7.91c-2.4-14.19,13.21-37.88,27.25-41.81,4.15-1.16,8.59-1.38,11.3,2.77,1.07,1.64,1,4.29.76,6.39-.11.8-2.68,2.15-3.45,1.8-1.61-.74-3.48-2.24-4-3.82-1.56-4.95-4.4-5-7.59-2.17-11.13,10-15.19,22.89-14.24,37.41.35,5.26,4.93,7.3,9.67,4.4,3.49-2.13,6.28-5.4,9.33-8.22C306.83,335.53,307.92,334.21,310.15,331.81Z"/><path class="cls-4" d="M137.88,345.37c7.89,1.83,10.48-5.95,17-6.5-1.39,1.69-2.46,3.92-4.24,5-4,2.36-8.19,4.93-12.63,6-5.42,1.24-8.56-2.86-6.64-8.05,3.84-10.44,8-20.74,12-31.14a81.12,81.12,0,0,0,2.12-7.89l-1.46-1.2-11.84,8c1.42-6.12,12.56-13.8,17.73-12.74,4,.83,5.58,4.5,3.56,9.64-3.39,8.6-7.13,17.06-10.62,25.62C141.14,336.28,139.65,340.62,137.88,345.37Z"/><path class="cls-5" d="M190.87,318.5c-3.81,10.67-7.35,20.59-10.88,30.5l-.59-.18c.22-5.14.53-10.28.64-15.43.32-15.17-1.16-30.1-6.2-44.53-4.46-12.78-11.43-23.73-23.11-31.17a8.06,8.06,0,0,1-.72-.59l.27-.65c4.15,1.56,8.37,2.93,12.42,4.72,9.12,4,17.13,9.53,23.17,17.68a33.28,33.28,0,0,1,6.59,19.92c0,2.19,0,4.38,0,7.31a14.15,14.15,0,0,0,1.27-1.9c2-4.85,3.89-9.73,5.92-14.55.54-1.28.38-2.06-.92-2.45-2.24-.66-2.28-2-1.25-3.71a3.66,3.66,0,0,0,.18-.46c1.3-3.22,1.3-3.23,4.47-1.95,6.75,2.74,13.48,5.54,20.26,8.21,1.8.7,2.3,1.6,1.38,3.3a14.69,14.69,0,0,0-.84,2.05c-.46,1.3-1.22,2-2.59,1.19-1.85-1.07-2.55-.13-3.2,1.52-2.57,6.56-5.3,13.06-7.85,19.63-.73,1.87-1.57,2.34-3.47,1.49-3.67-1.63-7.4-3.12-11.17-4.5-1-.38-3.15-.53-3.29-.19-.89,2.21,1.31,2.18,2.48,2.7,3.15,1.38,6.37,2.6,9.55,3.91.89.36,1.74.8,3.4,1.57-3.79,1.37-5.71,5-9.82,4C193.28,325.09,191,322.88,190.87,318.5Zm14.51-11.25.42-1a31.3,31.3,0,0,1,3.34,1.15c1.46.69,2.2.26,2.77-1.2s.4-2.29-1.15-2.83a33.66,33.66,0,0,1-3.23-1.5l.32-.91c.7.16,1.4.38,2.11.47,1.36.16,2.8,2.3,4-.41s-1-2.73-2.33-3.51a17.81,17.81,0,0,1-1.86-1.37l.37-.71c1.19.4,2.38.77,3.55,1.22s2.09.6,2.23-.81a2.6,2.6,0,0,0-1.06-2.13c-3.67-1.62-7.44-3-11.15-4.54-1.23-.5-2-.3-2.47,1q-3.92,9.81-8,19.57c-.55,1.32-.14,2,1.07,2.44,3.8,1.53,7.56,3.14,11.39,4.59.52.19,1.32-.34,2-.53-.3-.64-.44-1.53-.94-1.87a26.93,26.93,0,0,0-3.63-1.74l.3-1a34.19,34.19,0,0,1,3.59,1.17c1.37.6,2.06.24,2.59-1.14s.64-2.32-1-2.9C207.54,308.36,206.47,307.76,205.38,307.25Z"/><path class="cls-5" d="M217.9,284.73c-3.16-1.3-6-2.41-8.84-3.7a2,2,0,0,1-.72-1.85q2.74-7.2,5.78-14.28a2.2,2.2,0,0,1,2-.8,63.15,63.15,0,0,1,7.23,3,2.25,2.25,0,0,1,.82,2C222.22,274.2,220.12,279.24,217.9,284.73Z"/><path class="cls-5" d="M231.83,261.24c-.84,1.92-1.44,3.53-2.26,5-.17.3-1.19.43-1.67.24-4.86-1.9-9.68-3.91-14.54-5.84-1.26-.51-1.52-1.18-1-2.44,2.41-5.56,1.29-4.86,6.35-2.89,3.72,1.45,7.42,3,11.1,4.52A11.11,11.11,0,0,1,231.83,261.24Z"/><path class="cls-5" d="M193.69,326.82c1.8.06,2.21.73,1.61,2.19-2.55,6.19-5,12.41-7.64,18.55-.49,1.12-1.76,1.9-2.68,2.83l-.66-.46Z"/></g></g></svg>