<svg xmlns="http://www.w3.org/2000/svg" viewBox="0 0 192.16 251.9"><defs><style>.cls-1,.cls-2{fill:#20a1db;fill-rule:evenodd;}.cls-1{opacity:0.2;}.cls-2{opacity:0.15;}.cls-3{fill:#f39866;}</style></defs><title>logo</title><g id="Calque_2" data-name="Calque 2"><g id="Calque_2-2" data-name="Calque 2"><path d="M73.11,79.6c-2.59-8.9-1.5-10.31,7.69-12.79,11.54-3.11,22.86-2.52,34.19.79,6,1.76,7.34,5,4.85,10.67C117,84.81,112.78,89.33,105.1,89c-8-.31-16.13-.05-23.91-1.57-3.17-.63-5.56-5.27-8.3-8.09Z"/><path d="M121.23,67.11c-16.78-5.77-32.8-5.67-48.67-.3C70,53.49,76.72,45.6,91.76,43.4a33.82,33.82,0,0,1,23.65,5.46C121.4,52.76,120.81,59.68,121.23,67.11Z"/><path d="M80.12,110.18c3.07,0,6.13,0,9.19,0l13.87.08H113C107.89,121,88.17,121.49,80.12,110.18Z"/><path d="M72.89,79.38C75.28,85.5,77.74,91.6,80,97.76c1.36,3.66,2.83,7.5-1.69,10.76-3.09-8.4-6.28-16.54-9-24.84-.83-2.51-.81-5.82,3.79-4.08Z"/><path d="M122.62,79.45c-1.34,5.68,1,11.88-4.44,17-2.48,2.35-2.1,7.71-3.06,11.92C110.16,104,114.29,87.55,122.62,79.45Z"/><path d="M45.67,189l-2.47,7.53c-2.47-2.59-4.58-4.62-6.48-6.85-7-8.24-11-18-13.21-28.43A10.64,10.64,0,0,1,25,153.9c4.83-7.07,10.51-13.26,19-16.25,6.19-2.18,12.18-4.93,18.35-7.47,1.83,4.5,1.94,7.76-1.44,11.59-6.66,7.58-6.45,21.6-.21,29.54A13.42,13.42,0,0,0,66,175.4c1.5.6,3.54-.16,5.34-.32-1.19-1.16-2.31-2.4-3.58-3.46-1.51-1.27-3.72-2.05-4.63-3.61-4.26-7.35-4.37-14.92-.31-22.47,2.39-4.47,5.73-5,9.77-2.29,7.1,4.8,10.55,11.59,10.11,20.07-.09,1.86-2.21,3.56-3.13,5.46a19.49,19.49,0,0,0-1,4c1.42-.2,3.57.13,4.14-.67,1.62-2.29,3.33-4.93,3.72-7.62C88,154.07,81.65,143.1,72,138.59c-5.19-2.43-6-6.71-1.83-11,2.55-2.65,5.36-5,9.61-9-3.51,9.33,1.91,14.58,5.7,20.48,2.68,4.18,5.83,8.21,7.6,12.76s2,9.56,3,14.56c.45-.51,1.18-1,1.16-1.38-.44-12.85,7.77-21.8,13.89-31.81,2.31-3.77,2.78-8.68,4-12.61,2.11,1.77,5.13,4.32,8.18,6.82,4.37,3.59,6.19,15.34,2.72,19.44-.92,1.09-2.87,1.34-4.38,1.87-5.9,2.07-8.58,7.92-6.1,13.37,2.17,4.74,8.52,6.81,13.26,4.32,5.21-2.73,6.47-8.38,3.68-13.86a18.06,18.06,0,0,1-1.63-7.88c0-4.31.6-8.63,1-13.55,14,4.83,28,9.21,36.21,22.87.91,1.5,1.92,3.5,1.66,5.07-2.39,14.12-7.12,27.22-17.76,37.47a7.92,7.92,0,0,1-2.07.85L147,188.09c-.31.58-.63.89-.58,1.13,2.2,10.65-3.85,16.22-12.28,20.69-11.53,6.12-22.8,12.7-34.33,18.81a7.43,7.43,0,0,1-6.1.17C81.42,222,69.32,214.76,57.22,207.57,50.22,203.4,43.78,198.82,45.67,189Zm85.11-5.2c-.88-2.6-1.61-4.79-2.34-7l-1.56.29-1.32,6.64-6.84,1.51-.08,1.8,7,1.69c.47,2.37.88,4.44,1.3,6.52l1.6.24,2.09-6.78,6-1.72.11-1.61Z"/><path class="cls-1" d="M96.63,249.9c-15-5.66-53.26-22.54-76-63-16.58-29.52-17.44-58.3-18-77a208.53,208.53,0,0,1,10-70,328.3,328.3,0,0,0,39-10,327.9,327.9,0,0,0,54-23c4.47,2.1,11.42,5.31,20,9,39.77,17.06,46.49,15,54,23,8.33,8.86,6.76,18.85,3,73-4.52,65.33-4.68,67.81-7.23,74C170.85,196.88,154.51,229.77,96.63,249.9Z"/><path class="cls-2" d="M100.64,247a95,95,0,0,1-21-5c-33.79-12.29-50.81-40.7-57-51.1-18.6-31.25-19.43-61.26-20-81a209.74,209.74,0,0,1,10-70,198.36,198.36,0,0,0,37-7,200,200,0,0,0,54-24.9q-.58,59.94-1.33,119.88Q101.56,187.43,100.64,247Z"/><path class="cls-3" d="M85,246.12c15.59-8.78,30.45-16.88,45-25.46,8.2-4.81,16.44-9.78,23.78-15.75,16.77-13.62,23.2-32.89,24.41-53.32,1.72-29.13,1.48-58.37,2-87.57.12-6-.25-12,0-18,.2-4.32-1-6.05-5.68-6.66-19.55-2.56-38.71-6.92-56.93-14.76-1.25-.54-2.45-1.19-3.78-1.84,7.6-8.44,8.5-8.68,18-5.32a209.81,209.81,0,0,0,52.72,11c2.23.18,4.46.43,7.53.73,0,9.82.09,19.28,0,28.74-.35,29.83,0,59.7-1.44,89.48-1.08,22.22-6.5,43.86-23,60.22-8.14,8-17.94,14.64-27.67,20.81-12.94,8.2-26.49,15.45-39.93,22.82-1.72.94-4.6.76-6.57.05C90.83,250.35,88.54,248.37,85,246.12Z"/><path class="cls-3" d="M78.15,229.51c-8.33,6.29-11.38,6.54-19.48,1.78-18.61-10.91-36-23.24-46.2-43C4.31,172.48,1.2,155.31.88,137.79c-.62-35-.63-70-.88-105.06a20.08,20.08,0,0,1,.44-2.91C34.47,27,66.92,18.93,95.79,0c3.29,2,6.31,3.76,9.31,5.59.33.2.5.65.93,1.23A158.13,158.13,0,0,1,53.83,32c-11.92,3.31-24.23,5.25-36.4,7.65-3,.59-5.58.67-5.52,4.93.55,33.76.34,67.55,1.54,101.29,1.07,30.08,14.91,53.37,41,69C62.39,219.63,70.21,224.59,78.15,229.51Z"/><path d="M132.83,157.63c-4,3-6.35,6-8.4,5.81s-5.46-3.38-5.54-5.36,3.13-5.3,5.25-5.6S128.66,155,132.83,157.63Zm-8.92-4.37c-1.28,2.25-2.73,3.65-2.55,4.78s1.93,2.16,3,3.22c1.07-1.27,2.73-2.42,3-3.84C127.52,156.52,125.62,155.23,123.91,153.26Z"/></g></g></svg>