<svg xmlns="http://www.w3.org/2000/svg" viewBox="0 0 1920 1430"><defs><style>.cls-1{opacity:0.4;}.cls-2{fill:#20a1db;}.cls-3,.cls-5{fill:#fff;}.cls-4{fill:#f39866;}.cls-5{fill-rule:evenodd;}.cls-6{font-size:43.56px;}.cls-18,.cls-6{font-family:MyriadPro-Regular, Myriad Pro;}.cls-7{letter-spacing:-0.1em;}.cls-8{letter-spacing:-0.02em;}.cls-9{letter-spacing:0em;}.cls-10{letter-spacing:0em;}.cls-11{letter-spacing:0em;}.cls-12{letter-spacing:0em;}.cls-13{letter-spacing:-0.01em;}.cls-14{letter-spacing:0.02em;}.cls-15{letter-spacing:-0.01em;}.cls-16{letter-spacing:0em;}.cls-17{letter-spacing:-0.01em;}.cls-18{font-size:36px;}.cls-19{letter-spacing:0.01em;}.cls-20{letter-spacing:0em;}.cls-21{letter-spacing:0em;}.cls-22{letter-spacing:0em;}.cls-23{letter-spacing:-0.01em;}.cls-24{letter-spacing:-0.01em;}.cls-25{letter-spacing:0em;}.cls-26{letter-spacing:-0.03em;}.cls-27{letter-spacing:-0.01em;}.cls-28{letter-spacing:-0.01em;}.cls-29{letter-spacing:-0.02em;}.cls-30{letter-spacing:0em;}.cls-31{letter-spacing:-0.01em;}</style></defs><title>op vac illu</title><g id="Calque_2" data-name="Calque 2"><g id="Calque_1-2" data-name="Calque 1"><g class="cls-1"><path class="cls-2" d="M1920,489.37c-1.36-1.85-2.72-3.69-4.09-5.5-100.37-133.08-8.44-178.35-122.88-260.73-86.78-62.47-199.8,1.81-269.21-49.8S1379.37,14.91,1240.54,31.21C1020.24,57.07,842.38,285.4,563.2,231.52,458,211.2,204.14,330,0,482.25v526.26C81,1122.65,6.69,1167,106.05,1238c77,55,175.11-7.92,236.73,37.6s129,141.88,250.45,122.48C786,1367.26,938.43,1150.71,1184,1191.78c68.3,11.43,206.41-49.67,345.1-141.59q9.27-1.32,18.42-2.56c-40.83,28.82-82.83,55.74-124.53,79.62-98.94,56.66-183.24,88.67-237.07,90.59a113.07,113.07,0,0,1-22.44-1.24c-147.84-24.74-261.37,43-371.15,108.44-73.76,44-143.43,85.53-220.31,97.81-94,15-154.09-39.06-207.1-86.76-14.5-13-28.19-25.36-41.67-35.32-30-22.15-67.91-19.22-108.06-16.12-43.76,3.37-89,6.87-128.7-21.5-52.45-37.47-55.69-67-59.79-104.44C23.73,1132,20.5,1102.59,0,1064.65v10.15c16.49,33.5,19.43,60.16,22.1,84.51,4.07,37,7.57,69,61.68,107.68,41,29.3,87.08,25.74,131.63,22.3,39.29-3,76.41-5.9,105.07,15.27,13.31,9.83,26.92,22.08,41.33,35,51.1,46,114.7,103.2,210.79,87.84,77.76-12.41,147.8-54.18,221.95-98.4,90-53.64,182.4-108.79,294.06-112.77a368.07,368.07,0,0,1,74,4.92c51.9,8.68,147.59-24.09,262.52-89.89,44.28-25.36,88.91-54.15,132.12-85,145.74-19.37,267.83-25.55,362.74-62.25Z"/><path class="cls-2" d="M0,475.49c88-68.37,189.62-133,289.53-183.4,113.85-57.45,210.56-88.83,272-88.83a135.41,135.41,0,0,1,25.57,2.21c168.1,32.45,298.79-36.4,425.17-103,84.91-44.73,165.11-87,253-97.3,107.45-12.6,175,48.19,234.52,101.83,16.29,14.66,31.67,28.51,46.86,39.8,33.78,25.12,77.07,23.42,122.9,21.61,50-2,101.6-4,146.34,28.21,59.11,42.55,62.26,74.64,66.24,115.27,3.2,32.55,6.76,68.82,37.92,118.63v-10c-26.44-45.13-29.74-78.76-32.72-109.1-3.94-40.22-7.35-74.95-68.32-118.84-46.22-33.28-98.81-31.21-149.67-29.2-44.85,1.76-87.22,3.43-119.51-20.57-15-11.15-30.28-24.92-46.47-39.5-47.43-42.7-104.45-94-184.77-103.33h-52.17l-1.77.19c-88.88,10.43-169.51,52.91-254.88,97.88-103.54,54.55-210,110.63-337.35,110.62a444,444,0,0,1-84.29-8.16c-59-11.4-168.72,20.35-301,87.1C188.15,337.57,87.48,401.39,0,469Z"/></g><circle class="cls-3" cx="964" cy="608.57" r="240"/><path class="cls-4" d="M960.5,851a239,239,0,0,0,153-55.12h0q2.78-2.31,5.48-4.69l.38-.33c1.72-1.53,3.42-3.07,5.09-4.64l.26-.24q5-4.66,9.65-9.61c1.9-2,3.78-4,5.62-6.09l.24-.28q4.92-5.55,9.48-11.41c1.47-1.89,2.93-3.78,4.34-5.71l.09-.12c1.45-2,2.86-4,4.25-6h0q3.15-4.57,6.08-9.29t5.65-9.58l.1-.19c1-1.7,1.88-3.42,2.78-5.14q1.88-3.57,3.63-7.22t3.53-7.59l.06-.14c1-2.26,2-4.55,2.89-6.85A240.94,240.94,0,0,0,1187.89,534l26.59-4.07A262.14,262.14,0,0,0,1144,416.61L1129.9,441a239.22,239.22,0,0,0-169.4-70V345.05l3.75-.05H964c-1.34,0-2.67,0-4,.05V371c132.55,0,240,107.45,240,240S1092.55,851,960,851v18c1.33,0,2.66,0,4,0h.25l-3.75,0Z"/><path class="cls-2" d="M960.5,371a239.22,239.22,0,0,1,169.4,70L1144,416.61A261.15,261.15,0,0,0,964.25,345l-3.75.05Z"/><path class="cls-2" d="M1200.5,611a239.37,239.37,0,0,1-17.37,89.77h0l24.15,3.63a263,263,0,0,0,7.2-174.45L1187.89,534A239.61,239.61,0,0,1,1200.5,611Z"/><path class="cls-2" d="M1113.54,795.88A239,239,0,0,1,960.5,851v18l3.75,0a261.07,261.07,0,0,0,174-66.37Z"/><path class="cls-4" d="M1183.13,700.77c-.93,2.3-1.89,4.59-2.89,6.85l-.06.14q-1.7,3.82-3.53,7.59t-3.63,7.22c-.9,1.72-1.83,3.44-2.78,5.14l-.1.19q-2.73,4.86-5.65,9.58t-6.08,9.29h0c-1.39,2-2.8,4-4.25,6l-.09.12c-1.41,1.93-2.87,3.82-4.34,5.71q-4.56,5.85-9.48,11.41l-.24.28c-1.84,2.07-3.72,4.09-5.62,6.09q-4.7,4.93-9.65,9.61l-.26.24c-1.67,1.57-3.37,3.11-5.09,4.64l-.38.33c-1.8,1.59-3.62,3.16-5.47,4.69l24.72,6.75a262.61,262.61,0,0,0,69-98.23l-24.15-3.63Z"/><path class="cls-5" d="M1383,617.5c0-241.91-186.14-440.34-423-459.91v7c230.78,19.53,412,213,412,448.87,0,.67,0,1.33,0,2s0,1.33,0,2c0,235.83-181.22,429.34-412,448.87v11C1196.86,1057.84,1383,859.41,1383,617.5Z"/><circle class="cls-2" cx="1242.5" cy="295.5" r="16.5"/><circle class="cls-4" cx="1366.5" cy="508.5" r="16.5"/><circle class="cls-4" cx="1366.5" cy="508.5" r="4.5"/><circle class="cls-2" cx="1367.5" cy="720.5" r="16.5"/><circle class="cls-2" cx="960.5" cy="1071.5" r="16.5"/><circle class="cls-4" cx="1255.5" cy="927.5" r="16.5"/><text class="cls-6" transform="translate(770 582.39) scale(0.87 1)"><tspan xml:space="preserve">     </tspan><tspan class="cls-7" x="46.17" y="0">L</tspan><tspan class="cls-8" x="62.24" y="0">’</tspan><tspan x="70.47" y="0">aspet p</tspan><tspan class="cls-9" x="203.76" y="0">r</tspan><tspan class="cls-10" x="217.78" y="0">a</tspan><tspan class="cls-11" x="238.6" y="0">tique de </tspan><tspan x="0" y="52.27">la </tspan><tspan class="cls-12" x="40.51" y="52.27">v</tspan><tspan x="61.28" y="52.27">a</tspan><tspan class="cls-13" x="82.28" y="52.27">c</tspan><tspan x="101.53" y="52.27">cin</tspan><tspan class="cls-12" x="155.41" y="52.27">a</tspan><tspan x="176.23" y="52.27">tion a</tspan><tspan class="cls-10" x="279.16" y="52.27">n</tspan><tspan x="303.16" y="52.27">ti</tspan><tspan class="cls-14" x="327.77" y="52.27">-</tspan><tspan class="cls-13" x="341.93" y="52.27">c</tspan><tspan class="cls-15" x="361.18" y="52.27">o</tspan><tspan x="384.79" y="52.27">vid :</tspan><tspan class="cls-16" x="0" y="104.54">C</tspan><tspan x="25.13" y="104.54">i</tspan><tspan class="cls-17" x="35.33" y="104.54">r</tspan><tspan x="49.13" y="104.54">cuit des futurs </tspan><tspan class="cls-10" x="315.23" y="104.54">v</tspan><tspan x="336" y="104.54">a</tspan><tspan class="cls-13" x="357" y="104.54">c</tspan><tspan x="376.25" y="104.54">cins</tspan></text><text class="cls-18" transform="translate(1301.76 295.07)">1) - <tspan class="cls-19" x="55.01" y="0">I</tspan><tspan class="cls-20" x="63.97" y="0">nsc</tspan><tspan class="cls-21" x="114.33" y="0">r</tspan><tspan x="126.25" y="0">iption à la pl</tspan><tspan class="cls-22" x="310.31" y="0">a</tspan><tspan class="cls-23" x="327.52" y="0">t</tspan><tspan x="339.22" y="0">e</tspan><tspan class="cls-24" x="357.26" y="0">f</tspan><tspan x="367.3" y="0">o</tspan><tspan class="cls-25" x="387.06" y="0">r</tspan><tspan x="398.98" y="0">me Sui</tspan><tspan class="cls-26" x="500.68" y="0">V</tspan><tspan x="519.58" y="0">ac</tspan></text><text class="cls-18" transform="translate(1401.76 505.07)">2) - <tspan class="cls-27" x="55.01" y="0">P</tspan><tspan x="73.98" y="0">lannific</tspan><tspan class="cls-22" x="183.17" y="0">a</tspan><tspan x="200.37" y="0">tion de la 1é</tspan><tspan class="cls-28" x="384.04" y="0">r</tspan><tspan x="395.45" y="0">e dose</tspan></text><text class="cls-18" transform="translate(1411.76 722.07)">3) - <tspan class="cls-29" x="55.01" y="0">P</tspan><tspan class="cls-21" x="73.58" y="0">r</tspan><tspan x="85.5" y="0">ise de la 1é</tspan><tspan class="cls-28" x="249.8" y="0">r</tspan><tspan x="261.21" y="0">e dose</tspan></text><text class="cls-18" transform="translate(1325.76 934.07)">4) - <tspan class="cls-29" x="55.01" y="0">P</tspan><tspan class="cls-21" x="73.58" y="0">r</tspan><tspan x="85.5" y="0">ise de la 2éme dose</tspan></text><text class="cls-18" transform="translate(1113.76 1091.07)">5) - Ob<tspan class="cls-23" x="100.29" y="0">t</tspan><tspan x="111.99" y="0">e</tspan><tspan class="cls-22" x="130.03" y="0">n</tspan><tspan x="149.87" y="0">tion du pass </tspan><tspan class="cls-30" x="339.33" y="0">v</tspan><tspan class="cls-20" x="356.5" y="0">a</tspan><tspan class="cls-31" x="373.85" y="0">c</tspan><tspan x="389.77" y="0">cinal</tspan></text><path class="cls-3" d="M503.46,570.42l13-2c0,17.19,1,33.57-.53,49.69-.61,6.18-6.67,12.22-11.16,17.55a27,27,0,0,0,3,37.81c4.36,3.82,6.79,9.83,10.17,14.8,2.32,3.39,4.07,7.76,7.27,9.86,9.46,6.21,15.07,13.94,16.32,25.6,1.12,10.51,6.81,21.07,5.78,31.13-1.42,13.76,7.8,23.61,8.94,35.53,1.76,18.38.81,37,1,55.55,0,3.89-.72,8,.29,11.62,2.39,8.56,4.23,16-7,20.16-1.57.58-2.6,8.08-1.06,10.74,6.07,10.4,13.74,19.55,14.91,32.62.62,6.89,6.06,10.27,15,11.48,15.19,2.06,29.57,8.69,34,28.14-18.19,11.45-37.05,23.3-55.87,35.2-35.64,22.55-72.07,44-101.16,75.36-1.57,1.69-3.53,3.7-5.6,4.14q-30.65,6.5-61.43,12.32c-1.9.36-4.18-1.29-6.21-2,3.92-18.87,3.52-18.4-15.26-26.72-11.92-5.27-26.19-10.23-33.55-19.83-23.68-30.87-58.33-46.89-88-69.44-30.42-23.11-62.43-44.14-94.08-65.59-24.45-16.57-49.28-32.59-74.23-48.39-5.71-3.61-8.77-7.35-7.71-14.17.41-2.7.06-5.51.07-8.27,0-12.69-3.06-26.55,13.22-32.82,11.33-4.36,22.19-10.33,33.84-13.3,10.91-2.79,22.58-2.57,33.9-3.68,9.87-8.3,20.52-17.74,31.76-26.43,3.5-2.7,8.49-3.69,13-4.92,8.25-2.27,10.71-8.3,8.24-15.24-4.38-12.34-3.22-15.46,9.63-18.51,5.58-1.33,13.13-1.15,7.85-11.64,8-.75,15.27-2.07,22.55-2s14.75,1.62,23.06,2.63c0-3.36-1-7.18.16-8,7.23-5.09,2.85-7.5-.87-12.31a54.11,54.11,0,0,1-10.32-21.87c-2.24-11.49-1.34-23.55-3.06-35.17-.83-5.58-4.63-10.71-7.51-17,1.14-.43,3.75-2.22,6.4-2.25,9.87-.14,13.12-7.5,16.55-15.09l4.67,4.19c-.37-1.12-.73-2.24-1.09-3.37l16.1-9.77.28,2.38c2.88.19,7.06,1.7,8.41.36,6.5-6.48,9.56-17.81,22.42-14.29,2.31-10,11.08-9.38,18-9.62,6.05-.21,12.21,2.53,18.65,2.41l-11.75-1.36c19-6,19-6,21.38,4.89,8.93-2.18,17.48-1.41,23.92-12.45,3.38-5.8,17.83-5.15,29.62-8-1.21,7.49-1.85,11.5-2.5,15.51,1.39,1.54,3.7,4.6,4,4.4,4.26-2.57,8.24-5.61,12.3-8.53,4.5,1.65,7.89,6.25,12.68-2.14,2.31-4.06,13.9-2.83,21.28-4,1.81,3.49,3.34,7.17,5.49,10.44C480.12,578.14,492.13,579.46,503.46,570.42Z"/><path class="cls-3" d="M503.46,570.42c-11.33,9-23.34,7.72-30.79-3.58-2.15-3.27-3.68-7-5.49-10.44-.63-2.47-1.26-4.94-1.24-4.84,9.86-.81,19.12-2.18,28.37-2.13,6.34,0,10.77,3.53,9,11.07.59,1,1.2,2,1.81,3.06C504.54,565.85,504,568.13,503.46,570.42Z"/><path class="cls-3" d="M505.09,563.56c-.61-1-1.22-2-1.81-3.06q9.6-4.87,19.2-9.8c.57,1.17,1.15,2.35,1.72,3.53C519.6,560.74,516.5,570.13,505.09,563.56Z"/><path class="cls-3" d="M433.22,562.53c-4.06,2.92-8,6-12.3,8.53-.33.2-2.64-2.86-4-4.4l7.9-14.86Z"/></g></g></svg>