<svg xmlns="http://www.w3.org/2000/svg" viewBox="0 0 1920 1001.9"><defs><style>.cls-1,.cls-19,.cls-43{isolation:isolate;}.cls-2{opacity:0.4;}.cls-3{fill:#20a1db;}.cls-14,.cls-4{fill:#fff;}.cls-10,.cls-16,.cls-17,.cls-48,.cls-5{fill:none;stroke-miterlimit:10;}.cls-48,.cls-5{stroke:#20a1db;}.cls-6{fill:#e7e7eb;}.cls-7{fill:#6ba8f9;}.cls-8{fill:#f1eee9;}.cls-9{fill:#ececf0;}.cls-10{stroke:#6ba8f9;}.cls-10,.cls-17{stroke-width:0.42px;}.cls-11{fill:#93b4d3;}.cls-12{fill:#212121;}.cls-13{fill:#f39866;}.cls-14{opacity:0.53;}.cls-15{opacity:0.31;}.cls-16,.cls-17{stroke:#fff;}.cls-16{stroke-width:0.84px;}.cls-18{fill:#bfd5df;mix-blend-mode:multiply;}.cls-19{font-size:37.79px;font-family:Montserrat-Regular, Montserrat;}.cls-20{letter-spacing:0em;}.cls-21{letter-spacing:0em;}.cls-22{letter-spacing:0em;}.cls-23{letter-spacing:0em;}.cls-24{letter-spacing:-0.02em;}.cls-25{letter-spacing:-0.01em;}.cls-26{letter-spacing:-0.01em;}.cls-27{letter-spacing:-0.02em;}.cls-28{letter-spacing:-0.02em;}.cls-29{letter-spacing:-0.02em;}.cls-30{letter-spacing:-0.01em;}.cls-31{letter-spacing:-0.01em;}.cls-32{letter-spacing:-0.02em;}.cls-33{letter-spacing:-0.02em;}.cls-34{letter-spacing:-0.01em;}.cls-35{letter-spacing:0em;}.cls-36{letter-spacing:0em;}.cls-37{letter-spacing:-0.01em;}.cls-38{letter-spacing:-0.01em;}.cls-39{letter-spacing:0em;}.cls-40{letter-spacing:-0.01em;}.cls-41{letter-spacing:0.74em;}.cls-42{letter-spacing:-0.02em;}.cls-43{font-size:104px;font-family:Montserrat-Bold, Montserrat;font-weight:700;}.cls-44{letter-spacing:-0.01em;}.cls-45{letter-spacing:-0.02em;}.cls-46{letter-spacing:0.01em;}.cls-47{letter-spacing:-0.01em;}.cls-48{stroke-width:9px;}</style></defs><title>op vac top</title><g class="cls-1"><g id="Calque_2" data-name="Calque 2"><g id="Calque_1-2" data-name="Calque 1"><g class="cls-2"><path class="cls-3" d="M1920,342.86c-1.36-1.29-2.72-2.58-4.09-3.85-100.37-93.24-8.44-124.95-122.88-182.67-86.78-43.77-199.8,1.26-269.21-34.89s-144.45-111-283.28-99.58C1020.24,40,842.38,200,563.2,162.21,458,148,204.14,231.19,0,337.88V706.59c81,80,6.69,111,106.05,160.76,77,38.55,175.11-5.55,236.73,26.34s129,99.41,250.45,85.82C786,957.94,938.43,806.22,1184,835c68.3,8,206.41-34.8,345.1-99.2q9.27-.93,18.42-1.8c-40.83,20.2-82.83,39.06-124.53,55.79-98.94,39.69-183.24,62.12-237.07,63.46a158.93,158.93,0,0,1-22.44-.87c-147.84-17.33-261.37,30.11-371.15,76C718.53,959.18,648.86,988.29,572,996.89c-94,10.51-154.09-27.36-207.1-60.79-14.5-9.13-28.19-17.76-41.67-24.74-30-15.52-67.91-13.47-108.06-11.3-43.76,2.37-89,4.81-128.7-15.06C34,858.75,30.76,838,26.66,811.82,23.73,793.12,20.5,772.51,0,745.93V753c16.49,23.47,19.43,42.15,22.1,59.21,4.07,26,7.57,48.36,61.68,75.44,41,20.53,87.08,18,131.63,15.63,39.29-2.13,76.41-4.14,105.07,10.7,13.31,6.88,26.92,15.46,41.33,24.55,51.1,32.21,114.7,72.3,210.79,61.55,77.76-8.7,147.8-38,221.95-69,90-37.58,182.4-76.22,294.06-79a520.57,520.57,0,0,1,74,3.44c51.9,6.08,147.59-16.88,262.52-63,44.28-17.77,88.91-37.94,132.12-59.55C1703,719.5,1825.09,715.18,1920,689.46Z"/><path class="cls-3" d="M0,333.14C88,285.24,189.62,240,289.53,204.65c113.85-40.26,210.56-62.24,272-62.24A191.39,191.39,0,0,1,587.06,144c168.1,22.73,298.79-25.5,425.17-72.15,84.91-31.34,165.11-60.94,253-68.17,107.45-8.83,175,33.76,234.52,71.34,16.29,10.27,31.67,20,46.86,27.89,33.78,17.6,77.07,16.4,122.9,15.14,50-1.38,101.6-2.8,146.34,19.76,59.11,29.82,62.26,52.3,66.24,80.77,3.2,22.8,6.76,48.21,37.92,83.11v-7c-26.44-31.62-29.74-55.18-32.72-76.44-3.94-28.17-7.35-52.51-68.32-83.26-46.22-23.31-98.81-21.86-149.67-20.46-44.85,1.24-87.22,2.41-119.51-14.41-15-7.81-30.28-17.46-46.47-27.67C1455.88,42.48,1398.86,6.51,1318.54,0h-52.17l-1.77.13c-88.88,7.31-169.51,37.07-254.88,68.58-103.54,38.22-210,77.51-337.35,77.51a628.17,628.17,0,0,1-84.29-5.72c-59-8-168.72,14.26-301,61-99,35-199.63,79.71-287.11,127.09Z"/></g><path class="cls-4" d="M1898.52,507.06s-20.13,5.58-60.47.48c-60.06-7.51-111.9-63.09-111.66-63.07s-51.55,56.52-111.66,63.07c-46,5.14-60.49-.41-60.47-.48-1,.76-24.67,169.29,24.49,246.14C1627,831.05,1727,898.68,1726.39,897.8c-.59.88,99.38-66.75,147.64-144.6C1923.19,676.35,1899.5,507.82,1898.52,507.06Z"/><g class="cls-1"><path class="cls-3" d="M1840.76,619.28c.25,1,.83,1.77,1.15,2.69.54,1.57.62,3.25,1.1,4.83a3.58,3.58,0,0,0,.11.35c.33.83,1.1,1.44,1.19,2.4a20.29,20.29,0,0,0,.48,2.92c.38.77.38.77,2.2,2.48l-.32-2.51c-1.46-6.21-1.46-6.21-3.08-8.36l-1-4.12.9.79-.47-2-1-1.92-.86-3.07c-.25.07-.38.11-.42.78s.23,1.32.23,2l-.1,0c-.19-.15-.19-.15-.33-.13a6,6,0,0,0,.25,2.84m-.21,4.17c-.3-2.09-.64-4.16-1-6.2l0-.29c.06-.32.61-3.15.61-3.15.28-.41.28-.41,1.75-.35l1.48,5.27,1,2,1.17,5.57c.83,1.53.83,1.53,2.41,8.88l.6,6.31-1.23-1.22c-2.23-2.1-2.23-2.1-3.36-4.6l-.16-1a21.91,21.91,0,0,0-.31-2.28c-.24-.87-.87-1.56-1.12-2.42a37.82,37.82,0,0,1-.94-4.19,1.88,1.88,0,0,0-.29-.87l-.37-.92c0-.15-.14-.34-.18-.49"/><path class="cls-3" d="M1853.57,681.31l.12.1.61-4a.4.4,0,0,1,0,.15c0-.2,0-.46-.06-.66l-.64,4.41"/><path class="cls-3" d="M1849.1,668.27a5.57,5.57,0,0,0,.09,1.32l1.14-1.28.71-.52.25.82.8-3,.26.19a1.34,1.34,0,0,1,.15,1.19,3.58,3.58,0,0,0,.06,2.58l.25-.47.52-1.19.05-.47c0,.05,0,.05-.14.42a1.83,1.83,0,0,1,0-.33,89.23,89.23,0,0,0,.39-9.19l-.33-.44-.72.86c-.11,1.13-.18,1.23-.23,1.3a4.43,4.43,0,0,1-.73,0c-.23,1.36-.53,3.18-.75,4.54l-1.66,2.88a6.88,6.88,0,0,0-.13.77"/><path class="cls-3" d="M1853.65,657.64a89.41,89.41,0,0,1-.43,10.24,16.84,16.84,0,0,1,.76-2.11,1.43,1.43,0,0,0,.57.28c.52-2.77,1.31-6.95.9-9.72l0-.1a20.61,20.61,0,0,0-.34,2,1.38,1.38,0,0,1-.32.82c-.12-.41-.27-1-.38-1.36l-.37-.1h-.37v0"/><path class="cls-3" d="M1848.85,656.86l.16,2,0,.1a14.1,14.1,0,0,1,1.08,2.77,4,4,0,0,0,.66-1.88c0-.45-.43-.76-.54-1.19a4.85,4.85,0,0,1,0-1c-.07-1.06-.07-1.06-.93-2.72a5.43,5.43,0,0,0-.43,2"/><path class="cls-3" d="M1842.84,695.92c-1,3-2.79,10.13-2.8,10.18-.52,2.57-.29,5.21-.62,7.79-.22,1.7-1.14,3.2-1.38,4.89a.84.84,0,0,0,.11.54c.61,0,1.14,0,3.46-4.43.54-1,.54-1,.82-1.21l.21.09c.3-.25.55-.56.86-.81,0,1.35-1.16,4-2.14,6,2-4.33,4.56-10.11,6.26-14.55,1.52-4.77,3.48-11.17,4.69-16,.25-1.13,1.6-8.51,1.33-10.84,0-.17,0-.21-.05-.25l0-.13,0-.12a.65.65,0,0,0,0-.13l0-.12,0-.11,0-.09,0-.08c-.21.22-.33.35-.53,2.62-.3,3.51-.46,3.77-2.31,6.92.17-1.6.39-3.75.56-5.35l.23-2.85.9-4.49c-.84.35-1.84,5.95-1.85,6-.49,2.88-.49,2.88-2.37,4.75a2.8,2.8,0,0,0-.73,1c-.76,1.74-.79,3.72-1.78,5.38a21.17,21.17,0,0,0-2.66,5.44"/><path class="cls-3" d="M1840.76,619.28c.25,1,.83,1.77,1.15,2.69.54,1.57.62,3.25,1.1,4.83a3.58,3.58,0,0,0,.11.35c.25.62.91,1,1.11,1.61a24.77,24.77,0,0,1,.45,3.43c.13.72.13.72,2.26,2.72l-.27-2.47-1.14-4.86a4,4,0,0,0-.84-2.06c-1-1.26-1-1.26-2.15-5.56l.9.79-.47-2-1-1.92-.86-3.07c-.25.07-.38.11-.42.78s.23,1.32.23,2l-.1,0c-.19-.15-.19-.15-.33-.13a6,6,0,0,0,.25,2.84"/></g><path class="cls-3" d="M1666.52,714.94c-.38,3-.92,7-1.22,10l-8.57,4.91c.18.95.37,1.88.56,2.81-1.2,2.7-2.79,6.29-3.86,9l2,2.61a29.48,29.48,0,0,1-2,4c-.7.08-1.63.16-2.33.21l-1.46,2.63,1,4.65,1.82.16c1.22,2.11,1.22,2.11,1.75,3.07h0c0,1,0,1,0,2l6.94,4.57.27,1.78c-14.68-6.81-17.83-10-28-28.57-3.77-6.84-4-14.7-6.24-22-2.21-7-10.9-8.46-13.3-15.34-3-8.69-3-8.69-1.64-23.6l3.21-3.87.41-4.27-1.49-2.18-2,1.32-2-3.86-2.21-4.05-.41-5.92-2.37-2.38-1.4-2.7-2.89-1.48c-.94-3.35-2.2-7.83-2.88-11.25.47-1.87,1-3.74,1.54-5.59.45-3.23.93-7.55,1.53-10.75l-2,7.07-.42,4.8-1.09.32c-.56-1.85-1.21-5.16.72-6.48l.39-3.62c2.64-6.71,3.42-14,6.83-20.49,2.55-4.83,7.69-7.44,10.41-12.12l2.81-4.65,1.9-.8,4.4-6.52,2.17-4.63c-1.12-.38-2.62-.91-3.71-1.39l-3.34,2.92a8.93,8.93,0,0,1-1.81-1.21l2.4-2.64.11,1.5,1.3-.92,1.84-2.4,2-2.11,1.84-.72,2.4-2.29L1634,564l2.67-1.18c.51.46,1.16,1.11,1.71,1.52a12.16,12.16,0,0,0,3.61,4,26.66,26.66,0,0,0,4.31-1.12c.07,2.82-1.57,5.48-.76,8.36l2.65.45,2.24-3c1.59-1.41,1.59-1.41,2.7-2.48a5.65,5.65,0,0,0-2.28-.16l-.77-.72c1-1.26,3.09-2.23,4.53-3a13,13,0,0,1,0,3.27l3.84,0c.06.23.06.23-4.14,6.53l2.32,1.18,2.12-2.66,2.84-2.19,2.37-.31-1.28,2-.38,3.12-2.17,4.31c-3.48.91-7,1.81-10.43,2.76-.15,0-.35.1-.57.18a6,6,0,0,0-4,5.62c0,2-.07,4.3-.17,5.75l0,.62a1.94,1.94,0,0,0,3.24,1.35l.3-.27,4.21-3.43,4.15-6c12.29-7.52,10.9,11.77,10.47,13.08-2.07,6.31-9.34,1.13-13.85,2.53,2.58,8.1,2.58,8.1-13.28,10.67a5.45,5.45,0,0,0-3.34,1.49c-2.47,1.85-2.17,5.41-4.52,7.33-2.87,2.37-7.11,1.72-9.82,4.44l-2.2,9.23-.92.49c-1.48-.58-1.4-.81-.07-4.95l.5-3.41-2.34-1.23c-1.71-.52-4-1.16-5.68-1.73l-5.52,5-2.57,7.78,1,4.83,2.21.22,2-5.6,3.48,1.19-1.3,3.74c-.31.54-.72,1.26-1,1.8l.45-.07-1.55.24-.69,4,4.06,3.74-1.7,6.66,1.18,3.34,2.4-.47,2.36,3.7,2.16-2.77,3-.88,3.86,4.46,7.07,1.45c1.78,2.94,4.11,6.88,6,9.76l4-.53c8,16.76,9.32,16.92,21.5,18.48l7.68,6.5c-1.63,3.56-4.33,8.12-5.36,11.89"/><path class="cls-3" d="M1610.53,645.33l-.45.07,1-1.8-.57,1.73"/><polyline class="cls-3" points="1611.1 643.6 1611.1 643.6 1611.1 643.6 1611.1 643.6 1611.1 643.6 1611.1 643.6 1611.1 643.6 1611.1 643.6 1611.1 643.6 1611.1 643.6 1611.1 643.6"/><path class="cls-3" d="M1674.67,585l-3,.45c-.47-.28-1.07-.58-1.27-.41s-.09.3-.11.43a9.42,9.42,0,0,1-.91,1.95l-1.72.47c-.55-1.6-.55-1.6-4.44-3.18.17-.45.4-1,.58-1.49.52-.52,1-.69,1.28-.51,2.16,1.2,2.16,1.2,4.41-1.05-.2-.8-.47-1.88-.66-2.69-.62-.74-.62-.74-5.06,1.7-.57.31-1.51,0-2.16,0l2.17-1.88.79-1.6,1.63-2.76,3.46.06.06,2.15,3.79.4a4.07,4.07,0,0,0,.44,1.63c.1.13.25.33.23.49a8.31,8.31,0,0,1-1.14,3l2.69,1.25-1,1.58"/><path class="cls-3" d="M1684.32,572.45a25.2,25.2,0,0,0-3.41-.76c-.64,0-1.17.41-1.8.39l-.31-.05-.62-.12-.81-.15-.89-.18-.87-.18-.74-.15-.52-.11-.19,0,3.59-3.54c.36-1.26.94-1.39,1.06-1.4s6,.37,7.18.53c.39.06.39.06,1.57,2.76l1.63.23-4.87,2.77"/><path class="cls-3" d="M1713.25,574.7a.81.81,0,0,1-.18.19c-.72.58-1.75.29-2.47.87-.56.45-.52,1.18-.81,1.76-2.65,5.3-3.61,6.65-3.94,6.84l-.22.11a7.84,7.84,0,0,1-1.55.25c-2,.48-3.89,1-5.85,1.55a3.74,3.74,0,0,1-2,0c-2.66-.3-2.66-.3-3.21-.32-.92-.05-2.63-.14-5.72,6.16-.84,1.7-1.06,2.15-2.32,2.62-1.46.53-5.08,0-5.3-.81a.74.74,0,0,1,0-.26c.39-1.87,1.2-3.62,1.54-5.5.12-.69-.27-1.4.1-2.07.24-.45.24-.45,4.82-4-2.15-.94-2.15-.94-2.17-1,.08-.51.56-1.94,3.36-4.35-1.37-.18-2.73-.37-4.07-.57l-2-.84c.61-1.76.88-1.74,1.29-1.69,2.35.24,2.35.24,5.13-2.25,2.24-.35,2.24-.35,6.07.11.71-.69,1.66-1.62,2.36-2.32,4.11-.28,8.21.15,12.32.19l1.55,2.45,2.71.75c.62,1.34.62,1.87.52,2.07"/><path class="cls-3" d="M1842.67,602c1.18,3.11,2.79,7.23,3.79,10.4l-2.39-3.68-2.27-7.16c-1.64-2.66-3.77-6.25-5.53-8.83l-1.29-1.86c-3.12-5.06-3.37-5.47-5.51-8l.06-.14c.62.25,2,1.92,4.25,5,1.13,1.58,1.2,1.67,1.72,1.78,2.23,3.73,5.42,8.59,7.17,12.56"/><path class="cls-3" d="M1802,671c-1.78,3.21-1.4,7.13-3.33,10.29-3.43,5.63-8.33,10.08-12.28,15.3.7,3.46,1.67,8.08,2.28,11.56-1.59,7.1-2.51,9.25-3,10.28-1.27,3-6.26,2.17-6.4,6.29-.23,6.56-.23,6.56-.74,7.1l-16.39,14.12c-3.57,2.19-8,1.31-11.62,3.08-4.5-4.72-9.79-23.64-9.82-23.81-.15-.81,1.11-2.28,2.43-3.32,1.08-.84,2.48-7,2.48-7,.4-3.61-.56-5.13-5.19-12.44-1.65-2.6-.55-7.19-.53-10.27l-1.43-1.59c-7.71-6.06-8.7-6.84-18.59-4-3.13.91-5.44,4.27-9.26,3.08s-9.13-8.76-9.18-8.83-3.84-5.68-4-7.07l1.14-16.92c.31-2.34,2.7-2.74,4-4.2,1.48-1.73.49-4.12,1.59-6a33.66,33.66,0,0,1,2.23-2.85c3.8-2.56,4-7.6,7.26-10.53l2,1.79,18.17-4c2.67.56,3.31.69,3.18,5.92-.09,3.77,13.76,4.21,13.9,4.18.24-1,.57-2.34.82-3.35,15.58,3.68,16.78,2.95,19,1.62l3,4.82-1.75,1.26,2.25,3c1.81,3,4.23,6.87,6,9.83l2.26,3.79c7.17,9.57,7.17,9.57,13.27,8.27,4-2.5,4.67-3,5-3.26l.59.18A9.62,9.62,0,0,1,1802,671"/><path class="cls-3" d="M1819.47,568.05l.28.94.87,1.21,7.47,8.08-1.31-.57-.76-.06c-4.43-4.67-4.81-5-6.24-6.2.14.55.14.55,3,3.83-.42.14-1,.31-1.41.43-.12,2.06-.12,2.06,3.89,6.83.75-.06,1.75-.13,2.5-.22,4.22,4.06,5.36,6.49,7.84,11.81,2,4.48,7,7.36,7,12.9-1.91-1.28-2.45-3.66-4.13-5.13,1.7,10.81,11.7,18.53,11.21,30.15l-1,2.41-.45,5.89,1.31,3.74,1.63,4.43v4.57l-.57,3.46c-.82-2.12-1.81-5-2.73-7,.64,4.18,1.1,8.41,1.35,12.67,3.52,5.22.21,11.84,3.53,17.1.68-.56.68-.56,1.48-2.65a4.21,4.21,0,0,1,.06.79l-.61,4-.08.06-.78,1.59-1.48,3.47a39.18,39.18,0,0,0-1.38-3.71,150.93,150.93,0,0,0-3.09-16.1l-1.22-1.78,1-5.36-.08-2.28-1.35-6.92-1.51-1.72-3.08-5.62-3.41-.8c-2.41,3.22-7.47,17.19-1.09,24.59l1,2.93c.18,2.39,0,2.76-2.49,3.08-1.61-2.41-3.73-5.65-5.38-8-1.6-.72-1.6-.75-2-2.43-1.74-7-3.86-10.42-8.07-17.27-6.82-4.84-8.31-5.17-8.94-5.3a32.41,32.41,0,0,1-4.29,4.08c-.27,3.55,2.41,5.92,3.53,8.92l-5.26,6.51-5.72,2,.29,5.54-4.83,1.28c-3.22-.09-4.75-3-6.86-7l-4-1.61c-2.78-4.57-6.5-10.65-9.33-15.18l-3-4.82-.86-1.35,1.45-5.57.38-3.27c-.44-2.23-.91-4.43-1.4-6.62l5.09,1.41,5.09-1.76c0-.1,3.31-14.56,1.94-25.12-.93-.72-2.17-1-2.94-1.93.16-1.16.16-1.16,2.61-4.38-3.52-8.36-4.86-9.42-7.79-11.74-1-.76-1.72-1.36-2.11-4,1.54-1.75,3.71-.75,5.53-1.29-.28-.81-.66-1.88-1-2.69l-4.71-2.81a6.46,6.46,0,0,1-1.14-1.94l.19-.28c7.32-.32,13.75,3.36,20.72,4.62,1.44-.78,3.35-1.84,4.73-2.72,2.45,1.62,2.58,1.66,3.42,2,2.64-4,2.64-4,8.28-5.69a7.24,7.24,0,0,0-1.07-3,14.32,14.32,0,0,1,2-1.06l3.23,1.55c1.1.74,2.61,1.68,3.67,2.48l3.44,3.78"/><path class="cls-3" d="M1723.54,603.19c-.92,1.48-1.65,1.91-4.71,3.72l-.81-.44.24-3.08,1.47-1.24-2.34-2-.6-4.6,1.72-1.2.56,1.93a13.21,13.21,0,0,0,2,1.77,7.75,7.75,0,0,1,2.22,2c.06.09.85,2.22.27,3.14"/><path class="cls-3" d="M1778.22,583.19c1.24,2.52,2.72,4.91,3.86,7.48-.72,1.48-2.66,2.09-2.8,4,0,0-.08,1.37,2.34,2,2.07.56.87,10.39.85,10.49-.84,5-.06,10.19-2,15l-5.12,1.83-5.09-1.41-.16,0c-.6.72-.6.72-2,6.21-.09.06-9.4,3.64-10.62-.34,1.57-1.4,3.66-1.64,5.5-2.47-2-1.6-2-1.6-9.9-1.46.07,1.51.15,3.54.21,5.05l-.1,2.17-3.52-4.07-4.89-3.78-2.45-4.28-3-.82-2.38-.48c-.2.71.39,6.32,4.78,5.76l3.54,3.1-1,1-2-1.27L1743,630l-1.86.48-1.37-.72.92-2.58-1.78-1.47-2,.07-2.81-3.76-1.84-.34c-1.6-.31-1.77-.17-2.16.14a6.13,6.13,0,0,1-.55,2.16L1726,622.2l-.7,1.73-3.67,6-1.34,2.34a21.75,21.75,0,0,1-3.9.2l-5.52-1.55c-1.14-8.75,2-12.78,4.62-11.6,1.35.61,1.13,3.12,3.11,2.85,1.62-.22,1.62-.22,3.76-3.79l-1.59-2.08-2.09-1.52a20.34,20.34,0,0,0,2.8-1.86l-2-1.06c3.26-1.9,3.85-2.24,5.08-4.2l.13.83,3.24-.42.88-2.76,1.86.51,1.33.16c-.78-2.34-.75-2.91-.73-3.41a5.79,5.79,0,0,1,2.45-1.16,14.23,14.23,0,0,1,.17,3.23c2,.05,3.89.5,5.85.66l1.41-2.05,1.91,1.9,2.8-2.18a12,12,0,0,1-1.66-3.18,16.81,16.81,0,0,1,2.22-.27l1.83-2.66c-6.76-.63-6.68-2.33-5.47-7.16l-4.61,2.35c-.66,3.06-.66,3.06,1.47,5.29l-1.67,2.64c-2.62,1.83-4-2.07-6.26-2.62l-1.76,2-1.47-.86c-.46-1.06-1.63-4.44-1.32-5.06a42.55,42.55,0,0,1,4.61-2.51,3.37,3.37,0,0,0,1.46-.86c1.25-1.28.28-3.39,1.72-4.61,2.9-2.45,4.35-2.67,13.79-4.1,2.59,2.51,2.59,2.51,5.12,2.75,1.56.15,3,.73,2.21,4l-5.28-1.17c-.16,4.67,5.9,2.62,6.22,2.38a6.78,6.78,0,0,0,1.13-2.14l1.33-.33,2.78-3.48,4.3-.31,2.77-1,1.32-.76,2.75,1.94.49-.8-1.22-1.52-3.2-1.83-.13-2c.34-.58.37-.59.79-.81,1.07.19,7.21,5.09,8.14,7"/><path class="cls-3" d="M1712.43,608.92c-3-.26-3-.26-3.25-.59a13.81,13.81,0,0,1-1.1-1.85,9.81,9.81,0,0,1,.5-2.69l2.24-1.19.91-.39,1.51-2.2,1.72,2.56.37,2.69-2.9,3.66"/><path class="cls-3" d="M1855.55,661.06c0,2.13-.1,3.14-.32,6.88l-.32,4.17a22.53,22.53,0,0,1-.3,2.33c-.14-.11-.14-.11-.17-1.63l-.26,1.9-1.16-.21c-.89-1.26-.87-3.37-.8-9.64.16-1.37,1.09-2.5,1.21-3.89.21-2.62-.1-5.25.28-7.86a9.34,9.34,0,0,1,.4-1.37c1.17,2.52.76,5.31,1.4,7.92a9.92,9.92,0,0,1,0,1.4"/><path class="cls-3" d="M1855,646.8c0,.49.21,2.3.33,4.81l-1.71-9.3c-.4-1.78-1.1-3.47-1.54-5.23-.11-.47-.17-.7-.4-2.14l.22.41c.11-2.05-1.44-3.81-1-5.91,0,0,3,6.45,4.1,17.36"/><path class="cls-3" d="M1800.67,713a15,15,0,0,1-.83,3.26c-1.29,2.39-4,3.51-5.35,5.8a5.57,5.57,0,0,0-.81,2.38,13.47,13.47,0,0,1-2.4,5.95,6,6,0,0,1-3,2.74l-2.36-2.65,1-2,2-4.58c.57-2.13.46-2.34.28-2.67-1.87-3.59,2.76-3.36,2.81-3.35,1.12.12,1.12.12,6-7.18a2.94,2.94,0,0,1,1.07-.59s2-.09,1.55,2.9"/><path class="cls-3" d="M1847.62,704.4c-1.79,4.4-4.21,10.26-6.26,14.55l-.62,1.19-1,1.7-.85,1.22c0-.37,0-.37,1.46-3a89.32,89.32,0,0,0,5.77-12.66,3.87,3.87,0,0,1-.26-.67c4.9-12.39,4.9-12.39,5.37-14.13l.89-3.62.14-.6c-1.29,4.84-2.94,11.33-4.69,16"/><path class="cls-5" d="M1726.39,871.08c-26.41-19.3-93-71.34-129-129.41C1563.2,688.25,1568.21,578,1573,531.51c2.2.08,4.55.11,7,.11a340.88,340.88,0,0,0,37.12-2.31c28.66-3.13,58.5-15.87,88.65-37.87,5.27-3.84,13.17-10.11,20.63-16.63,23.11,20.36,63.93,48.84,108.89,54.46a279.45,279.45,0,0,0,34.78,2.32c3.49,0,6.71-.06,9.68-.16,4.78,46.41,9.84,156.75-24.21,210C1819.44,799.7,1752.8,851.78,1726.39,871.08Z"/><path class="cls-6" d="M1577.72,639.55h300.88a3.78,3.78,0,0,1,3.78,3.78v71.25a3.78,3.78,0,0,1-3.78,3.78H1577.72a0,0,0,0,1,0,0V639.55A0,0,0,0,1,1577.72,639.55Z" transform="translate(1051.09 2409.02) rotate(-90)"/><path class="cls-7" d="M1612.94,617.49h230.74a2.81,2.81,0,0,1,2.81,2.81v59.34a2.81,2.81,0,0,1-2.81,2.81H1612.94a0,0,0,0,1,0,0v-65A0,0,0,0,1,1612.94,617.49Z" transform="translate(1079.74 2379.69) rotate(-90)"/><rect class="cls-6" x="1719.84" y="779.42" width="20.43" height="124.19" transform="translate(888.54 2571.57) rotate(-90)"/><rect class="cls-6" x="1725.01" y="914.54" width="10.1" height="78.82" transform="translate(776.11 2684.01) rotate(-90)"/><rect class="cls-8" x="1681.48" y="879.48" width="97.16" height="41.67" transform="translate(829.74 2630.37) rotate(-90)"/><polygon class="cls-9" points="1718.2 504.04 1706.42 530.59 1753.7 530.59 1741.91 504.04 1718.2 504.04"/><line class="cls-10" x1="1730.06" y1="496.1" x2="1730.06" y2="330.82"/><polygon class="cls-9" points="1723.14 491.64 1718.2 508.47 1741.91 508.47 1736.97 491.64 1723.14 491.64"/><rect class="cls-11" x="1726.59" y="731.01" width="6.94" height="54.44" transform="translate(971.83 2488.28) rotate(-90)"/><rect class="cls-11" x="1695.26" y="785.06" width="69.6" height="22.88" transform="translate(933.56 2526.56) rotate(-90)"/><rect class="cls-12" x="1717.51" y="718.22" width="25.1" height="47.96" transform="translate(987.86 2472.26) rotate(-90)"/><rect class="cls-13" x="1629.96" y="609.31" width="200.19" height="47.96" transform="translate(1096.77 2363.35) rotate(-90)"/><path class="cls-14" d="M1762.2,554.74c0,11.89-4.54,21.53-10.15,21.53s-10.14-9.64-10.14-21.53,4.54-21.54,10.14-21.54S1762.2,542.84,1762.2,554.74Z"/><g class="cls-15"><line class="cls-16" x1="1690.65" y1="536.23" x2="1712.55" y2="536.23"/><line class="cls-17" x1="1690.65" y1="544.71" x2="1708.18" y2="544.71"/><line class="cls-17" x1="1690.65" y1="553.2" x2="1708.18" y2="553.2"/><line class="cls-17" x1="1690.65" y1="561.69" x2="1708.18" y2="561.69"/><line class="cls-17" x1="1690.65" y1="570.17" x2="1708.18" y2="570.17"/><line class="cls-16" x1="1690.65" y1="578.66" x2="1712.55" y2="578.66"/><line class="cls-17" x1="1690.65" y1="587.14" x2="1708.18" y2="587.14"/><line class="cls-17" x1="1690.65" y1="595.63" x2="1708.18" y2="595.63"/><line class="cls-17" x1="1690.65" y1="604.12" x2="1708.18" y2="604.12"/><line class="cls-17" x1="1690.65" y1="612.6" x2="1708.18" y2="612.6"/><line class="cls-16" x1="1690.65" y1="621.09" x2="1712.55" y2="621.09"/><line class="cls-17" x1="1690.65" y1="629.57" x2="1708.18" y2="629.57"/><line class="cls-17" x1="1690.65" y1="638.06" x2="1708.18" y2="638.06"/><line class="cls-17" x1="1690.65" y1="646.55" x2="1708.18" y2="646.55"/><line class="cls-17" x1="1690.65" y1="655.03" x2="1708.18" y2="655.03"/><line class="cls-16" x1="1690.65" y1="663.52" x2="1712.55" y2="663.52"/><line class="cls-17" x1="1690.65" y1="672" x2="1708.18" y2="672"/><line class="cls-17" x1="1690.65" y1="680.49" x2="1708.18" y2="680.49"/><line class="cls-17" x1="1690.65" y1="688.97" x2="1708.18" y2="688.97"/><line class="cls-17" x1="1690.65" y1="697.46" x2="1708.18" y2="697.46"/><line class="cls-16" x1="1690.65" y1="705.95" x2="1712.55" y2="705.95"/><line class="cls-17" x1="1690.65" y1="714.43" x2="1708.18" y2="714.43"/><line class="cls-17" x1="1690.65" y1="722.92" x2="1708.18" y2="722.92"/><line class="cls-17" x1="1690.65" y1="731.4" x2="1708.18" y2="731.4"/><line class="cls-17" x1="1690.65" y1="739.89" x2="1708.18" y2="739.89"/></g><path class="cls-18" d="M1732.78,491.64h-9.64L1719.5,504h-1.3l-10,22.59h-3.72a13.81,13.81,0,0,0-13.81,13.81V831.3H1668v20.43h23.64V831.3h22.69V540.44a13.62,13.62,0,0,1,1.73-6.66c4.93-8.82,9.77-17.71,12.74-27.38C1730.26,501.51,1731.66,496.6,1732.78,491.64Z"/><polygon class="cls-18" points="1726.02 948.9 1726.02 851.73 1709.22 851.73 1709.22 948.9 1690.65 948.9 1690.65 959 1714.29 959 1714.29 948.9 1726.02 948.9"/></g><g id="Calque_2-2" data-name="Calque 2"><g id="Foire_à_questions" data-name="Foire à questions" class="cls-1"><text class="cls-1"/></g><g id="Les_réponses_aux_questions_fréquentes_posées_autour_de_la_vaccination_contre_la_COVID-19_en_Algerie" data-name="Les réponses aux questions fréquentes posées autour de la vaccination contre la COVID-19 en Algerie" class="cls-1"><text class="cls-19" transform="translate(32 422.72) scale(0.65 1)"><tspan class="cls-20">L</tspan><tspan x="22.33" y="0">a cam</tspan><tspan class="cls-21" x="138.19" y="0">p</tspan><tspan class="cls-22" x="163.69" y="0">a</tspan><tspan class="cls-23" x="186.06" y="0">g</tspan><tspan class="cls-22" x="211.98" y="0">n</tspan><tspan x="237.64" y="0">e de </tspan><tspan class="cls-24" x="328.7" y="0">v</tspan><tspan class="cls-22" x="348.58" y="0">a</tspan><tspan class="cls-25" x="370.95" y="0">c</tspan><tspan x="391.88" y="0">cination </tspan><tspan class="cls-25" x="555.88" y="0">c</tspan><tspan class="cls-23" x="576.81" y="0">ont</tspan><tspan class="cls-26" x="641.43" y="0">r</tspan><tspan x="656.09" y="0">e le virus de la </tspan><tspan class="cls-27" x="932.01" y="0">C</tspan><tspan class="cls-28" x="958.31" y="0">o</tspan><tspan x="981.43" y="0">vid</tspan><tspan class="cls-29" x="1037.69" y="0">-</tspan><tspan x="1051.49" y="0">19 </tspan><tspan class="cls-24" x="1098.04" y="0">v</tspan><tspan x="1117.92" y="0">a </tspan><tspan class="cls-30" x="1150.11" y="0">c</tspan><tspan class="cls-23" x="1171.05" y="0">ouv</tspan><tspan class="cls-31" x="1240.65" y="0">r</tspan><tspan x="1255.5" y="0">ir </tspan><tspan class="cls-32" x="1290.71" y="0">t</tspan><tspan x="1305.34" y="0">out le </tspan><tspan class="cls-33" x="1422.59" y="0">t</tspan><tspan x="1437.21" y="0">e</tspan><tspan class="cls-31" x="1460.03" y="0">rr</tspan><tspan x="1489.74" y="0">i</tspan><tspan class="cls-32" x="1499.9" y="0">t</tspan><tspan class="cls-23" x="1514.52" y="0">oi</tspan><tspan class="cls-26" x="1548.38" y="0">r</tspan><tspan x="1563.04" y="0">e algé</tspan><tspan class="cls-31" x="1676.97" y="0">r</tspan><tspan x="1691.82" y="0">ien et </tspan><tspan class="cls-30" x="1808.35" y="0">c</tspan><tspan class="cls-23" x="1829.29" y="0">o</tspan><tspan class="cls-22" x="1852.98" y="0">n</tspan><tspan class="cls-25" x="1878.63" y="0">c</tspan><tspan x="1899.57" y="0">e</tspan><tspan class="cls-31" x="1922.39" y="0">r</tspan><tspan class="cls-22" x="1937.24" y="0">n</tspan><tspan x="1962.9" y="0">e</tspan><tspan class="cls-25" x="1985.72" y="0">r</tspan><tspan x="2000.53" y="0">a u</tspan><tspan class="cls-22" x="2058.16" y="0">n</tspan><tspan x="2083.81" y="0">e population de plus de 18 ans,</tspan><tspan x="0" y="45.34">en p</tspan><tspan class="cls-31" x="83.92" y="45.34">r</tspan><tspan x="98.77" y="45.34">io</tspan><tspan class="cls-31" x="132.63" y="45.34">r</tspan><tspan x="147.48" y="45.34">isant les </tspan><tspan class="cls-27" x="310.61" y="45.34">P</tspan><tspan class="cls-26" x="336.87" y="45.34">r</tspan><tspan class="cls-23" x="351.53" y="45.34">o</tspan><tspan class="cls-25" x="375.22" y="45.34">f</tspan><tspan x="387.69" y="45.34">ession</tspan><tspan class="cls-22" x="506.91" y="45.34">n</tspan><tspan x="532.57" y="45.34">els de San</tspan><tspan class="cls-32" x="723.39" y="45.34">t</tspan><tspan x="738.01" y="45.34">é, les au</tspan><tspan class="cls-33" x="887.83" y="45.34">t</tspan><tspan x="902.46" y="45.34">o</tspan><tspan class="cls-31" x="926.15" y="45.34">r</tspan><tspan x="941" y="45.34">i</tspan><tspan class="cls-32" x="951.16" y="45.34">t</tspan><tspan x="965.79" y="45.34">és publiques, les </tspan><tspan class="cls-25" x="1285.61" y="45.34">f</tspan><tspan x="1298.08" y="45.34">o</tspan><tspan class="cls-26" x="1321.77" y="45.34">r</tspan><tspan class="cls-25" x="1336.44" y="45.34">c</tspan><tspan x="1357.37" y="45.34">es de sécu</tspan><tspan class="cls-34" x="1554.92" y="45.34">r</tspan><tspan class="cls-35" x="1569.77" y="45.34">i</tspan><tspan class="cls-33" x="1579.93" y="45.34">t</tspan><tspan x="1594.56" y="45.34">é et le pe</tspan><tspan class="cls-36" x="1766.67" y="45.34">r</tspan><tspan x="1781.67" y="45.34">son</tspan><tspan class="cls-22" x="1849.43" y="45.34">n</tspan><tspan x="1875.08" y="45.34">el de l’</tspan><tspan class="cls-31" x="1994.49" y="45.34">E</tspan><tspan x="2019.46" y="45.34">ducation Nationale,</tspan><tspan x="0" y="90.69">et </tspan><tspan class="cls-21" x="48.06" y="90.69">p</tspan><tspan x="73.57" y="90.69">ar la sui</tspan><tspan class="cls-33" x="217.35" y="90.69">t</tspan><tspan x="231.97" y="90.69">e, et de </tspan><tspan class="cls-37" x="379.11" y="90.69">f</tspan><tspan class="cls-22" x="391.54" y="90.69">a</tspan><tspan class="cls-25" x="413.91" y="90.69">ç</tspan><tspan class="cls-23" x="434.85" y="90.69">on p</tspan><tspan class="cls-26" x="519.64" y="90.69">r</tspan><tspan x="534.3" y="90.69">og</tspan><tspan class="cls-26" x="583.92" y="90.69">r</tspan><tspan class="cls-35" x="598.58" y="90.69">essi</tspan><tspan class="cls-38" x="668.52" y="90.69">v</tspan><tspan x="688.43" y="90.69">e et </tspan><tspan class="cls-39" x="769.22" y="90.69">p</tspan><tspan x="794.73" y="90.69">ar t</tspan><tspan class="cls-25" x="857.42" y="90.69">r</tspan><tspan x="872.23" y="90.69">a</tspan><tspan class="cls-20" x="894.52" y="90.69">n</tspan><tspan class="cls-40" x="920.18" y="90.69">c</tspan><tspan class="cls-22" x="941.15" y="90.69">h</tspan><tspan x="966.81" y="90.69">e d</tspan><tspan class="cls-37" x="1025.15" y="90.69">’</tspan><tspan class="cls-22" x="1032.78" y="90.69">â</tspan><tspan x="1055.15" y="90.69">ge, au </tspan><tspan class="cls-26" x="1179.43" y="90.69">r</tspan><tspan x="1194.09" y="90.69">es</tspan><tspan class="cls-33" x="1235.39" y="90.69">t</tspan><tspan x="1250.02" y="90.69">e de la population, et </tspan><tspan class="cls-30" x="1657.01" y="90.69">c</tspan><tspan x="1677.95" y="90.69" xml:space="preserve">e,  </tspan><tspan class="cls-25" x="1728.58" y="90.69">c</tspan><tspan x="1749.52" y="90.69">on</tspan><tspan class="cls-25" x="1798.79" y="90.69">f</tspan><tspan x="1811.26" y="90.69">o</tspan><tspan class="cls-31" x="1834.95" y="90.69">r</tspan><tspan class="cls-20" x="1849.8" y="90.69">m</tspan><tspan x="1889.97" y="90.69">é</tspan><tspan class="cls-20" x="1912.79" y="90.69">m</tspan><tspan x="1952.96" y="90.69">ent aux </tspan><tspan class="cls-26" x="0" y="136.03">r</tspan><tspan x="14.66" y="136.03">e</tspan><tspan class="cls-25" x="37.48" y="136.03">c</tspan><tspan x="58.42" y="136.03">omma</tspan><tspan class="cls-22" x="184.59" y="136.03">n</tspan><tspan x="210.25" y="136.03">dations de l’O</tspan><tspan class="cls-26" x="469.54" y="136.03">r</tspan><tspan x="484.2" y="136.03">ganisation Mo</tspan><tspan class="cls-20" x="753.39" y="136.03">n</tspan><tspan x="779.05" y="136.03">diale de la San</tspan><tspan class="cls-33" x="1051.83" y="136.03">t</tspan><tspan x="1066.45" y="136.03">é.</tspan><tspan class="cls-26" x="0" y="226.72">P</tspan><tspan x="26.64" y="226.72">our assu</tspan><tspan class="cls-26" x="185.49" y="226.72">r</tspan><tspan class="cls-35" x="200.16" y="226.72">er l’immuni</tspan><tspan class="cls-32" x="417.73" y="226.72">t</tspan><tspan x="432.35" y="226.72">é du g</tspan><tspan class="cls-26" x="551.95" y="226.72">r</tspan><tspan x="566.61" y="226.72">oupe et </tspan><tspan class="cls-39" x="722.14" y="226.72">p</tspan><tspan x="747.65" y="226.72">ar </tspan><tspan class="cls-25" x="794.99" y="226.72">c</tspan><tspan x="815.93" y="226.72">onséquent mitiger la t</tspan><tspan class="cls-25" x="1238.45" y="226.72">r</tspan><tspan x="1253.27" y="226.72">ansmission du virus, </tspan><tspan class="cls-41" x="0" y="272.07" xml:space="preserve">																																		</tspan><tspan x="1284.75" y="272.07">il </tspan><tspan class="cls-37" x="1314.98" y="272.07">f</tspan><tspan x="1327.41" y="272.07">aut </tspan><tspan class="cls-24" x="1400.38" y="272.07">v</tspan><tspan class="cls-20" x="1420.26" y="272.07">a</tspan><tspan class="cls-25" x="1442.62" y="272.07">c</tspan><tspan x="1463.56" y="272.07">ci</tspan><tspan class="cls-22" x="1495" y="272.07">n</tspan><tspan x="1520.65" y="272.07">er au </tspan><tspan class="cls-20" x="1626.15" y="272.07">m</tspan><tspan x="1666.32" y="272.07">oins </tspan><tspan class="cls-42" x="1754.14" y="272.07">7</tspan><tspan x="1775.64" y="272.07">0% de la population cible.</tspan></text></g><g id="Informations_sur_le_vaccin" data-name="Informations sur le vaccin" class="cls-1"><text class="cls-43" transform="translate(259.02 328.9) scale(0.73 1)">Opé<tspan class="cls-44" x="225.16" y="0">r</tspan><tspan x="269.26" y="0">ation de </tspan><tspan class="cls-45" x="746.41" y="0">v</tspan><tspan class="cls-46" x="806.73" y="0">a</tspan><tspan class="cls-47" x="871.52" y="0">c</tspan><tspan x="932.25" y="0">cination</tspan></text></g><line class="cls-48" x1="267" y1="350.5" x2="1265.5" y2="350.5"/></g></g></g></svg>