<svg xmlns="http://www.w3.org/2000/svg" viewBox="0 0 316.01 96.5"><defs><style>.cls-1{fill:#212121;}.cls-2{fill:#20a1db;}</style></defs><title>txt</title><g id="Calque_2" data-name="Calque 2"><g id="Calque_2-2" data-name="Calque 2"><path class="cls-1" d="M0,94.91C4.61,83.37,8.67,73.23,12.73,63.09l1.94.59c-.25,3.4-.74,6.8-.69,10.19.17,11.58,12.47,21.06,23.76,18.45,9.2-2.13,13.1-11.44,7.74-20.16-3.25-5.27-7.78-9.76-11.83-14.52-2.46-2.89-5.2-5.54-7.65-8.44-5.53-6.54-6.93-13.93-3.32-21.75S32.89,16.09,41.24,15.26c8.88-.89,15.92,2.37,21.31,9.94,1.89-2.18,3.36-3.87,4.84-5.56L69,20.4,62.6,45.93l-2.17-.23a23.94,23.94,0,0,0,0-4.94c-1.14-5.28-1.56-11-4-15.64C52.46,17.76,42.46,16,36.12,20.53,30,24.89,29.32,33,35,40.14c4,5,8.61,9.62,12.94,14.4.51.56,1,1.15,1.49,1.73C59.66,68.08,61,77.76,53.76,86.85c-7.65,9.56-22.67,11.71-34.7,5-8.18-4.59-8.17-4.58-15.39,1.11A33.42,33.42,0,0,1,0,94.91Z"/><path class="cls-1" d="M84.64,47.87,72.77,59.05c0-7,11.7-17,17.62-15.15,4.29,1.3,5.12,4.85,3.78,8.74-3,8.61-6.29,17.09-9.09,25.75-1.2,3.73-1.47,7.78-2.16,11.68l2.3,1.23c2.77-2.57,6.33-4.68,8.18-7.79q10.27-17.33,19.52-35.25c1.91-3.68,3.87-5.24,8.75-3.75-5,14.79-10,29.48-15.25,45,8.74.13,9.53-8.37,15.2-10.4-.57,6.78-10.56,16.09-16.69,16.32-3.7.13-4.78-1.93-4.85-4.83-.07-3.2.37-6.41.67-11-2.25,2.64-3.64,4.54-5.29,6.16-2.84,2.77-5.51,6-8.91,7.83-2.46,1.32-6.83,1.88-8.8.53s-3.29-5.85-2.62-8.38c2.79-10.6,6.44-21,9.75-31.46.55-1.72,1-3.48,1.45-5.22Z"/><path class="cls-1" d="M261.11,47.05l7.78-4,1.24,1.42c-2.44,7.45-5,14.88-7.3,22.37s-4.44,15-6.64,22.54l2.06,1.5,12-9.14C269.75,88,257.64,97,252.08,95.05c-1.33-.47-2.45-2.55-2.92-4.12s-.11-3.58-.11-5.13c-4.61,2.93-8.7,6.42-13.44,8.34-8.15,3.29-13.92-1.17-13.83-10a20.55,20.55,0,0,1,.85-5.61,58,58,0,0,1,23.45-32.59C253.06,41.2,257,42,261.11,47.05Zm-4,7.16c-.8-1.47-1.66-5.35-3.87-6.41-1.86-.9-5.92.79-7.92,2.56-8.68,7.64-12.33,18.09-14,29.1-.46,3,1.79,6.47,2.8,9.73,3.2-1.18,7.33-1.47,9.44-3.69C251.28,77.3,255.42,67.16,257.08,54.21Z"/><path class="cls-1" d="M310.15,77.91c-3.43,14.92-20.54,22.33-28.76,16A13.87,13.87,0,0,1,276.54,86c-2.4-14.18,13.21-37.88,27.25-41.8,4.15-1.16,8.59-1.39,11.3,2.76,1.07,1.64,1,4.29.76,6.39-.11.8-2.68,2.16-3.45,1.8-1.61-.74-3.48-2.23-4-3.82-1.56-4.95-4.4-5-7.59-2.17-11.13,10-15.19,22.89-14.24,37.41.35,5.26,4.93,7.3,9.67,4.4,3.49-2.13,6.28-5.4,9.33-8.22C306.83,81.63,307.92,80.31,310.15,77.91Z"/><path class="cls-1" d="M137.88,91.47c7.89,1.84,10.48-5.94,17-6.5-1.39,1.7-2.46,3.93-4.24,5-4,2.36-8.19,4.93-12.63,6-5.42,1.24-8.56-2.86-6.64-8,3.84-10.43,8-20.74,12-31.14a79.61,79.61,0,0,0,2.12-7.89L144,47.61l-11.84,8c1.42-6.12,12.56-13.8,17.73-12.74,4,.83,5.58,4.5,3.56,9.64-3.39,8.6-7.13,17.06-10.62,25.62C141.14,82.38,139.65,86.72,137.88,91.47Z"/><path class="cls-2" d="M190.87,64.6c-3.81,10.68-7.35,20.59-10.88,30.5l-.59-.18c.22-5.14.53-10.28.64-15.43.32-15.17-1.16-30.1-6.2-44.52-4.46-12.79-11.43-23.73-23.11-31.18A8.06,8.06,0,0,1,150,3.2l.27-.65c4.15,1.56,8.37,2.94,12.42,4.72,9.12,4,17.13,9.53,23.17,17.68a33.28,33.28,0,0,1,6.59,19.92c0,2.19,0,4.38,0,7.31a14.15,14.15,0,0,0,1.27-1.9c2-4.85,3.89-9.73,5.92-14.55.54-1.28.38-2.06-.92-2.45-2.24-.66-2.28-2-1.25-3.71a3.14,3.14,0,0,0,.18-.46c1.3-3.22,1.3-3.23,4.47-1.95,6.75,2.75,13.48,5.55,20.26,8.21,1.8.71,2.3,1.6,1.38,3.31a14.57,14.57,0,0,0-.84,2c-.46,1.3-1.22,2-2.59,1.2-1.85-1.08-2.55-.14-3.2,1.52-2.57,6.56-5.3,13.06-7.85,19.62-.73,1.87-1.57,2.35-3.47,1.5-3.67-1.64-7.4-3.12-11.17-4.51-1-.38-3.15-.53-3.29-.19-.89,2.21,1.31,2.18,2.48,2.7,3.15,1.39,6.37,2.6,9.55,3.91.89.37,1.74.81,3.4,1.58-3.79,1.36-5.71,5-9.82,4C193.28,71.19,191,69,190.87,64.6Zm14.51-11.25.42-1a31.35,31.35,0,0,1,3.34,1.16c1.46.68,2.2.26,2.77-1.21s.4-2.29-1.15-2.83a31.4,31.4,0,0,1-3.23-1.5l.32-.91a19.42,19.42,0,0,0,2.11.47c1.36.16,2.8,2.31,4-.41s-1-2.73-2.33-3.51a16.48,16.48,0,0,1-1.86-1.37l.37-.7c1.19.4,2.38.76,3.55,1.21s2.09.6,2.23-.81a2.6,2.6,0,0,0-1.06-2.13c-3.67-1.62-7.44-3-11.15-4.54-1.23-.49-2-.3-2.47,1q-3.92,9.81-8,19.57c-.55,1.32-.14,2,1.07,2.44,3.8,1.53,7.56,3.14,11.39,4.59.52.2,1.32-.33,2-.53-.3-.64-.44-1.53-.94-1.86a25.83,25.83,0,0,0-3.63-1.75l.3-1a32,32,0,0,1,3.59,1.16c1.37.6,2.06.24,2.59-1.14s.64-2.32-1-2.9C207.54,54.46,206.47,53.86,205.38,53.35Z"/><path class="cls-2" d="M217.9,30.83c-3.16-1.3-6-2.4-8.84-3.7a2,2,0,0,1-.72-1.84q2.74-7.2,5.78-14.29a2.19,2.19,0,0,1,2-.79,61.4,61.4,0,0,1,7.23,3,2.22,2.22,0,0,1,.82,2C222.22,20.3,220.12,25.35,217.9,30.83Z"/><path class="cls-2" d="M231.83,7.34c-.84,1.92-1.44,3.53-2.26,5-.17.31-1.19.43-1.67.25-4.86-1.91-9.68-3.92-14.54-5.85-1.26-.5-1.52-1.18-1-2.44,2.41-5.56,1.29-4.86,6.35-2.89q5.58,2.19,11.1,4.52A11.65,11.65,0,0,1,231.83,7.34Z"/><path class="cls-2" d="M193.69,72.92c1.8.06,2.21.74,1.61,2.2-2.55,6.18-5,12.41-7.64,18.54-.49,1.12-1.76,1.9-2.68,2.84l-.66-.47Z"/></g></g></svg>